<svg xmlns="http://www.w3.org/2000/svg" width="184.092" height="92.189" viewBox="0 0 184.092 92.189">
  <g id="Group_9570" data-name="Group 9570" transform="translate(-181.139 -63.679)">
    <g id="Group_9567" data-name="Group 9567" transform="translate(182.519 126.446)">
      <g id="Group_9566" data-name="Group 9566">
        <g id="Group_9565" data-name="Group 9565">
          <path id="Path_12099" data-name="Path 12099" d="M185.062,98.947c-2.47,0-3.37-1.17-3.37-3a3.017,3.017,0,0,1,3.243-3.193,8.017,8.017,0,0,1,2.587.452v4.8h1.427v.938Zm1.3-4.952a3.966,3.966,0,0,0-1.557-.3,1.891,1.891,0,0,0-1.916,2.123c0,1.467.681,2.188,2.342,2.188h1.13ZM183.2,91.022a.681.681,0,0,1,1.362,0,.688.688,0,0,1-.681.7A.673.673,0,0,1,183.2,91.022Zm1.891,0a.69.69,0,0,1,.7-.681.667.667,0,0,1,.669.681.682.682,0,1,1-1.365,0Z" transform="translate(-181.692 -86.597)" fill="#1e1e1e"/>
          <path id="Path_12100" data-name="Path 12100" d="M184.524,96.476h2.584V91.367h1.185v6.047h-3.769Zm1.093,3.55a.689.689,0,0,1,0-1.377.679.679,0,0,1,.683.681A.69.69,0,0,1,185.617,100.026Zm1.9,0a.689.689,0,1,1,0-1.377.669.669,0,0,1,.671.681A.68.68,0,0,1,187.52,100.026Z" transform="translate(-177.459 -85.063)" fill="#1e1e1e"/>
          <path id="Path_12101" data-name="Path 12101" d="M186.2,100.54l.142-.978a3.685,3.685,0,0,0,1.287.22c1.068,0,1.711-.514,1.711-2.2V91.367h1.182v5.109h1.414v.938h-1.414v.065c0,1.826-.669,3.243-2.984,3.243A5.268,5.268,0,0,1,186.2,100.54Z" transform="translate(-174.947 -85.063)" fill="#1e1e1e"/>
          <path id="Path_12102" data-name="Path 12102" d="M188.433,93.415h1.674v.938h-1.674Z" transform="translate(-171.617 -82.002)" fill="#1e1e1e"/>
          <path id="Path_12103" data-name="Path 12103" d="M188.433,93.415h1.674v.938h-1.674Z" transform="translate(-171.617 -82.002)" fill="#1e1e1e"/>
          <path id="Path_12104" data-name="Path 12104" d="M189.027,98.9h.449c.913,0,1.325-.412,1.325-1.8V94.56h1.185V97.2c0,1.108.257,1.789,1.21,1.789.926,0,1.195-.7,1.195-1.789V94.044h1.145v3.1c0,1.34.334,1.751,1.7,1.751h.591a17.717,17.717,0,0,0,.1-1.789,14.283,14.283,0,0,0-.424-3.552l1.158-.2A14.59,14.59,0,0,1,199.113,97c0,.581-.04,1.262-.09,1.893h1.427v.938h-3.46c-1.222,0-1.891-.309-2.163-1.028a1.812,1.812,0,0,1-1.814,1.13,1.679,1.679,0,0,1-1.814-1.13,1.6,1.6,0,0,1-1.736,1.028h-.437Zm4.243-6.987a.679.679,0,0,1,.684-.681.668.668,0,0,1,.681.681.682.682,0,1,1-1.365,0Zm.98-1.492a.649.649,0,1,1,.654.656A.642.642,0,0,1,194.251,90.417Zm.926,1.492a.681.681,0,0,1,1.362,0,.69.69,0,0,1-.681.7A.673.673,0,0,1,195.176,91.908Z" transform="translate(-170.729 -87.483)" fill="#1e1e1e"/>
          <path id="Path_12105" data-name="Path 12105" d="M193.534,96.476h1.878V91.367h1.182v5.109h1.429v.938h-4.49Zm.913,2.869a.7.7,0,0,1,1.4,0,.7.7,0,0,1-.708.694A.685.685,0,0,1,194.447,99.345Z" transform="translate(-163.993 -85.063)" fill="#1e1e1e"/>
          <path id="Path_12106" data-name="Path 12106" d="M195.257,98.287h1.8V90.155h1.182v9.07h-2.984Z" transform="translate(-161.417 -86.875)" fill="#1e1e1e"/>
          <path id="Path_12107" data-name="Path 12107" d="M197.537,90.155h1.182v9.07h-1.182Z" transform="translate(-158.01 -86.875)" fill="#1e1e1e"/>
          <path id="Path_12108" data-name="Path 12108" d="M200.073,96.63H204.2a4.057,4.057,0,0,0-3.241-4.363l.294-1c2.792.861,4.116,2.432,4.116,5.66v.644h-5.3Z" transform="translate(-154.219 -85.217)" fill="#1e1e1e"/>
          <path id="Path_12109" data-name="Path 12109" d="M201.976,100.54l.142-.978a3.67,3.67,0,0,0,1.285.22c1.068,0,1.711-.514,1.711-2.2V91.367H206.3v6.112c0,1.826-.669,3.243-2.986,3.243A5.233,5.233,0,0,1,201.976,100.54Z" transform="translate(-151.375 -85.063)" fill="#1e1e1e"/>
          <path id="Path_12110" data-name="Path 12110" d="M204.751,90.155h1.182v9.07h-1.182Z" transform="translate(-147.227 -86.875)" fill="#1e1e1e"/>
          <path id="Path_12111" data-name="Path 12111" d="M206.127,100.56l.077-.99a10.839,10.839,0,0,0,2.058.247c1.4,0,2.457-.529,2.457-2.008V97.5h-1.3c-2.47,0-3.37-1.17-3.37-3a3.017,3.017,0,0,1,3.243-3.193,7.992,7.992,0,0,1,2.584.452v4.8h1.429V97.5h-1.429v.244c0,1.507-.975,3.011-3.742,3.011A12.322,12.322,0,0,1,206.127,100.56Zm4.593-8.013a3.96,3.96,0,0,0-1.554-.3,1.891,1.891,0,0,0-1.918,2.123c0,1.467.681,2.188,2.34,2.188h1.133Z" transform="translate(-145.286 -85.148)" fill="#1e1e1e"/>
          <path id="Path_12112" data-name="Path 12112" d="M208.882,93.415h1.671v.938h-1.671Z" transform="translate(-141.053 -82.002)" fill="#1e1e1e"/>
          <path id="Path_12113" data-name="Path 12113" d="M208.882,93.415h1.671v.938h-1.671Z" transform="translate(-141.053 -82.002)" fill="#1e1e1e"/>
          <path id="Path_12114" data-name="Path 12114" d="M209.475,93.415h1.674v.938h-1.674Z" transform="translate(-140.167 -82.002)" fill="#1e1e1e"/>
          <path id="Path_12115" data-name="Path 12115" d="M211.971,96.407a1.709,1.709,0,0,1-1.709,1.093h-.195v-.938h.245c.656,0,1.133-.374,1.133-1.893a3.05,3.05,0,0,1,3.138-3.358c1.931,0,2.831,1.083,2.831,3.051v2.2H218.7V97.5h-4.054C213.169,97.5,212.37,97.1,211.971,96.407Zm4.283-1.854c0-1.659-.616-2.3-1.761-2.3s-1.866.861-1.866,2.3c0,1.365.619,2.008,2.175,2.008h1.452Z" transform="translate(-139.28 -85.148)" fill="#1e1e1e"/>
          <path id="Path_12116" data-name="Path 12116" d="M213.452,98.287h1.8V90.155h1.185v8.132h1.414v.938h-4.4Z" transform="translate(-134.223 -86.875)" fill="#1e1e1e"/>
          <path id="Path_12117" data-name="Path 12117" d="M215.138,98.287h1.8V90.155h1.182v9.07h-2.984Z" transform="translate(-131.703 -86.875)" fill="#1e1e1e"/>
          <path id="Path_12118" data-name="Path 12118" d="M223.586,90.155h1.185v8.3c0,2.649-1.325,3.742-3.178,3.742-1.776,0-3.166-.95-3.166-3.587a9.435,9.435,0,0,1,.322-2.445l1.222-.232a9.308,9.308,0,0,0-.359,2.559c0,2.2,1.08,2.767,2.1,2.767,1.03,0,1.878-.644,1.878-2.689Z" transform="translate(-126.787 -86.875)" fill="#1e1e1e"/>
          <path id="Path_12119" data-name="Path 12119" d="M221.855,100.56l.08-.99a10.8,10.8,0,0,0,2.058.247c1.4,0,2.457-.529,2.457-2.008V97.5h-1.3c-2.472,0-3.37-1.17-3.37-3a3.015,3.015,0,0,1,3.241-3.193,8.017,8.017,0,0,1,2.587.452v5.982c0,1.507-.978,3.011-3.744,3.011A12.323,12.323,0,0,1,221.855,100.56Zm4.6-8.013a3.981,3.981,0,0,0-1.557-.3,1.891,1.891,0,0,0-1.918,2.123c0,1.467.684,2.188,2.342,2.188h1.133Z" transform="translate(-121.775 -85.148)" fill="#1e1e1e"/>
          <path id="Path_12120" data-name="Path 12120" d="M224.461,90.641a5.354,5.354,0,0,1,.916.065.726.726,0,0,1-.362-.619c0-.644.437-1.247,1.634-1.247a4.092,4.092,0,0,1,.681.052l-.1.694a3.558,3.558,0,0,0-.631-.065c-.474,0-.706.22-.706.529,0,.334.257.591.99.591h.7v.681h-3.116Zm4.054,8.452h-1.2l-2.046-6.765,1.185-.167Zm-2.689,2.1v-.938H229.8V92.238H231v8.953Z" transform="translate(-117.768 -88.84)" fill="#1e1e1e"/>
          <path id="Path_12121" data-name="Path 12121" d="M228.165,90.155h1.182v9.07h-1.182Z" transform="translate(-112.232 -86.875)" fill="#1e1e1e"/>
          <path id="Path_12122" data-name="Path 12122" d="M237.333,96.569h1.427v.938h-1.467a2.991,2.991,0,0,1-3.358,2.971c-1.774,0-3.2-.95-3.2-3.587a9.435,9.435,0,0,1,.322-2.445l1.222-.232a9.312,9.312,0,0,0-.362,2.559c0,2.2,1.12,2.767,2.135,2.767,1.225,0,2.1-.644,2.1-2.612V91.46h1.185Zm-4.016-4.555a.7.7,0,1,1,.7.694A.693.693,0,0,1,233.316,92.013Z" transform="translate(-108.395 -85.156)" fill="#1e1e1e"/>
          <path id="Path_12123" data-name="Path 12123" d="M233.873,98.287h1.776V90.155h1.182V93.68a17.079,17.079,0,0,1-.142,2.3h.015a3.9,3.9,0,0,1,3.51-2.946c1.7,0,2.51,1.21,2.51,3.178a28.575,28.575,0,0,1-.167,3.011h-8.684Zm7.551,0c.052-.631.077-1.325.077-1.943,0-1.429-.387-2.355-1.492-2.355-1.724,0-2.959,2.225-3.191,4.3Z" transform="translate(-103.701 -86.875)" fill="#1e1e1e"/>
          <path id="Path_12124" data-name="Path 12124" d="M238.231,100.56l.075-.99a10.846,10.846,0,0,0,2.061.247c1.4,0,2.457-.529,2.457-2.008V97.5h-1.3c-2.47,0-3.37-1.17-3.37-3a3.015,3.015,0,0,1,3.241-3.193,8,8,0,0,1,2.587.452v5.982c0,1.507-.978,3.011-3.744,3.011A12.272,12.272,0,0,1,238.231,100.56Zm4.593-8.013a3.981,3.981,0,0,0-1.557-.3,1.891,1.891,0,0,0-1.918,2.123c0,1.467.684,2.188,2.343,2.188h1.133Z" transform="translate(-97.302 -85.148)" fill="#1e1e1e"/>
          <path id="Path_12125" data-name="Path 12125" d="M245.844,98.947c-2.47,0-3.37-1.17-3.37-3a3.017,3.017,0,0,1,3.243-3.193,8.018,8.018,0,0,1,2.587.452v4.8h1.427v.938Zm1.3-4.952a3.966,3.966,0,0,0-1.557-.3,1.891,1.891,0,0,0-1.916,2.123c0,1.467.681,2.188,2.342,2.188h1.13Zm-3.163-2.974a.681.681,0,1,1,1.362,0,.688.688,0,0,1-.681.7A.673.673,0,0,1,243.981,91.022Zm1.891,0a.689.689,0,0,1,.694-.681.667.667,0,0,1,.671.681.682.682,0,1,1-1.365,0Z" transform="translate(-90.846 -86.597)" fill="#1e1e1e"/>
          <path id="Path_12126" data-name="Path 12126" d="M245.306,98.41h4.129a4.073,4.073,0,0,0-3.37-4.4v-.876l4.877-3.061v1.195l-3.5,2.15c2.008.823,3.166,2.25,3.166,5.274v.656h-5.3Z" transform="translate(-86.613 -86.997)" fill="#1e1e1e"/>
          <path id="Path_12127" data-name="Path 12127" d="M247.859,100.54l.142-.978a3.671,3.671,0,0,0,1.285.22c1.07,0,1.714-.514,1.714-2.2V91.367h1.182v5.109H253.6v.938h-1.414v.065c0,1.826-.671,3.243-2.986,3.243A5.249,5.249,0,0,1,247.859,100.54Z" transform="translate(-82.797 -85.063)" fill="#1e1e1e"/>
          <path id="Path_12128" data-name="Path 12128" d="M250.087,93.415h1.671v.938h-1.671Z" transform="translate(-79.467 -82.002)" fill="#1e1e1e"/>
          <path id="Path_12129" data-name="Path 12129" d="M250.087,93.415h1.671v.938h-1.671Z" transform="translate(-79.467 -82.002)" fill="#1e1e1e"/>
          <path id="Path_12130" data-name="Path 12130" d="M250.68,98.9h.449c.913,0,1.327-.412,1.327-1.8V94.56h1.182V97.2c0,1.108.257,1.789,1.21,1.789.926,0,1.2-.7,1.2-1.789V94.044h1.145v3.1c0,1.34.334,1.751,1.7,1.751h.594c.062-.554.1-1.312.1-1.789a14.284,14.284,0,0,0-.424-3.552l1.158-.2A14.6,14.6,0,0,1,260.766,97a21.009,21.009,0,0,1-.2,2.831h-1.918c-1.22,0-1.891-.309-2.16-1.028a1.812,1.812,0,0,1-1.814,1.13,1.677,1.677,0,0,1-1.814-1.13,1.607,1.607,0,0,1-1.739,1.028h-.437Zm4.246-6.987a.679.679,0,0,1,.681-.681.67.67,0,0,1,.684.681.683.683,0,0,1-.684.7A.675.675,0,0,1,254.926,91.908Zm.978-1.492a.65.65,0,1,1,.656.656A.643.643,0,0,1,255.9,90.417Zm.926,1.492a.682.682,0,0,1,1.365,0,.69.69,0,0,1-.681.7A.675.675,0,0,1,256.829,91.908Z" transform="translate(-78.581 -87.483)" fill="#1e1e1e"/>
          <path id="Path_12131" data-name="Path 12131" d="M191.01,105.79h-1.454L187.9,99.95c-.13-.5-.244-1.015-.322-1.5h-.012a12.889,12.889,0,0,1-.309,1.5l-1.621,5.84h-1.414l-2.29-8.684h1.262l1.464,5.66A16.819,16.819,0,0,1,185,104.44h.012a15.288,15.288,0,0,1,.347-1.609l1.609-5.725h1.337l1.659,5.765a15.7,15.7,0,0,1,.349,1.544h.012c.09-.516.18-.953.294-1.417l1.507-5.892h1.17Z" transform="translate(-181.341 -76.485)" fill="#1e1e1e"/>
          <path id="Path_12132" data-name="Path 12132" d="M190.527,104.494a7.791,7.791,0,0,1,.065-1.272h-.027a2.275,2.275,0,0,1-2.173,1.389,1.661,1.661,0,0,1-1.776-1.724c0-1.377,1.4-2.2,3.847-2.2v-.3c0-1.015-.347-1.5-1.35-1.5a5.019,5.019,0,0,0-1.931.464l-.22-.913a6.23,6.23,0,0,1,2.305-.464c1.789,0,2.352.861,2.352,2.238v2.445c0,.6.013,1.287.04,1.839Zm-.065-3c-2.1,0-2.7.579-2.7,1.222a.939.939,0,0,0,.978.978,1.919,1.919,0,0,0,1.724-2.033Z" transform="translate(-174.334 -75.19)" fill="#1e1e1e"/>
          <path id="Path_12133" data-name="Path 12133" d="M192.042,105.956c-1.315,0-1.711-.541-1.711-1.918v-3.68h-1.312v-.9h1.312V97.387l1.158-.322v2.392h1.789v.9h-1.789v3.268c0,1.055.2,1.34.913,1.34a3.087,3.087,0,0,0,.811-.1l.115.953A5.962,5.962,0,0,1,192.042,105.956Z" transform="translate(-170.741 -76.547)" fill="#1e1e1e"/>
          <path id="Path_12134" data-name="Path 12134" d="M195.066,104.494a7.791,7.791,0,0,1,.065-1.272H195.1a2.278,2.278,0,0,1-2.173,1.389,1.661,1.661,0,0,1-1.776-1.724c0-1.377,1.4-2.2,3.847-2.2v-.3c0-1.015-.347-1.5-1.352-1.5a5.007,5.007,0,0,0-1.928.464l-.22-.913a6.228,6.228,0,0,1,2.3-.464c1.789,0,2.355.861,2.355,2.238v2.445c0,.6.012,1.287.04,1.839Zm-.065-3c-2.1,0-2.7.579-2.7,1.222a.938.938,0,0,0,.978.978A1.921,1.921,0,0,0,195,101.665Z" transform="translate(-167.55 -75.19)" fill="#1e1e1e"/>
          <path id="Path_12135" data-name="Path 12135" d="M198.108,104.486V100.37c0-.9-.244-1.439-1.1-1.439-1.055,0-1.814,1.08-1.814,2.495v3.061h-1.157V98.093h1.12a7.965,7.965,0,0,1-.1,1.352h.027a2.343,2.343,0,0,1,2.25-1.467c1.467,0,1.931.913,1.931,2.046v4.463Z" transform="translate(-163.233 -75.182)" fill="#1e1e1e"/>
          <path id="Path_12136" data-name="Path 12136" d="M199.448,98.084V100.9h3.076v.95h-3.076v3.937h-1.182V97.106h4.425v.978Z" transform="translate(-156.92 -76.485)" fill="#1e1e1e"/>
          <path id="Path_12137" data-name="Path 12137" d="M201.379,98.417a.752.752,0,0,1-.771-.746.771.771,0,1,1,.771.746Zm-.579,7.666V99.689h1.158v6.394Z" transform="translate(-153.42 -76.778)" fill="#1e1e1e"/>
          <path id="Path_12138" data-name="Path 12138" d="M205.179,99.131c-1.352-.244-2,.746-2,2.792v2.572h-1.158V98.1h1.12A8.623,8.623,0,0,1,203,99.62h.025a2.033,2.033,0,0,1,2.2-1.634Z" transform="translate(-151.3 -75.19)" fill="#1e1e1e"/>
          <path id="Path_12139" data-name="Path 12139" d="M205.154,104.6a5.447,5.447,0,0,1-1.414-.167l.1-1.03a3.959,3.959,0,0,0,1.417.257c.823,0,1.389-.372,1.389-.975,0-1.442-2.971-.541-2.971-2.791,0-1.1.848-1.918,2.547-1.918a6.718,6.718,0,0,1,1.235.13l-.09.95a4.425,4.425,0,0,0-1.25-.192c-.848,0-1.247.359-1.247.913,0,1.414,2.984.6,2.984,2.779C207.855,103.728,206.828,104.6,205.154,104.6Z" transform="translate(-148.833 -75.182)" fill="#1e1e1e"/>
          <path id="Path_12140" data-name="Path 12140" d="M208.649,105.956c-1.312,0-1.711-.541-1.711-1.918v-3.68h-1.312v-.9h1.312V97.387l1.158-.322v2.392h1.789v.9H208.1v3.268c0,1.055.207,1.34.916,1.34a3.068,3.068,0,0,0,.808-.1l.117.953A6,6,0,0,1,208.649,105.956Z" transform="translate(-145.92 -76.547)" fill="#1e1e1e"/>
          <path id="Path_12141" data-name="Path 12141" d="M212.969,105.941c-2.792,0-3.949-1.776-3.949-4.233,0-2.649,1.312-4.633,4.246-4.633a7.337,7.337,0,0,1,1.993.272l-.192,1.08a6.063,6.063,0,0,0-1.931-.334c-1.981,0-2.829,1.517-2.829,3.423,0,2.135.925,3.37,2.944,3.37a4.666,4.666,0,0,0,1.906-.437l.192,1.028A6.436,6.436,0,0,1,212.969,105.941Z" transform="translate(-140.847 -76.532)" fill="#1e1e1e"/>
          <path id="Path_12142" data-name="Path 12142" d="M214.763,104.6c-1.751,0-2.871-1-2.871-3.255a3.112,3.112,0,0,1,3.113-3.37c1.637,0,2.871.9,2.871,3.2A3.149,3.149,0,0,1,214.763,104.6Zm.14-5.66c-.926,0-1.814.706-1.814,2.29,0,1.544.644,2.392,1.814,2.392.953,0,1.776-.746,1.776-2.38C216.679,99.792,216.088,98.943,214.9,98.943Z" transform="translate(-136.554 -75.182)" fill="#1e1e1e"/>
          <path id="Path_12143" data-name="Path 12143" d="M215.434,101.591a.8.8,0,1,1,0-1.6.8.8,0,1,1,0,1.6Z" transform="translate(-132.453 -72.169)" fill="#1e1e1e"/>
          <path id="Path_12144" data-name="Path 12144" d="M222.849,105.79v-4h-4.425v4h-1.182V97.106h1.182v3.68h4.425v-3.68h1.185v8.684Z" transform="translate(-128.559 -76.485)" fill="#1e1e1e"/>
          <path id="Path_12145" data-name="Path 12145" d="M224.932,104.418a7.952,7.952,0,0,1,.1-1.35h-.025a2.346,2.346,0,0,1-2.253,1.467c-1.467,0-1.916-.913-1.916-2.046V98.024h1.145v4.119c0,.9.257,1.439,1.093,1.439,1.055,0,1.814-1.08,1.814-2.495V98.024h1.158v6.394Z" transform="translate(-123.179 -75.113)" fill="#1e1e1e"/>
          <path id="Path_12146" data-name="Path 12146" d="M231.771,104.486v-4.1c0-.873-.207-1.452-1.043-1.452-.913,0-1.789.965-1.789,2.522v3.033h-1.145v-4.1c0-.808-.167-1.452-1.043-1.452-.978,0-1.789,1.055-1.789,2.522v3.033h-1.158V98.093h1.12a9.845,9.845,0,0,1-.09,1.352l.012.012a2.346,2.346,0,0,1,2.225-1.479,1.594,1.594,0,0,1,1.764,1.454,2.375,2.375,0,0,1,2.188-1.454c1.207,0,1.9.644,1.9,2.1v4.411Z" transform="translate(-118.747 -75.182)" fill="#1e1e1e"/>
          <path id="Path_12147" data-name="Path 12147" d="M232.051,104.494a7.791,7.791,0,0,1,.065-1.272h-.027a2.28,2.28,0,0,1-2.173,1.389,1.661,1.661,0,0,1-1.776-1.724c0-1.377,1.4-2.2,3.847-2.2v-.3c0-1.015-.347-1.5-1.352-1.5a5.007,5.007,0,0,0-1.928.464l-.22-.913a6.228,6.228,0,0,1,2.3-.464c1.789,0,2.355.861,2.355,2.238v2.445c0,.6.012,1.287.04,1.839Zm-.065-3c-2.1,0-2.7.579-2.7,1.222a.938.938,0,0,0,.978.978,1.921,1.921,0,0,0,1.724-2.033Z" transform="translate(-112.271 -75.19)" fill="#1e1e1e"/>
          <path id="Path_12148" data-name="Path 12148" d="M235.093,104.486V100.37c0-.9-.245-1.439-1.1-1.439-1.055,0-1.814,1.08-1.814,2.495v3.061h-1.158V98.093h1.12a7.966,7.966,0,0,1-.1,1.352h.027a2.343,2.343,0,0,1,2.25-1.467c1.467,0,1.931.913,1.931,2.046v4.463Z" transform="translate(-107.955 -75.182)" fill="#1e1e1e"/>
          <path id="Path_12149" data-name="Path 12149" d="M239.432,105.82l-2.844-3.884h-.155v3.884h-1.182V97.136c.591-.037,1.222-.05,2.175-.05,1.709,0,2.946.6,2.946,2.265a2.5,2.5,0,0,1-2.547,2.442c.254.309.526.644.746.928l2.367,3.1Zm-2.213-7.771c-.294,0-.554.015-.786.027v2.959c.13.012.387.025.733.025,1.25,0,1.968-.629,1.968-1.557C239.135,98.461,238.482,98.049,237.219,98.049Z" transform="translate(-101.641 -76.515)" fill="#1e1e1e"/>
          <path id="Path_12150" data-name="Path 12150" d="M243.146,101.323h-4.181c-.04,1.594.629,2.34,2.018,2.34a4.689,4.689,0,0,0,1.828-.372l.167.913a6.066,6.066,0,0,1-2.213.4c-1.943,0-3-1.03-3-3.28,0-1.9,1.068-3.345,2.881-3.345a2.373,2.373,0,0,1,2.534,2.624C243.184,100.757,243.171,101.066,243.146,101.323Zm-2.574-2.47c-.836,0-1.442.6-1.582,1.646H242C242.026,99.457,241.472,98.854,240.572,98.854Z" transform="translate(-97.879 -75.182)" fill="#1e1e1e"/>
          <path id="Path_12151" data-name="Path 12151" d="M241.916,104.6a5.466,5.466,0,0,1-1.417-.167l.1-1.03a3.945,3.945,0,0,0,1.414.257c.823,0,1.39-.372,1.39-.975,0-1.442-2.974-.541-2.974-2.791,0-1.1.851-1.918,2.547-1.918a6.723,6.723,0,0,1,1.237.13l-.092.95a4.394,4.394,0,0,0-1.247-.192c-.848,0-1.247.359-1.247.913,0,1.414,2.986.6,2.986,2.779C244.617,103.728,243.587,104.6,241.916,104.6Z" transform="translate(-93.895 -75.182)" fill="#1e1e1e"/>
          <path id="Path_12152" data-name="Path 12152" d="M245.444,104.6c-1.751,0-2.869-1-2.869-3.255a3.11,3.11,0,0,1,3.113-3.37c1.634,0,2.869.9,2.869,3.2A3.149,3.149,0,0,1,245.444,104.6Zm.142-5.66c-.928,0-1.816.706-1.816,2.29,0,1.544.644,2.392,1.816,2.392.95,0,1.774-.746,1.774-2.38C247.36,99.792,246.768,98.943,245.586,98.943Z" transform="translate(-90.695 -75.182)" fill="#1e1e1e"/>
          <path id="Path_12153" data-name="Path 12153" d="M249.709,104.418a7.952,7.952,0,0,1,.1-1.35h-.025a2.346,2.346,0,0,1-2.253,1.467c-1.467,0-1.916-.913-1.916-2.046V98.024h1.145v4.119c0,.9.257,1.439,1.093,1.439,1.055,0,1.814-1.08,1.814-2.495V98.024h1.16v6.394Z" transform="translate(-86.146 -75.113)" fill="#1e1e1e"/>
          <path id="Path_12154" data-name="Path 12154" d="M251.736,99.131c-1.352-.244-1.993.746-1.993,2.792v2.572h-1.16V98.1h1.12a8.4,8.4,0,0,1-.142,1.519h.025a2.032,2.032,0,0,1,2.2-1.634Z" transform="translate(-81.715 -75.19)" fill="#1e1e1e"/>
          <path id="Path_12155" data-name="Path 12155" d="M252.94,104.584c-1.532,0-2.8-.733-2.8-3.088,0-2.058,1.055-3.512,3.113-3.512a4.5,4.5,0,0,1,1.569.269l-.219.993a3.837,3.837,0,0,0-1.452-.3c-1.16,0-1.789.99-1.789,2.392,0,1.247.4,2.24,1.814,2.24a3.531,3.531,0,0,0,1.492-.309l.18.965A5.359,5.359,0,0,1,252.94,104.584Z" transform="translate(-79.394 -75.175)" fill="#1e1e1e"/>
          <path id="Path_12156" data-name="Path 12156" d="M257.716,101.323h-4.181c-.04,1.594.629,2.34,2.018,2.34a4.689,4.689,0,0,0,1.829-.372l.167.913a6.056,6.056,0,0,1-2.213.4c-1.943,0-3-1.03-3-3.28,0-1.9,1.068-3.345,2.881-3.345a2.373,2.373,0,0,1,2.535,2.624C257.754,100.757,257.741,101.066,257.716,101.323Zm-2.574-2.47c-.836,0-1.439.6-1.582,1.646h3.011C256.6,99.457,256.043,98.854,255.142,98.854Z" transform="translate(-76.103 -75.182)" fill="#1e1e1e"/>
        </g>
      </g>
    </g>
    <path id="Path_12157" data-name="Path 12157" d="M242.19,108.772a4.21,4.21,0,0,1-4.231,4.376h-.072a4.178,4.178,0,0,1-4.161-4.376,4.223,4.223,0,0,1,4.233-4.3A4.174,4.174,0,0,1,242.19,108.772Zm-14.908-4.3a4.223,4.223,0,0,0-4.231,4.3,4.178,4.178,0,0,0,4.161,4.376h.07a4.343,4.343,0,0,0,0-8.679Zm94.16-32.111h.072a4.342,4.342,0,0,0,.072-8.679,4.311,4.311,0,0,0-4.306,4.3A4.227,4.227,0,0,0,321.442,72.358Zm2.362,5.493h7.167v19.69c0,10.931-5.957,14.826-11.533,14.826H298.431a13.415,13.415,0,0,1-12.675-8.574L278.03,85.41c-.466-1.247-.945-1.946-1.477-2.173a2.684,2.684,0,0,0-1.991.277c-1.524.679-1.716,1.617-.808,4.006l7.264,16.6c-.005-.14,2.233,4.6-1.315,7.509-3.166,2.592-7.539-1.048-8.09-1.362-3.65-2.093-8.035-5.6-17.028-8.347-20.4-6.239-44.858-3.5-70.688,7.733l-2.759-6.344c19.214-8.357,47.977-16.507,75.9-7.873a76.7,76.7,0,0,1,7.761,2.856c.479.207,2.619,1.365,3.076,1.574,0,0,2.228,1.307,3.951,2.54.631.449,1.123.07.751-.606l-2.462-4.383c-.127-.3-1.04-2.138-1.158-2.417-1.821-4.306-2.816-6.673-2.964-7.284-.032-.132-.062-.264-.107-.424a6.851,6.851,0,0,1,1-5.366,11.164,11.164,0,0,1,7.885-4.987c6.409-1.11,9.053,1.988,10.138,4.78l8,19.992c.751,1.479,2.669,3.914,7.165,3.914h17.285c3.617,0,5.556-2.627,5.77-7.808a13.112,13.112,0,0,1-8.419,2.961c-5.339,0-10.744-3.47-10.744-10.1C303.969,82.4,311.014,77.851,323.8,77.851Zm-.654,6.039c-10.158.21-11.361,3.58-11.361,6.137a4.1,4.1,0,0,0,4.356,4.5,6.836,6.836,0,0,0,6.765-4.662,4.2,4.2,0,0,0,.24-1.484Zm-45.272,30.849v0h0Zm75.817-2.372H335.257l1.978-6.745h14.384c3.62,0,5.558-2.627,5.77-7.808a13.1,13.1,0,0,1-8.417,2.961c-5.341,0-10.747-3.47-10.747-10.1,0-8.267,7.045-12.82,19.835-12.82h7.17v19.69c0,10.931-5.96,14.826-11.535,14.826m3.712-28.476c-10.156.21-11.361,3.58-11.361,6.137a4.1,4.1,0,0,0,4.358,4.5,6.838,6.838,0,0,0,6.765-4.662,4.261,4.261,0,0,0,.237-1.484Z" fill="#1e1e1e"/>
  </g>
</svg>
