<svg id="logo" xmlns="http://www.w3.org/2000/svg" xmlns:xlink="http://www.w3.org/1999/xlink" width="200.298" height="100.308" viewBox="0 0 200.298 100.308">
  <defs>
    <linearGradient id="linear-gradient" x1="-0.035" y1="0.5" x2="0.929" y2="0.5" gradientUnits="objectBoundingBox">
      <stop offset="0" stop-color="#d7d657"/>
      <stop offset="0.405" stop-color="#2baab7"/>
      <stop offset="1" stop-color="#0c6094"/>
    </linearGradient>
  </defs>
  <g id="Group_9" data-name="Group 9" transform="translate(1.502 68.295)">
    <g id="Group_8" data-name="Group 8">
      <g id="Group_7" data-name="Group 7">
        <path id="Path_1" data-name="Path 1" d="M200.289,3380.212c-2.688,0-3.667-1.274-3.667-3.261a3.28,3.28,0,0,1,3.528-3.473,8.724,8.724,0,0,1,2.814.491v5.221h1.553v1.022Zm1.413-5.389a4.327,4.327,0,0,0-1.693-.322,2.058,2.058,0,0,0-2.087,2.31c0,1.6.742,2.38,2.548,2.38H201.7Zm-3.443-3.234a.742.742,0,0,1,1.484,0,.75.75,0,0,1-.742.756A.733.733,0,0,1,198.259,3371.588Zm2.058,0a.75.75,0,0,1,.756-.741.726.726,0,0,1,.727.741.742.742,0,1,1-1.484,0Z" transform="translate(-196.622 -3366.773)" fill="#fff"/>
        <path id="Path_2" data-name="Path 2" d="M203.278,3378.817h2.813v-5.558h1.288v6.58h-4.1Zm1.189,3.864a.749.749,0,1,1,.741-.756A.749.749,0,0,1,204.467,3382.68Zm2.072,0a.749.749,0,1,1,0-1.5.726.726,0,0,1,.729.741A.739.739,0,0,1,206.539,3382.68Z" transform="translate(-195.592 -3366.4)" fill="#fff"/>
        <path id="Path_3" data-name="Path 3" d="M207.23,3383.241l.155-1.065a3.993,3.993,0,0,0,1.4.239c1.163,0,1.863-.56,1.863-2.394v-6.762h1.288v5.558h1.54v1.022h-1.54v.07c0,1.987-.727,3.528-3.248,3.528A5.826,5.826,0,0,1,207.23,3383.241Z" transform="translate(-194.981 -3366.4)" fill="#fff"/>
        <path id="Path_4" data-name="Path 4" d="M212.467,3378.072h1.821v1.022h-1.821Z" transform="translate(-194.17 -3365.656)" fill="#fff"/>
        <path id="Path_5" data-name="Path 5" d="M212.467,3378.072h1.821v1.022h-1.821Z" transform="translate(-194.17 -3365.656)" fill="#fff"/>
        <path id="Path_6" data-name="Path 6" d="M213.861,3379.406h.491c.993,0,1.441-.448,1.441-1.96v-2.757h1.288v2.869c0,1.2.279,1.946,1.316,1.946,1.007,0,1.3-.756,1.3-1.946v-3.43h1.246v3.373c0,1.456.364,1.9,1.848,1.9h.644a19.316,19.316,0,0,0,.112-1.946,15.538,15.538,0,0,0-.462-3.864l1.26-.224a15.9,15.9,0,0,1,.49,3.976c0,.63-.042,1.372-.1,2.058h1.554v1.022h-3.764c-1.331,0-2.059-.336-2.352-1.12a1.972,1.972,0,0,1-1.973,1.232,1.827,1.827,0,0,1-1.975-1.232,1.746,1.746,0,0,1-1.89,1.12h-.476Zm4.62-7.6a.737.737,0,0,1,.741-.741.729.729,0,0,1,.742.741.742.742,0,0,1-.742.757A.732.732,0,0,1,218.481,3371.8Zm1.065-1.624a.706.706,0,1,1,.712.715A.7.7,0,0,1,219.546,3370.18Zm1.007,1.624a.741.741,0,0,1,1.483,0,.749.749,0,0,1-.741.757A.733.733,0,0,1,220.553,3371.8Z" transform="translate(-193.955 -3366.989)" fill="#fff"/>
        <path id="Path_7" data-name="Path 7" d="M224.457,3378.817H226.5v-5.558h1.288v5.558h1.554v1.022h-4.886Zm.993,3.121a.763.763,0,0,1,1.527,0,.764.764,0,0,1-.77.756A.745.745,0,0,1,225.45,3381.938Z" transform="translate(-192.315 -3366.4)" fill="#fff"/>
        <path id="Path_8" data-name="Path 8" d="M228.506,3379.258h1.96v-8.848h1.288v9.87h-3.247Z" transform="translate(-191.689 -3366.841)" fill="#fff"/>
        <path id="Path_9" data-name="Path 9" d="M233.865,3370.41h1.289v9.87h-1.289Z" transform="translate(-190.859 -3366.841)" fill="#fff"/>
        <path id="Path_10" data-name="Path 10" d="M239.826,3378.854h4.494c-.042-2.562-1.051-3.99-3.528-4.746l.321-1.091c3.038.938,4.48,2.646,4.48,6.159v.7h-5.768Z" transform="translate(-189.937 -3366.438)" fill="#fff"/>
        <path id="Path_11" data-name="Path 11" d="M244.3,3383.241l.155-1.065a3.993,3.993,0,0,0,1.4.239c1.163,0,1.863-.56,1.863-2.394v-6.762H249v6.65c0,1.987-.727,3.528-3.248,3.528A5.811,5.811,0,0,1,244.3,3383.241Z" transform="translate(-189.245 -3366.4)" fill="#fff"/>
        <path id="Path_12" data-name="Path 12" d="M250.823,3370.41h1.288v9.87h-1.288Z" transform="translate(-188.235 -3366.841)" fill="#fff"/>
        <path id="Path_13" data-name="Path 13" d="M253.961,3383.191l.083-1.077a11.865,11.865,0,0,0,2.24.267c1.527,0,2.673-.575,2.673-2.185v-.336h-1.413c-2.687,0-3.667-1.274-3.667-3.261a3.28,3.28,0,0,1,3.528-3.472,8.715,8.715,0,0,1,2.814.491v5.221h1.553v1.022h-1.553v.267c0,1.637-1.063,3.275-4.074,3.275A13.49,13.49,0,0,1,253.961,3383.191Zm5-8.72a4.334,4.334,0,0,0-1.693-.322,2.058,2.058,0,0,0-2.087,2.309c0,1.6.742,2.38,2.548,2.38h1.231Z" transform="translate(-187.763 -3366.421)" fill="#fff"/>
        <path id="Path_14" data-name="Path 14" d="M260.533,3378.072h1.82v1.022h-1.82Z" transform="translate(-186.733 -3365.656)" fill="#fff"/>
        <path id="Path_15" data-name="Path 15" d="M260.533,3378.072h1.82v1.022h-1.82Z" transform="translate(-186.733 -3365.656)" fill="#fff"/>
        <path id="Path_16" data-name="Path 16" d="M261.927,3378.072h1.82v1.022h-1.82Z" transform="translate(-186.517 -3365.656)" fill="#fff"/>
        <path id="Path_17" data-name="Path 17" d="M265.393,3378.669a1.864,1.864,0,0,1-1.861,1.191h-.21v-1.022h.266c.715,0,1.233-.406,1.233-2.058,0-2.058,1.189-3.654,3.415-3.654,2.1,0,3.08,1.176,3.08,3.318v2.394h1.4v1.022H268.3C266.7,3379.859,265.827,3379.425,265.393,3378.669Zm4.662-2.015c0-1.806-.672-2.506-1.918-2.506s-2.029.938-2.029,2.506c0,1.484.671,2.184,2.365,2.184h1.582Z" transform="translate(-186.302 -3366.421)" fill="#fff"/>
        <path id="Path_18" data-name="Path 18" d="M271.274,3379.258h1.96v-8.848h1.288v8.848h1.542v1.022h-4.789Z" transform="translate(-185.071 -3366.841)" fill="#fff"/>
        <path id="Path_19" data-name="Path 19" d="M275.239,3379.258H277.2v-8.848h1.287v9.87h-3.246Z" transform="translate(-184.458 -3366.841)" fill="#fff"/>
        <path id="Path_20" data-name="Path 20" d="M288.583,3370.41h1.289v9.03c0,2.883-1.442,4.073-3.457,4.073-1.932,0-3.445-1.036-3.445-3.905a10.328,10.328,0,0,1,.35-2.659l1.33-.253a10.164,10.164,0,0,0-.393,2.787c0,2.394,1.176,3.01,2.282,3.01,1.121,0,2.044-.7,2.044-2.926Z" transform="translate(-183.261 -3366.841)" fill="#fff"/>
        <path id="Path_21" data-name="Path 21" d="M290.933,3383.191l.085-1.077a11.848,11.848,0,0,0,2.24.267c1.525,0,2.673-.575,2.673-2.185v-.336h-1.415c-2.688,0-3.667-1.274-3.667-3.261a3.28,3.28,0,0,1,3.528-3.472,8.724,8.724,0,0,1,2.814.491v6.509c0,1.637-1.065,3.275-4.074,3.275A13.5,13.5,0,0,1,290.933,3383.191Zm5-8.72a4.336,4.336,0,0,0-1.694-.322,2.057,2.057,0,0,0-2.085,2.309c0,1.6.741,2.38,2.547,2.38h1.232Z" transform="translate(-182.042 -3366.421)" fill="#fff"/>
        <path id="Path_22" data-name="Path 22" d="M297.154,3369.279a5.88,5.88,0,0,1,.994.07.787.787,0,0,1-.391-.672c0-.7.475-1.358,1.777-1.358a4.9,4.9,0,0,1,.741.055l-.112.756a3.857,3.857,0,0,0-.686-.071c-.517,0-.769.239-.769.575,0,.364.279.643,1.077.643h.756v.742h-3.388Zm4.409,9.2h-1.3l-2.225-7.364,1.288-.181Zm-2.925,2.282v-1.022h4.326v-8.721h1.3v9.743Z" transform="translate(-181.067 -3367.319)" fill="#fff"/>
        <path id="Path_23" data-name="Path 23" d="M305.859,3370.41h1.289v9.87h-1.289Z" transform="translate(-179.72 -3366.841)" fill="#fff"/>
        <path id="Path_24" data-name="Path 24" d="M319.075,3378.839h1.553v1.022h-1.6c-.209,2.156-1.455,3.233-3.654,3.233-1.932,0-3.486-1.036-3.486-3.905a10.28,10.28,0,0,1,.351-2.659l1.329-.253a10.163,10.163,0,0,0-.391,2.787c0,2.394,1.218,3.01,2.323,3.01,1.33,0,2.283-.7,2.283-2.842v-5.95h1.288Zm-4.368-4.956a.763.763,0,1,1,.756.757A.753.753,0,0,1,314.707,3373.883Z" transform="translate(-178.786 -3366.422)" fill="#fff"/>
        <path id="Path_25" data-name="Path 25" d="M319.277,3379.258h1.931v-8.848H322.5v3.836a18.963,18.963,0,0,1-.155,2.506h.015a4.244,4.244,0,0,1,3.821-3.206c1.848,0,2.73,1.315,2.73,3.458a31.35,31.35,0,0,1-.182,3.276h-9.448Zm8.217,0c.055-.686.083-1.441.083-2.115,0-1.553-.42-2.561-1.624-2.561-1.876,0-3.221,2.422-3.472,4.676Z" transform="translate(-177.644 -3366.841)" fill="#fff"/>
        <path id="Path_26" data-name="Path 26" d="M329.422,3383.191l.084-1.077a11.865,11.865,0,0,0,2.24.267c1.527,0,2.673-.575,2.673-2.185v-.336h-1.413c-2.688,0-3.667-1.274-3.667-3.261a3.28,3.28,0,0,1,3.528-3.472,8.712,8.712,0,0,1,2.813.491v6.509c0,1.637-1.063,3.275-4.073,3.275A13.494,13.494,0,0,1,329.422,3383.191Zm5-8.72a4.334,4.334,0,0,0-1.693-.322,2.057,2.057,0,0,0-2.087,2.309c0,1.6.742,2.38,2.547,2.38h1.232Z" transform="translate(-176.087 -3366.421)" fill="#fff"/>
        <path id="Path_27" data-name="Path 27" d="M343.161,3380.212c-2.687,0-3.666-1.274-3.666-3.261a3.28,3.28,0,0,1,3.527-3.473,8.726,8.726,0,0,1,2.815.491v5.221h1.553v1.022Zm1.415-5.389a4.329,4.329,0,0,0-1.694-.322,2.057,2.057,0,0,0-2.085,2.31c0,1.6.742,2.38,2.548,2.38h1.231Zm-3.443-3.234a.742.742,0,0,1,1.484,0,.75.75,0,0,1-.742.756A.733.733,0,0,1,341.132,3371.588Zm2.058,0a.75.75,0,0,1,.756-.741.726.726,0,0,1,.727.741.742.742,0,1,1-1.484,0Z" transform="translate(-174.515 -3366.773)" fill="#fff"/>
        <path id="Path_28" data-name="Path 28" d="M346.15,3379.288h4.494c-.042-2.744-1.218-4.088-3.667-4.788v-.951l5.3-3.333v1.3l-3.806,2.338c2.184.9,3.442,2.449,3.442,5.739v.714H346.15Z" transform="translate(-173.486 -3366.871)" fill="#fff"/>
        <path id="Path_29" data-name="Path 29" d="M352.152,3383.241l.154-1.065a4,4,0,0,0,1.4.239c1.163,0,1.863-.56,1.863-2.394v-6.762h1.288v5.558h1.54v1.022h-1.54v.07c0,1.987-.729,3.528-3.247,3.528A5.82,5.82,0,0,1,352.152,3383.241Z" transform="translate(-172.557 -3366.4)" fill="#fff"/>
        <path id="Path_30" data-name="Path 30" d="M357.389,3378.072h1.82v1.022h-1.82Z" transform="translate(-171.747 -3365.656)" fill="#fff"/>
        <path id="Path_31" data-name="Path 31" d="M357.389,3378.072h1.82v1.022h-1.82Z" transform="translate(-171.747 -3365.656)" fill="#fff"/>
        <path id="Path_32" data-name="Path 32" d="M358.783,3379.406h.49c.993,0,1.441-.448,1.441-1.96v-2.757H362v2.869c0,1.2.279,1.946,1.315,1.946,1.008,0,1.3-.756,1.3-1.946v-3.43h1.246v3.373c0,1.456.365,1.9,1.848,1.9h.644c.069-.6.112-1.427.112-1.946a15.484,15.484,0,0,0-.462-3.864l1.26-.224a15.9,15.9,0,0,1,.49,3.976,22.671,22.671,0,0,1-.224,3.08h-2.085c-1.33,0-2.059-.336-2.352-1.12a1.971,1.971,0,0,1-1.973,1.232,1.827,1.827,0,0,1-1.973-1.232,1.746,1.746,0,0,1-1.89,1.12h-.476Zm4.619-7.6a.738.738,0,0,1,.742-.741.73.73,0,0,1,.742.741.742.742,0,0,1-.742.757A.733.733,0,0,1,363.4,3371.8Zm1.065-1.624a.707.707,0,1,1,.714.715A.7.7,0,0,1,364.467,3370.18Zm1.008,1.624a.742.742,0,0,1,1.484,0,.75.75,0,0,1-.742.757A.732.732,0,0,1,365.475,3371.8Z" transform="translate(-171.531 -3366.989)" fill="#fff"/>
        <path id="Path_33" data-name="Path 33" d="M207.056,3396.2h-1.582l-1.8-6.354c-.141-.546-.267-1.106-.35-1.637H203.3a14.11,14.11,0,0,1-.336,1.637l-1.763,6.354h-1.54l-2.492-9.448h1.373l1.6,6.158a17.778,17.778,0,0,1,.378,1.821h.014a17.048,17.048,0,0,1,.378-1.75l1.751-6.229h1.456l1.8,6.271c.141.5.281,1.106.379,1.679h.014c.1-.56.2-1.036.321-1.539l1.639-6.411h1.274Z" transform="translate(-196.537 -3364.313)" fill="#fff"/>
        <path id="Path_34" data-name="Path 34" d="M212.448,3395.883a8.521,8.521,0,0,1,.07-1.386h-.028a2.482,2.482,0,0,1-2.366,1.513,1.808,1.808,0,0,1-1.931-1.876c0-1.5,1.525-2.394,4.185-2.394v-.322c0-1.1-.379-1.637-1.47-1.637a5.5,5.5,0,0,0-2.1.5l-.238-.994a6.818,6.818,0,0,1,2.507-.5c1.946,0,2.561.939,2.561,2.437v2.659c0,.658.014,1.4.043,2Zm-.069-3.261c-2.281,0-2.939.63-2.939,1.33a1.021,1.021,0,0,0,1.062,1.063,2.088,2.088,0,0,0,1.876-2.212Z" transform="translate(-194.831 -3363.998)" fill="#fff"/>
        <path id="Path_35" data-name="Path 35" d="M217.133,3396.326c-1.428,0-1.863-.587-1.863-2.086v-4h-1.427v-.979h1.427V3387l1.26-.35v2.6h1.947v.979H216.53v3.555c0,1.149.224,1.458.994,1.458a3.369,3.369,0,0,0,.882-.113l.126,1.036A6.481,6.481,0,0,1,217.133,3396.326Z" transform="translate(-193.957 -3364.327)" fill="#fff"/>
        <path id="Path_36" data-name="Path 36" d="M223.117,3395.883a8.521,8.521,0,0,1,.07-1.386h-.029a2.479,2.479,0,0,1-2.365,1.513,1.809,1.809,0,0,1-1.932-1.876c0-1.5,1.525-2.394,4.186-2.394v-.322c0-1.1-.379-1.637-1.47-1.637a5.5,5.5,0,0,0-2.1.5l-.238-.994a6.812,6.812,0,0,1,2.506-.5c1.947,0,2.561.939,2.561,2.437v2.659c0,.658.015,1.4.044,2Zm-.069-3.261c-2.282,0-2.94.63-2.94,1.33a1.021,1.021,0,0,0,1.064,1.063,2.089,2.089,0,0,0,1.876-2.212Z" transform="translate(-193.181 -3363.998)" fill="#fff"/>
        <path id="Path_37" data-name="Path 37" d="M230.074,3395.881V3391.4c0-.979-.264-1.567-1.189-1.567-1.148,0-1.973,1.176-1.973,2.715v3.331H225.65v-6.956h1.219a8.619,8.619,0,0,1-.113,1.469h.029a2.552,2.552,0,0,1,2.449-1.6c1.6,0,2.1.994,2.1,2.226v4.856Z" transform="translate(-192.131 -3363.996)" fill="#fff"/>
        <path id="Path_38" data-name="Path 38" d="M236.868,3387.813v3.066h3.345v1.036h-3.345v4.283h-1.289v-9.448H240.4v1.063Z" transform="translate(-190.594 -3364.313)" fill="#fff"/>
        <path id="Path_39" data-name="Path 39" d="M241.923,3387.928a.819.819,0,0,1-.84-.813.84.84,0,1,1,.84.813Zm-.629,8.342v-6.956h1.26v6.956Z" transform="translate(-189.742 -3364.384)" fill="#fff"/>
        <path id="Path_40" data-name="Path 40" d="M247.848,3390.046c-1.47-.265-2.169.812-2.169,3.038v2.8h-1.261v-6.956h1.217a9.28,9.28,0,0,1-.154,1.651h.029a2.21,2.21,0,0,1,2.394-1.778Z" transform="translate(-189.227 -3363.998)" fill="#fff"/>
        <path id="Path_41" data-name="Path 41" d="M249.907,3396.008a5.9,5.9,0,0,1-1.54-.183l.113-1.12a4.279,4.279,0,0,0,1.539.281c.9,0,1.513-.407,1.513-1.063,0-1.568-3.234-.589-3.234-3.038,0-1.191.924-2.086,2.771-2.086a7.251,7.251,0,0,1,1.344.141l-.1,1.036a4.744,4.744,0,0,0-1.358-.21c-.923,0-1.357.392-1.357.993,0,1.541,3.247.658,3.247,3.024C252.847,3395.057,251.727,3396.008,249.907,3396.008Z" transform="translate(-188.626 -3363.996)" fill="#fff"/>
        <path id="Path_42" data-name="Path 42" d="M256.17,3396.326c-1.428,0-1.863-.587-1.863-2.086v-4H252.88v-.979h1.427V3387l1.261-.35v2.6h1.946v.979h-1.946v3.555c0,1.149.223,1.458.994,1.458a3.354,3.354,0,0,0,.881-.113l.127,1.036A6.5,6.5,0,0,1,256.17,3396.326Z" transform="translate(-187.917 -3364.327)" fill="#fff"/>
        <path id="Path_43" data-name="Path 43" d="M265.154,3396.323c-3.038,0-4.3-1.932-4.3-4.606,0-2.884,1.427-5.039,4.619-5.039a7.944,7.944,0,0,1,2.17.294l-.209,1.176a6.627,6.627,0,0,0-2.1-.364c-2.156,0-3.078,1.651-3.078,3.724,0,2.323,1.007,3.666,3.2,3.666a5.072,5.072,0,0,0,2.073-.474l.209,1.119A6.98,6.98,0,0,1,265.154,3396.323Z" transform="translate(-186.683 -3364.324)" fill="#fff"/>
        <path id="Path_44" data-name="Path 44" d="M270.731,3396.008c-1.9,0-3.122-1.091-3.122-3.542A3.387,3.387,0,0,1,271,3388.8c1.778,0,3.122.98,3.122,3.486A3.428,3.428,0,0,1,270.731,3396.008Zm.155-6.16c-1.008,0-1.975.769-1.975,2.492,0,1.68.7,2.6,1.975,2.6,1.036,0,1.932-.812,1.932-2.589C272.818,3390.772,272.174,3389.849,270.886,3389.849Z" transform="translate(-185.638 -3363.996)" fill="#fff"/>
        <path id="Path_45" data-name="Path 45" d="M274.927,3395.275a.868.868,0,0,1,0-1.737.868.868,0,0,1,0,1.737Z" transform="translate(-184.64 -3363.262)" fill="#fff"/>
        <path id="Path_46" data-name="Path 46" d="M286.285,3396.2v-4.352H281.47v4.352h-1.289v-9.448h1.289v4h4.815v-4h1.288v9.448Z" transform="translate(-183.693 -3364.313)" fill="#fff"/>
        <path id="Path_47" data-name="Path 47" d="M293.094,3395.864a8.743,8.743,0,0,1,.112-1.469h-.028a2.552,2.552,0,0,1-2.449,1.6c-1.6,0-2.087-.994-2.087-2.226v-4.857h1.246v4.479c0,.979.279,1.568,1.191,1.568,1.148,0,1.973-1.177,1.973-2.716v-3.332h1.26v6.956Z" transform="translate(-182.384 -3363.979)" fill="#fff"/>
        <path id="Path_48" data-name="Path 48" d="M304.279,3395.881v-4.465c0-.951-.224-1.581-1.134-1.581-.993,0-1.946,1.05-1.946,2.744v3.3h-1.246v-4.465c0-.881-.181-1.581-1.134-1.581-1.064,0-1.946,1.148-1.946,2.744v3.3h-1.26v-6.956h1.218a10.458,10.458,0,0,1-.1,1.469l.015.014a2.551,2.551,0,0,1,2.42-1.609,1.735,1.735,0,0,1,1.918,1.583,2.588,2.588,0,0,1,2.381-1.583c1.314,0,2.07.7,2.07,2.282v4.8Z" transform="translate(-181.305 -3363.996)" fill="#fff"/>
        <path id="Path_49" data-name="Path 49" d="M310.053,3395.883a8.517,8.517,0,0,1,.07-1.386h-.029a2.479,2.479,0,0,1-2.365,1.513,1.809,1.809,0,0,1-1.932-1.876c0-1.5,1.525-2.394,4.186-2.394v-.322c0-1.1-.379-1.637-1.47-1.637a5.5,5.5,0,0,0-2.1.5l-.238-.994a6.813,6.813,0,0,1,2.507-.5c1.946,0,2.56.939,2.56,2.437v2.659c0,.658.015,1.4.044,2Zm-.069-3.261c-2.282,0-2.94.63-2.94,1.33a1.021,1.021,0,0,0,1.064,1.063,2.089,2.089,0,0,0,1.876-2.212Z" transform="translate(-179.729 -3363.998)" fill="#fff"/>
        <path id="Path_50" data-name="Path 50" d="M317.01,3395.881V3391.4c0-.979-.264-1.567-1.189-1.567-1.148,0-1.973,1.176-1.973,2.715v3.331h-1.26v-6.956h1.218a8.737,8.737,0,0,1-.112,1.469h.028a2.552,2.552,0,0,1,2.449-1.6c1.6,0,2.1.994,2.1,2.226v4.856Z" transform="translate(-178.679 -3363.996)" fill="#fff"/>
        <path id="Path_51" data-name="Path 51" d="M327.066,3396.206l-3.094-4.228H323.8v4.228h-1.288v-9.448c.643-.042,1.33-.057,2.366-.057,1.861,0,3.2.659,3.2,2.464a2.718,2.718,0,0,1-2.771,2.659c.279.336.575.7.813,1.008l2.575,3.373Zm-2.409-8.455c-.321,0-.6.015-.853.028V3391c.141.014.42.028.8.028,1.358,0,2.142-.686,2.142-1.694C326.743,3388.2,326.03,3387.751,324.657,3387.751Z" transform="translate(-177.142 -3364.32)" fill="#fff"/>
        <path id="Path_52" data-name="Path 52" d="M334.284,3392.438h-4.551c-.042,1.737.686,2.549,2.2,2.549a5.11,5.11,0,0,0,1.987-.407l.181.994a6.563,6.563,0,0,1-2.406.435c-2.114,0-3.262-1.12-3.262-3.571,0-2.071,1.162-3.639,3.135-3.639a2.582,2.582,0,0,1,2.759,2.855C334.326,3391.822,334.312,3392.158,334.284,3392.438Zm-2.8-2.687c-.91,0-1.568.657-1.723,1.792h3.277C333.066,3390.408,332.463,3389.75,331.484,3389.75Z" transform="translate(-176.227 -3363.996)" fill="#fff"/>
        <path id="Path_53" data-name="Path 53" d="M336.31,3396.008a5.877,5.877,0,0,1-1.539-.183l.112-1.12a4.283,4.283,0,0,0,1.539.281c.9,0,1.512-.407,1.512-1.063,0-1.568-3.233-.589-3.233-3.038,0-1.191.924-2.086,2.771-2.086a7.263,7.263,0,0,1,1.344.141l-.1,1.036a4.748,4.748,0,0,0-1.357-.21c-.925,0-1.359.392-1.359.993,0,1.541,3.248.658,3.248,3.024C339.25,3395.057,338.13,3396.008,336.31,3396.008Z" transform="translate(-175.257 -3363.996)" fill="#fff"/>
        <path id="Path_54" data-name="Path 54" d="M342.854,3396.008c-1.9,0-3.123-1.091-3.123-3.542a3.387,3.387,0,0,1,3.388-3.668c1.779,0,3.122.98,3.122,3.486A3.428,3.428,0,0,1,342.854,3396.008Zm.154-6.16c-1.008,0-1.975.769-1.975,2.492,0,1.68.7,2.6,1.975,2.6,1.036,0,1.932-.812,1.932-2.589C344.939,3390.772,344.295,3389.849,343.007,3389.849Z" transform="translate(-174.479 -3363.996)" fill="#fff"/>
        <path id="Path_55" data-name="Path 55" d="M351.334,3395.864a8.625,8.625,0,0,1,.113-1.469h-.028a2.555,2.555,0,0,1-2.45,1.6c-1.6,0-2.085-.994-2.085-2.226v-4.857h1.246v4.479c0,.979.279,1.568,1.189,1.568,1.148,0,1.973-1.177,1.973-2.716v-3.332h1.261v6.956Z" transform="translate(-173.372 -3363.979)" fill="#fff"/>
        <path id="Path_56" data-name="Path 56" d="M357.284,3390.046c-1.469-.265-2.169.812-2.169,3.038v2.8h-1.261v-6.956h1.218a9.282,9.282,0,0,1-.154,1.651h.028a2.21,2.21,0,0,1,2.394-1.778Z" transform="translate(-172.293 -3363.998)" fill="#fff"/>
        <path id="Path_57" data-name="Path 57" d="M360.555,3395.992c-1.665,0-3.051-.8-3.051-3.36,0-2.24,1.148-3.822,3.388-3.822a4.906,4.906,0,0,1,1.707.294l-.238,1.079a4.229,4.229,0,0,0-1.581-.322c-1.261,0-1.947,1.077-1.947,2.6,0,1.357.434,2.435,1.973,2.435a3.831,3.831,0,0,0,1.625-.336l.2,1.05A5.781,5.781,0,0,1,360.555,3395.992Z" transform="translate(-171.729 -3363.994)" fill="#fff"/>
        <path id="Path_58" data-name="Path 58" d="M368.531,3392.438h-4.548c-.043,1.737.686,2.549,2.2,2.549a5.1,5.1,0,0,0,1.987-.407l.182.994a6.564,6.564,0,0,1-2.408.435c-2.113,0-3.261-1.12-3.261-3.571,0-2.071,1.16-3.639,3.135-3.639a2.581,2.581,0,0,1,2.758,2.855C368.574,3391.822,368.56,3392.158,368.531,3392.438Zm-2.8-2.687c-.91,0-1.568.657-1.722,1.792h3.275C367.314,3390.408,366.712,3389.75,365.732,3389.75Z" transform="translate(-170.928 -3363.996)" fill="#fff"/>
      </g>
    </g>
  </g>
  <path id="Path_59" data-name="Path 59" d="M261.749,3357.24a4.582,4.582,0,0,1-4.605,4.761h-.077a4.547,4.547,0,0,1-4.528-4.761,4.6,4.6,0,0,1,4.605-4.682A4.542,4.542,0,0,1,261.749,3357.24Zm-16.22-4.682a4.6,4.6,0,0,0-4.605,4.682A4.546,4.546,0,0,0,245.45,3362h.079a4.726,4.726,0,0,0,0-9.443Zm102.45-34.939h.078a4.725,4.725,0,0,0,.077-9.444,4.689,4.689,0,0,0-4.682,4.683A4.6,4.6,0,0,0,347.978,3317.619Zm2.57,5.976h7.8v21.426c0,11.894-6.483,16.132-12.55,16.132H322.942a14.6,14.6,0,0,1-13.791-9.332l-8.406-20c-.509-1.355-1.03-2.115-1.607-2.364a2.911,2.911,0,0,0-2.165.3c-1.658.736-1.868,1.756-.881,4.359l7.9,18.055c-.006-.15,2.43,5.01-1.431,8.172-3.442,2.819-8.2-1.14-8.8-1.484-3.97-2.276-8.742-6.088-18.529-9.082-22.19-6.789-48.806-3.81-76.91,8.415l-3-6.9c20.9-9.094,52.2-17.962,82.586-8.566a82.92,82.92,0,0,1,8.443,3.106c.522.225,2.851,1.486,3.348,1.713,0,0,2.423,1.422,4.3,2.761.685.489,1.219.078.815-.659l-2.68-4.767c-.136-.323-1.129-2.326-1.259-2.632-1.979-4.684-3.063-7.26-3.224-7.926-.035-.142-.069-.286-.117-.462a7.464,7.464,0,0,1,1.088-5.838,12.162,12.162,0,0,1,8.582-5.425c6.971-1.207,9.849,2.164,11.03,5.2l8.7,21.752c.818,1.61,2.905,4.257,7.8,4.257H343.54c3.938,0,6.046-2.856,6.277-8.493a14.252,14.252,0,0,1-9.158,3.219c-5.809,0-11.692-3.775-11.692-10.99C328.967,3328.55,336.632,3323.6,350.549,3323.6Zm-.711,6.573c-11.052.227-12.36,3.895-12.36,6.677,0,4.543,3.627,4.9,4.739,4.9a7.437,7.437,0,0,0,7.361-5.07,4.642,4.642,0,0,0,.26-1.616Zm-49.26,33.565h0Zm82.494-2.58H363.01l2.151-7.343h15.652c3.936,0,6.046-2.856,6.277-8.493a14.252,14.252,0,0,1-9.158,3.219c-5.811,0-11.692-3.775-11.692-10.99,0-9,7.664-13.95,21.582-13.95h7.8v21.426c0,11.894-6.482,16.132-12.548,16.132m4.039-30.985c-11.052.227-12.361,3.895-12.361,6.677,0,4.543,3.628,4.9,4.74,4.9a7.436,7.436,0,0,0,7.36-5.07,4.616,4.616,0,0,0,.261-1.616Z" transform="translate(-195.322 -3308.175)" fill="url(#linear-gradient)"/>
</svg>
