<svg xmlns="http://www.w3.org/2000/svg" xmlns:xlink="http://www.w3.org/1999/xlink" width="512.309" height="142.102" viewBox="0 0 512.309 142.102">
  <defs>
    <linearGradient id="linear-gradient" x1="-0.035" y1="0.5" x2="0.929" y2="0.5" gradientUnits="objectBoundingBox">
      <stop offset="0" stop-color="#d7d657"/>
      <stop offset="0.405" stop-color="#2baab7"/>
      <stop offset="1" stop-color="#0c6094"/>
    </linearGradient>
  </defs>
  <path id="Path_12" data-name="Path 12" d="M715.294,2708.02c0,6.941-5.062,12.178-11.779,12.178h-.2c-6.6,0-11.581-5.237-11.581-12.178a11.752,11.752,0,0,1,11.779-11.976A11.619,11.619,0,0,1,715.294,2708.02Zm-41.488-11.976a11.753,11.753,0,0,0-11.781,11.976c0,6.941,4.979,12.178,11.58,12.178h.2c6.6,0,11.578-5.237,11.578-12.178A11.657,11.657,0,0,0,673.807,2696.044Zm262.04-89.364h.2c6.825,0,11.778-5.121,11.778-12.177,0-6.829-4.977-11.98-11.58-11.98a11.993,11.993,0,0,0-11.977,11.98C924.268,2601.332,929.354,2606.68,935.846,2606.68Zm6.574,15.285h19.948v54.8c0,30.42-16.581,41.26-32.1,41.26H871.806c-6,0-26.268-1.722-35.271-23.867l-21.5-51.16c-1.3-3.468-2.634-5.411-4.111-6.046-1.238-.534-3.051-.278-5.541.777-4.238,1.884-4.776,4.492-2.25,11.149l20.217,46.184c-.015-.386,6.214,12.812-3.659,20.9-8.807,7.209-20.976-2.916-22.511-3.8-10.154-5.821-22.361-15.57-47.392-23.229-56.757-17.363-124.832-9.743-196.714,21.526l-7.679-17.653c53.467-23.259,133.515-45.938,211.233-21.909a212.015,212.015,0,0,1,21.6,7.945c1.335.579,7.292,3.8,8.559,4.384,0,0,6.2,3.638,11,7.064,1.751,1.25,3.119.2,2.085-1.689l-6.855-12.192c-.348-.827-2.888-5.948-3.219-6.731-5.065-11.979-7.836-18.568-8.246-20.273-.089-.363-.177-.732-.3-1.181-1.308-4.359-.278-9.965,2.779-14.933,2.576-4.182,8.852-11.545,21.95-13.873,17.833-3.089,25.193,5.531,28.215,13.3l22.254,55.632c2.088,4.117,7.428,10.893,19.939,10.893h48.1c10.068,0,15.464-7.307,16.055-21.726a36.452,36.452,0,0,1-23.424,8.238c-14.859,0-29.9-9.658-29.9-28.115C887.22,2634.638,906.825,2621.965,942.421,2621.965Zm-1.819,16.815c-28.268.579-31.617,9.959-31.617,17.074,0,11.619,9.28,12.523,12.124,12.523,10.872,0,16.935-6.988,18.829-12.972a11.847,11.847,0,0,0,.664-4.132Zm-125.993,85.846,0,0v0Zm211-6.6H974.292l5.5-18.779h40.034c10.069,0,15.462-7.307,16.055-21.726a36.452,36.452,0,0,1-23.424,8.238c-14.862,0-29.907-9.658-29.907-28.115,0-23.008,19.605-35.681,55.2-35.681H1057.7v54.8c0,30.42-16.581,41.26-32.1,41.26m10.331-79.248c-28.271.579-31.617,9.959-31.617,17.074,0,11.619,9.28,12.523,12.124,12.523,10.872,0,16.935-6.988,18.826-12.972a11.775,11.775,0,0,0,.667-4.132Z" transform="translate(-545.392 -2582.523)" fill="url(#linear-gradient)"/>
</svg>
