<svg xmlns="http://www.w3.org/2000/svg" width="228.66" height="228.662" viewBox="0 0 228.66 228.662">
  <g id="notification-svgrepo-com" transform="translate(-0.001)">
    <g id="Group_12534" data-name="Group 12534" transform="translate(0.001)">
      <path id="Path_16234" data-name="Path 16234" d="M114.328,0A114.331,114.331,0,1,0,228.661,114.329,114.331,114.331,0,0,0,114.328,0Zm0,177.557a14.861,14.861,0,0,1-14.862-14.862H129.19A14.858,14.858,0,0,1,114.33,177.557Zm50.222-29.765h0c0,5.5-4.454,5.858-9.945,5.858H74.056c-5.494,0-9.944-.362-9.944-5.858v-.947a9.923,9.923,0,0,1,5.656-8.941l3.157-27.251a41.422,41.422,0,0,1,32.891-40.53V59.543a8.517,8.517,0,0,1,17.035,0v10.58a41.42,41.42,0,0,1,32.891,40.53l3.157,27.255a9.919,9.919,0,0,1,5.654,8.938Z" transform="translate(-0.001)" fill="#2baab7"/>
    </g>
  </g>
</svg>
