<svg xmlns="http://www.w3.org/2000/svg" width="311.736" height="287.434" viewBox="0 0 311.736 287.434">
  <g id="Group_12718" data-name="Group 12718" transform="translate(-0.001 0)">
    <g id="Group_12717" data-name="Group 12717" transform="translate(0.001 0)">
      <g id="Group_12667" data-name="Group 12667" transform="translate(14.127 128.007)">
        <path id="Path_16283" data-name="Path 16283" d="M240.128,132.072c14.416,0,26.1,6.214,26.1,13.884s-11.687,13.884-26.1,13.884-26.1-6.217-26.1-13.884S225.714,132.072,240.128,132.072Z" transform="translate(31.378 -106.918)" fill="#369fce" opacity="0.5"/>
        <path id="Path_16284" data-name="Path 16284" d="M181.133,120.264c4.942.592,13.152,7.356,21.513,10.491s30.765,6.263,35.064,8.1,6.745,5.482,1.134,8.846-14-4.577-24.191-7.431-40.064-7.3-44.262-11.875S175.259,119.561,181.133,120.264Z" transform="translate(12.174 -112.023)" fill="#369fce" opacity="0.5"/>
        <path id="Path_16285" data-name="Path 16285" d="M100.347,216.53,62.186,194.5c-5.051-2.915-4.412-8.055,1.421-11.422l14.057-8.117c5.833-3.367,14.736-3.735,19.785-.821l38.162,22.034c5.051,2.915,4.412,8.055-1.421,11.422l-14.057,8.117C114.3,219.077,105.4,219.446,100.347,216.53Z" transform="translate(-35.308 -89.693)" fill="#c5e1e4" opacity="0.5"/>
        <path id="Path_16286" data-name="Path 16286" d="M302.622,209.765,140.8,115.777c-3.341-1.928-9.229-1.684-13.086.542L69.035,150.2c-3.857,2.227-4.28,5.627-.939,7.557l16.385,9.516a90.317,90.317,0,0,0-14.09,5.714c-6.615,3.174-24.507,8.227-27.427,14.44s5.437,16.091,10.241,17.691c14.9,4.961,22.605-4.7,33.919-8.16,7.348-2.243,20.475-7.445,24.311-14.028l118.478,68.815c3.341,1.928,9.229,1.684,13.086-.542l58.683-33.877C305.539,215.095,305.962,211.694,302.622,209.765Z" transform="translate(-42.36 -114.476)" fill="#a8e0e6" opacity="0.5"/>
      </g>
      <g id="Group_12683" data-name="Group 12683" transform="translate(161.152)">
        <g id="Group_12669" data-name="Group 12669" transform="translate(31.151)">
          <path id="Path_16287" data-name="Path 16287" d="M175.559,65.044c5.687-2.566,8.513-11.255,9.172-16.843.666-5.66-.253-11.772,1.93-17.175,1.711-4.236,5-6.287,9.558-6.08a9.612,9.612,0,0,1,6.077,2.164,3.925,3.925,0,0,1,1.61,3.794c0,.06.009.114.007.174a.061.061,0,0,1-.06.056,4.085,4.085,0,0,1-.1.437,3.887,3.887,0,0,1-.9,1.374c-.056.057-.112.114-.174.167a3.315,3.315,0,0,1-2.816,1.019c-1.693.292-3.52.417-4.392,1.241-2.077,1.963-1.431,6.51-1.78,9.116-.343,2.566-.572,7.048-1.146,9.574C191.055,60.623,184.342,67.551,175.559,65.044Z" transform="translate(-163.32 -24.932)" fill="#2c1d1b"/>
          <path id="Path_16288" data-name="Path 16288" d="M200.584,29.554s-2.475-3.369-5.788-1.144c-4.39,2.949-3.108,5.967-1.974,6.765S200.584,29.554,200.584,29.554Z" transform="translate(-156.375 -23.764)" fill="#f2f2f2"/>
          <path id="Path_16289" data-name="Path 16289" d="M177.309,113.378l-2.02,4.363s1.045,2.933,1.913,4.676,2.354,1.475,3.655,3.665-.149,3.56-4.2,3.711-4.922-1.884-6.167-4.54-3.134-6.068-3.161-8.271c-.044-3.459,2.928-3.351,4.663-4.545C173.106,111.672,177.309,113.378,177.309,113.378Z" transform="translate(-166.855 12.571)" fill="#ffc9b6"/>
          <path id="Path_16290" data-name="Path 16290" d="M210.467,125.419a6.074,6.074,0,0,0,5.092,4.389c4.387.726,5.367.013,7.3,1.3s-.781,3.751-2.916,5.272c-3.132,2.23-6.753,1.171-9.058.658-3.082-.686-6.263-1.728-6.1-4.773a9.572,9.572,0,0,0-1.078-5.081S209.341,122.576,210.467,125.419Z" transform="translate(-151.23 17.834)" fill="#ffc9b6"/>
          <path id="Path_16291" data-name="Path 16291" d="M215.785,128.264a2.694,2.694,0,0,1-1.733,2.313c-1.777.868-5.328,1.012-6.623.071a21.858,21.858,0,0,0-2.958-1.733s-1.315,3.6,2.991,5.558,6.653,3.368,11.032,2.033,7.169-4.191,4.785-7.006C222.105,128.116,215.785,128.264,215.785,128.264Z" transform="translate(-150.982 19.452)" fill="#3f2a28"/>
          <g id="Group_12668" data-name="Group 12668" transform="translate(3.91 65.968)">
            <path id="Path_16292" data-name="Path 16292" d="M179.207,115.479a14.2,14.2,0,0,1,5.7-2.134c-5.361-9.325-5.412-18.694-3.312-29.171.58-2.9,1.784-9.668,4.772-11.256,1.2-.639,15.292-.123,16.711-.56l.086-.024c1.267,4.423,2.79,10.157,2.932,12.589.362,6.26-4.652,7.778-4.652,7.778a44.615,44.615,0,0,1-.865,6.123c-1.268,6.006-3.853,14.531-7.438,19.432.276,3.3-1.893,4.167-4.6,4.818-2.109.506-9.892,8.38-14.278,11.812-.021-.01-4.525-.53-4.525-4.828C172.4,126.736,172.7,119.952,179.207,115.479Z" transform="translate(-169.733 -70.539)" fill="#fff"/>
            <path id="Path_16293" data-name="Path 16293" d="M196.827,85.459c-.142-2.432-1.665-8.166-2.932-12.589,2.573-.782,6.1-1.369,7.031-1.793,8.374,12.454,10.837,28.415,10.993,43.311,1.96,3.106,1.238,7.128,1.2,10.676-.07,6.875,1.555,13.771,2.356,20.6.112.955.475,2.32.738,3.741a22.413,22.413,0,0,1-6.7,1.8c-2.35-6.926-6.663-14.434-7.845-21.718a23.69,23.69,0,0,1-.27-5.965c.167-1.836,1.1-3.791.409-5.582-.569-1.48-2.253-3.109-3.129-4.49-1.357-2.137-2.583-4.35-3.734-6.6-1.228-2.4-2.48-4.913-3.634-7.487a44.615,44.615,0,0,0,.865-6.123S197.188,91.719,196.827,85.459Z" transform="translate(-160.465 -71.078)" fill="#efdfdf"/>
          </g>
          <path id="Path_16294" data-name="Path 16294" d="M211.708,45.688c-3.763-4.769-5.953-4.171-10.509-1.562-5.578,3.194-10.083,5.208-12.526,7.238-4.143,3.444-6.546,10.541-7.249,19.469a51.044,51.044,0,0,1-1.405,7.336c-1.714,4.876-.878,5.678.34,6.816-.669.659-1.325,3.511.081,4.336,6.457,3.788,20.806,4.462,25.795-4.716.309-.569-.495-2.553-.891-3.065a4.045,4.045,0,0,0,1.78-3.371,7.107,7.107,0,0,0,3.986-5.3c3.835-.865,7.965-3.019,6.719-7.642-.609-2.256-2.5-7.4-3.224-10C213.18,50.078,212.781,47.049,211.708,45.688Z" transform="translate(-161.822 -17.546)" fill="#0c6094"/>
          <path id="Path_16295" data-name="Path 16295" d="M203.438,49.886c-1.051-.172-3.793-1.572-2.972-6.66.23-1.425-6.177-5.255-6.173-5.053.067,4.612-.656,9.88-2.769,12.273,3.046,3.182,6.527,11.248,11.742,10.143C206.127,59.98,205.511,55.757,203.438,49.886Z" transform="translate(-156.463 -19.248)" fill="#ffb9a4"/>
          <path id="Path_16296" data-name="Path 16296" d="M202.808,45.256s.919,4.77,1.518,6.5,1.851,5.684,1.851,5.684-1.693-.893-2.626-.427-1.677,1.708-2.477,1.908a5.1,5.1,0,0,1-1.841,0l-.563-2.2s1.671-.467,1.738-3.268-.267-6.6-.267-6.6Z" transform="translate(-153.394 -16.202)" fill="#00437f"/>
          <path id="Path_16297" data-name="Path 16297" d="M193.919,43.9c.037.081,1.42,3.329,2.763,5.785,1.425,2.6,4.314,5.191,5.864,6.512a5.161,5.161,0,0,1,1.427,5s-.822-1.976-1.9-1.667a10.775,10.775,0,0,0-3.438,2.377c-.934-1.505-3.175-3.026-4.718-5.642-1.5-2.542-3.864-6.936-2.991-10S193.919,43.9,193.919,43.9Z" transform="translate(-156.799 -16.812)" fill="#00437f"/>
          <path id="Path_16298" data-name="Path 16298" d="M208.409,34.413c-4.083-.916-6.217-1.085-9.844.383a20.254,20.254,0,0,0-5.8,2.666.512.512,0,0,0-.224.463c.933,5.378,2.738,11.082,8.776,13.469,4.963,1.964,7.75-3.485,8.613-7.136C210.935,40,211.24,35.049,208.409,34.413Z" transform="translate(-156.028 -21.162)" fill="#ffc9b6"/>
          <path id="Path_16299" data-name="Path 16299" d="M195.805,31.08c3.9-3.156,8.825-2.768,11.5-.588,2.841,2.31,5.116,5.738,3.838,9.422-1.335.266-3.229-.922-4.131-1.69-1.635,1.827-4.53,3.987-8.07,3.488-.7,2.243-2.189,7.173-4.239,7.039C190.609,40.3,189.536,36.156,195.805,31.08Z" transform="translate(-156.529 -23.277)" fill="#3f2a28"/>
          <path id="Path_16300" data-name="Path 16300" d="M198.371,40.2s-.976-3.3-3.129-1.607.895,5.042.895,5.042Z" transform="translate(-155.197 -19.273)" fill="#ffc9b6"/>
          <path id="Path_16301" data-name="Path 16301" d="M177.345,121.917s.277.768,2.307,2.119a5.166,5.166,0,0,1,2.573,4.173c0,1.085-2.354,2.6-5.517,2.386s-5-1.41-6.523-4.447-3.715-9.805-3.074-11.3c.357-.838,1.658-1.212,1.957-1.44a5.4,5.4,0,0,0-.077,2.873,24.3,24.3,0,0,0,2.6,5.732,3.281,3.281,0,0,0,4.29,1.462A2.466,2.466,0,0,0,177.345,121.917Z" transform="translate(-166.998 13.07)" fill="#3f2a28"/>
        </g>
        <g id="Group_12670" data-name="Group 12670" transform="translate(0 78.355)">
          <path id="Path_16302" data-name="Path 16302" d="M157.641,183.865a16.94,16.94,0,0,0,5.891-1.028c8.21-3.022,8.161-8.01,8.088-15.556-.016-1.43-.03-2.908.006-4.513.119-5.342,2.15-9.152,5.717-10.726,3.538-1.56,8.221-.609,11.645,2.377,1.528,1.335,2.922,2.629,4.267,3.881,5.925,5.507,10.626,9.852,18.49,9.231a10.835,10.835,0,0,0,7.772-3.9c3.49-4.19,4.783-11.755,3.74-21.875-.6-5.825-1.661-12.474-2.688-18.906-1.531-9.594-2.978-18.656-2.662-23.542.9-13.934,4.06-19.046,4.091-19.1l-.73-.467c-.134.21-3.311,5.3-4.227,19.508-.322,4.982,1.132,14.091,2.672,23.735,1.024,6.419,2.083,13.056,2.682,18.859,1.018,9.881-.207,17.222-3.545,21.23a10,10,0,0,1-7.172,3.592c-7.511.592-11.837-3.429-17.831-9-1.352-1.257-2.749-2.555-4.29-3.9-3.728-3.252-8.657-4.239-12.564-2.519s-6.107,5.8-6.234,11.5c-.036,1.618-.021,3.1-.006,4.54.07,7.435.114,11.922-7.519,14.734-8.684,3.2-17.453-2.632-17.542-2.69l-.485.719A24.454,24.454,0,0,0,157.641,183.865Z" transform="translate(-145.207 -79.743)" fill="#593d3d"/>
        </g>
        <g id="Group_12680" data-name="Group 12680" transform="translate(67.242 44.555)">
          <path id="Path_16303" data-name="Path 16303" d="M264.285,130.393v13.278c0,7.009-10.683,12.692-23.862,12.692s-23.862-5.682-23.862-12.692V130.393Z" transform="translate(-181.799 -24.187)" fill="#352221"/>
          <g id="Group_12671" data-name="Group 12671" transform="translate(34.762 113.995)">
            <path id="Path_16304" data-name="Path 16304" d="M240.423,148.534c13.179,0,23.862-5.684,23.862-12.693v1.971c0,7.009-10.683,12.691-23.862,12.691s-23.862-5.682-23.862-12.691v-1.971C216.561,142.85,227.245,148.534,240.423,148.534Z" transform="translate(-216.561 -135.841)" fill="#ff9700"/>
          </g>
          <path id="Path_16305" data-name="Path 16305" d="M198.3,78.549s2.475,7.156,5.935,14.546,9.3,10.084,18.14,6.121-9.374-29.587-9.374-29.587Z" transform="translate(-189.641 -50.287)" fill="#352221"/>
          <path id="Path_16306" data-name="Path 16306" d="M240.423,121.923c13.179,0,23.862,5.682,23.862,12.693s-10.683,12.693-23.862,12.693-23.862-5.684-23.862-12.693S227.245,121.923,240.423,121.923Z" transform="translate(-181.799 -27.825)" fill="#472f2e"/>
          <path id="Path_16307" data-name="Path 16307" d="M219.176,129.279c2.353-4.839,10.592-8.417,20.422-8.417s18.071,3.578,20.422,8.417h.695v2.815c0,6.2-9.454,11.233-21.117,11.233s-21.117-5.031-21.117-11.233v-2.815Z" transform="translate(-180.974 -28.281)" fill="#ff9700"/>
          <path id="Path_16308" data-name="Path 16308" d="M239.6,118.7c11.664,0,21.117,5.029,21.117,11.233s-9.454,11.232-21.117,11.232-21.117-5.029-21.117-11.232S227.936,118.7,239.6,118.7Z" transform="translate(-180.974 -29.211)" fill="#ffc373"/>
          <g id="Group_12672" data-name="Group 12672" transform="translate(46.15 68.142)">
            <path id="Path_16309" data-name="Path 16309" d="M246.676,134.077c3.038-1.735,4.449-3.271,4.442-4.833-.009-1.754-1.817-2.989-3.391-3.868-1.425-.8-3.129-1.54-4.778-2.259-2.6-1.134-5.285-2.306-6.683-3.614-2.742-2.567-3.128-3.6-4.06-8.264a9.091,9.091,0,0,0-7.549-7.472l-.13,1.259a7.7,7.7,0,0,1,6.437,6.462c.971,4.85,1.46,6.154,4.437,8.94,1.557,1.457,4.22,2.619,7.042,3.85,1.62.706,3.3,1.438,4.666,2.2,1.841,1.029,2.738,1.934,2.74,2.769,0,.708-.652,1.928-3.8,3.728Z" transform="translate(-224.527 -103.766)" fill="#fff"/>
          </g>
          <g id="Group_12674" data-name="Group 12674" transform="translate(32.627 115.47)">
            <g id="Group_12673" data-name="Group 12673">
              <path id="Path_16310" data-name="Path 16310" d="M227.615,147.282c0-3.771-2.293-8.153-5.122-9.785a4.693,4.693,0,0,0-2.237-.623,6.246,6.246,0,0,0-3.282.919,4.723,4.723,0,0,0-1.828,3.258L220.9,152.87a4.355,4.355,0,0,0,3.757-.133,5.907,5.907,0,0,0,2.224-2.314,8.292,8.292,0,0,0,.425-.982A6.976,6.976,0,0,0,227.615,147.282Z" transform="translate(-215.033 -136.873)" fill="#281818"/>
              <path id="Path_16311" data-name="Path 16311" d="M215.067,142.3c0,3.771,2.293,8.151,5.122,9.785s5.121-.1,5.121-3.873-2.293-8.153-5.121-9.785S215.067,138.529,215.067,142.3Z" transform="translate(-215.067 -136.469)" fill="#3f2a28"/>
              <path id="Path_16312" data-name="Path 16312" d="M215.487,142.491c0,3.331,2.024,7.2,4.522,8.64s4.522-.089,4.522-3.418-2.024-7.2-4.522-8.64S215.487,139.162,215.487,142.491Z" transform="translate(-214.887 -136.161)" fill="#46aae0"/>
              <path id="Path_16313" data-name="Path 16313" d="M216.372,142.813a5.367,5.367,0,0,0,2.24,4.28c1.238.713,2.24-.044,2.24-1.694a5.363,5.363,0,0,0-2.24-4.28C217.376,140.405,216.372,141.163,216.372,142.813Z" transform="translate(-214.506 -135.165)" fill="#fff"/>
            </g>
          </g>
          <rect id="Rectangle_18681" data-name="Rectangle 18681" width="46.333" height="7.672" transform="matrix(-0.396, -0.918, 0.918, -0.396, 47.341, 94.644)" fill="#352221"/>
          <path id="Path_16314" data-name="Path 16314" d="M221.813,126.229l17.976,10.414,12.4-7.276L234.21,118.954Z" transform="translate(-179.543 -29.1)" fill="#352221"/>
          <path id="Path_16315" data-name="Path 16315" d="M243.647,122.04c1.605,1.105,2.007,4.06,2.007,6-2.007,0-8.634-2.364-8.634-2.364L238.146,123Z" transform="translate(-173.011 -27.775)" fill="#352221"/>
          <path id="Path_16316" data-name="Path 16316" d="M221.813,122.833l3.022,4.292,12.947,4.975,12.4-7.276-15.97-9.267Z" transform="translate(-179.543 -30.559)" fill="#543a3a"/>
          <path id="Path_16317" data-name="Path 16317" d="M221.983,120.647a3.042,3.042,0,0,0-.566,2.173v2.347l4.512,2.643-1.241-3.9Z" transform="translate(-179.713 -28.373)" fill="#472f2e"/>
          <path id="Path_16318" data-name="Path 16318" d="M221.983,120.647s14.281,8.331,15.969,9.266,2.007,4.033,2.007,6c-2.79-1.615-18.543-10.749-18.543-10.749Z" transform="translate(-179.713 -28.373)" fill="#472f2e"/>
          <path id="Path_16319" data-name="Path 16319" d="M240.908,117.528v4.766c0,2.186-3.332,3.96-7.444,3.96s-7.444-1.774-7.444-3.96v-4.766Z" transform="translate(-177.735 -29.713)" fill="#ff9700"/>
          <path id="Path_16320" data-name="Path 16320" d="M233.465,114.758c4.111,0,7.444,1.773,7.444,3.96s-3.332,3.96-7.444,3.96-7.444-1.773-7.444-3.96S229.353,114.758,233.465,114.758Z" transform="translate(-177.735 -30.903)" fill="#ffc373"/>
          <g id="Group_12675" data-name="Group 12675" transform="translate(35.032 71.867)">
            <path id="Path_16321" data-name="Path 16321" d="M230.361,140.682A26.122,26.122,0,0,0,239,138.906a.633.633,0,1,0-.476-1.174c-.064.026-6.5,2.6-11.06,1.324-5.033-1.418-7.551-4.359-6.732-7.867a12.923,12.923,0,0,1,1.644-3.661,6.9,6.9,0,0,0,1.328-3.557,14.24,14.24,0,0,0-3.487-8.512c-.353-.465-.668-.879-.9-1.257a9.074,9.074,0,0,1-.992-7,.633.633,0,0,0-1.2-.395,10.262,10.262,0,0,0,1.118,8.057c.25.407.589.856.968,1.358a12.962,12.962,0,0,1,3.231,7.784,6,6,0,0,1-1.152,2.876A14,14,0,0,0,219.5,130.9c-.976,4.183,1.944,7.775,7.622,9.375A12.034,12.034,0,0,0,230.361,140.682Z" transform="translate(-216.75 -106.372)" fill="#fff"/>
          </g>
          <g id="Group_12676" data-name="Group 12676" transform="translate(14.599 17.42)">
            <path id="Path_16322" data-name="Path 16322" d="M205.387,74.119a14.953,14.953,0,0,1,3.477-2.823s.3-.2.768-.477h0a23.753,23.753,0,0,1,5.487-2.445S225.732,86.75,229.43,95.795c2.813,6.882,8.188,23.254,8.188,23.254s.033,8.347-.748,11.163l0,.006c-.024.153-.047.316-.071.459-.5,2.982-2.592,4.294-4.828,3.025a38.1,38.1,0,0,1-3.435-2.236c-5.448-3.916-11.212-16.723-14.91-25.768s-11.168-25.79-11.168-25.79S203.923,75.808,205.387,74.119Z" transform="translate(-202.456 -68.248)" fill="#ff9700"/>
            <path id="Path_16323" data-name="Path 16323" d="M207.036,73.03a14.909,14.909,0,0,1,3.477-2.823,13.376,13.376,0,0,1,3.9-1.8c1.966-.46,5.5.5,5.5.5S225.2,81.853,228.9,90.9s8.622,22.378,7.945,30.131c-.172,1.967-.373,3.524-.579,4.752-.5,2.982-2.592,4.294-4.828,3.026A38.472,38.472,0,0,1,228,126.569c-5.448-3.914-11.212-16.723-14.91-25.766s-8.988-21.984-8.988-21.984S205.572,74.719,207.036,73.03Z" transform="translate(-201.747 -68.285)" fill="#ffc373"/>
          </g>
          <g id="Group_12677" data-name="Group 12677" transform="translate(0 29.059)">
            <path id="Path_16324" data-name="Path 16324" d="M192.555,82.792,203.9,76.427l1.951,3.262-11.635,6.689Z" transform="translate(-192.11 -76.427)" fill="#ff9700"/>
            <path id="Path_16325" data-name="Path 16325" d="M192.244,81.944a3.087,3.087,0,0,0,1.289,2.463c.712.412,1.289-.024,1.289-.975a3.087,3.087,0,0,0-1.289-2.463C192.822,80.558,192.244,81,192.244,81.944Z" transform="translate(-192.244 -74.542)" fill="#ffc373"/>
          </g>
          <g id="Group_12678" data-name="Group 12678" transform="translate(30.139 11.601)">
            <path id="Path_16326" data-name="Path 16326" d="M213.327,70.837l11.392-6.548,1.756,3.528-11.489,6.6Z" transform="translate(-213.327 -64.182)" fill="#ff9700"/>
            <path id="Path_16327" data-name="Path 16327" d="M221,65.343a3.087,3.087,0,0,0,1.289,2.463c.712.412,1.289-.024,1.289-.974a3.089,3.089,0,0,0-1.289-2.465C221.581,63.958,221,64.394,221,65.343Z" transform="translate(-210.029 -64.214)" fill="#ff9700"/>
          </g>
          <path id="Path_16328" data-name="Path 16328" d="M208.969,56.1s1.344,3.218,1.777,4.627l.435,1.411s5.735,4.419,7.973,6.346,4.063.709,6.516,2.169c2.826,1.683,2.687,2.792,2.723,4.786s-2.813,3.86-2.813,3.86-7.153-5.082-10.005-6.427c-5.7-2.686-10.426-8.407-10.426-8.407a4.754,4.754,0,0,0,1.7-3.63,13.452,13.452,0,0,0-.768-3.4A3.332,3.332,0,0,1,208.969,56.1Z" transform="translate(-186.701 -56.099)" fill="#ffb9a4"/>
          <g id="Group_12679" data-name="Group 12679" transform="translate(5.945 13.875)">
            <path id="Path_16329" data-name="Path 16329" d="M199.209,80.08l-.04.313L209,74.7l12.6-7.3a33.219,33.219,0,0,1,6.623,5.482,6.421,6.421,0,0,1,.486.672l.721-.06v2.356c0,.054,0,.109,0,.162v.023h0a7.237,7.237,0,0,1-2.14,4.266c-1.751,1.981-7.565,5.349-10.852,6.286s-7.539,1.705-11.855-.01A41.3,41.3,0,0,1,196.4,82V79.71Z" transform="translate(-196.403 -65.119)" fill="#352221"/>
            <path id="Path_16330" data-name="Path 16330" d="M196.4,80.4,209,73.1l12.6-7.3a33.188,33.188,0,0,1,6.623,5.481c2.377,2.838.816,5.438-.936,7.419s-7.565,5.348-10.852,6.286-7.539,1.7-11.855-.01A41.264,41.264,0,0,1,196.4,80.4Z" transform="translate(-196.403 -65.805)" fill="#472f2e"/>
          </g>
        </g>
        <g id="Group_12681" data-name="Group 12681" transform="translate(48.761 33.253)">
          <path id="Path_16331" data-name="Path 16331" d="M191.489,62.9c.387,2.1-.269,5.347-.1,7.231,3.52,1.977,9.7,8.167,13.5,11.373,2.709.56,4.48,0,6.346,3.634,1.115,2.174-.466,4.689-2.386,5.539-2.226.986-3.96-.3-4.084-1.717.958-.948,1.108-2.546-1.76-3.451-3.474-.359-11.316-4.853-13.939-6.965-2.5-2.014-3.674-1.7-4.173-3.128-1.312-3.758-3.853-11.052-3.853-11.052S189.937,63.353,191.489,62.9Z" transform="translate(-178.577 -41.874)" fill="#ffc9b6"/>
          <path id="Path_16332" data-name="Path 16332" d="M189.316,48.2c3.753,2.03,5.485,8.745,4.595,14.516-.729,4.735-1.207,6.6-1.207,6.6s-6.118.829-10.926,1.78c-2.962-5.858-2.47-9.941-2.367-15.046C179.51,51.109,185.776,48.03,189.316,48.2Z" transform="translate(-179.316 -48.193)" fill="#0c6094"/>
          <path id="Path_16333" data-name="Path 16333" d="M192.1,63.114a14.577,14.577,0,0,0-5.6-.367,40.721,40.721,0,0,0-5.793,1.179l1.319,3.016a36.524,36.524,0,0,1,5.368-1.125,17.887,17.887,0,0,1,4.264.4Z" transform="translate(-178.716 -41.991)" fill="#00437f"/>
        </g>
        <g id="Group_12682" data-name="Group 12682" transform="translate(81.633 26.252)">
          <path id="Path_16334" data-name="Path 16334" d="M204.613,43.3a22.173,22.173,0,0,1,2.652,4.394,32.988,32.988,0,0,1,1.818,7.438,13.64,13.64,0,0,1,.1,3.358s-2.477,1.284-2.883,1.5a53.124,53.124,0,0,1-1.793-5.62c-.972-3.142-2.193-7.937-2.193-7.937A28.318,28.318,0,0,0,204.613,43.3Z" transform="translate(-202.311 -43.296)" fill="#0c6094"/>
          <path id="Path_16335" data-name="Path 16335" d="M208.035,53.922l1.008,3.115-2.893,1.335-1.174-3.331A5.573,5.573,0,0,1,208.035,53.922Z" transform="translate(-201.166 -38.732)" fill="#00437f"/>
        </g>
      </g>
      <g id="Group_12715" data-name="Group 12715" transform="translate(0 26.353)">
        <g id="Group_12697" data-name="Group 12697" transform="translate(38.338 35.107)">
          <g id="Group_12684" data-name="Group 12684" transform="translate(164.133 184.619)">
            <path id="Path_16336" data-name="Path 16336" d="M174.111,197.07v11.657c0,1.424,2.169,2.577,4.845,2.577s4.846-1.154,4.846-2.577V197.07Z" transform="translate(-174.111 -197.07)" fill="#352221"/>
          </g>
          <g id="Group_12685" data-name="Group 12685" transform="translate(217.225 153.65)">
            <path id="Path_16337" data-name="Path 16337" d="M211.25,175.406v11.658c0,1.422,2.17,2.577,4.846,2.577s4.845-1.155,4.845-2.577V175.406Z" transform="translate(-211.25 -175.406)" fill="#352221"/>
          </g>
          <g id="Group_12686" data-name="Group 12686" transform="translate(6.865 94.545)">
            <path id="Path_16338" data-name="Path 16338" d="M64.1,134.061v11.658c0,1.422,2.17,2.577,4.846,2.577s4.845-1.155,4.845-2.577V134.061Z" transform="translate(-64.098 -134.061)" fill="#352221"/>
          </g>
          <g id="Group_12687" data-name="Group 12687" transform="translate(73.376)">
            <path id="Path_16339" data-name="Path 16339" d="M187.517,104.65,124.7,68.584a3.783,3.783,0,0,0-2.848-.535l-.093-.112a8.99,8.99,0,0,0-5.961,1.986,23.68,23.68,0,0,0-4.845,5.452l8.326,6.8v34.476c0,3.976,2.439,8.636,5.421,10.357l62.82,36.067c2.982,1.721,5.421-.123,5.421-4.1V115.007C192.938,111.032,190.5,106.371,187.517,104.65Z" transform="translate(-110.484 -67.924)" fill="#74c1c9"/>
            <path id="Path_16340" data-name="Path 16340" d="M165.716,132.1a8.983,8.983,0,0,1-4.1,4.809c-5.261,3.045-7.725,2.346-7.725,2.346l-.633-10.393,9.326-2.453Z" transform="translate(-92.313 -42.801)" fill="#5ec3ef"/>
            <path id="Path_16341" data-name="Path 16341" d="M178.866,166.807l-62.821-36.066c-2.981-1.721-5.421-6.383-5.421-10.358V76.412c0-3.976,2.44-5.82,5.421-4.1l62.821,36.066c2.982,1.721,5.421,6.383,5.421,10.358v43.97C184.287,166.684,181.848,168.528,178.866,166.807Z" transform="translate(-110.624 -66.316)" fill="#369fce"/>
          </g>
          <g id="Group_12688" data-name="Group 12688" transform="translate(148.668 43.304)">
            <path id="Path_16342" data-name="Path 16342" d="M240.186,134.941l-62.82-36.066a3.786,3.786,0,0,0-2.849-.535l-.091-.11a8.984,8.984,0,0,0-5.961,1.984,23.68,23.68,0,0,0-4.845,5.452l8.326,6.8v34.476c0,3.976,2.439,8.636,5.421,10.357l62.82,36.067c2.982,1.721,5.421-.123,5.421-4.1V145.3C245.607,141.322,243.168,136.662,240.186,134.941Z" transform="translate(-163.153 -98.216)" fill="#74c1c9"/>
            <path id="Path_16343" data-name="Path 16343" d="M218.385,162.394a8.984,8.984,0,0,1-4.1,4.809c-5.261,3.045-7.725,2.346-7.725,2.346l-.633-10.393,9.325-2.453Z" transform="translate(-144.982 -73.094)" fill="#5ec3ef"/>
            <path id="Path_16344" data-name="Path 16344" d="M231.535,197.1l-62.821-36.066c-2.981-1.721-5.421-6.383-5.421-10.358V106.7c0-3.976,2.44-5.82,5.421-4.1l62.821,36.066c2.982,1.721,5.421,6.383,5.421,10.357V193C236.956,196.975,234.517,198.819,231.535,197.1Z" transform="translate(-163.293 -96.608)" fill="#38a3ae"/>
          </g>
          <g id="Group_12689" data-name="Group 12689" transform="translate(0 3.803)">
            <path id="Path_16345" data-name="Path 16345" d="M132.828,78.035a23.712,23.712,0,0,0-4.845-5.452,8.993,8.993,0,0,0-5.961-1.984l-.091.111a3.784,3.784,0,0,0-2.849.533L64.717,102.631c-2.981,1.721-5.421,6.381-5.421,10.357V156.96a6.5,6.5,0,0,0,.61,2.9l-.014.026a8.978,8.978,0,0,0,4.1,4.808c5.261,3.045,7.725,2.347,7.725,2.347l.633-10.393,46.726-26.978c2.982-1.721,5.421-6.381,5.421-10.357V84.836Z" transform="translate(-59.296 -70.584)" fill="#74c1c9"/>
            <path id="Path_16346" data-name="Path 16346" d="M70.868,164.788,125.232,133.4c2.981-1.723,5.421-6.383,5.421-10.358V79.072c0-3.976-2.44-5.82-5.421-4.1L70.868,106.361c-2.982,1.721-5.421,6.383-5.421,10.357v43.971C65.447,164.665,67.886,166.509,70.868,164.788Z" transform="translate(-56.654 -68.976)" fill="#38a3ae"/>
          </g>
          <path id="Path_16347" data-name="Path 16347" d="M271.034,191.392l-130.2-78.4c-3.028-1.748-8.367-1.527-11.865.492l-40.5,23.382-16.72-9.842c-3.58,3.514-4.269,11.079-4.269,16.81s1.76,7.179,4.629,8.836l132.995,76.784c3.028,1.748,8.367,1.528,11.864-.492l53.208-30.717C273.679,196.224,274.062,193.142,271.034,191.392Z" transform="translate(-55.778 -49.073)" fill="#38a3ae"/>
          <path id="Path_16348" data-name="Path 16348" d="M71.339,138.442l132.995,76.784c3.028,1.748,8.367,1.527,11.864-.492l53.208-30.717c3.5-2.019,3.88-5.1.852-6.85L137.262,100.383c-3.028-1.748-8.367-1.527-11.865.492L72.191,131.592C68.694,133.61,68.311,136.694,71.339,138.442Z" transform="translate(-55 -54.488)" fill="#74c1c9"/>
          <g id="Group_12690" data-name="Group 12690" transform="translate(23.714 49.029)" opacity="0.5">
            <path id="Path_16349" data-name="Path 16349" d="M185.63,140.1l-44.144,25.487c-3.364,1.941-9.293,1.7-13.178-.546L79.1,136.626c-3.884-2.243-4.31-5.665-.946-7.608L122.3,103.532c3.364-1.943,9.293-1.7,13.178.546l49.208,28.411C188.568,134.73,188.994,138.154,185.63,140.1Z" transform="translate(-75.885 -102.221)" fill="#72d8fc"/>
            <path id="Path_16350" data-name="Path 16350" d="M176.533,136.981l-38.453,22.2c-2.931,1.693-8.1,1.478-11.478-.476L83.737,133.959c-3.384-1.954-3.754-4.936-.825-6.627l38.453-22.2c2.931-1.691,8.1-1.478,11.478.476l42.865,24.748C179.092,132.308,179.462,135.29,176.533,136.981Z" transform="translate(-73.715 -101.462)" fill="#92e8ff"/>
            <path id="Path_16351" data-name="Path 16351" d="M116.246,122.067c-2.569,0-4.652,1.108-4.652,2.475s2.083,2.475,4.652,2.475,4.652-1.108,4.652-2.475S118.815,122.067,116.246,122.067Z" transform="translate(-60.546 -93.697)" fill="#46aae0"/>
            <path id="Path_16352" data-name="Path 16352" d="M112.942,107.086s-.433,2.306.432,7.206,2.041,10.517,2.041,10.517a60.117,60.117,0,0,0,.3-10.373A17.607,17.607,0,0,0,112.942,107.086Z" transform="translate(-60.014 -100.132)" fill="#5ec3ef"/>
            <path id="Path_16353" data-name="Path 16353" d="M121.479,124.573a31.928,31.928,0,0,1,13.549-4.013c7.351-.289,16.72,2.595,16.72,2.595s-11.82-1.535-16.72-1.056S121.479,124.573,121.479,124.573Z" transform="translate(-56.3 -94.353)" fill="#5ec3ef"/>
            <path id="Path_16354" data-name="Path 16354" d="M86.364,122.439a31.938,31.938,0,0,1,13.824-2.936c7.351.29,16.464,3.9,16.464,3.9s-11.662-2.459-16.586-2.367S86.364,122.439,86.364,122.439Z" transform="translate(-71.383 -94.806)" fill="#5ec3ef"/>
            <path id="Path_16355" data-name="Path 16355" d="M115.385,127.991a34.028,34.028,0,0,0-.272,9.163,40.562,40.562,0,0,0,2.253,9.08s-.116-4.976-.287-10.955C116.931,130.091,115.385,127.991,115.385,127.991Z" transform="translate(-59.107 -91.152)" fill="#5ec3ef"/>
          </g>
          <g id="Group_12691" data-name="Group 12691" transform="translate(94.448 90.797)" opacity="0.57">
            <path id="Path_16356" data-name="Path 16356" d="M235.108,169.313,190.964,194.8c-3.362,1.941-9.292,1.7-13.176-.548L128.58,165.844c-3.884-2.243-4.31-5.667-.946-7.608l44.144-25.487c3.364-1.941,9.293-1.7,13.176.546l49.209,28.411C238.046,163.948,238.472,167.371,235.108,169.313Z" transform="translate(-125.365 -131.439)" fill="#74c1c9"/>
            <path id="Path_16357" data-name="Path 16357" d="M226.011,166.2l-38.453,22.2c-2.929,1.691-8.094,1.477-11.478-.476l-42.865-24.748c-3.382-1.953-3.754-4.935-.823-6.626l38.453-22.2c2.929-1.693,8.1-1.478,11.478.475l42.865,24.748C228.57,161.525,228.942,164.508,226.011,166.2Z" transform="translate(-123.195 -130.679)" fill="#92e8ff"/>
            <path id="Path_16358" data-name="Path 16358" d="M165.725,151.285c-2.569,0-4.652,1.108-4.652,2.475s2.083,2.475,4.652,2.475,4.653-1.108,4.653-2.475S168.3,151.285,165.725,151.285Z" transform="translate(-110.026 -122.914)" fill="#46aae0"/>
            <path id="Path_16359" data-name="Path 16359" d="M162.42,136.3s-.432,2.307.433,7.208,2.041,10.517,2.041,10.517a60.018,60.018,0,0,0,.3-10.373A17.586,17.586,0,0,0,162.42,136.3Z" transform="translate(-109.494 -129.35)" fill="#5ec3ef"/>
            <path id="Path_16360" data-name="Path 16360" d="M170.959,153.791a31.933,31.933,0,0,1,13.549-4.014c7.351-.287,16.72,2.595,16.72,2.595s-11.819-1.534-16.72-1.055S170.959,153.791,170.959,153.791Z" transform="translate(-105.78 -123.571)" fill="#5ec3ef"/>
            <path id="Path_16361" data-name="Path 16361" d="M135.844,151.657a31.936,31.936,0,0,1,13.822-2.936c7.351.29,16.464,3.9,16.464,3.9s-11.662-2.457-16.584-2.366S135.844,151.657,135.844,151.657Z" transform="translate(-120.863 -124.024)" fill="#5ec3ef"/>
            <path id="Path_16362" data-name="Path 16362" d="M164.864,157.208a34.013,34.013,0,0,0-.27,9.165,40.561,40.561,0,0,0,2.253,9.08s-.117-4.978-.289-10.955C166.409,159.309,164.864,157.208,164.864,157.208Z" transform="translate(-108.587 -120.37)" fill="#5ec3ef"/>
          </g>
          <path id="Path_16363" data-name="Path 16363" d="M177.575,127.991s-19.209,8.936-30.644,15.538-27.968,19.143-27.968,19.143,18.57-11.15,29.573-16.959S177.575,127.991,177.575,127.991Z" transform="translate(-33.666 -42.123)" fill="#38a3ae"/>
          <g id="Group_12693" data-name="Group 12693" transform="translate(67.164 2.063)">
            <g id="Group_12692" data-name="Group 12692">
              <path id="Path_16364" data-name="Path 16364" d="M114.9,112.009c.149,6.046,6.5,12.388,9.05,14.413,5.151,4.087,10.927,6.932,16.646,10.166,6.07,3.434,17.062,6.429,25.469,2.609,5.664-2.575,7.318-10.188,7.578-13.562.286-3.687-.625-7.066-1.151-10.659,4.5-.926,6.583-2.272,5.976-4.036-.669-1.947-2.346-2.17-6.517-2.071-.59-4.939-2.15-7.568-4.73-11.383-2-1.338-4.07-2.59-5.977-3.858-9.059-6.02-18.5-11.678-27.87-17.2-3.82-2.253-11.155-5.391-15.6-5.358a6.76,6.76,0,0,0-5.286-1.618c-3.753.625-4.36,4-2.682,6.33-2.126,3.835-3.6,18.834-3.521,21.28a48.823,48.823,0,0,0,1.069,7.059A22.538,22.538,0,0,0,114.9,112.009Z" transform="translate(-106.279 -69.368)" fill="#f9423e"/>
              <path id="Path_16365" data-name="Path 16365" d="M107.729,111.611c.8,2.089,4.281,2.339,6.369,1.861,6.462,9.74,17.379,17.878,27.789,22.345,6.077,2.609,21.888,6.063,28.72,4.713,1.4,2.812,4.547,4.369,6.223,3.264,2.283-1.505,1.5-3.8,1.1-6.011,2.086-1.635,4.713-2.755,6.406-13.852.608-3.981.446-15.269-2.682-18.331.935-1.251,2.589-4.971,1.192-6.472-1.765-1.894-5.362-1.713-7.374-1.638-1.767-3.484-5.055-6.106-8.567-8.454,2.58,3.815,4.14,6.444,4.73,11.383,4.171-.1,5.848.124,6.517,2.071.608,1.764-1.48,3.109-5.976,4.036.526,3.592,1.437,6.972,1.151,10.659-.26,3.374-1.914,10.988-7.578,13.562-8.407,3.82-19.4.825-25.469-2.609-5.718-3.234-11.495-6.078-16.646-10.165-2.55-2.024-8.9-8.367-9.05-14.413a22.538,22.538,0,0,1-7.552-7.894c.673,3.3,1.563,7.069,2.376,10.464C108.846,107.972,106.789,109.158,107.729,111.611Z" transform="translate(-105.957 -60.919)" fill="#e52c2c"/>
            </g>
            <path id="Path_16366" data-name="Path 16366" d="M114.621,71.806a3.025,3.025,0,0,0-2.286-1,.333.333,0,0,0-.233.56,12.355,12.355,0,0,1,2.019,1.951c.269.4.853,1.094,1.292.467C115.869,73.133,115.052,72.243,114.621,71.806Z" transform="translate(-103.82 -68.753)" fill="#e52c2c"/>
            <path id="Path_16367" data-name="Path 16367" d="M112.454,73.654a3.645,3.645,0,0,0-2.057,1.311c-.334.45-1,1.464-.546,2.029.343.427.8.126,1.019-.262a5.219,5.219,0,0,1,1.9-2.337A.407.407,0,0,0,112.454,73.654Z" transform="translate(-104.811 -67.533)" fill="#e52c2c"/>
            <path id="Path_16368" data-name="Path 16368" d="M110.93,95.14c-.273-.785-.859-1.377-1.128-2.173s-.134-1.635-.349-2.426a.232.232,0,0,0-.386-.1c-1.072,1.348-.134,4.546,1.511,5.052A.288.288,0,0,0,110.93,95.14Z" transform="translate(-105.278 -60.347)" fill="#e52c2c"/>
            <path id="Path_16369" data-name="Path 16369" d="M115,98.843c-.35-.791-.956-1.41-1.271-2.233-.289-.758-.312-1.571-.576-2.329a.2.2,0,0,0-.357-.046c-1.126,1.542-.047,4.636,1.66,5.315C114.894,99.724,115.147,99.178,115,98.843Z" transform="translate(-103.678 -58.725)" fill="#e52c2c"/>
            <path id="Path_16370" data-name="Path 16370" d="M148.385,109.7a.256.256,0,0,0-.43.179,15.333,15.333,0,0,1-.073,2.67c-.206.783-.776,1.392-.841,2.206a.408.408,0,0,0,.513.39C149.326,114.592,149.643,110.872,148.385,109.7Z" transform="translate(-88.77 -52.073)" fill="#e52c2c"/>
            <path id="Path_16371" data-name="Path 16371" d="M147.045,117.032a16.576,16.576,0,0,1-2.941-.292,13.5,13.5,0,0,1-2.619-1.338.211.211,0,0,0-.307.236c.63,2.214,4.194,3.527,6.078,2.174A.423.423,0,0,0,147.045,117.032Z" transform="translate(-91.292 -49.604)" fill="#e52c2c"/>
            <path id="Path_16372" data-name="Path 16372" d="M127.143,78.382c-3.98-1.7-9.805-4.416-13.764-1.77-7.061,4.718,2.689,15.593,7.787,18.31,5.261,2.8,20.535,8.839,22.9-1.078C145.562,87.531,129.2,79.258,127.143,78.382Z" transform="translate(-104.294 -66.73)" fill="#ff6161"/>
          </g>
          <g id="Group_12695" data-name="Group 12695" transform="translate(138.679 43.679)">
            <g id="Group_12694" data-name="Group 12694">
              <path id="Path_16373" data-name="Path 16373" d="M164.931,141.121c.149,6.046,6.5,12.388,9.049,14.413,5.151,4.087,10.927,6.932,16.646,10.166,6.07,3.432,17.063,6.429,25.469,2.609,5.665-2.575,7.318-10.188,7.579-13.562.286-3.687-.626-7.066-1.151-10.659,4.5-.926,6.583-2.272,5.975-4.037-.67-1.946-2.346-2.169-6.517-2.07-.59-4.939-2.15-7.568-4.73-11.385-2-1.338-4.071-2.589-5.978-3.857-9.058-6.02-18.5-11.678-27.869-17.2-3.82-2.253-11.155-5.391-15.6-5.358a6.766,6.766,0,0,0-5.286-1.62c-3.753.626-4.36,4-2.683,6.331-2.126,3.835-3.6,18.834-3.521,21.28a49.066,49.066,0,0,0,1.071,7.059A22.538,22.538,0,0,0,164.931,141.121Z" transform="translate(-156.305 -98.479)" fill="#f9423e"/>
              <path id="Path_16374" data-name="Path 16374" d="M157.755,140.724c.8,2.089,4.283,2.339,6.369,1.86,6.462,9.741,17.379,17.878,27.789,22.347,6.077,2.609,21.889,6.063,28.721,4.713,1.4,2.812,4.546,4.369,6.223,3.264,2.283-1.507,1.5-3.8,1.1-6.011,2.086-1.635,4.712-2.755,6.4-13.852.608-3.983.447-15.269-2.68-18.331.935-1.251,2.589-4.972,1.191-6.472-1.765-1.894-5.362-1.713-7.374-1.638-1.767-3.484-5.053-6.106-8.566-8.456,2.58,3.817,4.14,6.446,4.73,11.385,4.171-.1,5.847.124,6.517,2.07.608,1.766-1.48,3.111-5.975,4.037.525,3.592,1.437,6.972,1.151,10.659-.262,3.374-1.914,10.987-7.579,13.562-8.406,3.82-19.4.823-25.469-2.609-5.718-3.234-11.495-6.078-16.646-10.166-2.549-2.024-8.9-8.367-9.049-14.413a22.538,22.538,0,0,1-7.552-7.894c.672,3.3,1.561,7.068,2.376,10.464C158.872,137.084,156.816,138.271,157.755,140.724Z" transform="translate(-155.983 -90.031)" fill="#e52c2c"/>
            </g>
            <path id="Path_16375" data-name="Path 16375" d="M164.647,100.918a3.02,3.02,0,0,0-2.286-1,.332.332,0,0,0-.232.56,12.4,12.4,0,0,1,2.017,1.95c.269.4.855,1.1,1.292.469C165.9,102.245,165.077,101.355,164.647,100.918Z" transform="translate(-153.845 -97.864)" fill="#e52c2c"/>
            <path id="Path_16376" data-name="Path 16376" d="M162.481,102.766a3.64,3.64,0,0,0-2.057,1.311c-.336.45-1,1.464-.548,2.027.343.429.8.127,1.021-.26a5.2,5.2,0,0,1,1.9-2.337A.407.407,0,0,0,162.481,102.766Z" transform="translate(-154.836 -96.644)" fill="#e52c2c"/>
            <path id="Path_16377" data-name="Path 16377" d="M160.957,124.252c-.274-.785-.859-1.377-1.128-2.173s-.136-1.635-.35-2.426a.232.232,0,0,0-.385-.1c-1.072,1.349-.136,4.547,1.51,5.053A.289.289,0,0,0,160.957,124.252Z" transform="translate(-155.304 -89.458)" fill="#e52c2c"/>
            <path id="Path_16378" data-name="Path 16378" d="M165.026,127.954c-.349-.789-.955-1.408-1.271-2.232-.289-.758-.31-1.571-.575-2.329a.2.2,0,0,0-.357-.047c-1.126,1.544-.049,4.637,1.66,5.316C164.92,128.836,165.175,128.29,165.026,127.954Z" transform="translate(-153.704 -87.837)" fill="#e52c2c"/>
            <path id="Path_16379" data-name="Path 16379" d="M198.411,138.813a.255.255,0,0,0-.429.177,15.491,15.491,0,0,1-.073,2.672c-.206.783-.778,1.391-.841,2.206a.408.408,0,0,0,.513.39C199.353,143.7,199.67,139.984,198.411,138.813Z" transform="translate(-138.796 -81.184)" fill="#e52c2c"/>
            <path id="Path_16380" data-name="Path 16380" d="M197.071,146.144a16.6,16.6,0,0,1-2.941-.292,13.492,13.492,0,0,1-2.617-1.338.212.212,0,0,0-.309.236c.63,2.214,4.194,3.527,6.078,2.174A.423.423,0,0,0,197.071,146.144Z" transform="translate(-141.318 -78.716)" fill="#e52c2c"/>
            <path id="Path_16381" data-name="Path 16381" d="M177.17,107.494c-3.981-1.7-9.805-4.416-13.764-1.77-7.062,4.717,2.688,15.593,7.787,18.31,5.261,2.8,20.535,8.839,22.894-1.078C195.589,116.643,179.228,108.37,177.17,107.494Z" transform="translate(-154.32 -95.842)" fill="#ff6161"/>
          </g>
          <g id="Group_12696" data-name="Group 12696" transform="translate(157.293 94.976)">
            <path id="Path_16382" data-name="Path 16382" d="M242.858,141.813a23.712,23.712,0,0,0-4.845-5.452,8.982,8.982,0,0,0-5.961-1.984l-.091.11a3.793,3.793,0,0,0-2.849.535l-54.364,31.387c-2.981,1.721-5.421,6.383-5.421,10.358v43.97a6.507,6.507,0,0,0,.61,2.9l-.014.026a8.978,8.978,0,0,0,4.1,4.808c5.261,3.045,7.725,2.347,7.725,2.347l.633-10.394h0l46.726-26.977c2.982-1.721,5.421-6.383,5.421-10.358V148.614Z" transform="translate(-169.326 -134.362)" fill="#74c1c9"/>
            <path id="Path_16383" data-name="Path 16383" d="M180.9,228.565l54.364-31.387c2.981-1.721,5.421-6.381,5.421-10.357V142.849c0-3.976-2.44-5.82-5.421-4.1L180.9,170.139c-2.982,1.721-5.421,6.381-5.421,10.357v43.971C175.477,228.442,177.916,230.286,180.9,228.565Z" transform="translate(-166.684 -132.754)" fill="#38a3ae"/>
          </g>
          <path id="Path_16384" data-name="Path 16384" d="M180.817,199.571a15.562,15.562,0,0,0-1.452-2.432,5.558,5.558,0,0,1-.532-1.525,8.592,8.592,0,0,0-.222-1.574.415.415,0,0,0-.746-.1c-.69.989-.263,2.735.154,3.764.452,1.116,1.161,2.229,2.439,2.336A.376.376,0,0,0,180.817,199.571Z" transform="translate(-8.522 -13.877)" fill="#369fce"/>
          <path id="Path_16385" data-name="Path 16385" d="M185.375,196.764a3.844,3.844,0,0,0-2.2-1.225,5.6,5.6,0,0,0-2.622-.287.29.29,0,0,0-.069.525c.709.369,1.481.555,2.219.855a7.434,7.434,0,0,0,2.247.866A.491.491,0,0,0,185.375,196.764Z" transform="translate(-7.297 -13.257)" fill="#369fce"/>
          <path id="Path_16386" data-name="Path 16386" d="M215.727,141.836a.255.255,0,0,0-.039.3c.333.553,1.122.732,1.657,1.058.68.413,1.2,1.084,1.914,1.431a.531.531,0,0,0,.769-.59C219.819,142.662,216.969,140.685,215.727,141.836Z" transform="translate(7.867 -36.325)" fill="#369fce"/>
          <path id="Path_16387" data-name="Path 16387" d="M220.3,146.247a.347.347,0,0,0-.663,0,7.736,7.736,0,0,1-.841,2.207,14.108,14.108,0,0,0-1.294,1.794c-.109.256.006.7.37.646C219.815,150.634,220.644,147.914,220.3,146.247Z" transform="translate(8.643 -34.387)" fill="#369fce"/>
          <path id="Path_16388" data-name="Path 16388" d="M217.768,169.97a.317.317,0,0,0-.619.084,31.357,31.357,0,0,1-.27,3.6,8.558,8.558,0,0,0-.346,2.695.5.5,0,0,0,.826.219C218.6,174.981,218.305,171.8,217.768,169.97Z" transform="translate(8.231 -24.187)" fill="#369fce"/>
          <path id="Path_16389" data-name="Path 16389" d="M215.37,176.638c-.452-.761-.9-1.532-1.41-2.253-.193-.272-.695-.12-.576.243.263.8.6,1.571.926,2.343a5.391,5.391,0,0,0,1.1,2.05c.3.266.915.112.869-.36A4.937,4.937,0,0,0,215.37,176.638Z" transform="translate(6.884 -22.254)" fill="#369fce"/>
          <path id="Path_16390" data-name="Path 16390" d="M213.214,179.692c-.645-.182-1.332-.107-1.986-.293a13.467,13.467,0,0,1-1.851-.972c-.182-.08-.483.009-.453.26.2,1.681,3.032,3.009,4.413,1.948A.524.524,0,0,0,213.214,179.692Z" transform="translate(4.975 -20.471)" fill="#369fce"/>
          <path id="Path_16391" data-name="Path 16391" d="M71.534,99.7c-1.551.722-3.711,3.121-3.078,5a.472.472,0,0,0,.851.112,24,24,0,0,0,.948-2.4,8.7,8.7,0,0,1,1.714-2.141C72.277,99.961,71.887,99.534,71.534,99.7Z" transform="translate(-55.41 -54.292)" fill="#369fce"/>
          <path id="Path_16392" data-name="Path 16392" d="M73.169,106.393c-.9-.294-1.9-.133-2.828-.39a23.185,23.185,0,0,1-2.54-1.162.325.325,0,0,0-.4.4c.731,1.82,4.169,3.344,5.894,2.137A.545.545,0,0,0,73.169,106.393Z" transform="translate(-55.821 -52.075)" fill="#369fce"/>
          <path id="Path_16393" data-name="Path 16393" d="M75.262,96.139a21.188,21.188,0,0,0-1.272,2.885,17.37,17.37,0,0,0-1.249,3.307.591.591,0,0,0,1.075.453,10.705,10.705,0,0,0,1.247-3.219,12.626,12.626,0,0,0,.615-3.314A.224.224,0,0,0,75.262,96.139Z" transform="translate(-53.526 -55.851)" fill="#369fce"/>
          <path id="Path_16394" data-name="Path 16394" d="M69.918,117.407a5.926,5.926,0,0,0-.708-2.213.233.233,0,0,0-.36.047,3.191,3.191,0,0,0-.154,2.5,4.428,4.428,0,0,0,1.147,2.6c.333.267,1,.14.953-.395A14.3,14.3,0,0,0,69.918,117.407Z" transform="translate(-55.335 -47.65)" fill="#369fce"/>
          <path id="Path_16395" data-name="Path 16395" d="M63.927,134.007c-.393-.682-1.119-1.088-1.537-1.77a16.931,16.931,0,0,1-.933-2.094.281.281,0,0,0-.483,0c-.795,1.617.5,4.662,2.483,4.683A.55.55,0,0,0,63.927,134.007Z" transform="translate(-58.677 -41.258)" fill="#46aae0"/>
          <path id="Path_16396" data-name="Path 16396" d="M174.646,199.748a14.581,14.581,0,0,0-1.623-2.127c-.532-.808-.763-1.727-1.209-2.572-.253-.48-.909-.212-.948.256a5.3,5.3,0,0,0,.964,3.015c.492.8,1.211,1.864,2.2,2.046C174.354,200.424,174.809,200.137,174.646,199.748Z" transform="translate(-11.376 -13.427)" fill="#46aae0"/>
          <path id="Path_16397" data-name="Path 16397" d="M216.754,129.2a6.833,6.833,0,0,0-2.157-2.685.225.225,0,0,0-.326.252,18.426,18.426,0,0,0,1.332,2.881,9.192,9.192,0,0,0,1.424,2.835.375.375,0,0,0,.622-.164A4.886,4.886,0,0,0,216.754,129.2Z" transform="translate(7.27 -42.769)" fill="#46aae0"/>
          <path id="Path_16398" data-name="Path 16398" d="M218.782,126.458c-.114-.262-.5-.11-.507.137-.029,1.105.132,2.2.087,3.309a16.936,16.936,0,0,1-.75,3.314.484.484,0,0,0,.8.467C220.387,132.085,219.652,128.459,218.782,126.458Z" transform="translate(8.7 -42.84)" fill="#46aae0"/>
          <path id="Path_16399" data-name="Path 16399" d="M73.646,139.8c-.427-.679-1.065-1.192-1.494-1.884a22.293,22.293,0,0,1-1-2.153c-.132-.272-.5-.11-.52.14a5.33,5.33,0,0,0,2.363,4.555C73.395,140.655,73.919,140.235,73.646,139.8Z" transform="translate(-54.433 -38.845)" fill="#2a86ba"/>
          <path id="Path_16400" data-name="Path 16400" d="M73.5,137.192c-.169-.03-.352.184-.187.323.663.559,1.411,1,2.03,1.615s1.121,1.344,1.783,1.927a.289.289,0,0,0,.479-.279A5.579,5.579,0,0,0,73.5,137.192Z" transform="translate(-53.301 -38.172)" fill="#2a86ba"/>
          <path id="Path_16401" data-name="Path 16401" d="M154.258,182.454c-.878.044-1.708.359-2.6.365a16.056,16.056,0,0,1-2.815-.462.282.282,0,0,0-.273.466c1.378,1.379,4.487,1.67,6.011.415A.463.463,0,0,0,154.258,182.454Z" transform="translate(-20.984 -18.773)" fill="#2a86ba"/>
          <path id="Path_16402" data-name="Path 16402" d="M154.559,181.492c-.314-.349-1.019.019-.826.48a17.38,17.38,0,0,1,.931,2.447,26.223,26.223,0,0,0,.449,2.589.564.564,0,0,0,1.078,0C156.818,185.344,155.674,182.73,154.559,181.492Z" transform="translate(-18.745 -19.201)" fill="#2a86ba"/>
          <path id="Path_16403" data-name="Path 16403" d="M167.7,185.623a8.924,8.924,0,0,0-2.23-.891,16.241,16.241,0,0,0-2.319-.915.182.182,0,0,0-.2.263,4.726,4.726,0,0,0,4.647,2.327A.435.435,0,0,0,167.7,185.623Z" transform="translate(-14.78 -18.145)" fill="#2a86ba"/>
          <path id="Path_16404" data-name="Path 16404" d="M167.932,188.209c-.791-.432-1.724.056-2.565.167-1.126.15-2.256.009-3.384.092a.24.24,0,0,0-.12.442,5.439,5.439,0,0,0,3.4.832c.918-.027,2.382-.051,2.8-1.012A.391.391,0,0,0,167.932,188.209Z" transform="translate(-15.286 -16.332)" fill="#2a86ba"/>
          <path id="Path_16405" data-name="Path 16405" d="M167.128,192.869a6.83,6.83,0,0,0-2.525-2.716c-.252-.174-.489.154-.382.383a6.858,6.858,0,0,0,2.19,2.882C166.748,193.625,167.293,193.273,167.128,192.869Z" transform="translate(-14.237 -15.443)" fill="#2a86ba"/>
        </g>
        <g id="Group_12700" data-name="Group 12700">
          <path id="Path_16406" data-name="Path 16406" d="M79.978,98.529c2.161-1.876,4.422-6.1,5.99-8.343.019-3.813-5.99-13.225-10.053-17.5.931-2.8-.459-7.412-2.555-10.178a20.92,20.92,0,0,0-6.114-4.822L59.863,62.51S69.737,94.487,79.978,98.529Z" transform="translate(-20.715 -37.215)" fill="#0c6094"/>
          <path id="Path_16407" data-name="Path 16407" d="M69.952,148.784a27.561,27.561,0,0,1-.865,4.1,11.2,11.2,0,0,0,.143,5.016,3.018,3.018,0,0,0,2.393,1.668,7.539,7.539,0,0,0,3.269-.079,24.186,24.186,0,0,0,4.1,3.791c2.323,1.644,7.448,2.921,8.842,2.709,2.25-.343,3.454-2.1,3.282-3.228s-2.823-4.263-5-5.618a44.859,44.859,0,0,1-5.588-4.9,26.861,26.861,0,0,1-2.77-3.611Z" transform="translate(-16.858 1.85)" fill="#2c1d1b"/>
          <path id="Path_16408" data-name="Path 16408" d="M72.386,86.257s6.513,16.616,7.522,23.34,3.036,16.906,4.251,25.377a117.922,117.922,0,0,1,.633,25c-.226,3.284-1.425,11.867-.792,16.53-.712,3.031-7.818,3.409-8.662-.113-.522-2.186-5.977-21.538-6.529-27.625a28.336,28.336,0,0,1,.888-10.45s-8.873-19-11.984-26.469-.995-16.737-.995-16.737Z" transform="translate(-22.367 -24.943)" fill="#2c1d1b"/>
          <path id="Path_16409" data-name="Path 16409" d="M46.548,160.665A29.7,29.7,0,0,0,45.5,167.71c.15,2.583.766,3.2,1.547,4.068a1.548,1.548,0,0,0,1.7.5s.359,5.325,2.883,7.477,7.1,2.357,9.2,1.575.72-4.595-1.338-8.333-4.682-7.761-5.336-11.14C49.119,161.16,46.548,160.665,46.548,160.665Z" transform="translate(-26.891 7.018)" fill="#2c1d1b"/>
          <path id="Path_16410" data-name="Path 16410" d="M53.91,91.314a49.493,49.493,0,0,0-5.732,12.446c-1.787,5.578-1.5,18.959-1.5,18.959s-.459,13.175.392,17.729a30.77,30.77,0,0,1,.776,5.479,73.571,73.571,0,0,0-3.092,23.838c.565,12.916,1.617,22.179,1.617,22.179a4.437,4.437,0,0,0,4.037,2.78,7.206,7.206,0,0,0,5.228-1.788s5.541-27.344,7.594-33.577a74.923,74.923,0,0,0,2.808-13.418l4.194-30.705s8.3-5.418,4.046-19.08C71.615,87.6,53.91,91.314,53.91,91.314Z" transform="translate(-27.229 -23.115)" fill="#3f2a28"/>
          <path id="Path_16411" data-name="Path 16411" d="M60.285,62.119c1.723-.54,8.467-2.725,9.139-2.392,4.83,2.4,10.293,11.775,11,18.128.292,2.628-.214,14.586-1.778,18.79,2.279,1.022,1.89,3.1.916,4.377.929,1.267,1.571,1.5,2.063,2.728.951,2.359-.317,3.481-1.963,5.255-2.4,2.593-6.592,4.693-13.468,5.644-7.958,1.1-14.067-2.209-16.538-5.5a3.008,3.008,0,0,1,1.262-3.926C49.589,101.187,48.6,93.5,47.306,88.661c-1.954-7.279-3.877-15.939.339-21.436C49.494,64.815,56.533,63.353,60.285,62.119Z" transform="translate(-27.045 -36.354)" fill="#0c6094"/>
          <g id="Group_12698" data-name="Group 12698" transform="translate(16.912 22.532)">
            <path id="Path_16412" data-name="Path 16412" d="M69.87,61.55A44.773,44.773,0,0,1,74.4,68.206a23.679,23.679,0,0,1,2.319,7.362L65.048,81.895a98.671,98.671,0,0,0-7.089-10.65c-3.236-3.851-5.571-6.343-5.571-6.343l-2.036.862a105.216,105.216,0,0,1,6.219,9.276c.944,1.747,4.209,6.86,5,11.093.3,1.633-.692,10.866-1.3,15.672-1.088,8.562-10.554,6.795-10.554,6.795s-2.4,4.529-4.236,13.99c-1.342,6.909-.156,14.254,0,24.761a144.209,144.209,0,0,1-1.168,17.715s15.977,4.106,24.325,2.685a53.575,53.575,0,0,0,20.174-7.9,15.738,15.738,0,0,0,5.367-5.783s-4.046-15.273-7.717-29.906c-2.492-9.932-3.006-15.552-4.293-22.357a143.545,143.545,0,0,1-1.9-19.476c-.086-5.963-3.134-15.2-5.108-18.254-2.718-4.2-5.072-4.948-5.072-4.948Z" transform="translate(-44.308 -59.128)" fill="#fff"/>
            <path id="Path_16413" data-name="Path 16413" d="M68.012,94.971c-.673.036-3.876,2.746-7.368,3.246a10.888,10.888,0,0,1-7.122-1.029,21.668,21.668,0,0,0,6.94-.548C64.021,95.707,68.012,94.971,68.012,94.971Z" transform="translate(-40.35 -43.732)" fill="#efdfdf"/>
            <path id="Path_16414" data-name="Path 16414" d="M71,88.466a17.617,17.617,0,0,1-10.757,6.946s3-2.356,4.882-3.841A31.643,31.643,0,0,1,71,88.466Z" transform="translate(-37.463 -46.526)" fill="#efdfdf"/>
            <path id="Path_16415" data-name="Path 16415" d="M57.675,111.64s3.044,8.12,5.767,15.266c1.531,4.016,3.943,9.512,3.943,9.512s-3.257-1.793-6.038-7.917C58.314,121.83,57.675,111.64,57.675,111.64Z" transform="translate(-38.566 -36.572)" fill="#efdfdf"/>
          </g>
          <path id="Path_16416" data-name="Path 16416" d="M56.627,55.3s6.429,4.882,8.552,8.158c3.6,5.551,4.1,7.181.869,10.246-8.2,1.174-12.9-3.92-14.305-8.011C53.788,64.566,56.627,55.3,56.627,55.3Z" transform="translate(-24.203 -38.241)" fill="#ffb9a4"/>
          <path id="Path_16417" data-name="Path 16417" d="M53.891,61.106s.926,4.259,3.708,6.353c3.355,2.527,9.668,2.941,9.668,4.665-1.833,0-2.19.107-2.19,1.428,0,2.477-.729,3.046-.729,3.046s-5.161-1.617-8.444-2.985c-4.113-1.714-5.377-9.555-5.377-9.555S51.445,60.875,53.891,61.106Z" transform="translate(-24.725 -35.752)" fill="#00437f"/>
          <path id="Path_16418" data-name="Path 16418" d="M62.924,61.655s2.665,2.9,3.808,4.23.475,3.79,1.046,4.893a14.743,14.743,0,0,1,.825,1.853s-2.38-.482-2.84-1.853-2.839,1.1-2.839,1.1L61.241,70.5s2.539-1.624,1.683-3.358-2.286-4.018-2.286-4.018Z" transform="translate(-20.382 -35.511)" fill="#00437f"/>
          <path id="Path_16419" data-name="Path 16419" d="M71.649,56.311c-.117-2.808-.725-6.337-2.885-8.341-2.134-1.981-5.8-2.176-8.572-1.983-4.3.3-7.321,5.052-6.56,10.547.7,5.075,4.091,12.9,9.751,13.955,2.881.54,5.113-1.621,6.432-4.39A22.794,22.794,0,0,0,71.649,56.311Z" transform="translate(-23.441 -42.266)" fill="#ffc9b6"/>
          <g id="Group_12699" data-name="Group 12699" transform="translate(47.014 9.563)">
            <path id="Path_16420" data-name="Path 16420" d="M65.366,50.082a.23.23,0,0,0,.014-.026C65.366,50.1,65.363,50.1,65.366,50.082Z" transform="translate(-65.365 -50.056)" fill="#301333"/>
          </g>
          <path id="Path_16421" data-name="Path 16421" d="M51.218,54.632c-.089-3.887,1.631-8.807,5.738-10.37,2.246-.853,7.415-1.594,9.752.244a2.605,2.605,0,0,1,.662-.636,3.328,3.328,0,0,1,4.111.686,6.067,6.067,0,0,1,1.454,2.836c2.249-1.271,5.126,1.764,4.126,4.6-1.482,4.2-7.312,4.667-10.769,2.906a7.986,7.986,0,0,1-7.441,6.433c-.763,1.83-2.154,4.159-4.349,4.565C53.91,62.439,51.208,58.487,51.218,54.632Z" transform="translate(-24.429 -43.367)" fill="#3f2a28"/>
          <path id="Path_16422" data-name="Path 16422" d="M57.632,56.418s-1.039-2.233-2.808-1.008,1.4,4.949,1.4,4.949Z" transform="translate(-23.109 -38.351)" fill="#ffc9b6"/>
          <path id="Path_16423" data-name="Path 16423" d="M68.539,87.077A11.025,11.025,0,0,1,62.793,91.7a12.79,12.79,0,0,1-6.309.66s4.277-1.362,5.96-2.133S68.539,87.077,68.539,87.077Z" transform="translate(-22.166 -24.591)" fill="#efdfdf"/>
          <path id="Path_16424" data-name="Path 16424" d="M48.787,93.33s4.56,3.572,5.837,5.371.616,4.695.39,8.138-3.5,2.556-6.148,2.222-3.272-1.613-1.714-2.222a6.562,6.562,0,0,1,3.615,0s-4.209-2.34-4.457-6.616A9.345,9.345,0,0,1,48.787,93.33Z" transform="translate(-26.543 -21.905)" fill="#ffc9b6"/>
          <path id="Path_16425" data-name="Path 16425" d="M32.683,95.9a62.418,62.418,0,0,1,4.983-9.108,81.677,81.677,0,0,1,6.666-10.144c1.155-7.512,4.738-12.063,9.568-12.287,2.935,2.24,5.113,18.508,2.242,23.495-2.3,3.994-3.478,5.111-5.84,6.473-.609,1.571-2.074,2.848-3,4.164,1.68,1.2,3.63,2.6,5.162,3.744A25.451,25.451,0,0,1,58,108.092a17.5,17.5,0,0,1-2.509,3.437c-1.522,1.583-2.893,2.916-2.893,2.916S41.789,111.3,38.608,108.71a13.661,13.661,0,0,1-4.2-5.68C33.836,101.312,31.839,97.8,32.683,95.9Z" transform="translate(-32.478 -34.348)" fill="#0c6094"/>
        </g>
        <g id="Group_12701" data-name="Group 12701" transform="translate(57.233 63.242)">
          <path id="Path_16426" data-name="Path 16426" d="M138.023,213.186c-.585-.51-1.094-.958-1.5-1.324l-4.059-3.668c-11.053-9.984-21.492-19.412-37.784-35.3-8.795-8.579-17.135-20.465-18.6-49.1-.792-15.386,4-29.041,8.968-32.14a2.674,2.674,0,0,1,2.982-.22c6.942,3.853,19.112,13.361,19.235,13.456a1.738,1.738,0,0,0,2.143-2.738c-.507-.4-12.509-9.772-19.691-13.758a6.19,6.19,0,0,0-6.509.309c-6.745,4.206-11.4,19.7-10.6,35.27,1.532,29.833,10.348,42.342,19.649,51.415,16.341,15.939,26.8,25.389,37.882,35.393l4.057,3.667c.417.379.941.836,1.541,1.364,4.706,4.123,15.728,13.777,14.93,20.248-.21,1.711-1.77,3.131-3.294,4.749a12.5,12.5,0,0,1,.029,3.288,4.7,4.7,0,0,0,.986-.377c3.428-1.76,5.356-4.194,5.731-7.236C155.136,228.176,143.577,218.052,138.023,213.186Z" transform="translate(-72.514 -87.605)" fill="#593d3d"/>
        </g>
        <g id="Group_12703" data-name="Group 12703" transform="translate(86.827 73.818)">
          <path id="Path_16427" data-name="Path 16427" d="M115.635,124.123l22.555,10.72L111.168,149Z" transform="translate(-85.503 -82.496)" fill="#c6afaf"/>
          <path id="Path_16428" data-name="Path 16428" d="M116.525,123.649l22.555,10.72-27.022,14.152Z" transform="translate(-85.121 -82.7)" fill="#efdfdf"/>
          <path id="Path_16429" data-name="Path 16429" d="M139.463,131.148l.747,1.716-27.769,14.6-.7.311-.571-1.8Z" transform="translate(-85.503 -79.479)" fill="#c6afaf"/>
          <path id="Path_16430" data-name="Path 16430" d="M97.459,95s4.566,5.141,7.1,8.526c1.614,2.151,6.273,8.743,6.273,8.743l-4.563,3.3s-4.6-6.736-6.512-9.171c-1.385-1.764-6.546-7.7-6.546-7.7S94.183,95,97.459,95Z" transform="translate(-93.215 -95.004)" fill="#352221"/>
          <path id="Path_16431" data-name="Path 16431" d="M102.33,110.349c.36.533,1.7.259,2.985-.61s2.041-2.006,1.683-2.539-1.7-.259-2.983.612S101.971,109.817,102.33,110.349Z" transform="translate(-89.338 -89.882)" fill="#472f2e"/>
          <path id="Path_16432" data-name="Path 16432" d="M102.982,109.7c.23.34,1.085.166,1.91-.392s1.307-1.284,1.076-1.624-1.085-.166-1.91.392S102.752,109.36,102.982,109.7Z" transform="translate(-89.044 -89.632)" fill="#efdfdf"/>
          <g id="Group_12702" data-name="Group 12702" transform="translate(13.934 18.015)">
            <path id="Path_16433" data-name="Path 16433" d="M125.223,142.284l2.98-2.048-22.261-32.63-2.98,2.048Z" transform="translate(-102.962 -107.606)" fill="#efdfdf"/>
          </g>
          <path id="Path_16434" data-name="Path 16434" d="M112.441,141.048l.622,1.839-1.324.638-.571-1.8Z" transform="translate(-85.503 -75.226)" fill="#b29a9a"/>
        </g>
        <path id="Path_16435" data-name="Path 16435" d="M76.462,78.318a33.348,33.348,0,0,1,9.744,4.635,127.5,127.5,0,0,1,9.91,8.238l-5.128,6.868S81.945,95.441,77.4,92.825s-5.6-6.177-5.6-6.177Z" transform="translate(-15.584 -28.353)" fill="#0c6094"/>
        <path id="Path_16436" data-name="Path 16436" d="M89.578,86.5a5.223,5.223,0,0,0-4.472,2.076c-1.73,2.136-1.347,5.136.3,5.79.755.3,4.008,1.168,4.695,1.9s4.113,5.813,4.876,4.876c.885-1.085-.387-2.136-.855-3.274a2.691,2.691,0,0,1,.675-2.46c1.6,1.148,4.935,3.731,4.935,3.731s6.183-.945,2.292-6.347c-1.49-2.067-5.494-2.417-7.629-3.135A18.052,18.052,0,0,1,89.578,86.5Z" transform="translate(-10.356 -24.846)" fill="#ffc9b6"/>
        <g id="Group_12712" data-name="Group 12712" transform="translate(40.236 155.85)">
          <g id="Group_12704" data-name="Group 12704" transform="translate(46.027 60.887)">
            <path id="Path_16437" data-name="Path 16437" d="M93.49,197.089l3.452-1.953.006.01a1.64,1.64,0,0,1,1.658.133,6.176,6.176,0,0,1,2.579,4.928,2.452,2.452,0,0,1-.722,1.96v0l-.013.007a1.171,1.171,0,0,1-.243.139l-3.4,1.94Z" transform="translate(-92.534 -194.979)" fill="#281818"/>
            <path id="Path_16438" data-name="Path 16438" d="M92.821,198.614a6.176,6.176,0,0,0,2.579,4.928c1.425.822,2.579-.05,2.579-1.95a6.176,6.176,0,0,0-2.579-4.928C93.976,195.842,92.821,196.715,92.821,198.614Z" transform="translate(-92.821 -194.388)" fill="#3f2a28"/>
            <path id="Path_16439" data-name="Path 16439" d="M93.49,198.832a3.381,3.381,0,0,0,1.412,2.7c.781.45,1.412-.027,1.412-1.068a3.381,3.381,0,0,0-1.412-2.7C94.122,197.314,93.49,197.791,93.49,198.832Z" transform="translate(-92.534 -193.856)" fill="#ffab17"/>
          </g>
          <g id="Group_12705" data-name="Group 12705" transform="translate(65.111 50.088)">
            <path id="Path_16440" data-name="Path 16440" d="M106.839,189.535l3.454-1.954.006.011a1.638,1.638,0,0,1,1.657.133,6.172,6.172,0,0,1,2.579,4.926,2.451,2.451,0,0,1-.722,1.961l0,0-.013.007a1.38,1.38,0,0,1-.244.139l-3.4,1.94Z" transform="translate(-105.884 -187.425)" fill="#281818"/>
            <path id="Path_16441" data-name="Path 16441" d="M106.171,191.06a6.176,6.176,0,0,0,2.579,4.928c1.424.822,2.579-.051,2.579-1.95a6.176,6.176,0,0,0-2.579-4.928C107.325,188.288,106.171,189.16,106.171,191.06Z" transform="translate(-106.171 -186.834)" fill="#3f2a28"/>
            <path id="Path_16442" data-name="Path 16442" d="M106.839,191.278a3.387,3.387,0,0,0,1.412,2.7c.781.45,1.412-.029,1.412-1.068a3.386,3.386,0,0,0-1.412-2.7C107.472,189.759,106.839,190.237,106.839,191.278Z" transform="translate(-105.884 -186.302)" fill="#ffab17"/>
          </g>
          <g id="Group_12707" data-name="Group 12707" transform="translate(0 29.16)">
            <g id="Group_12706" data-name="Group 12706">
              <path id="Path_16443" data-name="Path 16443" d="M76.279,185.778c0-4.707-2.862-10.177-6.393-12.215a5.88,5.88,0,0,0-2.793-.778,7.786,7.786,0,0,0-4.1,1.148c-2.011,1.242-2.259,4.316-2.259,4.316l7.159,14.5a5.435,5.435,0,0,0,4.689-.166,7.341,7.341,0,0,0,2.778-2.889,9.884,9.884,0,0,0,.529-1.227A8.691,8.691,0,0,0,76.279,185.778Z" transform="translate(-60.575 -172.785)" fill="#281818"/>
              <path id="Path_16444" data-name="Path 16444" d="M60.624,179.561c0,4.708,2.862,10.175,6.393,12.214s6.393-.124,6.393-4.833-2.863-10.175-6.393-12.214S60.624,174.852,60.624,179.561Z" transform="translate(-60.624 -172.28)" fill="#3f2a28"/>
              <path id="Path_16445" data-name="Path 16445" d="M61.158,179.792c0,3.5,2.126,7.558,4.748,9.072s4.749-.093,4.749-3.59-2.126-7.558-4.749-9.072S61.158,176.3,61.158,179.792Z" transform="translate(-60.395 -171.562)" fill="#ffab17"/>
            </g>
          </g>
          <g id="Group_12708" data-name="Group 12708" transform="translate(4.091 20.097)">
            <path id="Path_16446" data-name="Path 16446" d="M66.209,175.76a6.515,6.515,0,0,0-2.723-.908v-8.407l25.921,3.67a17.94,17.94,0,0,1,7.013.994l38.7,5.479v18.974h0c.21,2.126-1.238,4.422-4.28,6.178l-12.559,7.251c-5.211,3.008-13.165,3.338-17.676.733l-28.324-16.18a10.514,10.514,0,0,0,.515-3.4C72.8,184.4,70.521,178.25,66.209,175.76Z" transform="translate(-63.486 -166.445)" fill="#ff7900"/>
          </g>
          <g id="Group_12709" data-name="Group 12709" transform="translate(2.27 19.566)">
            <path id="Path_16447" data-name="Path 16447" d="M65.074,175.864a6.824,6.824,0,0,0-2.862-.953v-8.836l27.237,3.857a18.866,18.866,0,0,1,7.371,1.044l40.671,5.758v16.007h0c.22,2.233-1.3,4.646-4.5,6.49l-13.2,7.621c-5.474,3.161-13.832,3.507-18.573.769L74.037,191.924s-.552-.279-.776-.415c0-.16.006-.576,0-.739C72.966,184.915,69.414,178.37,65.074,175.864Z" transform="translate(-62.212 -166.074)" fill="#ff9700"/>
          </g>
          <path id="Path_16448" data-name="Path 16448" d="M62.221,170.515l-.009-.011v-2.966s.5.024,1.144.07a10.813,10.813,0,0,1,3.375-2.893l13.2-7.618c5.474-3.162,13.832-3.508,18.573-.771l35.826,20.684a7.2,7.2,0,0,1,2.3,2.007l.888-.206-.017,2.457c.206,2.226-1.318,4.626-4.5,6.464l-13.2,7.619c-5.474,3.161-13.832,3.507-18.573.77L65.4,175.438C63.141,174.136,62.108,172.359,62.221,170.515Z" transform="translate(-59.942 -151.489)" fill="#352221"/>
          <path id="Path_16449" data-name="Path 16449" d="M101.227,194.03,65.4,173.347c-4.742-2.738-4.141-7.564,1.334-10.724L79.932,155c5.474-3.161,13.832-3.507,18.573-.769l35.826,20.683c4.742,2.738,4.141,7.564-1.334,10.724l-13.2,7.62C114.326,196.421,105.967,196.767,101.227,194.03Z" transform="translate(-59.946 -152.387)" fill="#ffc373"/>
          <g id="Group_12710" data-name="Group 12710" transform="translate(10.279 2.031)">
            <path id="Path_16450" data-name="Path 16450" d="M117.536,170.818,92.829,156.554c-3.269-1.888-9.033-1.648-12.809.53l-9.1,5.255a5.8,5.8,0,0,0-3,3.47c-.442-1.664.575-3.54,3-4.942l9.1-5.255c3.775-2.18,9.539-2.419,12.809-.53l24.707,14.263c1.771,1.024,2.425,2.469,2.084,3.926A4.135,4.135,0,0,0,117.536,170.818Z" transform="translate(-67.815 -153.808)" fill="#ff7900"/>
            <path id="Path_16451" data-name="Path 16451" d="M116.585,176.3l-9.1,5.254c-3.775,2.18-9.539,2.419-12.809.532L69.969,167.82a4.137,4.137,0,0,1-2.084-2.453,5.8,5.8,0,0,1,3-3.47l9.1-5.255c3.775-2.179,9.539-2.419,12.809-.53l24.707,14.264a4.135,4.135,0,0,1,2.084,2.452A5.8,5.8,0,0,1,116.585,176.3Z" transform="translate(-67.784 -153.365)" fill="#fc9b00"/>
          </g>
          <path id="Path_16452" data-name="Path 16452" d="M102.965,187.5,76.913,172.457c-3.448-1.99-3.011-5.5.971-7.8l9.6-5.541c3.981-2.3,10.058-2.55,13.506-.559l26.052,15.04c3.448,1.991,3.012,5.5-.969,7.8l-9.6,5.539C112.491,189.237,106.413,189.49,102.965,187.5Z" transform="translate(-54.626 -150.313)" fill="#efdfdf"/>
          <path id="Path_16453" data-name="Path 16453" d="M102.333,184.284,79.177,170.917c-3.064-1.77-2.676-4.889.862-6.932l8.53-4.925c3.538-2.043,8.94-2.267,12.005-.5l23.156,13.369c3.064,1.77,2.676,4.888-.862,6.93l-8.53,4.925C110.8,185.83,105.4,186.054,102.333,184.284Z" transform="translate(-53.542 -150.247)" fill="#fff"/>
          <path id="Path_16454" data-name="Path 16454" d="M114.341,168.646a22.2,22.2,0,0,0-8.983,3.121,85.268,85.268,0,0,0-8.624,7.022l-1.391-.8s5.082-5.305,9-7.465a27.274,27.274,0,0,1,8.636-2.733Z" transform="translate(-45.711 -145.771)" fill="#efdfdf"/>
          <path id="Path_16455" data-name="Path 16455" d="M110.468,166.433a22.193,22.193,0,0,0-8.982,3.121,85.272,85.272,0,0,0-8.624,7.022l-1.392-.8s5.082-5.305,9-7.465a27.284,27.284,0,0,1,8.636-2.733Z" transform="translate(-47.375 -146.721)" fill="#efdfdf"/>
          <path id="Path_16456" data-name="Path 16456" d="M106.595,164.139a22.2,22.2,0,0,0-8.982,3.119,85.265,85.265,0,0,0-8.624,7.022l-1.392-.8s5.083-5.305,9-7.465a27.274,27.274,0,0,1,8.636-2.733Z" transform="translate(-49.038 -147.707)" fill="#efdfdf"/>
          <path id="Path_16457" data-name="Path 16457" d="M102.723,161.926a22.207,22.207,0,0,0-8.983,3.119,85.372,85.372,0,0,0-8.624,7.023l-1.391-.8s5.082-5.305,9-7.465a27.274,27.274,0,0,1,8.636-2.733Z" transform="translate(-50.702 -148.657)" fill="#efdfdf"/>
          <path id="Path_16458" data-name="Path 16458" d="M98.85,159.718a22.2,22.2,0,0,0-8.982,3.119,85.269,85.269,0,0,0-8.624,7.022l-1.392-.8s5.082-5.306,9-7.465a27.27,27.27,0,0,1,8.634-2.733Z" transform="translate(-52.365 -149.606)" fill="#efdfdf"/>
          <path id="Path_16459" data-name="Path 16459" d="M82.508,184.929l-10.981-6.34v-3.054l10.981,6.34Z" transform="translate(-55.941 -142.444)" fill="#352221"/>
          <path id="Path_16460" data-name="Path 16460" d="M82.508,186.688l-10.981-6.34v-1.527l10.981,6.34Z" transform="translate(-55.941 -141.032)" fill="#352221"/>
          <g id="Group_12711" data-name="Group 12711" transform="translate(12.4 3.504)">
            <path id="Path_16461" data-name="Path 16461" d="M77.3,157.549c-.628,0-1.135.27-1.135.6s.507.6,1.135.6,1.134-.27,1.134-.6S77.926,157.549,77.3,157.549Z" transform="translate(-66.348 -153.674)" fill="#3f2a28"/>
            <path id="Path_16462" data-name="Path 16462" d="M79.629,156.188c-.628,0-1.135.27-1.135.6s.507.6,1.135.6,1.134-.27,1.134-.6S80.255,156.188,79.629,156.188Z" transform="translate(-65.348 -154.258)" fill="#3f2a28"/>
            <path id="Path_16463" data-name="Path 16463" d="M70.433,161.358c-.626,0-1.135.27-1.135.6s.509.6,1.135.6,1.135-.27,1.135-.6S71.059,161.358,70.433,161.358Z" transform="translate(-69.298 -152.037)" fill="#3f2a28"/>
            <path id="Path_16464" data-name="Path 16464" d="M72.774,160.008c-.628,0-1.135.27-1.135.6s.507.6,1.135.6,1.134-.27,1.134-.6S73.4,160.008,72.774,160.008Z" transform="translate(-68.292 -152.617)" fill="#3f2a28"/>
            <path id="Path_16465" data-name="Path 16465" d="M75.1,158.647c-.628,0-1.135.27-1.135.6s.507.6,1.135.6,1.134-.27,1.134-.6S75.729,158.647,75.1,158.647Z" transform="translate(-67.292 -153.202)" fill="#3f2a28"/>
            <path id="Path_16466" data-name="Path 16466" d="M81.969,154.838c-.626,0-1.135.27-1.135.6s.509.6,1.135.6,1.135-.27,1.135-.6S82.6,154.838,81.969,154.838Z" transform="translate(-64.343 -154.838)" fill="#3f2a28"/>
          </g>
          <path id="Path_16467" data-name="Path 16467" d="M87.936,156.7l-8.309,4.8-1.754-1.013,8.309-4.8Z" transform="translate(-53.215 -150.969)" fill="#3f2a28"/>
          <path id="Path_16468" data-name="Path 16468" d="M81.025,160.764l-8.309,4.8-1.754-1.013,8.309-4.8Z" transform="translate(-56.183 -149.224)" fill="#3f2a28"/>
        </g>
        <g id="Group_12713" data-name="Group 12713" transform="translate(101.277 198.464)">
          <path id="Path_16469" data-name="Path 16469" d="M108.385,182.524l0,.006a1.8,1.8,0,0,0-2.116.017,7.052,7.052,0,0,0-2.943,5.625,2.6,2.6,0,0,0,1,2.35l-.006.011,2.3,1.41,3.844-8.178Z" transform="translate(-103.323 -182.197)" fill="#3f2a28"/>
          <path id="Path_16470" data-name="Path 16470" d="M110.788,185.737a7.049,7.049,0,0,1-2.945,5.625c-1.625.939-2.943-.057-2.943-2.226a7.054,7.054,0,0,1,2.943-5.625C109.47,182.572,110.788,183.568,110.788,185.737Z" transform="translate(-102.646 -181.784)" fill="#493130"/>
        </g>
        <g id="Group_12714" data-name="Group 12714" transform="translate(105.355 202.347)">
          <path id="Path_16471" data-name="Path 16471" d="M126.015,206.278h-.169c-2.593-.053-4.982-1.354-7.1-3.866a53.212,53.212,0,0,1-3.352-4.6c-2.216-3.279-4.509-6.67-8.54-9.775a1.739,1.739,0,1,1,2.123-2.755,41.439,41.439,0,0,1,9.3,10.583,50.812,50.812,0,0,0,3.129,4.31c1.465,1.737,2.942,2.6,4.513,2.629h.093c3.152,0,6.543-3.258,9.155-6.108a1.739,1.739,0,1,1,2.565,2.35C134.447,202.627,130.491,206.278,126.015,206.278Z" transform="translate(-106.176 -184.913)" fill="#593d3d"/>
        </g>
      </g>
      <g id="Group_12716" data-name="Group 12716" transform="translate(31.437 198.405)">
        <path id="Path_16472" data-name="Path 16472" d="M309.62,174.274c-7.587-4.948-13.04-8.29-16.937-10.553v.825c3.863,2.25,9.212,5.534,16.551,10.318,8.72,5.687,12.493,15.666,10.09,26.7-2.758,12.653-15.235,28.817-41.33,32.731-35.468,5.316-60.07-3.181-81.773-10.68-5.8-2-11.286-3.9-16.72-5.439-12.6-3.574-28.1-.126-38.409,6.048a155.865,155.865,0,0,0-33.76-1.031c-17.7,1.524-46.077-5.834-51.111-23.1-4.294-14.729,5.825-24.2,9.434-27.026v-.889c-3.267,2.445-14.71,12.344-10.113,28.113,5.138,17.623,33.913,25.139,51.85,23.606a156.211,156.211,0,0,1,32.784.893c-4.27,2.709-7.545,5.894-9.191,9.216-1.79,3.613-2.492,8.995,4.326,14.107a22.529,22.529,0,0,0,13.679,4.64c7.076,0,13.491-3.288,16.851-7.322,3.557-4.27,3.48-8.852-.2-12.254-4.85-4.479-13.694-7.239-23.489-8.79,10.118-5.817,25-8.979,37.16-5.532,5.415,1.537,10.887,3.427,16.681,5.429,21.781,7.524,46.466,16.054,82.109,10.709,26.452-3.966,39.111-20.405,41.916-33.278C322.445,190.552,318.462,180.038,309.62,174.274ZM165.159,233.693c3.375,3.118,3.428,7.335.142,11.282-5.185,6.224-18.7,10.719-29.566,2.569-5.089-3.815-6.512-8.39-4.116-13.228,1.685-3.4,5.119-6.653,9.592-9.379C151.2,226.438,160.267,229.174,165.159,233.693Z" transform="translate(-54.468 -163.721)" fill="#593d3d"/>
      </g>
    </g>
  </g>
</svg>
