<svg xmlns="http://www.w3.org/2000/svg" xmlns:xlink="http://www.w3.org/1999/xlink" width="312.798" height="211.426" viewBox="0 0 312.798 211.426">
  <defs>
    <clipPath id="clip-path">
      <path id="Path_16480" data-name="Path 16480" d="M524.586,1174.264s-28.147.328-48.538-16.734a49.818,49.818,0,0,1,32.771,1.994s-26.553-12.265-29.668-34.569c0,0,23.948,9.085,32.58,20.609a70.333,70.333,0,0,1-14.628-33.018s17.078,13.961,20.169,18.171c0,0-1.995-19.279,3.989-30.8Z" transform="translate(-476.048 -1099.914)" fill="#a7bd37"/>
    </clipPath>
    <clipPath id="clip-path-2">
      <path id="Path_16485" data-name="Path 16485" d="M2183.527,1156.225s36.026-10.82,45.185-23.767c0,0-21.318.158-32.53,4.263,0,0,22.739-11.052,27.318-26.84,0,0-17.686,4.263-24.95,11.21,0,0,14.37-18.229,14.212-30.823,0,0-19.739,11.088-20.844,18.508,0,0-1.207-27-6.734-31.1Z" transform="translate(-2183.527 -1077.673)" fill="#a7bd37"/>
    </clipPath>
    <clipPath id="clip-path-3">
      <path id="Path_16499" data-name="Path 16499" d="M1213.2,853.5c-1.8-.41-50.465-22.853-50.574-21.609l-31.916,1.547h0a9.994,9.994,0,0,0-2.387.315l-44.223,5.842,1.526,32.286,29.569-1.155-13.548,50.947c17.418,16.482,71.356,4.081,83.537,0l-9.592-51.755,21.351,10.554Z" transform="translate(-1084.099 -831.839)" fill="#ff5c3d"/>
    </clipPath>
    <clipPath id="clip-path-4">
      <path id="Path_16505" data-name="Path 16505" d="M1349.5,535.914c4.452-41.895,45.405-14.813,27.506,14.671l3.186,16.285-15.893,2.787-1-12.437C1355.514,555.833,1349.5,546.826,1349.5,535.914Z" transform="translate(-1349.502 -514.367)" fill="#ffb6a6"/>
    </clipPath>
    <clipPath id="clip-path-5">
      <path id="Path_16509" data-name="Path 16509" d="M736.59,753.538l-55.876-28.444-5.65,9.709,45.28,37.205c4.941,3.777,11.239,4.894,17.335,4.564Z" transform="translate(-675.064 -725.094)" fill="#ffb6a6"/>
    </clipPath>
    <clipPath id="clip-path-6">
      <path id="Path_16514" data-name="Path 16514" d="M593.427,657.718s-5.391-12.517-6.216-12.828c-2.032-.765-.657,9.93-.657,9.93s-16.328,2.818-16.114,2.78,15.664,8.975,15.664,8.975Z" transform="translate(-570.438 -644.851)" fill="#ffb6a6"/>
    </clipPath>
    <clipPath id="clip-path-7">
      <path id="Path_16517" data-name="Path 16517" d="M1858.21,894.839l58.242-20.872,1.043,11.355c-7.357,3.446-49.056,33.416-57.088,31.986-4.709.435-9.526-1.43-13.792-3.231Z" transform="translate(-1846.614 -873.967)" fill="#ffb6a6"/>
    </clipPath>
  </defs>
  <g id="Group_12721" data-name="Group 12721" transform="translate(-255.435 -400.49)">
    <g id="Group_12723" data-name="Group 12723" transform="translate(306.66 400.49)">
      <path id="Path_16475" data-name="Path 16475" d="M867.369,430.264H810.493a3.752,3.752,0,0,0-3.753,3.752c.46,33.345-6.936,22.371,41.476,24.2l11.831,8.9a.944.944,0,0,0,1.512-.755v-8.143c3.223-.189,9.465,1.256,9.561-3.752V434.016A3.752,3.752,0,0,0,867.369,430.264Z" transform="translate(-806.58 -430.264)" fill="#74c1c9"/>
      <g id="Group_12722" data-name="Group 12722" transform="translate(7.285 5.78)">
        <rect id="Rectangle_18683" data-name="Rectangle 18683" width="26.742" height="3.518" fill="#fff"/>
        <rect id="Rectangle_18684" data-name="Rectangle 18684" width="26.742" height="3.518" transform="translate(0 12.481)" fill="#fff"/>
        <rect id="Rectangle_18685" data-name="Rectangle 18685" width="26.742" height="3.518" transform="translate(23.795 6.24)" fill="#fff"/>
        <rect id="Rectangle_18686" data-name="Rectangle 18686" width="10.082" height="3.518" transform="translate(28.723)" fill="#fff"/>
        <rect id="Rectangle_18687" data-name="Rectangle 18687" width="10.082" height="3.518" transform="translate(40.455)" fill="#fff"/>
        <rect id="Rectangle_18688" data-name="Rectangle 18688" width="10.082" height="3.518" transform="translate(0 6.24)" fill="#fff"/>
        <rect id="Rectangle_18689" data-name="Rectangle 18689" width="10.082" height="3.518" transform="translate(11.733 6.24)" fill="#fff"/>
      </g>
    </g>
    <g id="Group_12725" data-name="Group 12725" transform="translate(257.167 500.761)">
      <path id="Path_16476" data-name="Path 16476" d="M524.586,1174.264s-28.147.328-48.538-16.734a49.818,49.818,0,0,1,32.771,1.994s-26.553-12.265-29.668-34.569c0,0,23.948,9.085,32.58,20.609a70.333,70.333,0,0,1-14.628-33.018s17.078,13.961,20.169,18.171c0,0-1.995-19.279,3.989-30.8Z" transform="translate(-476.048 -1099.914)" fill="#a7bd37"/>
      <g id="Group_12724" data-name="Group 12724" transform="translate(0 0)" clip-path="url(#clip-path)">
        <path id="Path_16477" data-name="Path 16477" d="M544.727,1307.342c-14.494-7.185-36.793-30.2-49.237-41.257-.251-.089-.109-.522.162-.4C507.49,1276.737,531.891,1299.848,544.727,1307.342Z" transform="translate(-492.467 -1240.842)" fill="#3e5409"/>
        <path id="Path_16478" data-name="Path 16478" d="M643.411,1221.876a.217.217,0,0,1-.148-.058c-2.644-2.45-7.781-8.338-17.24-22.47-5.683-8.88-10.536-15.658-10.208-16.314.734.008,4.538,7.418,10.572,16.073C633.638,1210.654,640.7,1217.945,643.411,1221.876Z" transform="translate(-594.873 -1170.587)" fill="#3e5409"/>
        <path id="Path_16479" data-name="Path 16479" d="M526.911,1497.572c-5.112-2.9-51.865-12.782-52.281-13.516.519-.52,11.777,2.635,24.442,5.461C515.552,1493.85,525.877,1495.562,526.911,1497.572Z" transform="translate(-474.842 -1426.488)" fill="#3e5409"/>
      </g>
    </g>
    <g id="Group_12727" data-name="Group 12727" transform="translate(512.838 497.431)">
      <path id="Path_16481" data-name="Path 16481" d="M2183.527,1156.225s36.026-10.82,45.185-23.767c0,0-21.318.158-32.53,4.263,0,0,22.739-11.052,27.318-26.84,0,0-17.686,4.263-24.95,11.21,0,0,14.37-18.229,14.212-30.823,0,0-19.739,11.088-20.844,18.508,0,0-1.207-27-6.734-31.1Z" transform="translate(-2183.527 -1077.673)" fill="#a7bd37"/>
      <g id="Group_12726" data-name="Group 12726" clip-path="url(#clip-path-2)">
        <path id="Path_16482" data-name="Path 16482" d="M2117.716,1462.177c5.027-5.151,53.414-18.813,55.247-19.032C2172.542,1443.911,2124.263,1457.282,2117.716,1462.177Z" transform="translate(-2127.57 -1388.421)" fill="#3e5409"/>
        <path id="Path_16483" data-name="Path 16483" d="M2171,1317.814c3.411-4.572,37.991-23.88,42.039-25.759C2212.867,1292.83,2178.5,1311.516,2171,1317.814Z" transform="translate(-2172.874 -1259.954)" fill="#3e5409"/>
        <path id="Path_16484" data-name="Path 16484" d="M2177.876,1196.412c8.366-6.082,29.764-35.589,30.205-35.825C2206.619,1164.644,2181.562,1195.92,2177.876,1196.412Z" transform="translate(-2178.722 -1148.172)" fill="#3e5409"/>
      </g>
    </g>
    <g id="Group_12749" data-name="Group 12749" transform="translate(255.435 409.717)">
      <g id="Group_12730" data-name="Group 12730" transform="translate(34.258 37.44)">
        <path id="Path_16486" data-name="Path 16486" d="M693.328,1776.688c.231,2.5-.974,7.712,1.931,9.1h0c1.966,1.568,230.28-.006,232.5.536a4.486,4.486,0,0,0,3.119-1.268h0c1.916-1.537,1.256-5.216,1.36-7.332Z" transform="translate(-693.269 -1621.747)" fill="#2baab7"/>
        <g id="Group_12729" data-name="Group 12729" transform="translate(0.245)">
          <rect id="Rectangle_18690" data-name="Rectangle 18690" width="215.295" height="130.115" rx="50.633" transform="translate(11.544)" fill="#38385c"/>
          <rect id="Rectangle_18691" data-name="Rectangle 18691" width="195.109" height="111.875" transform="translate(21.637 9.12)" fill="#2baab7"/>
          <g id="Group_12728" data-name="Group 12728" transform="translate(0 130.115)">
            <path id="Path_16487" data-name="Path 16487" d="M929.613,1640.532H699.19a4.273,4.273,0,0,1-3.336-6.944l18.18-22.7h200.13l18.742,22.647A4.273,4.273,0,0,1,929.613,1640.532Z" transform="translate(-694.908 -1610.888)" fill="#74c1c9"/>
            <path id="Path_16488" data-name="Path 16488" d="M767.821,1610.888h200.13l-209.784,12.054Z" transform="translate(-748.695 -1610.888)" fill="#2baab7"/>
          </g>
        </g>
        <path id="Path_16489" data-name="Path 16489" d="M887.968,802.832l-48.559,70.706v41.169h38.7l76.963-111.875Z" transform="translate(-817.527 -793.712)" fill="#74c1c9" opacity="0.48"/>
        <path id="Path_16490" data-name="Path 16490" d="M1422.3,802.832,1347.77,914.707h55.362l63.627-95.672v-16.2Z" transform="translate(-1249.768 -793.712)" fill="#74c1c9"/>
        <path id="Path_16491" data-name="Path 16491" d="M1034.517,802.832,846.957,810.8l-7.548,100.46V802.832Z" transform="translate(-817.527 -793.712)" fill="#74c1c9"/>
      </g>
      <g id="Group_12748" data-name="Group 12748" transform="translate(0 0)">
        <path id="Path_16492" data-name="Path 16492" d="M1241.1,1431.781l-3.49,17.7h67.8s4.32-8.98,2.991-17.7Z" transform="translate(-1121.846 -1291.045)" fill="#1a1a35"/>
        <g id="Group_12747" data-name="Group 12747">
          <path id="Path_16493" data-name="Path 16493" d="M1305.209,499.394c7.358,6.9,8.727,17.965,11.093,27.456,2.017,6.061,8.178,10.133,9.241,16.577,1.122,6.8-5.92,13.38-11.261,16.4-7.67,3.8-22.148,3.027-30.922,2.984-20.594-1.193-36.045-27.206-24.885-45.261,3.057-5.114,5.42-10.463,8.3-15.654,3.959-7.653,9.623-9.514,17.815-9.822A23.982,23.982,0,0,1,1305.209,499.394Z" transform="translate(-1136.407 -491.882)" fill="#1a1a35"/>
          <g id="Group_12746" data-name="Group 12746" transform="translate(0 3.367)">
            <g id="Group_12733" data-name="Group 12733" transform="translate(92.779 47.537)">
              <g id="Group_12732" data-name="Group 12732">
                <path id="Path_16494" data-name="Path 16494" d="M1213.2,853.5c-1.8-.41-50.465-22.853-50.574-21.609l-31.916,1.547h0a9.994,9.994,0,0,0-2.387.315l-44.223,5.842,1.526,32.286,29.569-1.155-13.548,50.947c17.418,16.482,71.356,4.081,83.537,0l-9.592-51.755,21.351,10.554Z" transform="translate(-1084.099 -831.839)" fill="#ff5c3d"/>
                <g id="Group_12731" data-name="Group 12731" clip-path="url(#clip-path-3)">
                  <path id="Path_16495" data-name="Path 16495" d="M1219.556,1242.207c24.763,11.225,50.278,11.556,75.159-.811l2.88,9.254c-31.367,13.77-48.1,12.713-80.835,2.057Z" transform="translate(-1196.895 -1180.071)" fill="#fff"/>
                  <path id="Path_16496" data-name="Path 16496" d="M1253.565,1135.341c29.366,11.263,37.474,11.976,67.366,1.177l1.723,7.9c-30.53,11.172-42.461,13.957-70.6,0Z" transform="translate(-1226.903 -1089.896)" fill="#fff"/>
                  <path id="Path_16497" data-name="Path 16497" d="M1075.77,986.525l36.953-8.106-5.1,18.782-31.356,1.6Z" transform="translate(-1077.017 -956.471)" fill="#df4930" opacity="0.41"/>
                  <path id="Path_16498" data-name="Path 16498" d="M1679.418,1010.105l-2.765-13.39,29.721,18.08-5.013,8.826-21.943-13.516" transform="translate(-1587.927 -972.027)" fill="#df4930" opacity="0.41"/>
                </g>
              </g>
              <path id="Path_16500" data-name="Path 16500" d="M1214.828,1091.533s7.258,25.87,15.515,32.088,44.412,21.392,44.412,21.392c-11.791,3.69-56.505,12.538-73.476-2.532Z" transform="translate(-1183.734 -1052.647)" fill="#df4930" opacity="0.41"/>
            </g>
            <g id="Group_12736" data-name="Group 12736" transform="translate(132.52)">
              <g id="Group_12735" data-name="Group 12735">
                <path id="Path_16501" data-name="Path 16501" d="M1349.5,535.914c4.452-41.895,45.405-14.813,27.506,14.671l3.186,16.285-15.893,2.787-1-12.437C1355.514,555.833,1349.5,546.826,1349.5,535.914Z" transform="translate(-1349.502 -514.367)" fill="#ffb6a6"/>
                <g id="Group_12734" data-name="Group 12734" clip-path="url(#clip-path-4)">
                  <path id="Path_16502" data-name="Path 16502" d="M1467.258,756.248a18.32,18.32,0,0,1-11.613,6.439s8.675,2.457,14.237-.388l-2.624-6.05" transform="translate(-1439.752 -720.03)" fill="#ff8370"/>
                  <path id="Path_16503" data-name="Path 16503" d="M1416.6,729.375s5.307-.314,7.193-3.142c0,0,.064,6.168-3.047,6.647C1417.766,733.338,1416.6,729.375,1416.6,729.375Z" transform="translate(-1406.551 -694.509)" fill="#fff"/>
                  <path id="Path_16504" data-name="Path 16504" d="M1336.523,543.719c6.588-2.543,17.315-3.679,18.361-14.879a19.142,19.142,0,0,0,13.96,10.75h0l-10.537-20.658-10.684-.242-12.758,13.84Z" transform="translate(-1337.058 -518.043)" fill="#ff8370"/>
                </g>
              </g>
              <path id="Path_16506" data-name="Path 16506" d="M1395.377,833.815c5.073,16.259,27.718,12.76,31.582-1.53Z" transform="translate(-1388.508 -784.681)" fill="#ffb6a6"/>
            </g>
            <g id="Group_12742" data-name="Group 12742" transform="translate(0 5.081)">
              <g id="Group_12738" data-name="Group 12738" transform="translate(31.532 26.472)">
                <path id="Path_16507" data-name="Path 16507" d="M736.59,753.538l-55.876-28.444-5.65,9.709,45.28,37.205c4.941,3.777,11.239,4.894,17.335,4.564Z" transform="translate(-675.064 -725.094)" fill="#ffb6a6"/>
                <g id="Group_12737" data-name="Group 12737" clip-path="url(#clip-path-5)">
                  <path id="Path_16508" data-name="Path 16508" d="M1035.267,902.86s-8.959,23.256-8.756,26.71l13.41.3-.2-26.206-4.45-.809" transform="translate(-973.884 -876.242)" fill="#ff8370"/>
                </g>
              </g>
              <g id="Group_12739" data-name="Group 12739">
                <path id="Path_16510" data-name="Path 16510" d="M501.826,552.117l-16.691,13.925-20.368-7.49c-1.43.122,2.915,19.033,2.795,19.911a2.514,2.514,0,0,0,2.914,2.036l33.394-5.912a2.513,2.513,0,0,0,2.037-2.913C505.478,570.75,503.11,552.172,501.826,552.117Z" transform="translate(-464.478 -551.546)" fill="#74c1c9"/>
                <path id="Path_16511" data-name="Path 16511" d="M503.468,548.873a2.507,2.507,0,0,0-2.031-.533l-33.394,5.912a2.5,2.5,0,0,0-1.635,1.055l20.368,7.49Z" transform="translate(-466.12 -548.301)" fill="#2baab7"/>
              </g>
              <g id="Group_12741" data-name="Group 12741" transform="translate(15.866 14.457)">
                <path id="Path_16512" data-name="Path 16512" d="M593.427,657.718s-5.391-12.517-6.216-12.828c-2.032-.765-.657,9.93-.657,9.93s-16.328,2.818-16.114,2.78,15.664,8.975,15.664,8.975Z" transform="translate(-570.438 -644.851)" fill="#ffb6a6"/>
                <g id="Group_12740" data-name="Group 12740" clip-path="url(#clip-path-6)">
                  <path id="Path_16513" data-name="Path 16513" d="M580.835,711.427s-6.565,5.426-12.352,5.767l-4.772-2.808,17.123-2.959" transform="translate(-564.719 -701.458)" fill="#ff8370"/>
                </g>
              </g>
            </g>
            <g id="Group_12745" data-name="Group 12745" transform="translate(206.955 38.266)">
              <g id="Group_12744" data-name="Group 12744" transform="translate(0 15.579)">
                <path id="Path_16515" data-name="Path 16515" d="M1858.21,894.839l58.242-20.872,1.043,11.355c-7.357,3.446-49.056,33.416-57.088,31.986-4.709.435-9.526-1.43-13.792-3.231Z" transform="translate(-1846.614 -873.967)" fill="#ffb6a6"/>
                <g id="Group_12743" data-name="Group 12743" clip-path="url(#clip-path-7)">
                  <path id="Path_16516" data-name="Path 16516" d="M1842.619,999.795s-.093,18.26-3.156,25.5l-12.625-3.713,7.148-19.757Z" transform="translate(-1829.798 -980.954)" fill="#ff8370"/>
                </g>
              </g>
              <rect id="Rectangle_18692" data-name="Rectangle 18692" width="36.767" height="34.051" rx="17.025" transform="translate(69.076)" fill="#74c1c9"/>
              <path id="Path_16518" data-name="Path 16518" d="M2350.242,825.429c4.938,1.092,8.326-3.885,11.477-6.733,2.584-2.709,7.726-6.187,7.025-10.548a7.755,7.755,0,0,0-2.149-5.332c-2.206-2.83-4.26,1.092-5.946,2.367a1.784,1.784,0,0,0-.038,2.523l3.375,3.477-9.941,9.645-3.375-3.477a1.785,1.785,0,0,0-2.523-.038c-.986,1.268-4.894,3.476-3,5.4A7.779,7.779,0,0,0,2350.242,825.429Z" transform="translate(-2270.063 -797.037)" fill="#fff"/>
              <path id="Path_16519" data-name="Path 16519" d="M2302.4,875.791s13.664,3.3,13.318,3.937a4.286,4.286,0,0,1-3.122,1.836c-1.594.158-8.561.378-11.171.459Z" transform="translate(-2233.324 -859.938)" fill="#ffb6a6"/>
              <path id="Path_16520" data-name="Path 16520" d="M2294.823,917.208a9.972,9.972,0,0,0-2.245,7.388l2.246-1.39Z" transform="translate(-2225.749 -895.154)" fill="#ff8370"/>
            </g>
          </g>
          <path id="Path_16521" data-name="Path 16521" d="M1355.471,510.741s-.178,15.655-10.242,18.146l2.989-7.073s-4.185,7.97-13.352,7.771C1335.6,519,1341.093,507.014,1355.471,510.741Z" transform="translate(-1204.539 -507.326)" fill="#1a1a35"/>
          <path id="Path_16522" data-name="Path 16522" d="M1471.431,514.684c-1.521,9.194,6.716,17.333,13.374,21.5C1491.412,525.3,1482.733,515.839,1471.431,514.684Z" transform="translate(-1320.498 -511.27)" fill="#1a1a35"/>
        </g>
      </g>
    </g>
    <g id="Group_12751" data-name="Group 12751" transform="translate(325.086 404.124)">
      <g id="Group_12750" data-name="Group 12750" transform="translate(154.208 0)">
        <path id="Path_16523" data-name="Path 16523" d="M1959.505,468.4l31.98-13.87-21.869,21.22Z" transform="translate(-1959.505 -454.53)" fill="#74c1c9"/>
        <path id="Path_16524" data-name="Path 16524" d="M2027.035,475.751l5.557,9L2048.9,454.53Z" transform="translate(-2016.923 -454.53)" fill="#fff"/>
        <path id="Path_16525" data-name="Path 16525" d="M2086.166,454.53l-15.306,23.809,10.354,5.176Z" transform="translate(-2054.186 -454.53)" fill="#74c1c9"/>
      </g>
      <path id="Path_16526" data-name="Path 16526" d="M1040.521,800.2l-.006-.726c.56.131,1.982-.353,2.108.348C1042.516,800.531,1041.071,800.075,1040.521,800.2Zm-1.749-.011c-.567-.133-2.006.3-2.106-.406.135-.7,1.538-.2,2.11-.321A.363.363,0,0,1,1038.772,800.191Zm5.234-.031a.363.363,0,0,1-.363-.354c.1-.705,1.557-.274,2.095-.425a.363.363,0,0,1,.026.726C1045.184,800.128,1044.592,800.146,1044.006,800.16Zm-8.719-.063c-.462-.082-1.163.16-1.205-.429.114-.572.755-.255,1.221-.3A.364.364,0,0,1,1035.287,800.1Zm12.208-.066a.363.363,0,0,1-.018-.726c.573.1,1.964-.455,2.123.239C1049.529,800.258,1048.052,799.878,1047.495,800.031Zm3.483-.227a.363.363,0,0,1-.361-.334c.056-.709,1.552-.363,2.066-.547a.363.363,0,0,1,.071.723C1052.177,799.7,1051.578,799.76,1050.978,799.8Zm3.474-.345a.363.363,0,0,1-.36-.32c.029-.71,1.54-.423,2.04-.629a.363.363,0,0,1,.1.719C1055.659,799.309,1055.057,799.4,1054.452,799.459Zm3.455-.5a.364.364,0,0,1-.061-.721c.593.034,1.875-.7,2.132-.036C1060,798.925,1058.455,798.758,1057.907,798.963Zm3.418-.7a.364.364,0,0,1-.087-.716c.613-.011,1.8-.845,2.118-.215C1063.477,798.02,1061.854,798.042,1061.325,798.258Zm3.335-1.023a.365.365,0,0,1-.13-.7c.633-.088,1.636-1.079,2.053-.518C1066.826,796.672,1065.176,797,1064.66,797.236Zm3.1-1.578c-1.167-.4.856-1.3,1.027-1.749a.363.363,0,0,1,.548.477A4.8,4.8,0,0,1,1067.759,795.658Zm2.184-2.626c-.782-.164.014-1.153-.139-1.69-.177-.626.455-1.111.708-.408C1070.493,791.573,1070.654,792.779,1069.944,793.032Zm-.226-3.385c-.6-.212-.634-1.167-1.133-1.693a.363.363,0,0,1,.606-.4C1069.442,788.122,1070.649,789.4,1069.718,789.647Zm-1.871-2.926c-.594-.235-.9-1.007-1.416-1.418a.363.363,0,0,1,.012-.513c.631-.394,1.242.991,1.685,1.339A.366.366,0,0,1,1067.847,786.721Zm-2.4-2.521c-.587-.227-1.005-.852-1.556-1.2a.363.363,0,0,1-.061-.51c.568-.48,1.373.8,1.861,1.079A.366.366,0,0,1,1065.445,784.2Zm-2.737-2.155a17.132,17.132,0,0,1-1.654-.991.363.363,0,0,1-.125-.5c.5-.546,1.464.622,1.985.827A.365.365,0,0,1,1062.708,782.045Zm-2.989-1.79c-.389-.211-2.195-.748-1.9-1.278.436-.6,1.524.454,2.065.593A.365.365,0,0,1,1059.719,780.255Zm-3.17-1.447c-.338-.068-.778-.293-1.114-.4-.319-.158-1.008-.184-.863-.694.3-.593,1.184.143,1.648.211C1056.759,778.022,1057.321,778.583,1056.55,778.808Zm-3.286-1.16c-.473-.235-2.146-.305-2.019-.964.341-.653,1.558.211,2.128.254A.365.365,0,0,1,1053.263,777.648Zm-3.352-.952c-.495-.23-2.112-.157-2.051-.845.264-.668,1.594.119,2.139.129A.364.364,0,0,1,1049.911,776.7Zm-60.79-.544a.363.363,0,0,1-.363-.363c.114-.7,1.559-.236,2.1-.37a.363.363,0,0,1,.005.726Q990,776.151,989.122,776.151Zm-1.743-.006q-.874-.006-1.75-.019a.363.363,0,0,1-.357-.369c.127-.7,1.562-.212,2.109-.338A.363.363,0,0,1,987.378,776.145Zm5.229-.02a.363.363,0,0,1,0-.726c.551.122,1.978-.374,2.111.327C994.612,776.434,993.152,775.991,992.607,776.126Zm-8.716-.034c-.544-.14-2.011.286-2.106-.425.139-.7,1.565-.184,2.115-.3A.364.364,0,0,1,983.891,776.092Zm12.2-.034a.363.363,0,0,1-.009-.726c.534.111,2.01-.387,2.114.305C998.133,776.334,996.62,775.924,996.093,776.058Zm-15.687-.083c-.542-.151-2.023.246-2.1-.467.155-.7,1.567-.152,2.12-.259A.363.363,0,0,1,980.406,775.975Zm19.171-.024a.363.363,0,0,1-.014-.726c.571.115,1.93-.435,2.118.271C1001.6,776.209,1000.116,775.8,999.577,775.952Zm46.933-.014c-.506-.213-2.1-.04-2.074-.734.229-.68,1.595.034,2.143.014A.364.364,0,0,1,1046.509,775.938Zm-43.451-.148a.363.363,0,0,1-.019-.726c.551.1,1.965-.452,2.122.244C1005.085,776.021,1003.6,775.634,1003.058,775.79Zm-26.133,0c-.54-.161-2.036.2-2.1-.515.168-.691,1.57-.116,2.124-.211A.364.364,0,0,1,976.925,775.786Zm29.613-.2a.363.363,0,0,1-.362-.34c.071-.71,1.54-.331,2.078-.5a.363.363,0,0,1,.047.725C1007.712,775.514,1007.125,775.553,1006.538,775.588Zm-33.088-.071c-.537-.172-2.05.148-2.1-.568.187-.686,1.571-.075,2.128-.157A.364.364,0,0,1,973.45,775.517Zm36.566-.154a.363.363,0,0,1-.023-.725l1.739-.115a.363.363,0,1,1,.048.725C1011.755,775.247,1010.038,775.364,1010.016,775.363Zm33.056,0c-.531-.2-2.052.078-2.089-.634.2-.69,1.592-.041,2.14-.089A.364.364,0,0,1,1043.072,775.359Zm-73.088-.2c-.534-.185-2.063.091-2.089-.627.205-.681,1.573-.03,2.131-.1A.364.364,0,0,1,969.984,775.157Zm43.51-.024a.364.364,0,0,1-.023-.725c.552.093,1.968-.469,2.125.227C1015.523,775.346,1014.034,774.969,1013.494,775.133Zm26.117-.19c-.524-.182-2.034.167-2.1-.544.168-.7,1.6-.107,2.134-.18A.364.364,0,0,1,1039.611,774.943Zm-22.638-.028a.364.364,0,0,1-.021-.726c.551.1,1.974-.456,2.124.243C1019,775.142,1017.514,774.753,1016.973,774.914Zm3.481-.191a.363.363,0,0,1-.018-.726c.552.1,1.975-.433,2.122.268C1022.472,774.974,1021,774.567,1020.454,774.724ZM966.53,774.7c-.539-.2-2.075.026-2.08-.692.227-.673,1.563.018,2.133-.03A.364.364,0,0,1,966.53,774.7Zm69.606-.028c-.529-.163-2.016.242-2.1-.466.146-.7,1.592-.165,2.125-.259A.364.364,0,0,1,1036.136,774.67Zm-12.2-.092a.363.363,0,0,1-.012-.726c.55.109,1.983-.4,2.118.3C1025.944,774.862,1024.483,774.429,1023.938,774.578Zm8.715-.056c-.534-.146-2,.3-2.106-.4.121-.706,1.582-.214,2.115-.326A.363.363,0,0,1,1032.653,774.522Zm-5.23-.028a.363.363,0,0,1,0-.726c.552.119,1.993-.357,2.111.349C1029.416,774.82,1027.976,774.356,1027.423,774.494Zm-64.331-.364c-.507-.2-2.118-.063-2.068-.762.249-.665,1.571.073,2.132.042A.364.364,0,0,1,963.092,774.13Zm-3.416-.687c-.5-.211-2.128-.143-2.052-.839.275-.655,1.562.131,2.129.121A.364.364,0,0,1,959.676,773.443Zm-3.388-.815c-.5-.222-2.136-.23-2.031-.92.3-.643,1.553.193,2.123.206A.364.364,0,0,1,956.287,772.629Zm-3.353-.951c-.486-.229-2.141-.325-2.005-1.007.329-.629,1.55.262,2.112.3A.365.365,0,0,1,952.935,771.677Zm-3.309-1.1c-.462-.224-2.168-.449-1.974-1.1.357-.613,1.536.334,2.1.393A.365.365,0,0,1,949.626,770.58Zm-3.256-1.249c-.451-.229-2.164-.56-1.937-1.193.386-.6,1.519.409,2.075.494A.365.365,0,0,1,946.37,769.331Zm-3.192-1.407c-.427-.217-2.175-.7-1.893-1.291.454-.569,1.474.484,2.048.6A.365.365,0,0,1,943.178,767.924Zm-3.117-1.57c-.415-.214-2.159-.824-1.842-1.39.484-.545,1.447.562,2.014.706A.365.365,0,0,1,940.061,766.354Zm-3.03-1.736c-.425-.209-2.129-1.006-1.754-1.53.531-.492,1.354.661,1.946.858A.365.365,0,0,1,937.031,764.619Zm-2.851-2.006a6.452,6.452,0,0,1-1.559-1.257c-.342-.324.174-.854.507-.52C933.368,761.258,935.33,762.232,934.181,762.613Zm-2.478-2.442c-.635-.249-.937-1.155-1.282-1.645a.363.363,0,0,1,.642-.339C931.134,758.7,932.728,759.9,931.7,760.171Zm-1.573-3.076c-.712-.215-.437-1.542-.452-2.136a.363.363,0,0,1,.721.086C930.15,755.6,930.879,757,930.13,757.094Zm.394-3.4a.365.365,0,0,1-.329-.517c.287-.4.793-1.952,1.482-1.6a.363.363,0,0,1,.058.51C931.195,752.57,931.127,753.468,930.524,753.7Zm2.121-2.739a.365.365,0,0,1-.248-.628c.475-.277,1.284-1.573,1.856-1.094a.363.363,0,0,1-.06.51C933.633,750.1,933.229,750.734,932.644,750.96Zm2.731-2.16a.365.365,0,0,1-.2-.664c.511-.194,1.493-1.362,1.992-.811a.363.363,0,0,1-.129.5A17.985,17.985,0,0,1,935.375,748.8Zm3-1.767c-1.241-.531.967-1.179,1.417-1.454a.363.363,0,0,1,.3.66C939.5,746.478,938.961,746.848,938.377,747.033Zm3.169-1.452a.365.365,0,0,1-.137-.7c.543-.081,1.713-1.048,2.1-.422C943.72,745.075,941.967,745.354,941.546,745.581Zm3.27-1.211a.365.365,0,0,1-.116-.707c.526-.045,1.8-.942,2.122-.3C946.971,744.018,945.261,744.141,944.816,744.37Zm3.331-1.032a.365.365,0,0,1-.1-.712c.514-.016,1.835-.867,2.131-.212C950.3,743.08,948.586,743.122,948.146,743.338Zm3.367-.908a.364.364,0,0,1-.09-.715c.568-.014,1.851-.816,2.134-.159C953.638,742.243,952.019,742.2,951.513,742.43Zm3.386-.836a.364.364,0,0,1-.085-.716l1.7-.409a.363.363,0,0,1,.171.706l-1.7.409A.361.361,0,0,1,954.9,741.594Zm3.389-.823a.364.364,0,0,1-.087-.716c.561-.006,1.854-.8,2.134-.144C960.413,740.6,958.787,740.548,958.289,740.771Zm3.39-.814a.364.364,0,0,1-.082-.717c.56,0,1.865-.782,2.135-.12C963.8,739.811,962.18,739.737,961.679,739.957Zm3.4-.775a.364.364,0,0,1-.078-.718c.561.006,1.872-.761,2.137-.1C967.2,739.06,965.581,738.965,965.078,739.182Zm3.408-.738a.364.364,0,0,1-.075-.718c.56.013,1.882-.741,2.138-.074C970.6,738.345,968.99,738.23,968.486,738.443Zm3.415-.7a.364.364,0,0,1-.071-.719c.56.018,1.888-.722,2.138-.052C974.016,737.664,972.408,737.531,971.9,737.741Zm3.422-.668a.364.364,0,0,1-.067-.72c.56.024,1.895-.7,2.139-.031C977.436,737.018,975.832,736.866,975.324,737.073Zm3.429-.635a.363.363,0,0,1-.357-.3c-.012-.714,1.5-.507,2.011-.728a.363.363,0,0,1,.126.715C979.938,736.225,979.347,736.346,978.752,736.437Zm3.434-.6a.364.364,0,0,1-.061-.721c.56.034,1.906-.669,2.138.007C984.262,735.834,982.715,735.624,982.187,735.834Zm3.439-.574a.363.363,0,0,1-.358-.3c0-.715,1.5-.481,2.023-.693a.363.363,0,0,1,.114.718C986.811,735.069,986.22,735.177,985.626,735.26Zm3.444-.546a.363.363,0,0,1-.358-.308c.006-.714,1.508-.469,2.028-.677a.363.363,0,0,1,.108.718C990.255,734.533,989.663,734.634,989.07,734.714Zm3.448-.518a.363.363,0,0,1-.359-.31c.011-.715,1.512-.458,2.033-.662a.363.363,0,0,1,.1.719C993.7,734.023,993.111,734.119,992.518,734.2Zm3.452-.493a.363.363,0,0,1-.359-.313c.017-.714,1.515-.447,2.038-.648a.363.363,0,0,1,.1.72C997.153,733.539,996.562,733.63,995.969,733.7Zm3.455-.469a.363.363,0,0,1-.359-.316c.021-.714,1.518-.437,2.042-.634a.363.363,0,0,1,.093.72C1000.607,733.078,1000.016,733.164,999.424,733.234Zm3.458-.447a.364.364,0,0,1-.045-.724c.558.059,1.932-.584,2.135.1C1004.94,732.879,1003.416,732.595,1002.881,732.787Zm3.46-.425a.364.364,0,0,1-.043-.724c.557.063,1.937-.574,2.135.113C1008.4,732.465,1006.877,732.173,1006.342,732.361Zm3.462-.406a.363.363,0,0,1-.36-.322c.034-.714,1.525-.41,2.052-.6a.363.363,0,0,1,.081.722C1010.985,731.821,1010.4,731.895,1009.8,731.956Zm3.464-.388a.364.364,0,0,1-.039-.724c.557.069,1.944-.555,2.133.135C1015.319,731.693,1013.8,731.384,1013.268,731.568Zm3.466-.371a.364.364,0,0,1-.038-.724c.557.071,1.943-.545,2.133.144C1018.783,731.332,1017.27,731.015,1016.734,731.2Zm3.467-.356a.364.364,0,0,1-.036-.724c.557.073,1.945-.536,2.132.153C1022.248,730.984,1020.738,730.662,1020.2,730.842Zm3.469-.342a.364.364,0,0,1-.034-.724c.557.076,1.946-.529,2.131.161C1025.715,730.651,1024.207,730.322,1023.67,730.5Zm3.469-.329a.364.364,0,0,1-.033-.725c.557.077,1.948-.523,2.13.168C1029.183,730.328,1027.677,729.995,1027.139,730.171Zm3.47-.318a.364.364,0,0,1-.032-.725c.556.079,1.951-.518,2.13.174C1032.651,730.016,1031.147,729.678,1030.609,729.853Zm3.471-.308a.364.364,0,0,1-.031-.725c.556.08,1.952-.512,2.129.179C1036.121,729.713,1034.618,729.371,1034.08,729.545Zm3.471-.3a.364.364,0,0,1-.03-.725l1.278-.109c.308-.025.8-.151.85.288.029.443-.48.407-.789.435C1038.819,729.135,1037.593,729.246,1037.551,729.245Zm3.469-.33a.363.363,0,0,1-.36-.321c.031-.709,1.521-.419,2.037-.627a.363.363,0,0,1,.1.719C1042.216,728.767,1041.616,728.852,1041.02,728.915Zm3.449-.5a.364.364,0,0,1-.061-.721c.566.038,1.879-.694,2.13-.03C1046.56,728.386,1044.994,728.216,1044.469,728.419Zm3.416-.681a.364.364,0,0,1-.081-.717c.568.007,1.837-.8,2.125-.148C1050.021,727.566,1048.383,727.528,1047.885,727.737Zm3.372-.871a.364.364,0,0,1-.1-.712c.568-.026,1.787-.9,2.112-.27C1053.4,726.568,1051.746,726.643,1051.257,726.866Zm3.316-1.064a.365.365,0,0,1-.121-.705c.564-.058,1.732-1,2.093-.394C1056.719,725.372,1055.05,725.568,1054.573,725.8Zm3.248-1.258c-1.265-.565,1.019-1.118,1.443-1.394a.363.363,0,0,1,.3.66A16.555,16.555,0,0,1,1057.821,724.544Zm3.167-1.45a.365.365,0,0,1-.161-.689c.573-.126,1.563-1.2,2.031-.641C1063.16,722.343,1061.409,722.882,1060.988,723.094Zm3.074-1.637a.365.365,0,0,1-.181-.678c.564-.161,1.489-1.29,1.989-.761C1066.229,720.543,1064.458,721.262,1064.063,721.457Zm2.972-1.818a.365.365,0,0,1-.2-.667c.552-.193,1.41-1.376,1.941-.878C1069.182,718.565,1067.4,719.468,1067.034,719.639Zm2.86-1.99a.365.365,0,0,1-.216-.655c.538-.223,1.329-1.457,1.887-.989C1072.013,716.42,1070.241,717.505,1069.894,717.649Zm2.74-2.152a.365.365,0,0,1-.232-.642c.524-.253,1.245-1.529,1.829-1.094C1074.725,714.1,1072.949,715.4,1072.634,715.5Zm2.616-2.3a.366.366,0,0,1-.247-.629c.511-.284,1.159-1.6,1.766-1.193a.363.363,0,0,1,0,.514C1076.258,712.293,1075.851,712.964,1075.25,713.194Zm2.487-2.441a.365.365,0,0,1-.261-.615c.5-.311,1.074-1.655,1.7-1.284a.363.363,0,0,1,.022.513C1078.709,709.794,1078.34,710.518,1077.738,710.753Zm2.357-2.568a.366.366,0,0,1-.274-.6c.477-.333.99-1.708,1.635-1.369a.363.363,0,0,1,.048.511C1081.028,707.176,1080.7,707.948,1080.095,708.185Zm2.226-2.683a.366.366,0,0,1-.285-.588c.461-.358.906-1.754,1.567-1.447a.363.363,0,0,1,.072.509C1083.217,704.443,1082.929,705.263,1082.32,705.5Zm2.1-2.787a.365.365,0,0,1-.295-.575c.44-.373.825-1.8,1.5-1.518a.363.363,0,0,1,.1.5C1085.27,701.616,1085.027,702.475,1084.416,702.714Zm1.966-2.881c-.992-.267.467-1.5.626-2.027a.363.363,0,0,1,.618.382C1087.2,698.686,1087,699.593,1086.381,699.833Zm1.837-2.965c-.97-.254.418-1.512.555-2.052a.363.363,0,0,1,.633.356C1089,695.684,1088.84,696.628,1088.218,696.868Zm1.71-3.041c-.949-.243.369-1.523.484-2.074a.363.363,0,0,1,.647.33C1090.672,692.609,1090.555,693.587,1089.929,693.828Zm1.584-3.109c-.927-.19.318-1.551.415-2.093a.363.363,0,0,1,.66.3C1092.215,689.474,1092.146,690.479,1091.513,690.719Zm1.459-3.171c-.907-.179.276-1.573.346-2.109a.363.363,0,0,1,.672.277C1093.64,686.26,1093.611,687.307,1092.972,687.548Zm1.331-3.228c-.886-.171.228-1.582.275-2.122a.363.363,0,0,1,.682.249C1094.94,682.983,1094.934,684.106,1094.3,684.32Zm1.2-3.283c-.864-.163.178-1.594.2-2.134a.363.363,0,0,1,.693.218C1096.1,679.661,1096.142,680.826,1095.5,681.037Zm1.048-3.339a.365.365,0,0,1-.349-.463c.3-1.068.443-1.678.444-1.684a.363.363,0,0,1,.708.16c-.006.025-.144.634-.454,1.723A.363.363,0,0,1,1096.55,677.7Z" transform="translate(-929.638 -642.222)" fill="#fff"/>
    </g>
    <g id="Group_12752" data-name="Group 12752" transform="translate(284.534 522.18)">
      <path id="Path_16527" data-name="Path 16527" d="M701.323,1266.114c-.477,27.932-42.031,27.927-42.5,0C659.3,1238.182,700.85,1238.187,701.323,1266.114Z" transform="translate(-658.819 -1244.837)" fill="#fff"/>
      <path id="Path_16528" data-name="Path 16528" d="M738.91,1260.595l-3.634-4.107a2.5,2.5,0,0,0-3.535-.216l-1.987,1.757a2.5,2.5,0,0,0-.216,3.535l8.71,9.844c1.919,1.968,3.725.135,5.214-1.269l2.184-1.932,21.311-18.85a2.5,2.5,0,0,0,.216-3.534c-1.363-1.563-3.026-4.055-5.293-2.2l-19.435,17.191A2.5,2.5,0,0,1,738.91,1260.595Z" transform="translate(-718.414 -1242.963)" fill="#2baab7"/>
    </g>
    <g id="Group_12757" data-name="Group 12757" transform="translate(455.577 522.209)">
      <path id="Path_16535" data-name="Path 16535" d="M1910.865,1263.58h3.328v-5.992h-3.631a14.29,14.29,0,0,0-2.09-4.479l2.734-2.733-4.238-4.237-2.886,2.885a14.263,14.263,0,0,0-4.327-1.7v-4.17h-5.993v4.17a14.266,14.266,0,0,0-4.327,1.7l-2.886-2.885-4.238,4.237,2.734,2.733a14.289,14.289,0,0,0-2.09,4.479h-3.631v5.992h3.328a14.237,14.237,0,0,0,1.836,5.036l-2.176,2.176,4.238,4.237,2.024-2.023a14.275,14.275,0,0,0,5.189,2.261v2.75h5.993v-2.75a14.274,14.274,0,0,0,5.189-2.261l2.024,2.023,4.238-4.237-2.176-2.176A14.24,14.24,0,0,0,1910.865,1263.58Zm-14.107,7.868c-13.424-.4-13.421-19.905,0-20.307C1910.182,1251.545,1910.178,1271.046,1896.758,1271.448Z" transform="translate(-1867.613 -1243.152)" fill="#e3eefd"/>
      <path id="Path_16536" data-name="Path 16536" d="M1812.3,1262.455h1.18v-2.125H1812.2a5.066,5.066,0,0,0-.741-1.589l.97-.969-1.5-1.5-1.024,1.023a5.059,5.059,0,0,0-1.535-.6v-1.479h-2.126v1.479a5.06,5.06,0,0,0-1.535.6l-1.024-1.023-1.5,1.5.97.969a5.063,5.063,0,0,0-.741,1.589h-1.288v2.125h1.181a5.052,5.052,0,0,0,.651,1.786l-.772.772,1.5,1.5.718-.718a5.064,5.064,0,0,0,1.841.8v.975h2.126v-.975a5.065,5.065,0,0,0,1.841-.8l.718.718,1.5-1.5-.772-.772A5.055,5.055,0,0,0,1812.3,1262.455Zm-5,2.791c-4.734-.076-4.734-7.128,0-7.2C1812.035,1258.118,1812.034,1265.17,1807.3,1265.245Z" transform="translate(-1801.116 -1253.404)" fill="#e3eefd"/>
    </g>
    <g id="Group_12758" data-name="Group 12758" transform="translate(275.273 486.488)">
      <path id="Path_16537" data-name="Path 16537" d="M601.007,1027.52l-2.649-1.429,12.818-12.816,2.649,1.429Z" transform="translate(-598.15 -1011.975)" fill="#fff"/>
      <path id="Path_16538" data-name="Path 16538" d="M602.259,1005.038c-4.23-2.148-7.532,4.087-3.378,6.377C603.111,1013.564,606.413,1007.329,602.259,1005.038Zm-2.534,4.783a1.8,1.8,0,0,1,1.689-3.189A1.8,1.8,0,0,1,599.726,1009.821Z" transform="translate(-596.97 -1004.595)" fill="#fff"/>
      <path id="Path_16539" data-name="Path 16539" d="M659.162,1071.571c-4.23-2.148-7.532,4.086-3.378,6.377C660.014,1080.1,663.316,1073.862,659.162,1071.571Zm-2.534,4.783a1.8,1.8,0,0,1,1.689-3.189A1.8,1.8,0,0,1,656.629,1076.354Z" transform="translate(-645.352 -1061.165)" fill="#fff"/>
    </g>
    <g id="Group_12760" data-name="Group 12760" transform="translate(382.759 546.842)">
      <path id="Path_16540" data-name="Path 16540" d="M1358.137,1449.878c-52.4-2.394-42.131,12.852-43.115-37.431a4.375,4.375,0,0,1,4.375-4.375c52.4,2.394,42.132-12.852,43.115,37.431A4.375,4.375,0,0,1,1358.137,1449.878Z" transform="translate(-1314.805 -1407.665)" fill="#fff"/>
      <g id="Group_12759" data-name="Group 12759" transform="translate(8.076 13.062)">
        <path id="Path_16541" data-name="Path 16541" d="M1388.954,1511.234c-21.984-.958-20.263,4.867-20.127-13.415a2.756,2.756,0,0,1,2.756-2.756c21.984.958,20.263-4.867,20.127,13.414A2.756,2.756,0,0,1,1388.954,1511.234Z" transform="translate(-1368.743 -1494.901)" fill="#74c1c9"/>
        <path id="Path_16542" data-name="Path 16542" d="M1539.036,1525.449l-7.278-1.678v-7.277l7.278-1.515Z" transform="translate(-1507.349 -1511.973)" fill="#74c1c9"/>
      </g>
    </g>
  </g>
</svg>
