<svg xmlns="http://www.w3.org/2000/svg" width="381.999" height="258.685" viewBox="0 0 381.999 258.685">
  <g id="Group_12827" data-name="Group 12827" transform="translate(-1.378 -144.712)">
    <g id="Floor" transform="translate(1.378 183.163)" opacity="0.23">
      <path id="Floor-2" data-name="Floor" d="M57.243,382.574c-74.485-43-74.485-112.726,0-155.729s195.419-43,270.114,0,74.7,112.726,0,155.729S131.728,425.578,57.243,382.574Z" transform="translate(-1.378 -194.594)" fill="#74c1c9"/>
    </g>
    <g id="Shadows" transform="translate(18.952 182.328)">
      <path id="Shadow" d="M272.426,198.924l68.283,39.254c9.635,5.539,8.488,15.2-2.562,21.57L139.115,374.31C83.851,406.3-8.391,339.863,35.787,315.092l204.181-117.8C251.017,190.917,262.791,193.384,272.426,198.924Z" transform="translate(-24.176 -193.511)" fill="#74c1c9" opacity="0.15"/>
      <ellipse id="Shadow-2" data-name="Shadow" cx="27.469" cy="15.859" rx="27.469" ry="15.859" transform="translate(182.765 142.853)" fill="#74c1c9" opacity="0.1"/>
    </g>
    <g id="Limousine" transform="translate(26.192 144.712)">
      <g id="Limousine-2" data-name="Limousine">
        <g id="Back_Car" data-name="Back Car" transform="translate(0)">
          <g id="Group_12780" data-name="Group 12780" transform="translate(260.362 54.75)">
            <path id="Path_16592" data-name="Path 16592" d="M418.961,239.058,393,224.067l14.423-8.327,14.039,8.866Z" transform="translate(-376.301 -215.739)" fill="#263238"/>
            <g id="Group_12779" data-name="Group 12779" transform="translate(0 6.16)">
              <path id="Path_16593" data-name="Path 16593" d="M403.052,237.33l3.728-7.405-8.871-5.135h0c-2.822-1.623-6.579-1.438-10.705.944-8.761,5.059-15.865,18.107-15.866,29.144,0,5.78,1.949,9.857,5.064,11.708l0,0,.125.073.019.01,9.1,5.252,3.933-7.812C397.013,258.412,402.763,247.176,403.052,237.33Z" transform="translate(-371.337 -223.73)" fill="#37474f"/>
              <path id="Path_16594" data-name="Path 16594" d="M403.052,237.33l3.728-7.405-8.871-5.135h0c-2.822-1.623-6.579-1.438-10.705.944-8.761,5.059-15.865,18.107-15.866,29.144,0,5.78,1.949,9.857,5.064,11.708l0,0,.125.073.019.01,9.1,5.252,3.933-7.812C397.013,258.412,402.763,247.176,403.052,237.33Z" transform="translate(-371.337 -223.73)" fill="#263238"/>
              <path id="Path_16595" data-name="Path 16595" d="M415.045,243.47c0,9.516-5.284,20.531-12.357,26.624-.014.008-.021.022-.028.029a23.436,23.436,0,0,1-3.48,2.493c-8.764,5.063-15.872.213-15.864-10.823,0-8.337,4.055-17.832,9.814-24.152a.339.339,0,0,0,.049-.05,25.619,25.619,0,0,1,6-4.943C407.942,227.592,415.045,232.435,415.045,243.47Z" transform="translate(-374.082 -225.315)" fill="#37474f"/>
              <path id="Path_16596" data-name="Path 16596" d="M400.894,241.521c5.576-3.22,10.1.135,10.1,7.493s-4.52,15.934-10.1,19.153-10.1-.136-10.1-7.494S395.318,244.74,400.894,241.521Z" transform="translate(-375.797 -227.527)" fill="#455a64"/>
              <path id="Path_16597" data-name="Path 16597" d="M407.076,255.032c-.355,3.661-2.681,7.56-5.189,8.7a2.451,2.451,0,0,1-2.748-.21c-.89-.75-1.354-2.293-1.155-4.35.355-3.661,2.675-7.56,5.189-8.7a2.824,2.824,0,0,1,1.845-.257s.008-.006.007,0C406.476,250.564,407.335,252.367,407.076,255.032Z" transform="translate(-377.433 -229.786)" fill="#fafafa"/>
              <path id="Path_16598" data-name="Path 16598" d="M406.173,254.566c-.355,3.661-2.682,7.56-5.189,8.7a2.856,2.856,0,0,1-1.845.256c-.89-.75-1.354-2.293-1.155-4.35.355-3.661,2.675-7.56,5.189-8.7a2.824,2.824,0,0,1,1.845-.257s.008-.006.007,0C405.908,250.973,406.372,252.517,406.173,254.566Z" transform="translate(-377.433 -229.786)" fill="#e0e0e0"/>
              <path id="Path_16599" data-name="Path 16599" d="M417.977,243.47c0,9.516-5.284,20.531-12.357,26.624a44.981,44.981,0,0,0,10.063-19.472c1.342-6.363.838-15.5-4.623-17.8-5.418-2.293-12.669,2.557-14.949,4.772a25.619,25.619,0,0,1,6-4.943C410.875,227.592,417.977,232.435,417.977,243.47Z" transform="translate(-377.014 -225.315)" fill="#455a64"/>
            </g>
          </g>
          <path id="Path_16600" data-name="Path 16600" d="M339.153,186.78c-2.4-5.669-10.474-11.5-16.8-12.905-1.835-4.745-42.8-27.479-49.105-25.034l-.03.012a9.069,9.069,0,0,0-3.8-2.1l0,0a42.769,42.769,0,0,0-30.744,1.837,70.053,70.053,0,0,0-13.611-.656,12.453,12.453,0,0,0-2.874.846,9.4,9.4,0,0,0-1.424.143c-9.652,3.028-66.127,33.483-94.285,49.81-8.257,4.753-14.07,8.317-15.582,9.679a2.859,2.859,0,0,0-.255.249,220.332,220.332,0,0,0-30.325,31.513,1.8,1.8,0,0,0-.217.627c-32.2,22.877-49.827,32.464-46.032,58.679,0,0,.038.565.18,1.688h0v0c.03.232.064.489.1.769l.008.059c.039.274.082.568.13.886l.015.1c.05.322.1.663.166,1.03l.013.077c.064.382.133.785.211,1.216l0,.018c.059.325.125.664.2,1.011.033.159.07.323.106.486.042.19.083.379.129.575.052.226.109.455.167.688.029.118.06.237.091.357,1.525,5.924,4.852,13.82,11.71,18.662,7.492,5.289,8.011,5.675,18.17,11.154s23.851,9.484,37.188,9.056a65.133,65.133,0,0,0,19.466-3.614l.026-.009q1.431-.518,2.677-1.07l.091-.039c.41-.183.8-.366,1.18-.551l.008,0c.356-.175.693-.351,1.016-.528l.136-.075c.325-.18.635-.36.924-.54l.031-.02c.268-.168.517-.335.753-.5.047-.034.1-.067.142-.1.238-.173.463-.346.664-.517l.033-.03c.184-.158.348-.315.5-.469.038-.039.076-.078.111-.116a4.687,4.687,0,0,0,.4-.484c.005-.008.008-.015.014-.023a2.811,2.811,0,0,0,.251-.442c.018-.039.035-.076.049-.115a1.776,1.776,0,0,0,.123-.442q.132-1.156.34-2.319t.5-2.331a47.252,47.252,0,0,1,8.212-17.135,36.9,36.9,0,0,1,6.053-6.306q.814-.657,1.652-1.24c.587-.411,1.182-.788,1.777-1.131s1.2-.658,1.79-.929a14.87,14.87,0,0,1,5.84-1.467,10.051,10.051,0,0,1,3.633.563q.336.12.661.266c3.673,1.644,6.174,5.669,6.717,11.553.017.183.029.382.038.588,0,.063,0,.128.007.193.005.153.009.308.012.466,0,.066,0,.13,0,.2,0,.141,0,.281,0,.422v.89h0l129.571-74.8a29.634,29.634,0,0,1,.159-3.066C299.4,229.886,308.3,215.8,317.84,210.3c10.355-5.982,18.75-.394,18.75,12.482l1.677-.968C344.23,218.212,342.362,194.371,339.153,186.78Z" transform="translate(-33.57 -144.712)" fill="#37474f"/>
          <path id="Path_16601" data-name="Path 16601" d="M247.644,264.632c1.647-.887,26.77-14.477,47.166-25.712a9.35,9.35,0,0,0-.671-1.647C273.2,249.722,249.411,263.558,247.644,264.632Zm-6.317,2.635-35.362,20.255,36.427-17.9A2.7,2.7,0,0,0,241.327,267.267ZM368.882,179.5c-2.11-1.171-4.071-2.743-6.605-1.789a1.4,1.4,0,0,0-.506.283,1.8,1.8,0,0,0-.426.917c-2.035,7.887-8.491,13.8-13.7,19.763-5.114,5.844-10.705,11.674-23.953,20.545-4.458,2.982-14.365,9.006-25.615,15.715a9.855,9.855,0,0,1,.843,1.73c7.089-3.921,13.315-7.4,17.333-9.714,16.288-9.4,36.707-20.344,45.668-28.276S375.792,183.345,368.882,179.5Zm-68.16-32.748a31.725,31.725,0,0,0-17.441,1.967,94.6,94.6,0,0,0-10.348,5.235s-1.952,2.551,7.673.292c7.008-1.644,14.163-3.349,16.834-3.938C303.781,148.907,308.711,148.238,300.722,146.75Z" transform="translate(-73.077 -145.069)" fill="#455a64"/>
          <path id="Path_16602" data-name="Path 16602" d="M249.264,291.308l-2.08,1.2c-1.411.814-2.555,2.094-2.555,2.858v1.011a.216.216,0,0,0,.324.187l6.382-3.685a.968.968,0,0,0,.483-.838v-.825C251.819,290.452,250.675,290.493,249.264,291.308Zm88.552-51.754-2.08,1.2c-1.411.815-2.555,2.094-2.555,2.859v1.01a.216.216,0,0,0,.323.187l6.383-3.685a.967.967,0,0,0,.484-.839v-.824C340.371,238.7,339.227,238.739,337.816,239.554Z" transform="translate(-81.938 -166.301)" fill="#263238"/>
          <path id="Path_16603" data-name="Path 16603" d="M210.05,304.049a157.64,157.64,0,0,1-.8-17.375c-1.068,4.869-.623,16.664,0,24.223s2.047,6.855,3.56,5.732l33.339-19.682L212.81,313.057C211.254,313.884,210.94,310.544,210.05,304.049Zm34.079-37.334s2.02,2.361,2.02,7.49c0,6.167.065,20.813.065,20.813s1.142-16.3,1.836-21.418a10.279,10.279,0,0,0-1.9-8ZM300.164,156.3c5.2-3.116,8.17-5.188,7.574-5.539-.627-.365-4.995,1.051-11.585,3.549.708.328,1.409.678,2.1,1.021C298.9,155.652,299.531,155.973,300.164,156.3Zm40.424,50.933s5.269,1.816,6.727,3.37a33.911,33.911,0,0,1,3.426,5.143s-.9-4.4-2.168-6.046S340.588,207.235,340.588,207.235Zm39.934-14.818s-.607,8.411-2.047,10.932-8.138,6.352-8.138,6.352,7.418-3.039,9.09-5.344S380.522,192.417,380.522,192.417Zm-83.381,43.267-2.016,1.112s2.02,2.361,2.02,7.49c0,6.167.065,20.814.065,20.814s1.142-16.3,1.836-21.418A10.277,10.277,0,0,0,297.141,235.684Zm37.16-3.266c-.89,7.523-1.2,11.225-2.76,12.194L298.2,267l33.338-18.815c1.515-.624,2.938-1.565,3.561-9.843s1.068-20.587,0-24.223A180.721,180.721,0,0,1,334.3,232.418Z" transform="translate(-73.682 -146.086)" opacity="0.15"/>
          <g id="Group_12783" data-name="Group 12783" transform="translate(71.448 3.115)">
            <path id="Path_16604" data-name="Path 16604" d="M336.675,191c-1.946,2.378-3.249,3.716-5.262,5.96,0,0-8.074-.473-17.761-.83-7.785-.287-19.373.014-19.373.014-1.953.075-68.76,37.449-71.347,38.858-.268.134-17.646,9.17-21.969,12.815-2.333,1.96-3.273,3.66-5.166,6.649.291-.61,2.252-5.061-1.6-6.806-4.138-1.879-20.784-8.185-32.839-14.545-10.123-5.337-25.115-18.868-27.21-19.628-2.595-.947-7.887,3.139-7.887,3.139a86.817,86.817,0,0,1,5.636-7.045c3.947-4.57,89.625-51.623,109.628-59.578a20.738,20.738,0,0,1,4.793-1.153c8.819-.56,18.868,1.312,24.758,2.84,1.148.3,2.147.582,2.945.835l.067.022c.194.067.395.142.611.224a45.026,45.026,0,0,1,4.689,2.11c5.71,2.833,11.256,6.024,16.773,9.229q10.042,5.838,19.919,11.965c6.658,4.108,13.591,8.037,19.271,13.479A8.237,8.237,0,0,1,336.675,191Z" transform="translate(-126.259 -148.754)" fill="#263238"/>
            <path id="Path_16605" data-name="Path 16605" d="M200.541,249.54a134.172,134.172,0,0,1,16.84-11.556c8.616-5.043,61.085-35.753,75.416-42.206,3.207-1.445,9.892-1.572,11.486-1.578,8-.033,16.03.215,24.039.287a2.078,2.078,0,0,0,1.061-.177.717.717,0,0,0,.339-.919,1.048,1.048,0,0,0-.6-.385c-5.526-1.953-14.223-2.628-19.463-5.286-4.5-2.282-8.892-4.784-13.274-7.284-12.051-6.876-23.409-13.4-35.371-21.362-11.152-7.425-12.79-9.738-17.341-8.951-12.693,3.981-106.374,55.4-110.122,59.739l-.045.052.045,2.181s.654.583,1.811,1.57a2.219,2.219,0,0,1,.442.1c1.9.691,14.385,11.866,24.245,17.932q1.478.88,2.962,1.7c10.389,5.482,24.183,10.919,30.449,13.518C197.735,248.55,200.541,249.54,200.541,249.54Z" transform="translate(-127.921 -149.034)" fill="#455a64"/>
            <g id="Group_12782" data-name="Group 12782" transform="translate(130.159 3.898)">
              <g id="Group_12781" data-name="Group 12781">
                <path id="Path_16606" data-name="Path 16606" d="M354.8,180.453c-14.066-8.122-24.08-14.317-35-20.624A35.311,35.311,0,0,0,306.821,155a74.773,74.773,0,0,0-9.715-1.192c-4.159.16-1.732,2.521,6.587,7.322s31.033,18.623,35.864,21.411a62.818,62.818,0,0,0,21.673,8.12C370.784,192.218,377.953,193.82,354.8,180.453Z" transform="translate(-295.114 -153.81)" fill="#455a64"/>
              </g>
            </g>
          </g>
          <g id="Group_12784" data-name="Group 12784" transform="translate(125.451 49.028)">
            <path id="Path_16607" data-name="Path 16607" d="M333.032,210.188c-2.743-1.7-15.053-1.63-20.12-1.863a16.88,16.88,0,0,0-6.757,1.219c-15.211,6.667-64.375,36.1-67.17,37.58-.22.117-.447.237-.671.369-2.67,1.586-16.852,9.953-21.017,12.285s-4.8,5.271-6.83,9.478-13.514,27.838-14.135,31.1,16.623-5.587,16.623-5.587l25.359-14.646c.991-.572,1.263-.743,2.46-1.5s80.338-46.97,86.26-51.835c2.951-2.423,3.787-4.135,4.922-8.406C333.3,213.312,334.748,211.253,333.032,210.188Z" transform="translate(-196.317 -208.316)"/>
            <path id="Path_16608" data-name="Path 16608" d="M380.471,210.951c-4.056,0-4.22,2.11-5.544,6.288-1.04,3.281-2.645,6.2-.688,5.233s8.7-8.177,9.958-9.424C386.792,210.466,382.322,210.951,380.471,210.951Z" transform="translate(-236.879 -208.912)"/>
            <path id="Path_16609" data-name="Path 16609" d="M287.848,223.919c-12.3,7.045-18.65,10.571-37.136,21.016a4.228,4.228,0,0,0-1.947,3.336v22.215c0,1.235.879,1.754,1.949,1.137,19.338-11.163,23.972-14.2,37.132-21.706a4.254,4.254,0,0,0,1.944-3.345V225.044C289.789,223.808,288.92,223.306,287.848,223.919ZM240.7,250.578l-.017.01c-2.683,1.595-15.17,8.555-19.659,11.068-2.036,1.14-3.56,3.749-5.126,7.533s-10.028,21.532-13.019,28.918c.1-.039,14.4-6.674,24.089-12.421,7.543-4.475,11.143-6.156,13.083-7.361a3.972,3.972,0,0,0,2.11-3.86V252.542c0-.49-.019-.9-.051-1.24A.936.936,0,0,0,240.7,250.578Zm70.633-39.4a9.85,9.85,0,0,0-3.51,1.355c-4.61,2.456-6.833,3.655-9.517,5.159l-.017.01a3.836,3.836,0,0,0-1.411,2.352c-.031.376-.051.809-.051,1.3v20.066c0,1.274.169,2.46,2.11,1.424s26.779-15.755,28.755-17.358c2.541-2.063,4.41-10.6,4.891-12.655C333.189,210.235,314.163,210.687,311.334,211.173Z" transform="translate(-197.821 -208.885)" fill="#263238"/>
          </g>
          <path id="Path_16610" data-name="Path 16610" d="M303.888,227.686a.279.279,0,0,0-.28.28v20.979a.279.279,0,1,0,.559,0V227.966A.279.279,0,0,0,303.888,227.686Zm1.514-.874a.28.28,0,0,0-.28.279v20.98a.28.28,0,0,0,.56,0v-20.98A.28.28,0,0,0,305.4,226.812Zm1.515-.874a.279.279,0,0,0-.28.279V247.2a.279.279,0,1,0,.559,0v-20.98A.279.279,0,0,0,306.916,225.938Zm-50.884,29.329a.279.279,0,0,0-.279.28v20.98a.279.279,0,0,0,.559,0v-20.98A.279.279,0,0,0,256.032,255.267Zm3.029-1.747a.279.279,0,0,0-.279.279v20.98a.279.279,0,1,0,.559,0V253.8A.279.279,0,0,0,259.061,253.52Zm-1.514.874a.28.28,0,0,0-.28.279v20.98a.28.28,0,0,0,.56,0v-20.98A.28.28,0,0,0,257.547,254.394Z" transform="translate(-84.487 -163.327)" fill="#e0e0e0"/>
        </g>
        <g id="Front_Car" data-name="Front Car" transform="translate(0 63.943)">
          <g id="Group_12785" data-name="Group 12785" transform="translate(42.865 18.15)">
            <path id="Path_16611" data-name="Path 16611" d="M97.228,260h0l-.583,2.428c-1.342,2.514-4.31,5.689-5.376,5.426-.951-.234-1.534-1.62-1.832-3.331V264.5a17.276,17.276,0,0,1-.248-2.479c-.092-2.691,1.108-8.969,4.843-10.637a1.928,1.928,0,0,1,2.215.5,4.4,4.4,0,0,1,1.079,1.782C97.951,255.553,97.312,259.9,97.228,260Z" transform="translate(-89.179 -251.213)" fill="#263238"/>
            <path id="Path_16612" data-name="Path 16612" d="M96.645,262.426c-1.342,2.514-4.31,5.689-5.376,5.426-.951-.234-1.534-1.62-1.832-3.331V264.5a17.276,17.276,0,0,1-.248-2.479c-.092-2.691,1.108-8.969,4.843-10.637a1.928,1.928,0,0,1,2.215.5l-.511,1.157c-2.613,1.115-3.316,5.148-3.075,8.216S95.146,264.01,96.645,262.426Z" transform="translate(-89.179 -251.213)" fill="#455a64"/>
            <path id="Path_16613" data-name="Path 16613" d="M97.319,253.665c-.944-1-3.288-1.051-5.262,1.662s-2.619,7.367-2.626,9.171a17.384,17.384,0,0,1-.248-2.478c-.093-2.692,1.1-8.969,4.839-10.638C95.584,250.685,96.872,252.28,97.319,253.665Z" transform="translate(-89.178 -251.212)" fill="#37474f"/>
          </g>
          <g id="Group_12788" data-name="Group 12788" transform="translate(92.52 87.657)">
            <g id="Group_12786" data-name="Group 12786" transform="translate(16.441)">
              <path id="Path_16614" data-name="Path 16614" d="M200.887,364.96l-25.962-15.249,14.423-8.327,11.538,6.687Z" transform="translate(-174.925 -341.384)" fill="#263238"/>
            </g>
            <g id="Group_12787" data-name="Group 12787" transform="translate(0 5.992)">
              <path id="Path_16615" data-name="Path 16615" d="M185.31,362.758l3.728-7.406-8.871-5.135v0c-2.822-1.623-6.579-1.439-10.705.943C160.7,356.22,153.6,369.269,153.6,380.306c0,5.78,1.949,9.857,5.063,11.709l0,0,.126.072.018.011,9.1,5.251,3.933-7.812C179.272,383.84,185.021,372.6,185.31,362.758Z" transform="translate(-153.596 -349.157)" fill="#37474f"/>
              <path id="Path_16616" data-name="Path 16616" d="M185.31,362.758l3.728-7.406-8.871-5.135v0c-2.822-1.623-6.579-1.439-10.705.943C160.7,356.22,153.6,369.269,153.6,380.306c0,5.78,1.949,9.857,5.063,11.709l0,0,.126.072.018.011,9.1,5.251,3.933-7.812C179.272,383.84,185.021,372.6,185.31,362.758Z" transform="translate(-153.596 -349.157)" fill="#263238"/>
              <path id="Path_16617" data-name="Path 16617" d="M197.3,368.9c0,9.516-5.283,20.53-12.356,26.623-.014.008-.021.022-.029.029a23.432,23.432,0,0,1-3.48,2.493c-8.763,5.064-15.871.213-15.864-10.822,0-8.337,4.055-17.832,9.814-24.152a.338.338,0,0,0,.049-.05,25.633,25.633,0,0,1,6-4.943C190.2,353.019,197.3,357.862,197.3,368.9Z" transform="translate(-156.341 -350.742)" fill="#37474f"/>
              <path id="Path_16618" data-name="Path 16618" d="M183.152,366.948c5.576-3.22,10.1.135,10.1,7.493s-4.52,15.934-10.1,19.153-10.1-.136-10.1-7.493S177.577,370.168,183.152,366.948Z" transform="translate(-158.056 -352.954)" fill="#455a64"/>
              <path id="Path_16619" data-name="Path 16619" d="M189.344,380.5c-.383,3.658-2.74,7.539-5.256,8.66a2.452,2.452,0,0,1-2.746-.231c-.885-.756-1.337-2.3-1.122-4.358.383-3.659,2.733-7.54,5.256-8.66a2.815,2.815,0,0,1,1.846-.242s.008-.006.007,0C188.777,376.027,189.623,377.836,189.344,380.5Z" transform="translate(-159.685 -355.218)" fill="#fafafa"/>
              <path id="Path_16620" data-name="Path 16620" d="M188.443,380.027c-.383,3.658-2.739,7.539-5.256,8.66a2.858,2.858,0,0,1-1.846.241c-.885-.756-1.337-2.3-1.122-4.358.383-3.659,2.733-7.54,5.256-8.66a2.815,2.815,0,0,1,1.846-.242s.008-.006.007,0C188.206,376.431,188.659,377.978,188.443,380.027Z" transform="translate(-159.685 -355.218)" fill="#e0e0e0"/>
              <path id="Path_16621" data-name="Path 16621" d="M200.234,368.9c0,9.516-5.283,20.53-12.356,26.623a44.981,44.981,0,0,0,10.063-19.472c1.342-6.363.838-15.5-4.623-17.8-5.418-2.294-12.669,2.556-14.949,4.771a25.633,25.633,0,0,1,6-4.943C193.134,353.019,200.234,357.862,200.234,368.9Z" transform="translate(-159.273 -350.742)" fill="#455a64"/>
            </g>
          </g>
          <path id="Path_16622" data-name="Path 16622" d="M168.539,310.78s-1.505-.287-1.155-1.6c0,0-8.839,4.05-10.7,4.662-4.052,1.336-19.278-4.081-35.638-12.962-3.27-1.947-12.281-6.531-21.8-13.176-4.032-2.7-7.516-5.28-10.613-7.8a50.6,50.6,0,0,1-7.178-7.089c-.521-.64-1.6-2.39-.962-3.82-32.447,23.08-50.234,32.634-46.423,58.957a58.213,58.213,0,0,0,.827,5.821c1.071,5.939,4.243,16.035,12.4,21.8,7.493,5.289,8.011,5.675,18.17,11.154s23.851,9.484,37.188,9.056c15.03-.486,28.183-6.217,28.593-9.693a36.633,36.633,0,0,1,.838-4.65,46.669,46.669,0,0,1,4.44-11.327,39.429,39.429,0,0,1,11.477-13.354c.587-.411,1.182-.788,1.777-1.131,9.659-5.579,17.618-1.089,18.64,9.986.076.8.062,1.882.062,2.753Z" transform="translate(-33.569 -237.139)" fill="#455a64"/>
          <path id="Path_16623" data-name="Path 16623" d="M192.278,357.811c.056.6.062,1.347.062,2.051l.045-36.889a1.686,1.686,0,0,1-1.108-.767l-7.155,3.77c-2.159,7.9-8.266,5.127-26.713,20.109-16.123,13.094-18.531,25.865-19.783,40.587,9.874-2,17.174-5.811,17.479-8.387a36.628,36.628,0,0,1,.838-4.65,46.669,46.669,0,0,1,4.44-11.327,39.429,39.429,0,0,1,11.477-13.354c.587-.411,1.182-.788,1.777-1.131C183.3,342.245,191.256,346.735,192.278,357.811Z" transform="translate(-57.416 -249.332)" fill="#37474f"/>
          <g id="Group_12789" data-name="Group 12789" transform="translate(0.459 38.767)">
            <path id="Path_16624" data-name="Path 16624" d="M144.589,323.13c-13.923,4.327-37.866,10.794-38.881,12.208s4.758,1.338,12.878,5.328c4.2,2.065,4.7,4.839,7.855,2.336s26.031-18.9,31.44-21.213C163.974,319.178,158.427,318.831,144.589,323.13Zm-62.8-45.167c-1.459-.318-23.413,15.969-26.265,18.811s-1.622,2.77.793,7.487c2.953,5.767-.48,10.827,1.6,10.425,1.031-.2,5.493-9.4,12.022-18.353C76.608,287.2,84.273,278.5,81.792,277.964Z" transform="translate(-38.683 -277.959)" fill="#fff" opacity="0.1"/>
            <path id="Path_16625" data-name="Path 16625" d="M54.928,318.453l28.391-37.437A149.45,149.45,0,0,0,54.928,318.453Zm32.427,18.722,61.873-17.78C112.421,324.22,87.355,337.175,87.355,337.175Zm4.552,24.964c-15.079-.492-28.365-8.785-38.619-14.8s-17.163-14.586-19.123-20.213c1.242,7.173,7.664,16.618,18.6,23.254,10.523,6.385,21.427,14.226,39.14,13.837s25.477-12.773,25.477-12.773S106.985,362.632,91.907,362.139Z" transform="translate(-34.165 -278.66)" fill="#37474f"/>
            <path id="Path_16626" data-name="Path 16626" d="M139.158,369.76a64.875,64.875,0,0,1,18.283,8.787A28.31,28.31,0,0,0,139.158,369.76Z" transform="translate(-58.226 -298.997)" fill="#263238"/>
            <path id="Path_16627" data-name="Path 16627" d="M156.211,369.758s.919.546,1.4.873C161.2,361.524,168,354.374,173.673,352.4,167.526,352.887,159.377,359.193,156.211,369.758Zm-1.1,13.526A33.24,33.24,0,0,1,156.9,372.6l-1.261-.643A34.42,34.42,0,0,0,155.113,383.284Z" transform="translate(-61.828 -295.018)" fill="#455a64"/>
          </g>
          <g id="Group_12793" data-name="Group 12793" transform="translate(0.69 64.168)">
            <path id="Path_16628" data-name="Path 16628" d="M34.464,347.675c.123.964.323,2.337.647,4.134a43.85,43.85,0,0,0,2.5,8.616c.517.476.981.793,1.29.772,1.192-.079.17-2.134-.681-5.2S35.241,349.95,34.464,347.675Zm77.812,31.952c-.923-.129-3.217.487-7.117,1.609s-4.845,1.223-6.288,2.22c-1.224.846-4.492,3.506-6.07,4.32-2.5,1.291.025,2.22,7,2.227s9.359-2.089,10.968-4.234S114.372,379.919,112.276,379.627Z" transform="translate(-34.464 -319.337)" fill="#fff" opacity="0.2"/>
            <path id="Path_16629" data-name="Path 16629" d="M81.835,390.013c-9.357-2.333-16.151-6.016-22.79-9.928s-10.961-7.574-13.433-10.679c-2.335-2.934-3.755-6.743-2.281-6.209a106.235,106.235,0,0,0,11.125,8.641c10.108,6.128,20.836,13.722,37.342,14.005a13.68,13.68,0,0,1,3.176.244C99,387.29,88.2,391.6,81.835,390.013Z" transform="translate(-36.358 -322.882)" fill="#263238"/>
            <g id="Group_12792" data-name="Group 12792" transform="translate(13.715 19.05)">
              <g id="Group_12790" data-name="Group 12790">
                <path id="Path_16630" data-name="Path 16630" d="M57.785,336.426a164.939,164.939,0,0,0,29.665,17.068,2.668,2.668,0,0,1,1.32,3.924,18.139,18.139,0,0,1-5.614,4.958c-1.488.813-4.18.56-5.765-.042A74.434,74.434,0,0,1,55.111,349.6c-1.287-1.105-2.79-3.355-2.844-5.05a22.13,22.13,0,0,1,1.114-7.792C54,335.183,56.419,335.422,57.785,336.426Z" transform="translate(-52.257 -335.625)" fill="#e0e0e0" opacity="0.85"/>
              </g>
              <g id="Group_12791" data-name="Group 12791" transform="translate(1.842 1.647)">
                <path id="Path_16631" data-name="Path 16631" d="M81.178,361.538a7.814,7.814,0,0,1-2.586-.437A72.955,72.955,0,0,1,56.858,348.7a6.8,6.8,0,0,1-2.2-3.71,20.421,20.421,0,0,1,.964-7c.293-.6,1.262.146,1.623.411a167.712,167.712,0,0,0,29.993,17.261,1.2,1.2,0,0,1,.666.732.462.462,0,0,1-.072.427,16.34,16.34,0,0,1-5.01,4.428A3.786,3.786,0,0,1,81.178,361.538Z" transform="translate(-54.646 -337.762)" fill="#263238"/>
              </g>
              <path id="Path_16632" data-name="Path 16632" d="M88.286,357.233l.1-.29a155.325,155.325,0,0,1-18.4-9.071c.465-.935.785-1.5.795-1.521l-1.6-.912c-.038.065-.339.6-.776,1.47-6.833-4.239-13.375-8.942-13.443-8.992l-.18.25c.068.049,6.634,4.77,13.485,9.018-.123.251-.254.52-.394.816-6.836-4.235-12.976-8.708-13.04-8.754l-.18.248c.063.046,6.231,4.539,13.09,8.787-.122.261-.247.538-.375.827-6.86-4.242-12.6-8.489-12.662-8.533l-.183.247c.059.043,5.834,4.313,12.72,8.569q-.176.4-.357.839c-6.9-4.259-12.253-8.286-12.307-8.327l-.185.244c.055.042,5.439,4.093,12.374,8.37q-.169.415-.337.851c-6.972-4.29-11.93-8.1-11.979-8.137l-.187.244c.049.039,5.044,3.874,12.057,8.187q-.16.424-.315.864a133.569,133.569,0,0,1-11.682-7.965l-.19.24a133.719,133.719,0,0,0,11.75,8.01l.019.012q-.149.432-.29.877l-.193-.116A113.833,113.833,0,0,1,54.2,345.891l-.194.238a114.083,114.083,0,0,0,11.255,7.718l.258.154c-.217.7-.417,1.411-.59,2.135l1.792.429c.129-.539.276-1.072.432-1.6a119.781,119.781,0,0,0,15.626,7.453l.1-.291a119.2,119.2,0,0,1-15.636-7.466c.09-.3.185-.588.281-.877A125.039,125.039,0,0,0,83.7,361.555l.1-.291a124.821,124.821,0,0,1-16.171-7.774c.1-.292.2-.58.308-.862a130.167,130.167,0,0,0,16.683,8.061l.1-.291a129.467,129.467,0,0,1-16.672-8.063q.164-.436.331-.852a134.72,134.72,0,0,0,17.16,8.341l.1-.291a134.344,134.344,0,0,1-17.144-8.34c.118-.288.235-.57.352-.84a143.882,143.882,0,0,0,17.611,8.606l.1-.29a143.5,143.5,0,0,1-17.587-8.6c.127-.289.251-.564.372-.828A150.864,150.864,0,0,0,87.369,358.1l.1-.29a150.452,150.452,0,0,1-18-8.844c.136-.292.267-.566.389-.816A155.483,155.483,0,0,0,88.286,357.233Z" transform="translate(-52.657 -336.151)" fill="#e0e0e0"/>
            </g>
            <path id="Path_16633" data-name="Path 16633" d="M47.943,311c-2.449-.58-5.109,1.754-6.477,3.6a14.074,14.074,0,0,0-2.6,9.447c.2,2.269,1.09,6.085,3.462,7.219a3.325,3.325,0,0,0,1.1.309,3.649,3.649,0,0,0,2.767-1.06,9.514,9.514,0,0,0,1.767-2.474C50.225,323.932,55.624,312.823,47.943,311Zm66.605,40.757c-1.052-1.6-3.506-2.489-5.243-2.992a21.344,21.344,0,0,0-16.136,1.842,9.925,9.925,0,0,0-2.994,2.366,4.86,4.86,0,0,0-1.134,3.563c.755,5.929,9.554,6.7,14.068,5.918a18.176,18.176,0,0,0,8.047-3.6,15.951,15.951,0,0,0,2.33-2.221C114.726,355.152,115.591,353.342,114.548,351.759Z" transform="translate(-35.461 -310.912)" fill="#f0f0f0"/>
          </g>
          <g id="Group_12794" data-name="Group 12794" transform="translate(46.512)">
            <path id="Path_16634" data-name="Path 16634" d="M137.285,238.753a112.582,112.582,0,0,1-9.235-7.645q-1.849-1.68-3.57-3.442a220.329,220.329,0,0,0-30.325,31.513c-1.7,2.935,5.546,9.75,16.26,17.306,22.248,15.679,59.5,34.544,63,28.46L191.2,266.182C169.926,258.44,151.62,249.444,137.285,238.753Zm34.068,64.805a3.587,3.587,0,0,1-.964.1c-8.656,0-37.661-14.454-58.559-29.181-13.507-9.526-15.219-13.4-15.434-14.178a215.262,215.262,0,0,1,25.891-27.435,3.051,3.051,0,0,1,4.091.042l.02.018a115.619,115.619,0,0,0,9.419,7.8c12.8,9.548,28.878,17.982,49.016,25.7a3.043,3.043,0,0,1,1.672,4.109Z" transform="translate(-93.91 -227.666)" fill="#37474f"/>
            <path id="Path_16635" data-name="Path 16635" d="M172.093,304.876a3.587,3.587,0,0,1-.964.1c-8.656,0-37.661-14.454-58.559-29.181-13.507-9.526-15.219-13.4-15.434-14.178a215.26,215.26,0,0,1,25.891-27.435,3.051,3.051,0,0,1,4.091.042l.02.018a115.6,115.6,0,0,0,9.419,7.8c12.8,9.548,28.878,17.982,49.016,25.7a3.043,3.043,0,0,1,1.672,4.109Z" transform="translate(-94.649 -228.984)" fill="#37474f"/>
            <path id="Path_16636" data-name="Path 16636" d="M139.008,243.3c-1.939-1.447-3.786-2.917-5.541-4.391-11.142,10.355-21.39,25.888-25.634,32.753,1.919,1.553,4.279,3.342,7.189,5.4,3.368,2.373,6.947,4.738,10.617,7.038,7.534-12.239,18.693-28.556,23-34.213Q143.544,246.675,139.008,243.3Zm12.474,8.326a367.6,367.6,0,0,0-22.881,34.3q2.221,1.353,4.462,2.662c4.873-7.987,13.328-21.517,22.436-34.621Q153.449,252.8,151.481,251.623Z" transform="translate(-97.1 -230.242)" fill="#455a64"/>
            <path id="Path_16637" data-name="Path 16637" d="M154.158,299.022c10.549,5.053,21.559,8.518,22.447,6.154s8.594-17.766,10.8-23.87,2.714-6.783,1.273-8.634-9.454-4.826-22.439-10.953S141.145,244.6,141.145,244.6c12.8,9.548,28.878,17.982,49.016,25.7a3.043,3.043,0,0,1,1.672,4.109L176.682,307.44a3.587,3.587,0,0,1-.964.1c-8.656,0-37.661-14.454-58.559-29.181C121.453,281.492,143.61,293.969,154.158,299.022Z" transform="translate(-99.238 -231.547)" fill="#fff" opacity="0.3"/>
          </g>
          <g id="Group_12795" data-name="Group 12795" transform="translate(125.289 68.834)">
            <path id="Path_16638" data-name="Path 16638" d="M214.679,322.223c-1.2,5.717-7.534,6.924-12.278,6.783a14.535,14.535,0,0,1-5.213-.895c-1.832-1.058-.987-3.253-.007-4.524,1.662-2.151,9.118-6.47,13.8-6.618C213.721,316.876,215.517,318.211,214.679,322.223Z" transform="translate(-196.107 -316.964)" fill="#263238"/>
            <path id="Path_16639" data-name="Path 16639" d="M214.679,322.223c-1.2,5.717-7.534,6.924-12.278,6.783a14.535,14.535,0,0,1-5.213-.895c-1.832-1.058-.987-3.253-.007-4.524-.923,1.747,3.963,2.827,8.316,1.264s7.6-4.929,5.482-7.883C213.721,316.876,215.517,318.211,214.679,322.223Z" transform="translate(-196.107 -316.964)" fill="#455a64"/>
            <path id="Path_16640" data-name="Path 16640" d="M216.55,322.223c-1.2,5.717-7.534,6.924-12.278,6.783,4.722-.136,8.486-2.855,9.906-5.824s.341-5.838-1.327-6.214C215.592,316.876,217.388,318.211,216.55,322.223Z" transform="translate(-197.978 -316.964)" fill="#37474f"/>
          </g>
        </g>
      </g>
    </g>
    <g id="Character" transform="translate(211.809 208.748)">
      <g id="Character-2" data-name="Character" transform="translate(0 0)">
        <g id="Bottom" transform="translate(0 53.361)">
          <g id="Group_12803" data-name="Group 12803" transform="translate(20.183 65.299)">
            <path id="Path_16641" data-name="Path 16641" d="M303.734,394.125l2.387-.78-.7-1.615-1.5,1.278Z" transform="translate(-301.282 -384.017)"/>
            <path id="Path_16642" data-name="Path 16642" d="M300.752,389.233s-.157,1.518-.2,2,1.952,2.056,2.451,2.323l.182-1.118a8.688,8.688,0,0,1,1.1,1.866,8.842,8.842,0,0,0,1.868,2.942,11.6,11.6,0,0,0,6.611,2.348,7.41,7.41,0,0,0,4.812-.888,1.684,1.684,0,0,0,.857-1.818C318.281,396.23,300.752,389.233,300.752,389.233Z" transform="translate(-300.553 -383.445)" fill="#263238"/>
            <g id="Group_12796" data-name="Group 12796" transform="translate(0.078)">
              <path id="Path_16643" data-name="Path 16643" d="M307.86,382.606l.069-.882c.473.005.476,1.287,1.12,2.438a22.885,22.885,0,0,0,3.42,4.748c2.5,2.468,4.764,4.048,5.881,5.159,1.495,1.486-1.33,3.631-5.511,3.22-2.074-.2-5.725-1.4-6.712-2.664s-1.545-3.2-2.339-4.122-2.541-1.892-3.014-2.992a7.325,7.325,0,0,1,.168-3.148c.2-1.071.3-2.723.908-2.563l.02.557a3.113,3.113,0,0,0,2.44,1.636C305.143,384.17,307.638,384.349,307.86,382.606Z" transform="translate(-300.654 -381.724)" fill="#37474f"/>
              <path id="Path_16644" data-name="Path 16644" d="M307.142,384.505a2.292,2.292,0,0,0,2.041-.966c0-.008.012-.014.015-.022a2.015,2.015,0,0,0,.469,1.721c.713.9,5.188,7.251,5.188,7.251s-4.192-5.257-5-6.248c-1.19-1.465-1.579-1.646-2.721-1.734Z" transform="translate(-302.14 -382.135)" opacity="0.15"/>
            </g>
            <g id="Group_12797" data-name="Group 12797" transform="translate(5.548 3.75)">
              <path id="Path_16645" data-name="Path 16645" d="M308.26,386.883a.257.257,0,1,1-.215-.291A.256.256,0,0,1,308.26,386.883Z" transform="translate(-307.75 -386.589)" opacity="0.15"/>
              <path id="Path_16646" data-name="Path 16646" d="M309.79,388.714a.257.257,0,1,1-.215-.291A.256.256,0,0,1,309.79,388.714Z" transform="translate(-308.101 -387.009)" opacity="0.15"/>
              <path id="Path_16647" data-name="Path 16647" d="M311.32,390.545a.257.257,0,1,1-.215-.291A.256.256,0,0,1,311.32,390.545Z" transform="translate(-308.451 -387.428)" opacity="0.15"/>
              <path id="Path_16648" data-name="Path 16648" d="M312.85,392.377a.257.257,0,1,1-.214-.291A.256.256,0,0,1,312.85,392.377Z" transform="translate(-308.802 -387.848)" opacity="0.15"/>
              <path id="Path_16649" data-name="Path 16649" d="M314.381,394.208a.256.256,0,1,1-.214-.291A.256.256,0,0,1,314.381,394.208Z" transform="translate(-309.153 -388.268)" opacity="0.15"/>
            </g>
            <g id="Group_12798" data-name="Group 12798" transform="translate(5.701 2.895)">
              <path id="Path_16650" data-name="Path 16650" d="M308.04,386.692a.1.1,0,0,1-.064-.033.1.1,0,0,1,.007-.145,4.231,4.231,0,0,1,2.945-1.018h0a.1.1,0,0,1-.023.2,4.1,4.1,0,0,0-2.786.967A.1.1,0,0,1,308.04,386.692Z" transform="translate(-307.949 -385.48)" fill="#263238"/>
            </g>
            <g id="Group_12799" data-name="Group 12799" transform="translate(6.881 4.302)">
              <path id="Path_16651" data-name="Path 16651" d="M309.571,388.517a.1.1,0,0,1-.064-.033.1.1,0,0,1,.007-.145,4.231,4.231,0,0,1,2.945-1.018h0a.1.1,0,0,1-.022.2,4.1,4.1,0,0,0-2.786.967A.1.1,0,0,1,309.571,388.517Z" transform="translate(-309.48 -387.305)" fill="#263238"/>
            </g>
            <g id="Group_12800" data-name="Group 12800" transform="translate(8.06 5.718)">
              <path id="Path_16652" data-name="Path 16652" d="M311.1,390.354a.1.1,0,0,1-.056-.179,4.228,4.228,0,0,1,2.945-1.018h0a.1.1,0,0,1-.022.2,4.1,4.1,0,0,0-2.786.967A.105.105,0,0,1,311.1,390.354Z" transform="translate(-311.009 -389.142)" fill="#263238"/>
            </g>
            <g id="Group_12801" data-name="Group 12801" transform="translate(9.239 7.129)">
              <path id="Path_16653" data-name="Path 16653" d="M312.63,392.185a.106.106,0,0,1-.064-.033.1.1,0,0,1,.008-.145,4.225,4.225,0,0,1,2.945-1.019h0a.1.1,0,0,1-.022.2,4.093,4.093,0,0,0-2.786.967A.105.105,0,0,1,312.63,392.185Z" transform="translate(-312.539 -390.973)" fill="#263238"/>
            </g>
            <g id="Group_12802" data-name="Group 12802" transform="translate(10.419 8.541)">
              <path id="Path_16654" data-name="Path 16654" d="M314.161,394.016a.1.1,0,0,1-.065-.034.1.1,0,0,1,.008-.144,4.228,4.228,0,0,1,2.945-1.019h0a.1.1,0,0,1-.023.2,4.1,4.1,0,0,0-2.786.967A.1.1,0,0,1,314.161,394.016Z" transform="translate(-314.07 -392.804)" fill="#263238"/>
            </g>
          </g>
          <g id="Group_12810" data-name="Group 12810" transform="translate(0 66.456)">
            <g id="Group_12804" data-name="Group 12804">
              <path id="Path_16655" data-name="Path 16655" d="M283.541,401.726a9.35,9.35,0,0,1-1.233,4.529,3.561,3.561,0,0,1-3.422,1.334,4.892,4.892,0,0,1-4.162-3.326,9,9,0,0,1-.07-4.794Z" transform="translate(-274.37 -386.947)" fill="#263238"/>
              <path id="Path_16656" data-name="Path 16656" d="M277.579,383.224c-.568.035-.782,2.747-1.156,5.46-.4,2.908-1.325,4.523-1.65,6.483-.45,2.716-.281,3.945.652,5.61s5.076,3.391,6.793,1.054c1.4-1.9,1.493-4.041,1.414-6.767a69.068,69.068,0,0,1-.008-6.938c.146-2.042.321-4.02-.168-4.255-.043.3-.086.679-.132.974-.035.226-.11,1.331-.429,1.337a4.219,4.219,0,0,1,.007-.77.907.907,0,0,0-.144-.661,1.073,1.073,0,0,0-.625-.29,16.226,16.226,0,0,0-1.684-.286,8.463,8.463,0,0,0-.85-.049,9.572,9.572,0,0,0-1.488.038.5.5,0,0,0-.312.272.9.9,0,0,0-.035.311,2.245,2.245,0,0,1-.08.559c-.022.08-.08.178-.161.157-.065-.017-.09-.1-.089-.167,0-.329.05-.568.072-.951.01-.177.043-.418.049-.6S277.564,383.4,277.579,383.224Z" transform="translate(-274.408 -383.224)" fill="#37474f"/>
              <path id="Path_16657" data-name="Path 16657" d="M277.53,399.583a.2.2,0,1,0,.22-.173A.2.2,0,0,0,277.53,399.583Z" transform="translate(-275.094 -386.933)" opacity="0.15"/>
              <path id="Path_16658" data-name="Path 16658" d="M277.818,397.144a.2.2,0,1,0,.22-.173A.2.2,0,0,0,277.818,397.144Z" transform="translate(-275.16 -386.374)" opacity="0.15"/>
              <path id="Path_16659" data-name="Path 16659" d="M278.091,394.842a.2.2,0,1,0,.22-.173A.2.2,0,0,0,278.091,394.842Z" transform="translate(-275.223 -385.846)" opacity="0.15"/>
              <path id="Path_16660" data-name="Path 16660" d="M278.359,392.572a.2.2,0,1,0,.22-.173A.2.2,0,0,0,278.359,392.572Z" transform="translate(-275.284 -385.326)" opacity="0.15"/>
              <path id="Path_16661" data-name="Path 16661" d="M284.181,393.026a.2.2,0,1,0,.22-.173A.2.2,0,0,0,284.181,393.026Z" transform="translate(-276.618 -385.43)" opacity="0.15"/>
              <path id="Path_16662" data-name="Path 16662" d="M283.911,395.311a.2.2,0,1,0,.22-.173A.2.2,0,0,0,283.911,395.311Z" transform="translate(-276.556 -385.954)" opacity="0.15"/>
              <path id="Path_16663" data-name="Path 16663" d="M283.638,397.614a.2.2,0,1,0,.22-.173A.2.2,0,0,0,283.638,397.614Z" transform="translate(-276.494 -386.482)" opacity="0.15"/>
              <path id="Path_16664" data-name="Path 16664" d="M283.349,400.054a.2.2,0,0,0,.395.046.2.2,0,0,0-.395-.046Z" transform="translate(-276.428 -387.041)" opacity="0.15"/>
              <path id="Path_16665" data-name="Path 16665" d="M281.163,397.316l1.75-13.118-.732-.026Z" transform="translate(-275.927 -383.441)" opacity="0.15"/>
            </g>
            <g id="Group_12809" data-name="Group 12809" transform="translate(2.532 6.938)">
              <g id="Group_12805" data-name="Group 12805" transform="translate(0 5.501)">
                <path id="Path_16666" data-name="Path 16666" d="M277.745,399.7a.079.079,0,0,0,.03,0,8.946,8.946,0,0,1,4.422.341.1.1,0,1,0,.091-.179,9.008,9.008,0,0,0-4.552-.358.1.1,0,0,0,.009.2Z" transform="translate(-277.655 -399.362)" fill="#263238"/>
              </g>
              <g id="Group_12806" data-name="Group 12806" transform="translate(0.222 3.524)">
                <path id="Path_16667" data-name="Path 16667" d="M278.033,397.227a.1.1,0,0,0,.052-.009,6.971,6.971,0,0,1,4.4.348.1.1,0,0,0,.136-.044.1.1,0,0,0-.045-.135,7.17,7.17,0,0,0-4.575-.352.1.1,0,0,0-.05.133A.1.1,0,0,0,278.033,397.227Z" transform="translate(-277.943 -396.796)" fill="#263238"/>
              </g>
              <g id="Group_12807" data-name="Group 12807" transform="translate(0.433 1.749)">
                <path id="Path_16668" data-name="Path 16668" d="M278.306,394.925a.1.1,0,0,0,.052-.008,6.977,6.977,0,0,1,4.4.348.1.1,0,1,0,.092-.179,7.165,7.165,0,0,0-4.575-.352.1.1,0,0,0,.031.191Z" transform="translate(-278.216 -394.494)" fill="#263238"/>
              </g>
              <g id="Group_12808" data-name="Group 12808" transform="translate(0.64)">
                <path id="Path_16669" data-name="Path 16669" d="M278.574,392.655a.1.1,0,0,0,.052-.009,6.971,6.971,0,0,1,4.4.348.1.1,0,1,0,.092-.179,7.182,7.182,0,0,0-4.576-.352.1.1,0,0,0-.05.133A.1.1,0,0,0,278.574,392.655Z" transform="translate(-278.484 -392.225)" fill="#263238"/>
              </g>
            </g>
          </g>
          <g id="Group_12811" data-name="Group 12811" transform="translate(1.657)">
            <path id="Path_16670" data-name="Path 16670" d="M281.4,297.764c-1.8,16.541-2.886,39.344-2.886,39.344a58.165,58.165,0,0,0-1.817,12.081c-.318,6.579-.124,18.867-.124,18.867s3.952,2.267,7.721,1.138c0,0,4.5-20.257,6.111-28.053,1.79-8.684,3.5-20.213,3.5-20.213l.426,15.861s-.4,4.718-.351,8.029c.052,3.85,1.2,20.248,1.2,20.248s4.925,3.083,8.888.243c0,0,2.06-25.179,2.3-29.8.479-9.067.718-26.772.728-38.5Z" transform="translate(-276.519 -297.011)" fill="#00437f"/>
            <path id="Path_16671" data-name="Path 16671" d="M290.693,322.527q-.6,5.955-1.33,11.9-.355,2.972-.737,5.94l-.381,2.968-.2,1.484c-.062.495-.17.982-.253,1.474-.712,3.926-1.824,11.059-2.6,14.975s-1.589,7.822-2.459,11.719q.861-5.926,1.874-11.819c.673-3.93,1.739-11.068,2.47-14.987.086-.491.2-.977.262-1.472l.2-1.481.419-2.961q.417-2.961.859-5.918Q289.7,328.431,290.693,322.527Z" transform="translate(-277.945 -302.858)"/>
            <path id="Path_16672" data-name="Path 16672" d="M312.135,320.488c.31,3.719.422,7.452.473,11.182s.089,7.472-.16,11.193c-.2,3.724-.48,9.968-.73,13.688s-.527,7.442-.86,11.157q.075-5.6.291-11.182c.135-3.725.385-9.968.57-13.691l.153-2.791.038-.7.012-.693.025-1.4.095-5.589.073-5.589C312.148,324.217,312.141,322.353,312.135,320.488Z" transform="translate(-284.389 -302.391)"/>
            <path id="Path_16673" data-name="Path 16673" d="M299.086,324.6l1.894-9.033s4.543-.523,6.923-2.527a9.1,9.1,0,0,1-5.874,3.643l-1.853,7.975-.664,15.8Z" transform="translate(-281.691 -300.685)"/>
          </g>
        </g>
        <g id="Top" transform="translate(1.275)">
          <g id="Head" transform="translate(8.437 3.07)">
            <g id="Group_12815" data-name="Group 12815">
              <g id="Group_12814" data-name="Group 12814">
                <g id="Group_12812" data-name="Group 12812">
                  <path id="Path_16674" data-name="Path 16674" d="M290.565,236.89a2.834,2.834,0,0,0-2.112,1.642c-.429.788-.753,2.235.3,6.407a16.729,16.729,0,0,0,1.911,4.618,2.053,2.053,0,0,0,1.174.974l-.023-3.193-.077-2.225a9.146,9.146,0,0,0,1.644-3.519,5.714,5.714,0,0,0-.181-2.9Z" transform="translate(-287.217 -232.942)" fill="#e0e0e0"/>
                  <path id="Path_16675" data-name="Path 16675" d="M290.746,235.816c.345-1.788,2.659-3.887,7.052-4.039,3.6-.125,5.68,1.151,6.892,3.271a6.723,6.723,0,0,1,.338,4.82l-11.284-.948Z" transform="translate(-287.835 -231.768)" fill="#e0e0e0"/>
                  <path id="Path_16676" data-name="Path 16676" d="M291.423,237.73a2.443,2.443,0,0,1-1.371,1.987,2.81,2.81,0,0,0-1.43,2.345,2.75,2.75,0,0,1,1.486-1.756,6.676,6.676,0,0,0,1.383-.967s-.109.835-1.491,1.9a2.963,2.963,0,0,0-1.038,2.78,2.587,2.587,0,0,1,.947-2.016c1.034-.885,2.306-1.284,2.29-2.609A2.222,2.222,0,0,0,291.423,237.73Z" transform="translate(-287.349 -233.134)" fill="#fafafa"/>
                  <path id="Path_16677" data-name="Path 16677" d="M288.637,248.019a2.23,2.23,0,0,0,2.417-.459l.126,6.584s.106,1.271,2.109,2.422c2.841,1.633,4.072,2.036,5.273,3.748.976-2.82,2.175-4.139.862-6.291v-1.646s.511-.039,1.391-.164a3.652,3.652,0,0,0,2.874-2.927,22.156,22.156,0,0,0,.2-10.091,3.408,3.408,0,0,0-1.175-1.985c-2.85-2.3-6.124-.713-8.589.2a4.613,4.613,0,0,1-3.081-.068c.837.959,1.234,1.877,1.185,6.412a2.763,2.763,0,0,1-.646.809c-.543.456-.96-.755-1.4-1.233a1.843,1.843,0,0,0-2.88.607A3.028,3.028,0,0,0,288.637,248.019Z" transform="translate(-286.97 -232.743)" fill="#ffa8a7"/>
                </g>
                <g id="Group_12813" data-name="Group 12813" transform="translate(8.067 7.216)">
                  <path id="Path_16678" data-name="Path 16678" d="M299.125,242.217l-1.629.672a.925.925,0,0,1,.495-1.18A.86.86,0,0,1,299.125,242.217Z" transform="translate(-297.435 -241.247)" fill="#37474f"/>
                  <path id="Path_16679" data-name="Path 16679" d="M307.081,242.3l-1.7-.525a.851.851,0,0,1,1.08-.6A.932.932,0,0,1,307.081,242.3Z" transform="translate(-299.257 -241.129)" fill="#37474f"/>
                  <path id="Path_16680" data-name="Path 16680" d="M298.382,244.433a.718.718,0,1,0,.705-.731A.718.718,0,0,0,298.382,244.433Z" transform="translate(-297.652 -241.719)" fill="#263238"/>
                  <path id="Path_16681" data-name="Path 16681" d="M305.315,244.215a.718.718,0,1,0,.705-.73A.654.654,0,0,0,305.315,244.215Z" transform="translate(-299.241 -241.669)" fill="#263238"/>
                  <path id="Path_16682" data-name="Path 16682" d="M301.833,242.641l.507,4.579,2.43-.846A10.7,10.7,0,0,0,301.833,242.641Z" transform="translate(-298.443 -241.476)" fill="#f28f8f"/>
                </g>
              </g>
            </g>
            <path id="Path_16683" data-name="Path 16683" d="M293.3,245.445c.253,3.124,1.338,3.3,2.455,3.45,1.48.193,2.181-.627,4.814-.715a5.951,5.951,0,0,1,3.034.748c.681.254,1.225.153,1.461-.458a10.493,10.493,0,0,0,.392-3.4,25.162,25.162,0,0,1,.042,5.134,5.56,5.56,0,0,1-1.453,3.47c-1.095.99-3.433,1.456-6.4.9-2.923-.543-4.118-1.736-4.507-2.764-1.261-3.336-.862-4.947-1.27-5.572S293.3,245.445,293.3,245.445Z" transform="translate(-288.079 -234.817)" fill="#e0e0e0"/>
            <path id="Path_16684" data-name="Path 16684" d="M302.245,249.867c-1.5.018-2.124.314-2.124,1.7,0,1.478.035,1.971.6,2.03.667.068,1.155.092,1.164-.326a1.652,1.652,0,0,0-.127-.942c-.243-.273-.163-.318.5-.325.685-.007.656.109.467.319-.138.153-.109.66-.1.95.012.318.087.439,1.033.317.826-.107.662-.767.6-2.032C304.224,250.707,303.948,249.845,302.245,249.867Z" transform="translate(-289.984 -235.916)" fill="#ffa8a7"/>
            <path id="Path_16685" data-name="Path 16685" d="M301.118,250.413l2.481.427a1.237,1.237,0,0,1-1.426,1.068A1.319,1.319,0,0,1,301.118,250.413Z" transform="translate(-290.209 -236.041)" fill="#b16668"/>
            <path id="Path_16686" data-name="Path 16686" d="M301.438,250.916a1.369,1.369,0,0,0-.3.017,1.3,1.3,0,0,0,1.046,1.089,1.219,1.219,0,0,0,.4,0A1.153,1.153,0,0,0,301.438,250.916Z" transform="translate(-290.216 -236.156)" fill="#f28f8f"/>
          </g>
          <g id="Group_12826" data-name="Group 12826" transform="translate(0 21.792)">
            <path id="Path_16687" data-name="Path 16687" d="M313.365,285.741H320.5a6.554,6.554,0,0,0,.143-2.231l-.023-.116c-.516-2.474-.994-4.17-1.7-6.961-1.01-4-1.688-5.75-2.259-7.67-.439-1.457-2.721-3.353-4.216-4.432l.925,18.539A11.977,11.977,0,0,1,313.365,285.741Z" transform="translate(-284.371 -257.953)" fill="#00437f"/>
            <g id="Group_12820" data-name="Group 12820" transform="translate(0.899)">
              <path id="Path_16688" data-name="Path 16688" d="M286.07,259.455c-4,1.953-8.013,4.97-8.879,6.162,0,0,1.924,7.7,3.757,11.4s2.409,14.4,2.409,14.4,13.52,5.206,17.809,5.764,4.92-1.243,4.92-1.243a190.059,190.059,0,0,0,.038-19.9c-.458-5.942-.713-11.734-2.47-13.169-1.137-.929-5.9-3.754-5.9-3.754a26.161,26.161,0,0,0-.925,4.963C295.511,262.412,286.07,259.455,286.07,259.455Z" transform="translate(-277.191 -256.757)" fill="#e0e0e0"/>
              <g id="Group_12819" data-name="Group 12819" transform="translate(8.138)">
                <g id="Group_12816" data-name="Group 12816" transform="translate(11.949 5.515)">
                  <path id="Path_16689" data-name="Path 16689" d="M304.074,265.745a3.057,3.057,0,0,0,.371-1.646l-1.108-.888-.088,1.446Z" transform="translate(-303.249 -263.211)" fill="#2baab7"/>
                  <path id="Path_16690" data-name="Path 16690" d="M304.074,265.745a3.057,3.057,0,0,0,.371-1.646l-1.108-.888-.088,1.446Z" transform="translate(-303.249 -263.211)" fill="#2baab7" opacity="0.25"/>
                </g>
                <g id="Group_12817" data-name="Group 12817" transform="translate(5.382 5.226)">
                  <path id="Path_16691" data-name="Path 16691" d="M299.934,264.671l-2.892-1.836L294.73,264.5l4.419,2.083Z" transform="translate(-294.73 -262.836)" fill="#2baab7"/>
                  <path id="Path_16692" data-name="Path 16692" d="M299.934,264.671l-2.892-1.836L294.73,264.5l4.419,2.083Z" transform="translate(-294.73 -262.836)" fill="#2baab7" opacity="0.25"/>
                </g>
                <path id="Path_16693" data-name="Path 16693" d="M291.307,256.057l.014.7c.087.576.993,1.846,3.761,3.248a9.817,9.817,0,0,1,3.814,3.031,4.275,4.275,0,0,0-2.195.084c-1.309.4-3.525,1.932-4.135,1.888-.593-.043-1.372-1.771-2.894-3.527-1.28-1.475-1.924-2.354-1.924-2.354s.877-.7,1.705-1.529C290.165,256.889,290.8,256.038,291.307,256.057Z" transform="translate(-287.748 -256.057)" fill="#f0f0f0"/>
                <path id="Path_16694" data-name="Path 16694" d="M302.665,263.451c1.132-.4,2.264.717,2.532.353s-.617-4.721-2.176-5.837v1.085Z" transform="translate(-291.167 -256.494)" fill="#f0f0f0"/>
                <g id="Group_12818" data-name="Group 12818" transform="translate(9.796 6.957)">
                  <path id="Path_16695" data-name="Path 16695" d="M301.869,269.4a101.829,101.829,0,0,1,.109,13.824c-.079,1.685,2.218,5.22,2.8,5.175s1.794-3.211,2.032-5.07c-.02-4.528-2.42-11.667-3.5-14.116Z" transform="translate(-300.78 -266.028)" fill="#74c1c9"/>
                  <path id="Path_16696" data-name="Path 16696" d="M303.391,269.412c-.027-.069-.055-.137-.082-.2l-1.44.187.057.6A2.474,2.474,0,0,0,303.391,269.412Z" transform="translate(-300.78 -266.028)" opacity="0.15"/>
                  <path id="Path_16697" data-name="Path 16697" d="M301.246,265.186a6.128,6.128,0,0,1,1.363-.1,3.248,3.248,0,0,1,.825,1.088,4.927,4.927,0,0,1-.449,2.092,1.731,1.731,0,0,1-1.44.187,3.025,3.025,0,0,1-1.084-1.357A2.744,2.744,0,0,1,301.246,265.186Z" transform="translate(-300.457 -265.082)" fill="#74c1c9"/>
                </g>
              </g>
            </g>
            <g id="Group_12821" data-name="Group 12821" transform="translate(0.889 1.823)">
              <path id="Path_16698" data-name="Path 16698" d="M306.611,282.921c-.1-3.759-.123-18.368-2.245-19.946s-6.374-3.956-6.374-3.956c2.742,7.721.689,16.67.689,16.67a69.874,69.874,0,0,1-5.158-6.333,86.866,86.866,0,0,1-6.781-10.933c-8.76,5.057-9.558,7.041-9.558,7.041-.157,4.843,3.373,15.551,3.6,20.136a127.82,127.82,0,0,1-.506,12.941s5,3.229,14.18,3.528,12.247-3.668,12.247-3.668S306.707,286.678,306.611,282.921Z" transform="translate(-277.178 -258.422)" fill="#00437f"/>
              <path id="Path_16699" data-name="Path 16699" d="M295.912,272.324l-.086-.241-.244.085-2.249.779c-.542-.9-1.112-1.778-1.656-2.671-.592-.953-1.159-1.919-1.726-2.886s-1.131-1.935-1.639-2.932a18.571,18.571,0,0,1-1.342-3.075,15.308,15.308,0,0,0,1.074,3.2c.46,1.031.974,2.036,1.5,3.033,1.078,1.977,2.242,3.914,3.429,5.811l.123.2.211-.077,2.211-.808c.543,1.492,1.127,2.969,1.7,4.449l.037.1.093.009c1.253.119,2.508.227,3.764.314-1.2-.222-2.413-.423-3.623-.614C296.97,275.437,296.466,273.871,295.912,272.324Zm8.993-.8-.009-.341a21.876,21.876,0,0,0-.695-4.751,28.882,28.882,0,0,0-1.522-4.523c.409,1.536.782,3.073,1.08,4.621a31,31,0,0,1,.543,4.326l-1.332-.183-.378-.052.066.372c.275,1.574.6,3.141.913,4.708-.58.466-1.171.92-1.741,1.4.671-.394,1.32-.819,1.981-1.226l.071-.044-.013-.1c-.191-1.488-.385-2.975-.61-4.459l1.309.2Z" transform="translate(-279.422 -259.101)" fill="#263238"/>
            </g>
            <g id="Group_12824" data-name="Group 12824" transform="translate(19.818 23.125)">
              <g id="Group_12823" data-name="Group 12823" transform="translate(0 11.554)">
                <g id="Group_12822" data-name="Group 12822">
                  <path id="Path_16700" data-name="Path 16700" d="M311.021,315.743s-.06.16-.309.755a14.6,14.6,0,0,1-1.769,2.676,7.125,7.125,0,0,1-1.8,1.5,1.427,1.427,0,0,1-.924-.2c-.538-.279-1.239-.227-1.663-.695a3.531,3.531,0,0,0-.508-.536c-.3-.212-.711-.265-.933-.556-.142-.185-.177-.434-.315-.621-.2-.274-.583-.358-.817-.606a1.021,1.021,0,0,1-.244-.762,3.284,3.284,0,0,1,.723-1.505,1.484,1.484,0,0,1,.086-.94,7.95,7.95,0,0,1,.99-1.806,16.616,16.616,0,0,1,3.428-.744l.64-.127a4.64,4.64,0,0,1,2.939,1.78C311.644,314.9,311.021,315.743,311.021,315.743Z" transform="translate(-301.735 -303.459)" fill="#f28f8f"/>
                  <path id="Path_16701" data-name="Path 16701" d="M311.276,301.046c-1.307,3.336-1.888,4.95-2.6,6.353s-1.067,1.866-1.963,2.107l5.141,4.579s1.439-2.757,2.23-4.314,2.475-6.123,2.475-6.123Z" transform="translate(-302.875 -301.046)" fill="#f28f8f"/>
                  <path id="Path_16702" data-name="Path 16702" d="M312.1,315.392a5.951,5.951,0,0,1-1.009,3.284,13.445,13.445,0,0,0,1.364-2.178c.249-.6.309-.755.309-.755s.623-.839-.478-2.388a4.64,4.64,0,0,0-2.939-1.78S311.882,313.982,312.1,315.392Z" transform="translate(-303.48 -303.459)" fill="#f28f8f"/>
                  <path id="Path_16703" data-name="Path 16703" d="M302.676,315.549a6.831,6.831,0,0,1,1.9-1.568c.392-.15.763-.385.434-.39s-.752-.1-.829-.361-.25.071-.185.41-.16.486-.545.846A4.908,4.908,0,0,0,302.676,315.549Z" transform="translate(-301.951 -303.817)" fill="#b16668"/>
                </g>
              </g>
              <path id="Path_16704" data-name="Path 16704" d="M311.594,301.93l-1.186,3.318a6.537,6.537,0,0,1,3.161.949,4.306,4.306,0,0,1,2.176,2.37l1.327-3.449Z" transform="translate(-303.723 -289.694)" fill="#ebebeb"/>
              <path id="Path_16705" data-name="Path 16705" d="M320.083,295.064c-.27.732-3.507,8.321-3.507,8.321-.6-1.932-3.577-3.661-5.718-3.356l1.926-5.751,1.565-3.977s4.918-6.028,5.481-3.715c.162.671.308,1.264.432,1.788l.023.116C321.047,291.827,320.962,292.621,320.083,295.064Z" transform="translate(-303.826 -286.057)" fill="#00437f"/>
            </g>
            <g id="Group_12825" data-name="Group 12825" transform="translate(0 8.451)">
              <path id="Path_16706" data-name="Path 16706" d="M298.708,310.724c.5.251,1.085.34,1.557.633a9.768,9.768,0,0,1,1.381.891,6.517,6.517,0,0,1,1.083,1.372,1.8,1.8,0,0,1,.493,1.33,1.939,1.939,0,0,1-.561.772,1.908,1.908,0,0,0,.683.178,2.845,2.845,0,0,0,1.141-.264,1.346,1.346,0,0,0,.368-.217,2.268,2.268,0,0,0,.395-.684.559.559,0,0,1,.208-.245.674.674,0,0,1,.244-.059,1.147,1.147,0,0,0,.807-.339c.3-.393.054-1.028.358-1.421.177-.228.5-.308.676-.536a1.013,1.013,0,0,0,.175-.561,4.006,4.006,0,0,0-.23-1.5c-.139-.427-.278-.839-.4-1.264a12.618,12.618,0,0,0-1.191-2.763c-.526-.916-3.658-1.744-6.012-2.995-1.179-.625-13.971-11.157-13.971-11.157l-6.707,6.248s12.579,6.6,14.623,8.068a6.617,6.617,0,0,1,.88.634c.244.248.429.582.661.852a22.879,22.879,0,0,0,1.876,1.941A6.544,6.544,0,0,0,298.708,310.724Z" transform="translate(-276.752 -272.721)" fill="#ffa8a7"/>
              <path id="Path_16707" data-name="Path 16707" d="M299.472,301.93l1.737,1.475s-1,.246-2.348,2.3a6.7,6.7,0,0,0-1.121,3.073l-1.9-1.246A6.5,6.5,0,0,1,299.472,301.93Z" transform="translate(-280.566 -275.02)" fill="#ebebeb"/>
              <path id="Path_16708" data-name="Path 16708" d="M286.464,275.31c-.706-3.517-5.636-9.984-9.544-7.876,0,0-.609.078-.812,2.594a50.494,50.494,0,0,0,.132,7.021c.168,2.962.428,4.9.685,8.089s.4,5.692.957,6.619c.7,1.172,1.276,1.512,6.907,4.794,2.2,1.283,6.891,3.591,6.891,3.591a6.631,6.631,0,0,1,3.812-5.855l-8.216-6.866S286.905,277.513,286.464,275.31Z" transform="translate(-276.025 -267.02)" fill="#00437f"/>
            </g>
          </g>
          <g id="Hat" transform="translate(5.786)">
            <path id="Path_16709" data-name="Path 16709" d="M303.97,238.12c-.177.316-.378.624-.586.925-.039-.277-.077-.563-.123-.848a.475.475,0,0,0-.008-.069c-.015-.046-.023-.116-.039-.193-.008-.062-.023-.139-.039-.208-.015-.1-.039-.2-.054-.293-.008-.046-.015-.085-.023-.123-.031-.023-.069-.046-.108-.069a9.364,9.364,0,0,0-4.956-1.11A15.851,15.851,0,0,0,291.3,238.1a11.287,11.287,0,0,0-3.97,3.076,1.845,1.845,0,0,0-.817.871,3,3,0,0,0-.316,1.68c-2.8-1.858-3.546-5.334-1.534-8.9a14.911,14.911,0,0,1,14.469-6.876C304.463,228.854,306.629,233.41,303.97,238.12Z" transform="translate(-283.531 -227.785)" fill="#37474f"/>
            <path id="Path_16710" data-name="Path 16710" d="M308.884,240.121c-.031-.023-.069-.046-.108-.069C308.838,240.067,308.876,240.091,308.884,240.121Z" transform="translate(-289.316 -230.596)" fill="#ffa8a7"/>
            <path id="Path_16711" data-name="Path 16711" d="M287.746,241.155l-.4-1.34a12.784,12.784,0,0,1,8.3-6.033c5.983-1.487,7.984,1.159,7.984,1.159l.259,2.244s-2.808-1.5-8.029-.218A18.316,18.316,0,0,0,287.746,241.155Z" transform="translate(-284.404 -229.056)" fill="#74c1c9"/>
            <path id="Path_16712" data-name="Path 16712" d="M304.246,240.186c-.015-.046-.023-.116-.039-.193-.008-.062-.023-.139-.039-.208-.015-.1-.039-.2-.054-.293-.008-.046-.015-.085-.023-.123-.031-.023-.069-.046-.108-.069a9.365,9.365,0,0,0-4.956-1.11,15.853,15.853,0,0,0-6.729,1.966,11.288,11.288,0,0,0-3.97,3.076l-.462-1.287a12.991,12.991,0,0,1,4.124-3.214c6.937-3.546,11.192-1.31,12.01-.755A11.517,11.517,0,0,1,304.246,240.186Z" transform="translate(-284.524 -229.844)"/>
            <path id="Path_16713" data-name="Path 16713" d="M292.459,240.91a12.356,12.356,0,0,1,8-3.029c3.494.064,5.332,1.154,5.995,1.673s.291,1.032-.832.764a18.955,18.955,0,0,0-5.521-.874A18.48,18.48,0,0,0,292.459,240.91Z" transform="translate(-285.577 -230.099)" fill="#455a64"/>
          </g>
        </g>
      </g>
    </g>
  </g>
</svg>
