<svg xmlns="http://www.w3.org/2000/svg" width="28.907" height="28.905" viewBox="0 0 28.907 28.905">
  <g id="Group_12894" data-name="Group 12894" transform="translate(-168.113 -259.137)">
    <path id="Path_16776" data-name="Path 16776" d="M182.582,259.137a14.452,14.452,0,1,1-14.468,14.324A14.456,14.456,0,0,1,182.582,259.137Zm13.234,14.454a13.25,13.25,0,1,0-13.486,13.247A13.247,13.247,0,0,0,195.815,273.591Z" transform="translate(0 0)" fill="#0c5d8f"/>
    <path id="Path_16777" data-name="Path 16777" d="M268.122,368.336c.331-.3.669-.585.99-.892a.633.633,0,0,1,.769-.181.621.621,0,0,1,.3.748,6.748,6.748,0,0,1-3.55,4.355,2.661,2.661,0,0,1-3-.436,2.478,2.478,0,0,1-.851-1.915q0-3.876,0-7.752V362a1.352,1.352,0,0,0-.172.1c-.3.264-.615.522-.907.8a.623.623,0,0,1-.756.165.614.614,0,0,1-.308-.712,5.7,5.7,0,0,1,1.028-2.23,6.151,6.151,0,0,1,2.446-2.125,2.7,2.7,0,0,1,2.814.179,2.659,2.659,0,0,1,1.139,2.341c-.007,2.509,0,5.019,0,7.529v.239Zm-.065,1.357-.294.1c-.568.185-.914-.065-.914-.661q0-4.3,0-8.607c0-.081,0-.161,0-.242a1.44,1.44,0,0,0-1.254-1.359,1.833,1.833,0,0,0-1.061.208,4.959,4.959,0,0,0-1.68,1.416.377.377,0,0,0-.031.076c.115-.037.2-.066.29-.092a.611.611,0,0,1,.865.639q0,4.387,0,8.775a1.549,1.549,0,0,0,.02.3,1.46,1.46,0,0,0,1.985,1.091A4.733,4.733,0,0,0,268.057,369.693Z" transform="translate(-82.843 -88.271)" fill="#0c5d8f"/>
    <path id="Path_16778" data-name="Path 16778" d="M280.337,297.752a2.789,2.789,0,1,1-2.794-2.794A2.778,2.778,0,0,1,280.337,297.752Zm-4.383-.021a1.593,1.593,0,1,0,1.628-1.567A1.6,1.6,0,0,0,275.954,297.732Z" transform="translate(-95.511 -32.082)" fill="#0c5d8f"/>
  </g>
</svg>
