<svg xmlns="http://www.w3.org/2000/svg" width="24.806" height="24.74" viewBox="0 0 24.806 24.74">
  <g id="Group_13056" data-name="Group 13056" transform="translate(0 0)">
    <path id="Path_17001" data-name="Path 17001" d="M164.328-.263,163.289.846l-.26.28-.545-.474V.933c0,.9,0,1.807,0,2.711a2.628,2.628,0,0,1-2.719,2.718q-2.965.008-5.929,0a2.625,2.625,0,0,1-2.712-2.7c-.009-.9,0-1.791,0-2.686V.644l-.539.488-1.3-1.427L156.8-7.157l1.9,1.736,5.542,5.056a.66.66,0,0,0,.078.054ZM156.81-4.536c-.044.034-.07.052-.094.074q-1.771,1.614-3.538,3.233a.468.468,0,0,0-.121.313c-.008,1.5-.005,3,0,4.5,0,.582.261.843.842.843h5.81c.587,0,.845-.255.845-.836q0-1.84,0-3.679a2.763,2.763,0,0,0-.04-1.027c-.123-.285-.467-.476-.717-.7Z" transform="translate(-139.522 18.374)" fill="#0c6094"/>
    <path id="Path_17002" data-name="Path 17002" d="M151.19-16.817c-.517-.47-1-.933-1.509-1.363a1.424,1.424,0,0,1-.493-.911,7.677,7.677,0,0,0-4.512-5.9,7.611,7.611,0,0,0-7.739.6,7.712,7.712,0,0,0-3.469,5.443,8.21,8.21,0,0,0,.943,5.188,24.713,24.713,0,0,0,4.332,5.793c.784.812,1.626,1.569,2.435,2.357a.5.5,0,0,1,.158.3c.014.726.007,1.452.007,2.179,0,.038-.007.077-.015.159-.224-.179-.425-.333-.618-.5a37.584,37.584,0,0,1-6.563-7.018,14.344,14.344,0,0,1-2.523-5.367,9.585,9.585,0,0,1,.329-5.034,9.738,9.738,0,0,1,3-4.43,9.739,9.739,0,0,1,5.074-2.264,9.671,9.671,0,0,1,5.073.654,9.782,9.782,0,0,1,4.008,3.031,9.4,9.4,0,0,1,2,4.575c.105.762.079,1.543.111,2.314A1.129,1.129,0,0,1,151.19-16.817Z" transform="translate(-131.429 27.678)" fill="#0c6094"/>
    <path id="Path_17003" data-name="Path 17003" d="M150.266-12.968a4.1,4.1,0,0,1-4.105,4.107,4.1,4.1,0,0,1-4.094-4.094,4.1,4.1,0,0,1,4.105-4.106A4.1,4.1,0,0,1,150.266-12.968Zm-4.1-2.159A2.172,2.172,0,0,0,144-12.956a2.172,2.172,0,0,0,2.154,2.162,2.17,2.17,0,0,0,2.179-2.16A2.167,2.167,0,0,0,146.167-15.127Z" transform="translate(-136.252 22.864)" fill="#0c6094"/>
    <path id="Path_17004" data-name="Path 17004" d="M163.33,5.138V8h-2.875V5.138Z" transform="translate(-144.589 12.8)" fill="#0c6094"/>
  </g>
</svg>
