<svg xmlns="http://www.w3.org/2000/svg" width="30.683" height="30.677" viewBox="0 0 30.683 30.677">
  <g id="Icon_ionic-ios-apps" data-name="Icon ionic-ios-apps" transform="translate(-4.493 -4.496)">
    <path id="Path_12395" data-name="Path 12395" d="M34.12,10.38,22.186,4.94a6.463,6.463,0,0,0-4.705,0L5.554,10.38c-1.406.639-1.406,1.686,0,2.325L17.377,18.1a6.792,6.792,0,0,0,4.921,0L34.12,12.7C35.526,12.065,35.526,11.019,34.12,10.38Z" transform="translate(0.001 0)" fill="#0c6094"/>
    <g id="Group_9731" data-name="Group 9731" transform="translate(4.493 17.423)">
      <path id="Path_12396" data-name="Path 12396" d="M17.377,26.83,9.4,23.2a1.3,1.3,0,0,0-1.062,0l-2.788,1.27c-1.406.639-1.406,1.686,0,2.325l11.823,5.392a6.792,6.792,0,0,0,4.921,0L34.12,26.79c1.406-.639,1.406-1.686,0-2.325L31.332,23.2a1.3,1.3,0,0,0-1.062,0L22.3,26.83A6.792,6.792,0,0,1,17.377,26.83Z" transform="translate(-4.492 -14.894)" fill="#0c6094"/>
      <path id="Path_12397" data-name="Path 12397" d="M34.121,17.139l-2.532-1.15a1.278,1.278,0,0,0-1.054,0l-8.627,3.906a7.052,7.052,0,0,1-4.146,0L9.134,15.989a1.278,1.278,0,0,0-1.054,0l-2.532,1.15c-1.406.639-1.406,1.686,0,2.325L17.37,24.856a6.792,6.792,0,0,0,4.921,0l11.823-5.392C35.527,18.824,35.527,17.778,34.121,17.139Z" transform="translate(-4.493 -15.875)" fill="#0c6094"/>
    </g>
  </g>
</svg>
