<svg id="XMLID_228_" xmlns="http://www.w3.org/2000/svg" width="17.383" height="21.271" viewBox="0 0 17.383 21.271">
  <path id="XMLID_229_" d="M28.772,75.1c-1.8,3.121-.655,7.856,1.334,10.728.993,1.436,2,2.724,3.374,2.724l.079,0a4.167,4.167,0,0,0,1.566-.417,4.288,4.288,0,0,1,1.855-.44,4.033,4.033,0,0,1,1.766.425,3.741,3.741,0,0,0,1.691.406c1.551-.029,2.5-1.419,3.342-2.646a11.728,11.728,0,0,0,1.464-3l.006-.019a.174.174,0,0,0-.093-.214l-.013-.005a4.444,4.444,0,0,1-2.693-4.07,4.575,4.575,0,0,1,2.162-3.825l.017-.011a.174.174,0,0,0,.05-.245,5.031,5.031,0,0,0-3.957-2.149c-.112-.011-.229-.017-.345-.017a6.9,6.9,0,0,0-2.484.62,3.992,3.992,0,0,1-1.19.355,3.893,3.893,0,0,1-1.231-.36,5.963,5.963,0,0,0-2.169-.551h-.055A5.319,5.319,0,0,0,28.772,75.1Z" transform="translate(-27.875 -67.276)" fill="#fff"/>
  <path id="XMLID_230_" d="M153.6,0a4.857,4.857,0,0,0-3.206,1.645,4.55,4.55,0,0,0-1.152,3.374.174.174,0,0,0,.159.151c.074.006.15.009.225.009a4.108,4.108,0,0,0,3.026-1.552A4.8,4.8,0,0,0,153.777.155.175.175,0,0,0,153.6,0Z" transform="translate(-140.748 0)" fill="#fff"/>
</svg>
