<svg xmlns="http://www.w3.org/2000/svg" width="12.37" height="12.37" viewBox="0 0 12.37 12.37">
  <g id="Icon_ionic-ios-arrow-dropright" data-name="Icon ionic-ios-arrow-dropright" transform="translate(-3.375 -3.375)">
    <path id="Path_13973" data-name="Path 13973" d="M14.584,10.15a.576.576,0,0,1,.812,0L18.232,13a.573.573,0,0,1,.018.791l-2.8,2.8a.573.573,0,1,1-.812-.809l2.376-2.412-2.435-2.412A.567.567,0,0,1,14.584,10.15Z" transform="translate(-6.371 -3.813)" fill="#fff"/>
    <path id="Path_13974" data-name="Path 13974" d="M3.375,9.56A6.185,6.185,0,1,0,9.56,3.375,6.184,6.184,0,0,0,3.375,9.56Zm.952,0a5.239,5.239,0,1,1,1.534,3.7A5.189,5.189,0,0,1,4.327,9.56Z" fill="#fff"/>
  </g>
</svg>
