<svg xmlns="http://www.w3.org/2000/svg" width="27.029" height="27.066" viewBox="0 0 27.029 27.066">
  <g id="Group_12590" data-name="Group 12590" transform="translate(-689.331 -4546.635)">
    <path id="Path_16249" data-name="Path 16249" d="M698.541,4546.635a9.3,9.3,0,0,1,9.129,8.131c.063.532.063.532.61.6a9.214,9.214,0,0,1,7.227,12.994.912.912,0,0,0-.063.523c.285,1.366.589,2.728.887,4.091.12.552-.123.8-.681.677-1.356-.288-2.709-.583-4.067-.858a.948.948,0,0,0-.552.058,9.216,9.216,0,0,1-12.886-6.532,8.791,8.791,0,0,1-.133-1.008c-.015-.176-.067-.259-.252-.273a9.283,9.283,0,0,1-3.184-.852.72.72,0,0,0-.418-.017c-1.385.288-2.768.585-4.152.878-.472.1-.733-.159-.633-.63.291-1.375.591-2.747.867-4.125a1,1,0,0,0-.071-.577,9.217,9.217,0,0,1,6.5-12.84C697.283,4546.749,697.916,4546.712,698.541,4546.635Zm-8.124,17.35c.126-.017.21-.023.292-.041,1.147-.242,2.3-.478,3.439-.733a1.115,1.115,0,0,1,.779.1,8.114,8.114,0,0,0,4.693.768,8.223,8.223,0,0,0,7.062-9.492,8.256,8.256,0,0,0-14.355-4.139,8.144,8.144,0,0,0-1.219,9.071,1.067,1.067,0,0,1,.112.6c-.133.753-.31,1.5-.468,2.247C690.641,4562.9,690.533,4563.423,690.417,4563.984Zm8.5,1.092c0,.075,0,.112,0,.15a8.305,8.305,0,0,0,11.88,6.7,1.106,1.106,0,0,1,.6-.112c.772.138,1.536.319,2.3.482.507.107,1.014.211,1.55.323-.012-.112-.013-.178-.026-.242-.238-1.118-.467-2.238-.722-3.352a1.392,1.392,0,0,1,.112-1,7.609,7.609,0,0,0,.79-3.105,8.278,8.278,0,0,0-4.991-8,7.666,7.666,0,0,0-2.688-.648,9.489,9.489,0,0,1-1.135,4.061h.384q2.067,0,4.133,0a1.468,1.468,0,0,1,.318.02.43.43,0,0,1,.372.48.425.425,0,0,1-.406.421,2.582,2.582,0,0,1-.32.009c-1.6,0-3.2,0-4.8,0a.479.479,0,0,0-.44.2,9.039,9.039,0,0,1-2.709,2.39c-.078.045-.151.1-.284.185h8.247a2.623,2.623,0,0,1,.291,0,.463.463,0,0,1,.014.921,1.554,1.554,0,0,1-.261.006h-7.946c-.617,0-.793-.23-.6-.828A9.366,9.366,0,0,1,698.919,4565.077Z" fill="#0c6094"/>
    <path id="Path_16250" data-name="Path 16250" d="M770.183,4610.467a2.79,2.79,0,0,1-1.2,2.626c-.3.21-.615.405-.927.6a.491.491,0,0,0-.254.483.655.655,0,0,1-.064.417.623.623,0,0,1-.447.225.531.531,0,0,1-.375-.323,1.288,1.288,0,0,1,.382-1.377c.233-.187.49-.345.738-.513.152-.1.313-.2.461-.3a1.754,1.754,0,0,0,.641-2.16,1.922,1.922,0,0,0-3.681.33c-.021.124-.031.25-.046.375a.453.453,0,0,1-.5.444.464.464,0,0,1-.42-.531,2.758,2.758,0,0,1,1.065-2.143,2.718,2.718,0,0,1,3.03-.345A2.644,2.644,0,0,1,770.183,4610.467Z" transform="translate(-69.309 -56.556)" fill="#0c6094"/>
    <path id="Path_16251" data-name="Path 16251" d="M795.868,4705.727a.506.506,0,0,1-.53.463.493.493,0,0,1,.057-.984A.507.507,0,0,1,795.868,4705.727Z" transform="translate(-97.345 -146.237)" fill="#0c6094"/>
    <path id="Path_16252" data-name="Path 16252" d="M863.263,4818.04h3.958a1.878,1.878,0,0,1,.319.013.426.426,0,0,1,.377.417.417.417,0,0,1-.291.453,1.121,1.121,0,0,1-.371.045q-3.987,0-7.975,0a1.756,1.756,0,0,1-.233-.005.47.47,0,0,1-.438-.49.448.448,0,0,1,.462-.43c.679-.011,1.358-.006,2.037-.006Z" transform="translate(-156.112 -250.295)" fill="#0c6094"/>
  </g>
</svg>
