<svg xmlns="http://www.w3.org/2000/svg" width="27.029" height="7.447" viewBox="0 0 27.029 7.447">
  <g id="Group_12592" data-name="Group 12592" transform="translate(-583.553 -5440.07)">
    <path id="Path_16253" data-name="Path 16253" d="M583.553,5443.372c.125-.4.246-.8.377-1.2a1.267,1.267,0,0,1,.149-.278.387.387,0,0,1,.542-.165.4.4,0,0,1,.149.549,6.009,6.009,0,0,0-.379,1.085,2.92,2.92,0,0,0,5.764.936,2.932,2.932,0,0,0-4.3-3.063c-.3.151-.522.123-.643-.092s-.035-.428.231-.583a3.718,3.718,0,1,1-1.834,3.859c-.012-.069-.035-.135-.052-.2Z" fill="#0c6094"/>
    <path id="Path_16254" data-name="Path 16254" d="M864.986,5440.159a3.718,3.718,0,1,1-3.722,3.725A3.721,3.721,0,0,1,864.986,5440.159Zm.008,6.644a2.925,2.925,0,1,0-2.938-2.9A2.93,2.93,0,0,0,864.994,5446.8Z" transform="translate(-258.125 -0.083)" fill="#0c6094"/>
    <path id="Path_16255" data-name="Path 16255" d="M726.152,5447.6a3.718,3.718,0,1,1,3.722-3.723A3.718,3.718,0,0,1,726.152,5447.6Zm2.928-3.726a2.926,2.926,0,1,0-2.9,2.933A2.922,2.922,0,0,0,729.08,5443.871Z" transform="translate(-129.087 -0.084)" fill="#0c6094"/>
  </g>
</svg>
