<svg id="Group_10493" data-name="Group 10493" xmlns="http://www.w3.org/2000/svg" width="29.899" height="27.101" viewBox="0 0 29.899 27.101">
  <path id="Path_13961" data-name="Path 13961" d="M-1451.936,712.625a1.219,1.219,0,0,1-1.324.764c-.748-.032-1.5,0-2.247-.011a.3.3,0,0,0-.324.206,2.72,2.72,0,0,1-2.626,1.745,2.725,2.725,0,0,1-2.624-1.748.294.294,0,0,0-.325-.2c-.817.006-1.634,0-2.451,0a1.028,1.028,0,0,1-1.053-.67,1.015,1.015,0,0,1,.368-1.193,6.151,6.151,0,0,0,2.262-5,3.912,3.912,0,0,1,1.878-3.615.392.392,0,0,0,.119-.261,7.318,7.318,0,0,1,.085-.895,1.809,1.809,0,0,1,1.922-1.323,1.73,1.73,0,0,1,1.6,1.583,1.543,1.543,0,0,0,.679,1.3,3.5,3.5,0,0,1,1.365,2.988,6.323,6.323,0,0,0,1.067,3.891,15.6,15.6,0,0,0,1.029,1.186c.206.238.4.487.6.73Zm-6.535-.13h5.252a1.145,1.145,0,0,0,.233-.006c.165-.034.224-.118.087-.257-.054-.055-.119-.1-.177-.152a6.776,6.776,0,0,1-2.293-3.986c-.124-.713-.113-1.449-.174-2.174a2.917,2.917,0,0,0-2.6-2.64,2.9,2.9,0,0,0-3.126,2.153,6.569,6.569,0,0,0-.12,1.386,6.7,6.7,0,0,1-1.153,3.759,18.733,18.733,0,0,1-1.351,1.557,2.2,2.2,0,0,0-.176.272c.107.029.213.062.321.086a.687.687,0,0,0,.145,0Zm1.757.905h-3.48a1.931,1.931,0,0,0,1.618,1.037A1.937,1.937,0,0,0-1456.715,713.4Zm-.831-10.984a.9.9,0,0,0-.433-.969.881.881,0,0,0-1.011.037.9.9,0,0,0-.372.932Z" transform="translate(1481.836 -700.419)" fill="#0c6094"/>
  <path id="Path_13962" data-name="Path 13962" d="M-1677.065,762.162c.592-.562,1.128-1.068,1.662-1.576.967-.918,1.941-1.828,2.9-2.759a1.855,1.855,0,0,1,1.389-.543q6.437.017,12.875.005a2.614,2.614,0,0,0,2.638-1.769,3.079,3.079,0,0,0,.153-.912c.017-1.206.009-2.413.005-3.62,0-.229.071-.432.294-.476a.742.742,0,0,1,.469.12.412.412,0,0,1,.113.309c0,1.353.03,2.706-.011,4.058a3.484,3.484,0,0,1-2.89,3.119,5.2,5.2,0,0,1-.754.056q-6.467.005-12.933,0a.972.972,0,0,0-.725.295q-2.363,2.26-4.739,4.506a.783.783,0,0,1-.979.2.761.761,0,0,1-.381-.893c.215-1.253.444-2.5.667-3.754.018-.1.031-.207.039-.265a12.37,12.37,0,0,1-1.434-.308,3.441,3.441,0,0,1-2.31-3.25q0-6.014,0-12.028a3.49,3.49,0,0,1,3.32-3.474c.078,0,.156-.007.233-.007h15.006c.068,0,.137,0,.2.005a.4.4,0,0,1,.4.415.433.433,0,0,1-.395.46,2.278,2.278,0,0,1-.292.006c-4.934,0-9.868.02-14.8-.012a2.724,2.724,0,0,0-2.81,2.8c.018,3.893,0,7.785.006,11.678a2.617,2.617,0,0,0,2.039,2.669,4.1,4.1,0,0,0,.81.08.875.875,0,0,1,.906,1.12C-1676.616,759.629-1676.83,760.851-1677.065,762.162Z" transform="translate(1681.025 -736.164)" fill="#0c6094"/>
  <path id="Path_13963" data-name="Path 13963" d="M-1618.406,802.5h5.808c.088,0,.175,0,.263,0a.469.469,0,0,1,.492.436.475.475,0,0,1-.5.464c-.049,0-.1,0-.146,0q-5.9,0-11.792,0a1.225,1.225,0,0,1-.344-.04.4.4,0,0,1-.3-.444.389.389,0,0,1,.328-.39,1.677,1.677,0,0,1,.347-.027Q-1621.325,802.5-1618.406,802.5Z" transform="translate(1629.297 -794.537)" fill="#0c6094"/>
  <path id="Path_13964" data-name="Path 13964" d="M-1619.194,854.942q-2.421,0-4.842,0a.652.652,0,0,1-.365-.051.633.633,0,0,1-.262-.4.61.61,0,0,1,.256-.4.711.711,0,0,1,.394-.057q4.827,0,9.654,0c.458,0,.682.148.684.451s-.22.455-.677.455Z" transform="translate(1629.06 -842.052)" fill="#0c6094"/>
  <path id="Path_13965" data-name="Path 13965" d="M-1619.441,905.622q2.436,0,4.871,0c.124,0,.286-.014.363.055.124.11.27.289.26.428s-.188.279-.32.386c-.062.051-.187.032-.283.032q-4.885,0-9.771,0c-.4,0-.582-.125-.608-.4-.03-.3.16-.5.5-.5.554-.008,1.108,0,1.662,0Z" transform="translate(1629.309 -889.612)" fill="#0c6094"/>
</svg>
