<svg xmlns="http://www.w3.org/2000/svg" width="27.378" height="27.378" viewBox="0 0 27.378 27.378">
  <g id="user-profile-svgrepo-com" transform="translate(0 0)">
    <g id="Group_10225" data-name="Group 10225" transform="translate(0 0)">
      <path id="Path_13632" data-name="Path 13632" d="M13.689,0A13.689,13.689,0,1,0,27.378,13.689,13.7,13.7,0,0,0,13.689,0Zm0,26.237a12.463,12.463,0,0,1-5.9-1.478L10.1,23.99a.569.569,0,0,0,.373-.4L11,21.475a.571.571,0,0,0-.163-.554,6.283,6.283,0,0,1-1.916-3.981.571.571,0,0,0-.569-.525H8.176a.507.507,0,0,1-.5-.444L7.4,13.816a.5.5,0,0,1,.123-.4.588.588,0,0,1,.492-.171.57.57,0,0,0,.566-.641c-.07-.552-.25-2.1-.25-2.623,0-1.664.327-3.161,4.284-3.2a.568.568,0,0,0,.326-.106,5.857,5.857,0,0,1,3.58-.971,3.5,3.5,0,0,1,3.153,1.358c.7,1.075.4,1.628.074,1.978l-.538.538a.569.569,0,0,0-.167.375l-.131,2.7a.569.569,0,0,0,.562.6.5.5,0,0,1,.378.175.5.5,0,0,1,.12.394l-.269,2.155a.523.523,0,0,1-.556.444.571.571,0,0,0-.569.525A6.237,6.237,0,0,1,16.573,21a.568.568,0,0,0-.172.562l.506,2.025a.572.572,0,0,0,.373.4l2.307.769A12.472,12.472,0,0,1,13.689,26.237Zm7.161-2.259-2.909-.97-.349-1.4a7.462,7.462,0,0,0,2.077-4.122,1.653,1.653,0,0,0,1.172-1.377l.269-2.155a1.647,1.647,0,0,0-1.03-1.735l.1-1.994.395-.395c.615-.654,1.125-1.774.062-3.4a4.558,4.558,0,0,0-4.108-1.874,7.132,7.132,0,0,0-4.093,1.08C7.823,5.743,7.2,7.888,7.2,9.982c0,.479.115,1.548.192,2.208a1.648,1.648,0,0,0-1.115,1.767l.269,2.155a1.652,1.652,0,0,0,1.3,1.409,7.512,7.512,0,0,0,1.974,3.993l-.373,1.493-2.915.972a12.549,12.549,0,1,1,14.322,0Z" fill="#0c6094"/>
    </g>
  </g>
</svg>
