<svg xmlns="http://www.w3.org/2000/svg" width="36.908" height="36.907" viewBox="0 0 36.908 36.907">
  <g id="Group_10491" data-name="Group 10491" transform="translate(0 0)">
    <path id="Path_13956" data-name="Path 13956" d="M-2012.187,728.666c.049-.092.1-.183.145-.276a1.456,1.456,0,0,1,1.591-.785,1.431,1.431,0,0,1,1.145,1.386,15.306,15.306,0,0,0,2.126,7.855,15.229,15.229,0,0,0,10.639,7.469,14.92,14.92,0,0,0,11.34-2.292,15.1,15.1,0,0,0,6.829-10.592,14.926,14.926,0,0,0-2.312-10.859,15.163,15.163,0,0,0-10.659-6.907,22.484,22.484,0,0,0-2.364-.2,1.445,1.445,0,0,1-1.466-1.487,1.428,1.428,0,0,1,1.51-1.4,18.437,18.437,0,0,1,17.433,12.573,18.362,18.362,0,0,1,.888,7.375,18.425,18.425,0,0,1-14.332,16.511c-.827.183-1.68.255-2.521.38-.105.016-.209.045-.313.068h-2.451c-.45-.055-.9-.1-1.352-.167a18.188,18.188,0,0,1-8.932-3.858,18.143,18.143,0,0,1-6.656-11.184c-.122-.668-.194-1.345-.289-2.019Z" transform="translate(2012.187 -710.573)" fill="#f2f2f2"/>
    <path id="Path_13957" data-name="Path 13957" d="M-1878.971,840.9c1.48,0,2.909,0,4.338,0a1.358,1.358,0,0,1,1.275.789,1.371,1.371,0,0,1-.1,1.466,1.367,1.367,0,0,1-1.191.625h-4.325v.409c0,1.286,0,2.571,0,3.856a1.424,1.424,0,0,1-1.446,1.5,1.425,1.425,0,0,1-1.435-1.513c0-1.273,0-2.547,0-3.82v-.433h-.409c-1.285,0-2.571,0-3.856,0a1.424,1.424,0,0,1-1.5-1.446,1.425,1.425,0,0,1,1.513-1.434c1.273,0,2.547,0,3.82,0h.433v-.409c0-1.285,0-2.571,0-3.856a1.424,1.424,0,0,1,1.446-1.5,1.426,1.426,0,0,1,1.435,1.513c0,1.273,0,2.547,0,3.82Z" transform="translate(1898.866 -823.889)" fill="#f2f2f2"/>
    <path id="Path_13958" data-name="Path 13958" d="M-1960.748,759.068a1.409,1.409,0,0,1-.436,1.033c-.463.47-.924.943-1.4,1.4a1.438,1.438,0,0,1-2.038.034,1.4,1.4,0,0,1-.06-2.006,20.917,20.917,0,0,1,1.612-1.591,1.287,1.287,0,0,1,1.512-.165A1.4,1.4,0,0,1-1960.748,759.068Z" transform="translate(1969.33 -753.355)" fill="#f2f2f2"/>
    <path id="Path_13959" data-name="Path 13959" d="M-1906.164,722.748a1.313,1.313,0,0,1,.775-1.226c.683-.316,1.379-.612,2.088-.865a1.406,1.406,0,0,1,1.775.816,1.39,1.39,0,0,1-.654,1.81,18.891,18.891,0,0,1-2.119.88A1.426,1.426,0,0,1-1906.164,722.748Z" transform="translate(1915.736 -719.672)" fill="#f2f2f2"/>
    <path id="Path_13960" data-name="Path 13960" d="M-2000.062,816.6a1.428,1.428,0,0,1,1.451,1.848,18.528,18.528,0,0,1-.876,2.121,1.39,1.39,0,0,1-1.8.674,1.4,1.4,0,0,1-.836-1.766c.255-.72.559-1.426.881-2.12A1.3,1.3,0,0,1-2000.062,816.6Z" transform="translate(2003.108 -807.032)" fill="#f2f2f2"/>
  </g>
</svg>
