<svg id="contract-svgrepo-com" xmlns="http://www.w3.org/2000/svg" width="27.03" height="27.028" viewBox="0 0 27.03 27.028">
  <g id="Group_10220" data-name="Group 10220" transform="translate(0 0)">
    <g id="Group_10219" data-name="Group 10219">
      <path id="Path_13611" data-name="Path 13611" d="M205.254,393.458h6.36a.454.454,0,1,0,0-.909h-6.36a.454.454,0,1,0,0,.909Z" transform="translate(-194.022 -371.834)" fill="#0c6094"/>
      <path id="Path_13612" data-name="Path 13612" d="M162.133,68.736a.454.454,0,0,0,.454.454h15.9a1.364,1.364,0,0,1,1.363,1.363v10.9a.454.454,0,0,0,.909,0v-10.9a2.274,2.274,0,0,0-2.271-2.271h-15.9A.454.454,0,0,0,162.133,68.736Z" transform="translate(-153.729 -64.648)" fill="#0c6094"/>
      <path id="Path_13613" data-name="Path 13613" d="M205.254,342.258H209.8a.454.454,0,1,0,0-.908h-4.543a.454.454,0,1,0,0,.908Z" transform="translate(-194.011 -323.336)" fill="#0c6094"/>
      <path id="Path_13614" data-name="Path 13614" d="M15.718,26.143H8.084V5.872a2.246,2.246,0,1,0-4.491,0V21.188a1.347,1.347,0,1,1-2.695,0V.917H18.862V2.268a.449.449,0,1,0,.9,0V.466a.45.45,0,0,0-.449-.45H.449A.45.45,0,0,0,0,.466V21.188a2.246,2.246,0,1,0,4.491,0V5.872a1.347,1.347,0,1,1,2.695,0V22.54H4.94a.45.45,0,0,0,0,.9H7.186v3.153a.45.45,0,0,0,.449.45h8.084a.45.45,0,0,0,0-.9Z" transform="translate(0 -0.016)" fill="#0c6094"/>
      <path id="Path_13615" data-name="Path 13615" d="M327.9,341.8a.454.454,0,0,0-.454-.454h-2.726a.454.454,0,1,0,0,.908h2.726A.454.454,0,0,0,327.9,341.8Z" transform="translate(-307.171 -323.336)" fill="#0c6094"/>
      <path id="Path_13616" data-name="Path 13616" d="M333.72,326.05l-.909-.909a1.707,1.707,0,0,0-2.459,0l-5.952,5.952a.453.453,0,0,0-.133.321v2.726a.454.454,0,0,0,.454.454h2.726a.452.452,0,0,0,.321-.133l5.952-5.952A1.665,1.665,0,0,0,333.72,326.05Zm-3.955.964.72.72-3.946,3.947-.72-.721Zm-4.589,6.672V331.6l2.083,2.083Zm2.726-.642-.72-.72,3.947-3.946.72.72Zm5.176-5.176-.587.587-2.083-2.083.587-.587a.774.774,0,0,1,1.175,0l.908.909A.764.764,0,0,1,333.077,327.867Z" transform="translate(-307.232 -307.566)" fill="#0c6094"/>
      <path id="Path_13617" data-name="Path 13617" d="M231.859,129.02v-3.9l.133.133a.454.454,0,0,0,.642-.642l-.908-.908h0l-4.088-4.088a.454.454,0,0,0-.642,0l-4.088,4.088h0l-.908.908a.454.454,0,0,0,.642.642l.133-.133v3.9a.454.454,0,0,0,.454.454h3.18a.454.454,0,0,0,.454-.454v-2.271h.909v2.271a.454.454,0,0,0,.454.454h3.18A.454.454,0,0,0,231.859,129.02Zm-.909-.454h-2.271v-2.271a.454.454,0,0,0-.454-.454h-1.817a.454.454,0,0,0-.454.454v2.271h-2.271v-4.354l3.634-3.634,3.634,3.634v4.354Z" transform="translate(-210.219 -113.205)" fill="#0c6094"/>
    </g>
  </g>
</svg>
