<svg xmlns="http://www.w3.org/2000/svg" width="31.171" height="27.728" viewBox="0 0 31.171 27.728">
  <path id="home-svgrepo-com_6_" data-name="home-svgrepo-com (6)" d="M30.714,54.059H18.971V53.6a.519.519,0,0,0-.519-.519h-2.41v-2.5H26.322a.458.458,0,1,0,0-.915H25.8V38.87H26.81a.458.458,0,0,0,.308-.8l-3.267-2.983v-4a.947.947,0,0,0-.946-.946H20.954a.947.947,0,0,0-.946.946v.49l-3.127-2.855a1.912,1.912,0,0,0-2.591,0L4.053,38.074a.458.458,0,0,0,.308.8H5.368v10.8H4.85a.458.458,0,1,0,0,.915H15.128v2.5h-2.41a.519.519,0,0,0-.519.519v.458H.458a.458.458,0,0,0,0,.915H12.2v.458a.519.519,0,0,0,.519.519h5.734a.519.519,0,0,0,.519-.519v-.458H30.714a.458.458,0,1,0,0-.915ZM18.056,49.667H13.115V41.34a.031.031,0,0,1,.03-.031h4.88a.031.031,0,0,1,.03.031ZM5.826,37.955H5.541L14.907,29.4a1,1,0,0,1,1.357,0l3.893,3.554a.458.458,0,0,0,.766-.338V31.092a.031.031,0,0,1,.03-.03h1.952a.031.031,0,0,1,.031.03v4.2a.458.458,0,0,0,.149.338l2.545,2.324h-.284a.457.457,0,0,0-.458.458V49.667H18.971V41.34a.947.947,0,0,0-.946-.946h-4.88a.947.947,0,0,0-.946.946v8.327H6.283V38.412A.458.458,0,0,0,5.826,37.955Zm12.231,17.08H13.115V54h4.941Z" transform="translate(0 -28.222)" fill="#0c6094"/>
</svg>
