<svg id="Layer_1" data-name="Layer 1" xmlns="http://www.w3.org/2000/svg" viewBox="0 0 37.53 37.28"><defs><style>.cls-1{fill:#0c6094;}</style></defs><g id="Group_9730" data-name="Group 9730"><path id="Icon_zocial-call" data-name="Icon zocial-call" class="cls-1" d="M11,13.86a1.16,1.16,0,0,1,.31-.66l2.46-2.46c.19-.16.33-.14.43.08l2,3.73a.55.55,0,0,1-.1.64l-.9.9a1,1,0,0,0-.29.63,3.06,3.06,0,0,0,.64,1.58,12.45,12.45,0,0,0,1.25,1.64l.63.66c.19.19.44.42.74.7a12.15,12.15,0,0,0,1.48,1.11,3.43,3.43,0,0,0,1.63.69.9.9,0,0,0,.66-.27L23,21.76a.45.45,0,0,1,.61-.07l3.58,2.11a.3.3,0,0,1,.17.21.3.3,0,0,1-.08.24l-2.46,2.46a1.23,1.23,0,0,1-.66.31,5,5,0,0,1-2.26-.28,10.08,10.08,0,0,1-2.34-1.12c-.72-.46-1.38-.94-2-1.41s-1.11-.89-1.47-1.23l-.54-.51L15,21.9c-.23-.24-.62-.71-1.18-1.41a20.68,20.68,0,0,1-1.45-2.06,11.37,11.37,0,0,1-1.07-2.29A4.92,4.92,0,0,1,11,13.86Z"/><path id="Ellipse_248" data-name="Ellipse 248" class="cls-1" d="M19.47,4.14A15,15,0,1,0,30.08,8.53,15,15,0,0,0,19.47,4.14m0-1.5A16.5,16.5,0,1,1,3,19.14,16.5,16.5,0,0,1,19.47,2.64Z"/></g></svg>