<svg xmlns="http://www.w3.org/2000/svg" width="28.239" height="27.844" viewBox="0 0 28.239 27.844">
  <path id="message-xmark" d="M19.039,8.48l-3.286,3.286,3.286,3.286a1.176,1.176,0,1,1-1.664,1.664L14.089,13.43,10.8,16.717a1.176,1.176,0,1,1-1.664-1.664l3.286-3.286L9.139,8.48A1.176,1.176,0,1,1,10.8,6.816L14.089,10.1l3.286-3.286A1.176,1.176,0,0,1,19.039,8.48Zm9.2-3.773v14.12a4.711,4.711,0,0,1-4.707,4.707H20.177l-4.527,3.742a2.284,2.284,0,0,1-1.521.569,2.366,2.366,0,0,1-1.573-.6l-4.41-3.715H4.707A4.711,4.711,0,0,1,0,18.826V4.707A4.711,4.711,0,0,1,4.707,0H23.533a4.711,4.711,0,0,1,4.707,4.707Zm-2.353,0a2.356,2.356,0,0,0-2.353-2.353H4.707A2.356,2.356,0,0,0,2.353,4.707v14.12A2.356,2.356,0,0,0,4.707,21.18h3.87a1.179,1.179,0,0,1,.759.277L14.1,25.468l4.908-4.019a1.178,1.178,0,0,1,.75-.269h3.778a2.356,2.356,0,0,0,2.353-2.353V4.707Z" fill="#0c6094"/>
</svg>
