<svg xmlns="http://www.w3.org/2000/svg" width="33.635" height="33.637" viewBox="0 0 33.635 33.637">
  <g id="chat-svgrepo-com" transform="translate(-0.019)">
    <g id="Group_9729" data-name="Group 9729" transform="translate(0.019)">
      <path id="Path_12394" data-name="Path 12394" d="M28.718,4.928A16.815,16.815,0,0,0,3.878,27.543a6.434,6.434,0,0,1-2.7,2.987A1.578,1.578,0,0,0,1.637,33.5a8.691,8.691,0,0,0,1.33.1,10.04,10.04,0,0,0,5.917-1.963A16.813,16.813,0,0,0,28.718,4.928ZM27.36,27.351A14.9,14.9,0,0,1,9.282,29.669a.956.956,0,0,0-1.166.149.316.316,0,0,0-.078.057,8.21,8.21,0,0,1-5.07,1.806H2.96a9.416,9.416,0,0,0,2.887-3.833.982.982,0,0,0,.05-.619,1,1,0,0,0-.235-.54,14.9,14.9,0,1,1,21.7.661Z" transform="translate(-0.019)" fill="#0c6094"/>
      <circle id="Ellipse_245" data-name="Ellipse 245" cx="1.181" cy="1.181" r="1.181" transform="translate(15.628 15.638)" fill="#0c6094"/>
      <circle id="Ellipse_246" data-name="Ellipse 246" cx="1.181" cy="1.181" r="1.181" transform="translate(21.716 15.638)" fill="#0c6094"/>
      <circle id="Ellipse_247" data-name="Ellipse 247" cx="1.181" cy="1.181" r="1.181" transform="translate(9.541 15.638)" fill="#0c6094"/>
    </g>
  </g>
</svg>
