<svg xmlns="http://www.w3.org/2000/svg" width="13.65" height="13" viewBox="0 0 13.65 13">
  <g id="Icon_feather-check-square" data-name="Icon feather-check-square" transform="translate(-3 -3)">
    <path id="Path_13611" data-name="Path 13611" d="M14.6,12.3a.648.648,0,0,1-.46-.19l-1.95-1.95a.65.65,0,0,1,.919-.919l1.49,1.49,6.04-6.04a.65.65,0,0,1,.919.919l-6.5,6.5A.648.648,0,0,1,14.6,12.3Z" transform="translate(-5.1 -0.85)" fill="#0c6094"/>
    <path id="Path_13612" data-name="Path 13612" d="M14.05,16H4.95A1.952,1.952,0,0,1,3,14.05V4.95A1.952,1.952,0,0,1,4.95,3H12.1a.65.65,0,1,1,0,1.3H4.95a.651.651,0,0,0-.65.65v9.1a.651.651,0,0,0,.65.65h9.1a.651.651,0,0,0,.65-.65V9.5a.65.65,0,0,1,1.3,0v4.55A1.952,1.952,0,0,1,14.05,16Z" fill="#0c6094"/>
  </g>
</svg>
