<svg xmlns="http://www.w3.org/2000/svg" width="28.406" height="28.979" viewBox="0 0 28.406 28.979">
  <g id="Group_12607" data-name="Group 12607" transform="translate(1078.275 -1612.008)">
    <path id="Path_16261" data-name="Path 16261" d="M-1063.549,1612.764c-3.5,4.494-4.211,9.293-1.064,14.111,3.213,4.919,7.967,6.193,13.537,4.7a13.621,13.621,0,0,1-15.492,8.353A13.668,13.668,0,0,1-1077.433,1625,13.685,13.685,0,0,1-1063.549,1612.764Z" fill="none" stroke="#0c6094" stroke-width="1.5"/>
    <path id="Path_16262" data-name="Path 16262" d="M-865.444,1690.588a2.827,2.827,0,0,0-2.841,2.892,2.828,2.828,0,0,0-2.731-2.893,2.806,2.806,0,0,0,2.72-2.629,3.245,3.245,0,0,0,.863,1.855A3.374,3.374,0,0,0-865.444,1690.588Z" transform="translate(-188.529 -68.654)" fill="none" stroke="#0c6094" stroke-width="1.5"/>
    <path id="Path_16263" data-name="Path 16263" d="M-903.948,1642.862a1.87,1.87,0,0,0,1.624,1.6,1.838,1.838,0,0,0-1.614,1.676,1.87,1.87,0,0,0-1.695-1.669A1.888,1.888,0,0,0-903.948,1642.862Z" transform="translate(-156.925 -27.483)" fill="none" stroke="#0c6094" stroke-width="1.5"/>
    <path id="Path_16264" data-name="Path 16264" d="M-842.667,1777.747a1.668,1.668,0,0,0-1.443-1.565,1.664,1.664,0,0,0,1.43-1.385,1.675,1.675,0,0,0,1.508,1.371A1.68,1.68,0,0,0-842.667,1777.747Z" transform="translate(-213.093 -147.936)" fill="none" stroke="#0c6094" stroke-width="1.5"/>
  </g>
</svg>
