<svg xmlns="http://www.w3.org/2000/svg" width="31.419" height="31.419" viewBox="0 0 31.419 31.419">
  <path id="Icon_awesome-arrow-alt-circle-up" data-name="Icon awesome-arrow-alt-circle-up" d="M.563,16.272A15.71,15.71,0,1,0,16.272.563,15.707,15.707,0,0,0,.563,16.272Zm18.5-7.348v7.348H23.55a.761.761,0,0,1,.538,1.3l-7.278,7.24a.753.753,0,0,1-1.071,0l-7.285-7.24a.76.76,0,0,1,.538-1.3h4.491V8.924a.762.762,0,0,1,.76-.76H18.3A.762.762,0,0,1,19.059,8.924Z" transform="translate(-0.563 -0.563)" fill="#e80e0e"/>
</svg>
