<svg xmlns="http://www.w3.org/2000/svg" width="14.182" height="14.182" viewBox="0 0 14.182 14.182">
  <g id="Icon_feather-edit" data-name="Icon feather-edit" transform="translate(-1.5 -1.318)">
    <path id="Path_13986" data-name="Path 13986" d="M12.4,17.322H3.423A1.925,1.925,0,0,1,1.5,15.4V6.423A1.925,1.925,0,0,1,3.423,4.5H7.911a.641.641,0,1,1,0,1.282H3.423a.642.642,0,0,0-.641.641V15.4a.642.642,0,0,0,.641.641H12.4a.642.642,0,0,0,.641-.641V10.911a.641.641,0,0,1,1.282,0V15.4A1.925,1.925,0,0,1,12.4,17.322Z" transform="translate(0 -1.822)" fill="#0c6094"/>
    <path id="Path_13987" data-name="Path 13987" d="M18.834,1.318a2,2,0,0,1,1.415,3.416l-6.09,6.09a.641.641,0,0,1-.3.169l-2.564.641a.641.641,0,0,1-.777-.777l.641-2.564a.641.641,0,0,1,.169-.3l6.09-6.09A1.988,1.988,0,0,1,18.834,1.318ZM13.378,9.792l5.965-5.965a.719.719,0,0,0-1.017-1.017L12.361,8.776l-.339,1.356Z" transform="translate(-5.153)" fill="#0c6094"/>
  </g>
</svg>
