<svg xmlns="http://www.w3.org/2000/svg" width="28" height="28" viewBox="0 0 28 28">
  <g id="face-wink-svgrepo-com" transform="translate(-0.033)">
    <path id="Path_12381" data-name="Path 12381" d="M13.73,2A11.73,11.73,0,1,0,25.46,13.73,11.73,11.73,0,0,0,13.73,2Zm0,21.784A10.054,10.054,0,1,1,23.784,13.73,10.054,10.054,0,0,1,13.73,23.784Z" transform="translate(0.27 0.27)" fill="#0c6094"/>
    <path id="Path_12382" data-name="Path 12382" d="M20.095,11a2.095,2.095,0,1,0,2.095,2.095A2.095,2.095,0,0,0,20.095,11Z" transform="translate(-2.324 -1.189)" fill="#0c6094"/>
    <rect id="Rectangle_17804" data-name="Rectangle 17804" width="4" height="1" transform="translate(8.033 12)" fill="#0c6094"/>
    <path id="Path_12383" data-name="Path 12383" d="M14.889,23.207a6.7,6.7,0,0,0,5.739-3.259L19.2,19.11a5.027,5.027,0,0,1-8.613,0l-1.433.838a6.7,6.7,0,0,0,5.739,3.259Z" transform="translate(-0.889 -2.504)" fill="#0c6094"/>
    <rect id="_Transparent_Rectangle_" data-name="&lt;Transparent Rectangle&gt;" width="28" height="28" transform="translate(0.033)" fill="none"/>
  </g>
</svg>
