<svg id="face-dead-svgrepo-com" xmlns="http://www.w3.org/2000/svg" width="23.809" height="23.809" viewBox="0 0 23.809 23.809">
  <path id="Path_12384" data-name="Path 12384" d="M27.9,16a11.9,11.9,0,1,0,11.9,11.9A11.9,11.9,0,0,0,27.9,16Zm7.3,19.2a10.28,10.28,0,1,1,2.212-3.28A10.28,10.28,0,0,1,35.2,35.2Z" transform="translate(-16 -16)" fill="#0c6094"/>
  <rect id="Rectangle_17805" data-name="Rectangle 17805" width="8.855" height="1.107" transform="translate(7.477 15.225)" fill="#0c6094"/>
  <path id="Path_12385" data-name="Path 12385" d="M122,164.677l-1.193-1.06,1.06-1.192-1.186-1.055-1.06,1.193-1.192-1.06-1.055,1.186,1.193,1.06-1.06,1.192L118.689,166l1.06-1.193,1.192,1.06Z" transform="translate(-112.342 -154.159)" fill="#0c6094"/>
  <path id="Path_12386" data-name="Path 12386" d="M297.863,162.425l-1.186-1.055-1.06,1.193-1.192-1.06-1.054,1.186,1.192,1.06-1.06,1.192L294.689,166l1.06-1.193,1.192,1.06L298,164.677l-1.192-1.06Z" transform="translate(-279.612 -154.159)" fill="#0c6094"/>
</svg>
