<svg id="Group_9722" data-name="Group 9722" xmlns="http://www.w3.org/2000/svg" width="23.246" height="23.246" viewBox="0 0 23.246 23.246">
  <path id="face-svgrepo-com" d="M12.5.877A11.623,11.623,0,1,0,24.123,12.5,11.623,11.623,0,0,0,12.5.877ZM2.544,12.5A9.956,9.956,0,1,1,12.5,22.455,9.956,9.956,0,0,1,2.544,12.5Zm6.226-1.14A1.536,1.536,0,1,0,7.235,9.824,1.536,1.536,0,0,0,8.771,11.359Zm8.994-1.536a1.536,1.536,0,1,1-1.536-1.536A1.536,1.536,0,0,1,17.765,9.824Z" transform="translate(-0.877 -0.877)" fill="#0c6094" fill-rule="evenodd"/>
  <path id="Path_12390" data-name="Path 12390" d="M5.5,12.63A5.255,5.255,0,0,1,10.588,9.5a5.255,5.255,0,0,1,5.088,3.13" transform="translate(1 3.792)" fill="none" stroke="#0c6094" stroke-linecap="round" stroke-linejoin="round" stroke-width="1.5" fill-rule="evenodd"/>
</svg>
