<svg xmlns="http://www.w3.org/2000/svg" width="23.246" height="23.246" viewBox="0 0 23.246 23.246">
  <path id="face-svgrepo-com" d="M12.5.877A11.623,11.623,0,1,0,24.123,12.5,11.623,11.623,0,0,0,12.5.877ZM2.544,12.5A9.956,9.956,0,1,1,12.5,22.455,9.956,9.956,0,0,1,2.544,12.5Zm5.634,3.008a.877.877,0,1,0-1.439,1,7.021,7.021,0,0,0,11.522,0,.877.877,0,0,0-1.439-1,5.266,5.266,0,0,1-8.643,0Zm.592-4.149A1.536,1.536,0,1,0,7.235,9.824,1.536,1.536,0,0,0,8.771,11.359Zm8.994-1.536a1.536,1.536,0,1,1-1.536-1.536A1.536,1.536,0,0,1,17.765,9.824Z" transform="translate(-0.877 -0.877)" fill="#0c6094" fill-rule="evenodd"/>
</svg>
