<svg xmlns="http://www.w3.org/2000/svg" width="21.56" height="21.737" viewBox="0 0 21.56 21.737">
  <g id="Group_13678" data-name="Group 13678" transform="translate(550.917 -348.752)">
    <path id="Path_16933" data-name="Path 16933" d="M-530.928,366.7c.407,0,.779,0,1.152,0,.327,0,.417.091.418.41,0,.441,0,.883,0,1.324a1.99,1.99,0,0,1-2.056,2.051q-4.107,0-8.214,0h-5.835a2,2,0,0,1-2.079-2.077q0-7.563,0-15.126v-.307c-.1,0-.175-.011-.254-.012h-2.671c-.36,0-.446-.088-.446-.453,0-.569.01-1.137,0-1.706a2.029,2.029,0,0,1,2.068-2.053q7.922,0,15.844,0a1.981,1.981,0,0,1,2.048,1.672,2.961,2.961,0,0,1,.027.514q0,7.72,0,15.44Zm-16.561-17.333a2.447,2.447,0,0,1,.579,1.857c-.012,3.21-.007,6.42-.008,9.629q0,3.816,0,7.632a1.374,1.374,0,0,0,1.379,1.365,1.375,1.375,0,0,0,1.362-1.378c0-.464,0-.928,0-1.392a.346.346,0,0,1,.379-.4c.067,0,.135,0,.2,0h12.043v-.25q0-7.778,0-15.555a1.975,1.975,0,0,0-.036-.445,1.384,1.384,0,0,0-1.487-1.065h-14.415Zm3.423,20.5h12.588c.075,0,.15,0,.224,0A1.334,1.334,0,0,0-530,368.715c.043-.451.008-.909.008-1.365h-13.554c0,.454.008.88,0,1.3A2.022,2.022,0,0,1-544.066,369.866Zm-6.207-17.538h2.732c0-.556.01-1.094,0-1.631a1.367,1.367,0,0,0-1.246-1.305,1.337,1.337,0,0,0-1.47,1.123A17.914,17.914,0,0,0-550.274,352.328Z" fill="#74c1c9"/>
    <path id="Path_16934" data-name="Path 16934" d="M-424.606,432.134c-.148.28-.27.546-.427.79a.465.465,0,0,1-.317.218.444.444,0,0,1-.3-.245c-.414-.943-.811-1.894-1.214-2.847h-.445c-.168.392-.341.8-.513,1.2q-.342.8-.682,1.609c-.063.15-.133.292-.322.3s-.273-.124-.347-.27c-.1-.2-.216-.393-.309-.6-.058-.128-.126-.159-.257-.11-.217.08-.441.141-.66.217a.356.356,0,0,1-.416-.054c-.129-.137-.085-.288-.02-.439q.569-1.329,1.135-2.659a.705.705,0,0,0-.351-.863c-.138-.057-.278-.109-.414-.169a.76.76,0,0,1-.47-.849c.018-.126.034-.251.053-.377a.506.506,0,0,0-.124-.474,2.631,2.631,0,0,1-.222-.282.731.731,0,0,1,.007-1.039,1.153,1.153,0,0,0,.292-1.141.691.691,0,0,1,.467-.84,1.207,1.207,0,0,0,.879-.865.681.681,0,0,1,.871-.483,1.129,1.129,0,0,0,1.129-.308.691.691,0,0,1,1,0,1.133,1.133,0,0,0,1.128.31.7.7,0,0,1,.892.522,1.124,1.124,0,0,0,.8.8c.483.163.624.483.509,1.087a.747.747,0,0,0,.2.752,1.335,1.335,0,0,1,.2.269.748.748,0,0,1,0,.825.455.455,0,0,1-.078.109,1.064,1.064,0,0,0-.3,1.112.73.73,0,0,1-.482.878.966.966,0,0,1-.207.084.737.737,0,0,0-.586.647.474.474,0,0,0,.036.273c.371.881.749,1.759,1.125,2.638.018.041.053.084.05.123-.009.12.007.276-.061.348a.412.412,0,0,1-.34.073C-424.008,432.339-424.3,432.232-424.606,432.134Zm.733-8.1c.006-.2.013-.225-.2-.279a1.364,1.364,0,0,1-1.055-1.063c0-.007,0-.014-.007-.021-.046-.155-.131-.2-.3-.166a1.335,1.335,0,0,1-1.316-.259c-.353-.331-.3-.312-.678,0a1.112,1.112,0,0,1-.96.315,1.93,1.93,0,0,1-.286-.044c-.241-.088-.345.033-.4.241a1.246,1.246,0,0,1-.9.952c-.374.109-.367.145-.294.534,0,.022.011.044.015.066a1.051,1.051,0,0,1-.165.89c-.406.51-.4.518,0,1.035a.828.828,0,0,1,.2.62c-.017.14-.04.28-.066.42-.041.215-.009.37.245.43a1.224,1.224,0,0,1,.97.968c.005.021.022.04.027.061.045.2.163.241.35.191a1.225,1.225,0,0,1,1.318.305c.035.037.091.055.126.093.118.126.223.112.343,0a1.333,1.333,0,0,1,1.357-.417c.3.086.34.129.469-.282a1.215,1.215,0,0,1,.924-.9c.036-.008.068-.032.1-.041a.224.224,0,0,0,.183-.3c-.014-.065-.02-.133-.031-.2a1.092,1.092,0,0,1,.16-.954c.409-.5.4-.51.009-1.016a.825.825,0,0,1-.2-.726A4.142,4.142,0,0,0-423.873,424.031Zm-6.164,7.594c.194-.06.336-.1.476-.147a.33.33,0,0,1,.446.181c.073.143.152.283.249.462l1.051-2.469a1.158,1.158,0,0,0-.392-.155c-.316.008-.63.061-.964.1Zm5.9,0-.873-2.043-.645-.052c-.244-.02-.508-.12-.675.183l1.025,2.411c.1-.185.178-.328.253-.473a.325.325,0,0,1,.431-.174Z" transform="translate(-112.31 -68.238)" fill="#74c1c9"/>
    <path id="Path_16935" data-name="Path 16935" d="M-392.67,464.6c.052-.3.114-.6.151-.906a.379.379,0,0,0-.083-.27c-.191-.209-.414-.39-.6-.6a.442.442,0,0,1-.119-.347.512.512,0,0,1,.312-.232,1.9,1.9,0,0,1,.574-.086.57.57,0,0,0,.607-.435,3.56,3.56,0,0,1,.275-.563.315.315,0,0,1,.585,0c.143.262.262.537.406.8a.317.317,0,0,0,.192.142c.286.056.579.074.861.142a.483.483,0,0,1,.312.231.441.441,0,0,1-.119.348c-.186.213-.41.393-.6.6a.381.381,0,0,0-.087.27c.032.281.108.558.133.84a.448.448,0,0,1-.114.349.438.438,0,0,1-.365.009c-.261-.109-.5-.267-.759-.383a.408.408,0,0,0-.3,0c-.272.123-.528.279-.8.407A.31.31,0,0,1-392.67,464.6Zm.7-.533a2.241,2.241,0,0,1,.716-.287,2.206,2.206,0,0,1,.71.285.9.9,0,0,1,.409-1.271,2.186,2.186,0,0,1-.741-.188,1.977,1.977,0,0,1-.384-.6c-.123.207-.2.469-.377.6a2.321,2.321,0,0,1-.755.2A.882.882,0,0,1-391.973,464.066Z" transform="translate(-148.135 -105.478)" fill="#74c1c9"/>
  </g>
</svg>
