<svg xmlns="http://www.w3.org/2000/svg" width="28.214" height="30.565" viewBox="0 0 28.214 30.565">
  <path id="ask-svgrepo-com" d="M4,4V27.512H20.458v7.053l7.053-7.053h4.7V4ZM29.863,25.16H26.538l-3.729,3.729V25.16H6.351V6.351H29.863ZM15.756,13.4H13.4a4.571,4.571,0,0,1,4.7-4.7,4.571,4.571,0,0,1,4.7,4.7,4.6,4.6,0,0,1-3.527,4.581v1.3H16.931V15.756h1.176A2.214,2.214,0,0,0,20.458,13.4a2.214,2.214,0,0,0-2.351-2.351A2.214,2.214,0,0,0,15.756,13.4Zm1.176,7.053h2.351v2.351H16.931Z" transform="translate(-4 -4)" fill="#0c6094"/>
</svg>
