<svg xmlns="http://www.w3.org/2000/svg" width="28.485" height="28.485" viewBox="0 0 28.485 28.485">
  <path id="feedback-svgrepo-com" d="M14.325,19.47a9.98,9.98,0,0,1,2.56,1.475,9.561,9.561,0,0,1,1.974,2.128A9.825,9.825,0,0,1,20.583,28.6v.889H18.8v-.891a7.923,7.923,0,0,0-2.35-5.66,8.248,8.248,0,0,0-2.545-1.709A7.962,7.962,0,0,0,5.13,22.933a8.261,8.261,0,0,0-1.709,2.545,7.918,7.918,0,0,0-.641,3.115v.891H1v-.891a9.612,9.612,0,0,1,1.725-5.52,10.006,10.006,0,0,1,4.535-3.6,6.092,6.092,0,0,1-1.129-1,6.421,6.421,0,0,1-.848-1.225,5.986,5.986,0,0,1-.529-1.39,6.806,6.806,0,0,1-.193-1.5,6.02,6.02,0,0,1,.488-2.419,6.232,6.232,0,0,1,11.793,3.909,6.053,6.053,0,0,1-.541,1.392,7.133,7.133,0,0,1-.848,1.237A5.65,5.65,0,0,1,14.325,19.47ZM10.791,18.8a4.341,4.341,0,0,0,1.725-.346,4.464,4.464,0,0,0,2.364-2.366,4.249,4.249,0,0,0,.362-1.738,4.35,4.35,0,0,0-1.308-3.129,4.849,4.849,0,0,0-1.418-.96A4.167,4.167,0,0,0,10.791,9.9a4.338,4.338,0,0,0-1.723.346,4.513,4.513,0,0,0-2.381,2.381,4.471,4.471,0,0,0,0,3.449,4.672,4.672,0,0,0,.948,1.418A4.411,4.411,0,0,0,10.793,18.8ZM29.485,1V15.242H25.924l-5.341,5.341V15.242H18.8v-1.78h3.561v2.824l2.824-2.824H27.7V2.78H9.9v3.2q-.448.057-.891.14a5.331,5.331,0,0,0-.889.25V1Z" transform="translate(-1 -1)" fill="#0c6094"/>
</svg>
