<svg xmlns="http://www.w3.org/2000/svg" width="14.879" height="13.894" viewBox="0 0 14.879 13.894">
  <g id="Group_10657" data-name="Group 10657" transform="translate(2900.694 -176.663) rotate(90)">
    <path id="Path_14064" data-name="Path 14064" d="M190.579,3079.586c-.1.288-.256.378-.467.377-1.664-.009-3.329,0-4.993-.009-.1,0-.147.039-.183.191-.2.861-.717,1.406-1.31,1.4s-1.1-.547-1.3-1.4c-.038-.165-.094-.194-.2-.193q-2.524.007-5.047,0c-.238,0-.392-.2-.4-.507s.126-.537.32-.566a.93.93,0,0,1,.136,0c1.66,0,3.32,0,4.979,0,.113,0,.17-.031.213-.214.2-.835.71-1.374,1.293-1.378s1.106.534,1.3,1.381c.04.172.092.211.2.21,1.66,0,3.32,0,4.979-.008.211,0,.368.088.467.377Zm-6.26-.164c0-.594-.3-1.052-.685-1.054s-.687.456-.688,1.049.3,1.053.685,1.054S184.319,3080.015,184.32,3079.422Z" transform="translate(-0.022 -180.852)" fill="#0c6094"/>
    <path id="Path_14065" data-name="Path 14065" d="M190.558,2983.772c-.1.288-.256.389-.467.377-.316-.019-.632,0-.928,0a7.8,7.8,0,0,1-.305.8c-.331.638-.781.892-1.3.766s-.887-.594-1.077-1.351c-.044-.176-.1-.215-.212-.215q-4.578.008-9.156,0a.51.51,0,0,1-.188-.022.557.557,0,0,1-.259-.578.468.468,0,0,1,.326-.473,1.215,1.215,0,0,1,.149,0q4.571,0,9.142,0c.1,0,.154-.029.192-.2.2-.853.723-1.4,1.313-1.4s1.1.561,1.3,1.417l.04.171c.318,0,.639.014.959,0,.211-.012.367.088.467.377Zm-2.78.886c.383,0,.69-.462.692-1.045s-.3-1.053-.682-1.059-.7.467-.7,1.055S187.4,2984.657,187.777,2984.659Z" transform="translate(0 -90.355)" fill="#0c6094"/>
    <path id="Path_14066" data-name="Path 14066" d="M190.583,2888.1c-.1.289-.257.377-.467.377q-4.564-.011-9.129,0h-.159c-.236.992-.671,1.59-1.373,1.58s-1.115-.6-1.344-1.58H177.1c-.252,0-.407-.208-.407-.538s.155-.536.408-.537h1.013c.226-.97.647-1.562,1.33-1.58.709-.018,1.147.579,1.386,1.58h.159q4.564,0,9.129,0c.211,0,.368.088.467.377Zm-11.112.886c.382,0,.691-.472.691-1.052s-.308-1.05-.69-1.053-.7.466-.694,1.062S179.088,2888.988,179.471,2888.986Z" transform="translate(-0.025 0)" fill="#0c6094"/>
  </g>
</svg>
