<svg xmlns="http://www.w3.org/2000/svg" width="44.211" height="44.211" viewBox="0 0 44.211 44.211">
  <g id="Group_12615" data-name="Group 12615" transform="translate(12525.706 6746)">
    <g id="Group_12610" data-name="Group 12610" transform="translate(-12525.706 -6746)">
      <path id="Path_16267" data-name="Path 16267" d="M-1268.714-147.18a22.13,22.13,0,0,1-22.105-22.105,22.13,22.13,0,0,1,22.105-22.106,22.131,22.131,0,0,1,22.106,22.106A22.131,22.131,0,0,1-1268.714-147.18Zm0-43.929a21.848,21.848,0,0,0-21.823,21.824,21.848,21.848,0,0,0,21.823,21.824,21.848,21.848,0,0,0,21.824-21.824A21.848,21.848,0,0,0-1268.714-191.109Z" transform="translate(1290.819 191.391)" fill="#d1d2d4"/>
    </g>
    <g id="Group_12611" data-name="Group 12611" transform="translate(-12525.694 -6745.988)">
      <path id="Path_16268" data-name="Path 16268" d="M-1268.568-147.047a22.119,22.119,0,0,1-22.094-22.094,1.127,1.127,0,0,1,1.127-1.127,1.127,1.127,0,0,1,1.127,1.127,19.862,19.862,0,0,0,19.839,19.839,19.862,19.862,0,0,0,19.839-19.839,19.862,19.862,0,0,0-19.839-19.84,1.127,1.127,0,0,1-1.127-1.127,1.127,1.127,0,0,1,1.127-1.127,22.119,22.119,0,0,1,22.094,22.094A22.119,22.119,0,0,1-1268.568-147.047Z" transform="translate(1290.662 191.234)" fill="#37b1e1"/>
    </g>
    <path id="Path_16272" data-name="Path 16272" d="M-1137.687-7.489a9.942,9.942,0,0,1-2.812.756,4.827,4.827,0,0,0,2.154-2.668,9.877,9.877,0,0,1-3.109,1.172,4.919,4.919,0,0,0-3.575-1.521,4.859,4.859,0,0,0-4.9,4.818,4.8,4.8,0,0,0,.127,1.1,13.986,13.986,0,0,1-10.09-5.036,4.77,4.77,0,0,0-.663,2.424,4.8,4.8,0,0,0,2.18,4.011,4.977,4.977,0,0,1-2.219-.6v.059a4.739,4.739,0,0,0,.333,1.748,4.889,4.889,0,0,0,3.6,2.98,5.092,5.092,0,0,1-1.292.172,5,5,0,0,1-.923-.091,4.894,4.894,0,0,0,4.574,3.346,9.913,9.913,0,0,1-6.082,2.065,10.66,10.66,0,0,1-1.167-.065,14.045,14.045,0,0,0,7.505,2.162,13.628,13.628,0,0,0,13.6-10.8,13.2,13.2,0,0,0,.338-2.909c0-.206-.006-.415-.018-.622A9.871,9.871,0,0,0-1137.687-7.489Z" transform="translate(-11354.416 -6722.566)" fill="#37b1e1"/>
  </g>
</svg>
