<svg xmlns="http://www.w3.org/2000/svg" width="44.211" height="44.211" viewBox="0 0 44.211 44.211">
  <g id="Group_12620" data-name="Group 12620" transform="translate(-276.327 -243.96)">
    <g id="Group_12618" data-name="Group 12618" transform="translate(276.327 243.96)">
      <path id="Path_16273" data-name="Path 16273" d="M298.433,288.171a22.106,22.106,0,1,1,22.106-22.105A22.131,22.131,0,0,1,298.433,288.171Zm0-43.93a21.824,21.824,0,1,0,21.824,21.824A21.849,21.849,0,0,0,298.433,244.242Z" transform="translate(-276.327 -243.96)" fill="#d1d2d4"/>
    </g>
    <g id="Group_12619" data-name="Group 12619" transform="translate(276.339 243.972)">
      <path id="Path_16274" data-name="Path 16274" d="M298.578,288.3a22.119,22.119,0,0,1-22.094-22.094,1.127,1.127,0,1,1,2.254,0,19.839,19.839,0,1,0,19.839-19.84,1.127,1.127,0,1,1,0-2.254,22.094,22.094,0,1,1,0,44.188Z" transform="translate(-276.484 -244.117)" fill="#4b69b0"/>
    </g>
    <path id="Path_16275" data-name="Path 16275" d="M498.822,376.125v-1.892a1,1,0,0,1,1.046-1.138h2.657v-4.053l-3.658-.016c-4.059,0-4.982,3.025-4.982,4.962v2.138h-2.347v4.735h2.368V392.7h4.735V380.861h3.512l.171-1.86.262-2.875Z" transform="translate(-198.998 -115.644)" fill="#4b69b0"/>
  </g>
</svg>
