<svg id="Layer_1" data-name="Layer 1" xmlns="http://www.w3.org/2000/svg" viewBox="0 0 145.02 128.17"><defs><style>.cls-1{fill:#2baab7;stroke:#2baab7;stroke-miterlimit:10;}</style></defs><g id="Group_9672" data-name="Group 9672"><path id="Path_12344" data-name="Path 12344" class="cls-1" d="M19.77,55.2a2.67,2.67,0,0,1,2.45-1.1c3.8,0,7.61,0,11.42,0,1.76,0,2.33.58,2.34,2.33,0,1.1,0,2.2,0,3.31a2.26,2.26,0,0,0,.11.37h3.81a3.81,3.81,0,0,1,4.24,3.33,3.54,3.54,0,0,1,0,.92v4.77l11-4V52a5.93,5.93,0,0,1-4.35.78,5.42,5.42,0,0,1-2.47-9.25c2.75-2.58,5.53-5.12,8.3-7.68L84.7,10a5.51,5.51,0,0,1,7.76-.69,7.36,7.36,0,0,1,.63.62q3.59,3.29,7.13,6.59c1,.94,1.14,1.89.42,2.7s-1.73.75-2.71-.15c-2.45-2.24-4.86-4.5-7.3-6.75a2.12,2.12,0,0,0-3-.43,2.09,2.09,0,0,0-.42.42L51.14,45.61a7.67,7.67,0,0,0-.58.56,2,2,0,0,0,2.5,3,8,8,0,0,0,1.06-.87L84.85,20a5.5,5.5,0,0,1,7.78-.36A3.06,3.06,0,0,1,93,20L123.05,47.7c.4.36.78.73,1.18,1.07a2,2,0,0,0,2.89.24l.15-.14a2,2,0,0,0,0-2.77,1.68,1.68,0,0,0-.29-.24c-1.86-1.75-3.74-3.47-5.61-5.2L104.21,24.85a6.65,6.65,0,0,1-.65-.65,1.69,1.69,0,0,1,2.27-2.47l0,0a4.3,4.3,0,0,1,.69.59L129,43.13a5.46,5.46,0,0,1-6.11,9c-.06,0-.15,0-.28,0V78.51l4-1.36a7.1,7.1,0,0,1,9.47,3.35,6.92,6.92,0,0,1,.56,1.7,1.27,1.27,0,0,0,.13.19v2.28a33.94,33.94,0,0,1-1.83,3.61,8.64,8.64,0,0,1-4.08,2.6c-6.55,3.06-13.07,6.15-19.62,9.18a38.31,38.31,0,0,1-6.73,2.78c-5.64,1.4-11.37,2.47-17,3.73a18.33,18.33,0,0,1-9.33.13c-9.74-2.83-19.53-5.5-29.3-8.26l-4.67-1.27v3.72A3.81,3.81,0,0,1,40.69,105a3.64,3.64,0,0,1-.66,0H36v3.65c0,1.77-.55,2.33-2.31,2.33-3.88,0-7.77,0-11.65,0a2.25,2.25,0,0,1-2.25-1.23ZM76.48,71V58.42c0-1,.23-1.76,1.22-2.08,1.19-.39,2.19.45,2.19,1.85,0,4.5.06,9,0,13.48a1.55,1.55,0,0,0,1.23,1.82l.1,0c3.82,1,7.61,2.14,11.43,3.18a7.55,7.55,0,0,1,4.82,3.56,4.07,4.07,0,0,0,.4.43V52.38a13.92,13.92,0,0,0-.14-1.93,9.2,9.2,0,0,0-9.91-7.8,9.39,9.39,0,0,0-7.71,7.71c-.26,1.29-1.06,2-2.07,1.8s-1.53-1-1.33-2.28A12.42,12.42,0,0,1,90.79,39.4a12.57,12.57,0,0,1,2.18.52,13,13,0,0,1,8.31,12.6q0,15.36,0,30.73v1.63a31.85,31.85,0,0,0,5-.73c4-1.22,7.84-2.7,11.77-4a1.35,1.35,0,0,0,1.08-1.53q-.06-14.34,0-28.68a2.28,2.28,0,0,0-.81-1.87Q104.5,35.29,90.66,22.49c-1.31-1.22-2.17-1.22-3.47,0Q73.26,35.33,59.35,48.23a2.32,2.32,0,0,0-.68,1.53c-.05,4.64,0,9.29,0,13.94,0,.33,0,.67.06,1l.86-.07a15.87,15.87,0,0,1,11.51,2.65c1.67,1.24,3.45,2.34,5.41,3.66ZM44.18,83.42c0,3,0,6.09,0,9.14a1.11,1.11,0,0,0,.89,1.31l.1,0c11.5,3.19,23,6.46,34.5,9.6a10.66,10.66,0,0,0,4.6.17c4.59-.84,9.18-1.87,13.73-2.9a41.15,41.15,0,0,0,9-2.46c8-3.81,16-7.47,24-11.18a3.94,3.94,0,0,0,2.14-4.84,3.69,3.69,0,0,0-4.78-2.09h0c-4,1.38-8,2.8-12.07,4.17-5.46,1.85-10.77,4.3-16.76,3.89a9.4,9.4,0,0,0-2,.1,2,2,0,0,0-1.09.43A7.16,7.16,0,0,1,89,90.56q-9-2.49-17.9-5c-1.31-.37-1.83-1.14-1.58-2.21s1.16-1.45,2.49-1.1,2.85.81,4.28,1.21c4.59,1.28,9.15,2.57,13.74,3.82A3.67,3.67,0,0,0,94.75,85a2.29,2.29,0,0,0,.08-.28,3.72,3.72,0,0,0-2.68-4.54l-.18,0-1.1-.28c-14.08-3.86-11-2.45-21.65-9.67A12.13,12.13,0,0,0,61.7,68a39.73,39.73,0,0,0-16.93,5,1.58,1.58,0,0,0-.58,1.17c0,3.08,0,6.17,0,9.26ZM36,101.62c1.23,0,2.32-.08,3.41,0s1.38-.36,1.38-1.42c0-11.73,0-23.45,0-35.19a2.1,2.1,0,0,0,0-.79c-.12-.26-.38-.61-.6-.63-1.34-.06-2.7,0-4.14,0v4c0,3.65-.33,4.51-1.75,4.5s-1.68-.85-1.68-4.43v-10H23.26V107.5h9.29V78.87c0-.35,0-.69,0-1a1.66,1.66,0,0,1,1.66-1.67h0A1.69,1.69,0,0,1,36,77.79a8.68,8.68,0,0,1,0,1.14c0,7.5,0,15,0,22.69Z"/><path id="Path_12345" data-name="Path 12345" class="cls-1" d="M82.54,59.56c0-1.4.64-2.21,1.72-2.2S86,58.22,86,59.6s-.68,2.21-1.75,2.2S82.54,61,82.54,59.56Z"/></g></svg>