<svg xmlns="http://www.w3.org/2000/svg" width="20.732" height="20.732" viewBox="0 0 20.732 20.732">
  <g id="Group_9737" data-name="Group 9737" transform="translate(-10.556 -10.556)">
    <path id="Path_12028" data-name="Path 12028" d="M142.534,121.14a6.4,6.4,0,0,1,4.311,1.667l2.689-2.878a10.365,10.365,0,0,0-16.158,2.789l3.164,2.534A6.431,6.431,0,0,1,142.534,121.14Z" transform="translate(-121.611 -106.652)" fill="#fff"/>
    <path id="Path_12029" data-name="Path 12029" d="M121.141,195.843a6.4,6.4,0,0,1,.439-2.322l-3.164-2.534a10.369,10.369,0,0,0,.01,9.732l3.145-2.577A6.408,6.408,0,0,1,121.141,195.843Z" transform="translate(-106.653 -174.92)" fill="#fff"/>
    <path id="Path_12030" data-name="Path 12030" d="M146.238,289.826a6.422,6.422,0,0,1-9.581-3.045l-3.145,2.577a10.363,10.363,0,0,0,15.886,3Z" transform="translate(-121.738 -263.56)" fill="#fff"/>
    <path id="Path_12031" data-name="Path 12031" d="M271.533,234.226a10.335,10.335,0,0,0-.154-1.758h-9.8v3.664h5.73a6.446,6.446,0,0,1-2.57,3.437l3.16,2.531A10.34,10.34,0,0,0,271.533,234.226Z" transform="translate(-240.245 -213.304)" fill="#fff"/>
  </g>
</svg>
