<svg id="Group_13059" data-name="Group 13059" xmlns="http://www.w3.org/2000/svg" width="20.145" height="20" viewBox="0 0 20.145 20">
  <path id="Path_17007" data-name="Path 17007" d="M600.114,489.378a.859.859,0,0,1-.693.643.8.8,0,0,1-.918-.728c-.014-.216-.014-.433-.007-.649a.8.8,0,0,1,.71-.787.812.812,0,0,1,.865.566c.014.043.03.086.044.129Z" transform="translate(-579.968 -478.944)" fill="#0c6094"/>
  <path id="Path_17008" data-name="Path 17008" d="M272.72,325.376c.21-.3.4-.595.611-.87.068-.089.2-.2.285-.186s.183.158.213.263c.247.849.482,1.7.714,2.553.108.4-.067.632-.479.669l-2.566.23a.217.217,0,0,1-.078,0c-.107-.033-.252-.043-.3-.117-.042-.059,0-.215.058-.3.192-.3.4-.6.631-.926-.4-.217-.791-.452-1.2-.639a8.141,8.141,0,0,0-4.252-.722,8.3,8.3,0,0,0-5.843,3.14,7.962,7.962,0,0,0-1.84,5.037,8.466,8.466,0,0,0,6.892,8.544.81.81,0,1,1-.268,1.6,9.966,9.966,0,0,1-6.9-4.88,9.687,9.687,0,0,1-1.344-5.419,10.077,10.077,0,0,1,15.442-8.121Z" transform="translate(-257.039 -323.669)" fill="#0c6094"/>
  <path id="Path_17009" data-name="Path 17009" d="M422.762,392.307c0,.918,0,1.836,0,2.754a.269.269,0,0,0,.176.281q2.508,1.288,5.009,2.588a.653.653,0,0,1,.415.76.646.646,0,0,1-.846.476,1.629,1.629,0,0,1-.215-.1q-2.836-1.466-5.673-2.93a.259.259,0,0,1-.173-.265c.006-2.092,0-4.184,0-6.276a.655.655,0,1,1,1.3-.046C422.765,390.471,422.762,391.389,422.762,392.307Z" transform="translate(-412.533 -385.334)" fill="#0c6094"/>
  <path id="Path_17010" data-name="Path 17010" d="M557.925,598.411c0-.007,0-.013,0-.02a1.5,1.5,0,0,1,1.151-1.223.8.8,0,0,1,.7,1.2,3.367,3.367,0,0,1-.513.642.74.74,0,0,1-.855.147A.781.781,0,0,1,557.925,598.411Z" transform="translate(-541.603 -582.332)" fill="#0c6094"/>
  <path id="Path_17011" data-name="Path 17011" d="M460.035,660.295a.844.844,0,0,1,.909.655.784.784,0,0,1-.505.895,4.124,4.124,0,0,1-.783.175.786.786,0,0,1-.841-.615.774.774,0,0,1,.457-.917A6.436,6.436,0,0,1,460.035,660.295Z" transform="translate(-447.847 -642.034)" fill="#0c6094"/>
  <path id="Path_17012" data-name="Path 17012" d="M589.174,546.377a6.135,6.135,0,0,1-.361.869.747.747,0,0,1-.943.253.763.763,0,0,1-.476-.855,3.92,3.92,0,0,1,.278-.813.779.779,0,0,1,.9-.389A.867.867,0,0,1,589.174,546.377Z" transform="translate(-569.457 -533.388)" fill="#0c6094"/>
  <path id="Path_17013" data-name="Path 17013" d="M587.357,433.249a.752.752,0,0,1-.7-.477,5.533,5.533,0,0,1-.233-.645.8.8,0,0,1,.473-.963.787.787,0,0,1,1.005.372,3.81,3.81,0,0,1,.279.772A.8.8,0,0,1,587.357,433.249Z" transform="translate(-568.526 -425.278)" fill="#0c6094"/>
  <path id="Path_17014" data-name="Path 17014" d="M514.457,636.536a.855.855,0,0,1,.764.544.773.773,0,0,1-.231.888,3.866,3.866,0,0,1-.683.418.781.781,0,0,1-1.028-.34.792.792,0,0,1,.259-1.055,5.214,5.214,0,0,1,.552-.337A2.186,2.186,0,0,1,514.457,636.536Z" transform="translate(-499.281 -619.564)" fill="#0c6094"/>
</svg>
