<svg xmlns="http://www.w3.org/2000/svg" width="22.327" height="19.861" viewBox="0 0 22.327 19.861">
  <path id="home-svgrepo-com_6_" data-name="home-svgrepo-com (6)" d="M22,46.728H13.588V46.4a.372.372,0,0,0-.371-.371H11.491V44.237h7.362a.328.328,0,1,0,0-.655h-.371V35.848H19.2a.328.328,0,0,0,.221-.57l-2.34-2.137V30.278a.678.678,0,0,0-.677-.677h-1.4a.678.678,0,0,0-.677.677v.351l-2.24-2.045a1.37,1.37,0,0,0-1.856,0L2.9,35.279a.328.328,0,0,0,.221.57h.721v7.734H3.474a.328.328,0,0,0,0,.655h7.362v1.791H9.11a.372.372,0,0,0-.371.371v.328H.328a.328.328,0,1,0,0,.655H8.738v.328a.372.372,0,0,0,.371.371h4.107a.372.372,0,0,0,.371-.371v-.328H22a.328.328,0,1,0,0-.655Zm-9.066-3.146H9.394V37.618a.022.022,0,0,1,.022-.022h3.5a.022.022,0,0,1,.022.022Zm-8.76-8.389h-.2l6.708-6.125a.717.717,0,0,1,.972,0l2.788,2.546a.328.328,0,0,0,.549-.242V30.278a.022.022,0,0,1,.022-.022h1.4a.022.022,0,0,1,.022.022v3.009a.328.328,0,0,0,.107.242l1.823,1.664h-.2a.328.328,0,0,0-.328.328v8.061H13.588V37.618a.678.678,0,0,0-.677-.677h-3.5a.678.678,0,0,0-.677.677v5.964H4.5V35.521A.328.328,0,0,0,4.173,35.193Zm8.76,12.234H9.394v-.743h3.539Z" transform="translate(0 -28.222)" fill="#0c6094"/>
</svg>
