<svg id="Layer_1" data-name="Layer 1" xmlns="http://www.w3.org/2000/svg" viewBox="0 0 145.02 128.17"><defs><style>.cls-1{fill:#2baab7;}</style></defs><path class="cls-1" d="M103.57,99.12a1.82,1.82,0,0,1-1.85-1.78,1.87,1.87,0,0,1,1.85-1.9,1.89,1.89,0,0,1,1.86,1.81A1.84,1.84,0,0,1,103.57,99.12Z"/><path class="cls-1" d="M120.7,72.29a9.45,9.45,0,0,0-2.85-.8,46.47,46.47,0,0,0,4.67-20.28,46.93,46.93,0,0,0-93.86,0,46.28,46.28,0,0,0,6.17,23.14c-.39,0-.8,0-1.2,0a1.31,1.31,0,0,1-1.32-.83,6.56,6.56,0,0,0-6.18-3.75c-3.18,0-6.35,0-9.53,0a6.68,6.68,0,0,0-6.94,7q0,12.83,0,25.65a6.61,6.61,0,0,0,6.94,6.91c3.18,0,6.35,0,9.53,0a6.66,6.66,0,0,0,6.27-3.8c.15-.3.47-.7.71-.7a32.65,32.65,0,0,1,6.72.32c5.29,1.2,10.49,2.74,15.72,4.14l20.78,5.5h4c.67-.18,1.35-.35,2-.54,4.83-1.36,8.65-4.43,12.54-7.37a2.34,2.34,0,0,0,.72-1.39A2.23,2.23,0,0,0,94.48,103a2.42,2.42,0,0,0-2.81.12c-2.17,1.48-4.31,3-6.5,4.45a12.94,12.94,0,0,1-10.91,1.59c-8.28-2.29-16.59-4.49-24.88-6.73-5.27-1.43-10.47-3.25-16.06-2.72-.07,0-.14-.07-.27-.14V79.49a1.54,1.54,0,0,1,.5-.13c3.61.33,6.89-.88,10.2-2.07,4.49-1.62,9.08-2.21,13.73-.55a26,26,0,0,1,9.25,6.05A7.46,7.46,0,0,0,72.37,85c4.4-.07,8.78,0,13.16,0a4.24,4.24,0,0,1,4.3,5c-.36,2.13-2.17,3.52-4.65,3.52-7.07,0-14.13,0-21.18,0-1.85,0-3,.94-3,2.48a2.56,2.56,0,0,0,2.85,2.5c7.27,0,14.53.07,21.8,0a9.17,9.17,0,0,0,9.13-10.28,1.25,1.25,0,0,1,.85-1.49c6.14-3.12,12.26-6.28,18.38-9.4a5.88,5.88,0,0,1,.72-.33h0a9,9,0,0,1,1.14-.38c3-.62,5.5,1.75,4.68,4.53A6.28,6.28,0,0,1,118.45,84c-2.7,2.09-5.56,4-8.32,6a2.48,2.48,0,1,0,2.86,4c3.11-2.17,6.28-4.28,9.26-6.62A8.91,8.91,0,0,0,120.7,72.29ZM28,102c0,1.86-.45,2.31-2.25,2.32H16.84c-1.63,0-2.16-.54-2.16-2.18q0-12.57,0-25.11c0-1.68.55-2.22,2.27-2.23h8.76c1.71,0,2.27.54,2.27,2.23ZM96.43,80.68l-4.14,2.09a10.06,10.06,0,0,0-7.81-2.83c-3.51.09-7-.1-10.52.06a5.53,5.53,0,0,1-5-1.92,10.53,10.53,0,0,0-1.71-1.46c-4.65-3.67-9.8-6-15.86-5.87a28.53,28.53,0,0,0-5.15.61,34.8,34.8,0,0,1-6.2-18.18c1.66,0,3.24,0,4.8,0a1.92,1.92,0,0,0,2-2.31,1.89,1.89,0,0,0-1.89-1.59c-1.29,0-2.57,0-3.87,0h-1A35,35,0,0,1,49,27.59l3.34,3.18a2,2,0,1,0,2.89-2.62C54.11,27,53,26,51.79,24.84a35.13,35.13,0,0,1,21.85-9.06c0,1.73,0,3.34,0,4.94a1.9,1.9,0,0,0,1.93,1.88,1.93,1.93,0,0,0,2-1.88c0-.41,0-.83,0-1.25V15.79a34.94,34.94,0,0,1,21.82,9c-1.11,1.1-2.15,2.1-3.16,3.14s-1.08,2.12-.23,3a2,2,0,0,0,3-.19c1-1,2-2.07,3.14-3.19a35.16,35.16,0,0,1,9,21.78c-1.18,0-2.33,0-3.47,0-.49,0-1,0-1.46,0a2,2,0,0,0-1.87,1.95,1.92,1.92,0,0,0,1.94,2c1.25.05,2.51,0,3.76,0h1.1c-.48,7.77-6,19.37-10.82,25.4ZM113,72.24c-.32.12-.66.28-1,.44l-3.15,1.62a47.2,47.2,0,0,0,6.32-23A39.6,39.6,0,0,0,36,51.12a39,39,0,0,0,6.23,21.37c-.6.2-1.18.42-1.76.66a11.3,11.3,0,0,1-1.44.52,42.52,42.52,0,0,1-6.36-22.52A42.94,42.94,0,1,1,113,72.24Z"/><path class="cls-1" d="M70.43,48.86c-.24-.24-.47-.5-.71-.74L56.13,34.53a7.87,7.87,0,0,1-.78-.86A1.95,1.95,0,0,1,58,31a6.24,6.24,0,0,1,.86.77q6.8,6.8,13.59,13.6A1.32,1.32,0,0,0,74,45.8,5.7,5.7,0,0,1,81,49.36a5.69,5.69,0,0,1-10.39,4.56,1.19,1.19,0,0,0-1.25-.75q-5.41,0-10.82,0a2,2,0,0,1-2-2,2,2,0,0,1,2-1.91c.29,0,.58,0,.87,0h10c.33,0,.66-.05,1-.08Zm3.4,2.28a1.76,1.76,0,1,0,1.83-1.68A1.7,1.7,0,0,0,73.83,51.14Z"/></svg>