<svg xmlns="http://www.w3.org/2000/svg" width="14.771" height="14.771" viewBox="0 0 14.771 14.771">
  <g id="Icon_feather-download" data-name="Icon feather-download" transform="translate(-3 -3)">
    <path id="Path_14070" data-name="Path 14070" d="M15.556,26.909H5.216A2.218,2.218,0,0,1,3,24.693V21.739a.739.739,0,1,1,1.477,0v2.954a.739.739,0,0,0,.739.739h10.34a.739.739,0,0,0,.739-.739V21.739a.739.739,0,1,1,1.477,0v2.954A2.218,2.218,0,0,1,15.556,26.909Z" transform="translate(0 -9.137)" fill="#0c6094"/>
    <path id="Path_14071" data-name="Path 14071" d="M13.431,18.67a.736.736,0,0,1-.522-.216L9.216,14.761a.739.739,0,1,1,1.045-1.045l3.171,3.171L16.6,13.716a.739.739,0,0,1,1.045,1.045l-3.693,3.693A.736.736,0,0,1,13.431,18.67Z" transform="translate(-3.046 -5.33)" fill="#0c6094"/>
    <path id="Path_14072" data-name="Path 14072" d="M17.239,13.34A.739.739,0,0,1,16.5,12.6V3.739a.739.739,0,0,1,1.477,0V12.6A.739.739,0,0,1,17.239,13.34Z" transform="translate(-6.853)" fill="#0c6094"/>
  </g>
</svg>
