<svg id="work-svgrepo-com_1_" data-name="work-svgrepo-com (1)" xmlns="http://www.w3.org/2000/svg" width="14.481" height="15.434" viewBox="0 0 14.481 15.434">
  <path id="Path_13940" data-name="Path 13940" d="M8.651,2.96l-.142-.574h0Zm1.678,0-.142.574h0ZM3.092,13.452l.536-.163Zm0-4.327.536.163Zm12.8,0,.536-.163h0Zm0,4.327.536.163Zm-3.434,3.337-.105-.583Zm-5.93,0,.105-.583ZM7.094,5.662l.105.583Zm4.793,0,.105-.583Zm.8.164-.105.583h0Zm3.139,3.041-.536.163h0ZM6.3,5.825l-.105-.583ZM3.158,8.867,2.623,8.7h0ZM8.794,3.534a2.567,2.567,0,0,1,1.394,0l.285-1.148a3.615,3.615,0,0,0-1.963,0Zm4.356,2.526a3.775,3.775,0,0,0-2.677-3.674l-.285,1.148a2.6,2.6,0,0,1,1.848,2.526Zm-6.2,0A2.6,2.6,0,0,1,8.794,3.534L8.509,2.386A3.775,3.775,0,0,0,5.832,6.059ZM6.4,6.408l.8-.164L6.989,5.079l-.8.164Zm5.379-.164.8.164.211-1.166-.8-.164ZM15.287,9.03l.069.258,1.071-.326L16.358,8.7ZM3.625,9.288l.069-.258L2.623,8.7l-.069.258Zm0,4a7.766,7.766,0,0,1,0-4L2.554,8.962a9.028,9.028,0,0,0,0,4.653Zm11.729-4a7.766,7.766,0,0,1,0,4l1.071.326a9.028,9.028,0,0,0,0-4.653ZM12.35,16.205a14.193,14.193,0,0,1-5.72,0L6.42,17.371a15.241,15.241,0,0,0,6.141,0ZM7.2,6.244a11.371,11.371,0,0,1,4.582,0l.211-1.166a12.418,12.418,0,0,0-5,0Zm-.569,9.961a3.993,3.993,0,0,1-3-2.917l-1.071.326A5.137,5.137,0,0,0,6.42,17.371Zm5.93,1.166a5.137,5.137,0,0,0,3.864-3.757l-1.071-.326a3.993,3.993,0,0,1-3,2.917Zm.018-10.963A3.587,3.587,0,0,1,15.287,9.03L16.358,8.7A4.731,4.731,0,0,0,12.79,5.243ZM6.191,5.243A4.731,4.731,0,0,0,2.623,8.7l1.071.326A3.587,3.587,0,0,1,6.4,6.408ZM3.093,9.8a17.388,17.388,0,0,0,12.794,0L15.5,8.689a16.339,16.339,0,0,1-12.021,0Z" transform="translate(-2.25 -2.25)" fill="#0c6094"/>
  <path id="Path_13941" data-name="Path 13941" d="M8,10.5v2.938" transform="translate(-3.73 -4.057)" fill="none" stroke="#0c6094" stroke-linecap="round" stroke-width="1.5"/>
  <path id="Path_13942" data-name="Path 13942" d="M16,10.5v2.938" transform="translate(-5.789 -4.057)" fill="none" stroke="#0c6094" stroke-linecap="round" stroke-width="1.5"/>
</svg>
