<svg xmlns="http://www.w3.org/2000/svg" width="16.677" height="20.591" viewBox="0 0 16.677 20.591">
  <g id="XMLID_20_" transform="translate(0)">
    <g id="Group_9712" data-name="Group 9712" transform="translate(0)">
      <g id="Group_9711" data-name="Group 9711" transform="translate(0)">
        <path id="Path_12371" data-name="Path 12371" d="M43.376,0a8.348,8.348,0,0,0-8.339,8.339,8.235,8.235,0,0,0,1.8,5.167c1.523,1.92,5.952,6.48,6.14,6.673l.4.412.4-.412c.188-.193,4.618-4.754,6.142-6.675a8.232,8.232,0,0,0,1.8-5.165A8.348,8.348,0,0,0,43.376,0Zm5.667,12.81c-1.226,1.546-4.52,4.986-5.667,6.176-1.147-1.19-4.439-4.629-5.665-6.175a7.128,7.128,0,0,1-1.556-4.473,7.221,7.221,0,1,1,14.443,0A7.127,7.127,0,0,1,49.043,12.81Z" transform="translate(-35.037)" fill="#0c6094"/>
        <path id="Path_12372" data-name="Path 12372" d="M100.895,59.265a4.936,4.936,0,1,0,4.936,4.936A4.942,4.942,0,0,0,100.895,59.265Zm0,8.755a3.819,3.819,0,1,1,3.819-3.819A3.823,3.823,0,0,1,100.895,68.02Z" transform="translate(-92.556 -55.955)" fill="#0c6094"/>
        <path id="Path_12373" data-name="Path 12373" d="M145.205,118.043l-1.4-1.116-.7.874,2.273,1.808,2.42-3.012-.871-.7Z" transform="translate(-137.071 -109.424)" fill="#0c6094"/>
      </g>
    </g>
  </g>
</svg>
