<svg xmlns="http://www.w3.org/2000/svg" width="187.441" height="293.334" viewBox="0 0 187.441 293.334">
  <g id="map-pin-svgrepo-com" transform="translate(-52.946)">
    <g id="Group_12894" data-name="Group 12894">
      <path id="Path_16789" data-name="Path 16789" d="M146.667,0a93.641,93.641,0,0,0-72.83,152.6c4.2,5.178,11.237,13.331,14.9,18.906,21.109,32.069,48.19,78.643,56.082,116.864,1.354,6.527,2.986,6.641,4.743.212a422.676,422.676,0,0,1,50.377-112.757c3.6-5.619,10.884-13.483,15.409-18.379A94.561,94.561,0,0,0,231.5,133.361,93.57,93.57,0,0,0,146.667,0Zm0,144.358A52.31,52.31,0,1,1,198.98,92.045,52.313,52.313,0,0,1,146.667,144.358Z" fill="#cb1e1e"/>
      <circle id="Ellipse_308" data-name="Ellipse 308" cx="21.756" cy="21.756" r="21.756" transform="translate(124.911 68.44)" fill="#cb1e1e"/>
    </g>
  </g>
</svg>
