<svg xmlns="http://www.w3.org/2000/svg" width="13.292" height="14.179" viewBox="0 0 13.292 14.179">
  <path id="Icon_metro-calendar" data-name="Icon metro-calendar" d="M7,7.245H8.774V9.017H7Zm2.658,0h1.772V9.017H9.66Zm2.658,0H14.09V9.017H12.318ZM4.343,12.562H6.115v1.772H4.343Zm2.658,0H8.774v1.772H7Zm2.658,0h1.772v1.772H9.66ZM7,9.9H8.774v1.772H7Zm2.658,0h1.772v1.772H9.66Zm2.658,0H14.09v1.772H12.318Zm-7.975,0H6.115v1.772H4.343ZM14.09,1.928v.886H12.318V1.928h-6.2v.886H4.343V1.928H2.571V16.106H15.863V1.928Zm.886,13.292H3.457V5.473h11.52Z" transform="translate(-2.57 -1.928)" fill="#0c6094"/>
</svg>
