<?xml version="1.0" encoding="UTF-8"?>
<svg id="Capa_1" data-name="Capa 1" xmlns="http://www.w3.org/2000/svg" xmlns:xlink="http://www.w3.org/1999/xlink" viewBox="0 0 1488.96 1559.13">
  <defs>
    <style>
      .cls-1 {
        fill: #fff;
      }

      .cls-2 {
        fill: #fbfdff;
        filter: url(#drop-shadow-1);
      }

      .cls-3 {
        fill: #c2c8d3;
      }

      .cls-4 {
        fill: #a6abb4;
      }

      .cls-5 {
        fill: #fdca60;
      }

      .cls-6 {
        fill: #ededed;
      }
    </style>
    <filter id="drop-shadow-1" filterUnits="userSpaceOnUse">
      <feOffset dx="7" dy="7"/>
      <feGaussianBlur result="blur" stdDeviation="5"/>
      <feFlood flood-color="#1d1d1b" flood-opacity=".5"/>
      <feComposite in2="blur" operator="in"/>
      <feComposite in="SourceGraphic"/>
    </filter>
  </defs>
  <path class="cls-5" d="m775,688.46l-69.79-52.6c-6.1-4.61-14.09-5.91-21.34-3.49l-82.9,27.67c-18.28,6.11-35.61-11.4-29.34-29.62l28.47-82.63c2.49-7.24,1.26-15.23-3.28-21.38l-51.93-70.3c-11.44-15.49-.16-37.4,19.1-37.05l87.38,1.54c7.65.13,14.87-3.51,19.32-9.72l50.8-71.12c11.2-15.67,35.51-11.7,41.14,6.72l25.54,83.58c2.24,7.32,7.93,13.07,15.22,15.37l83.33,26.35c18.37,5.8,22.1,30.15,6.32,41.2l-71.59,50.11c-6.27,4.4-9.98,11.59-9.91,19.24l.7,87.4c.16,19.26-21.85,30.34-37.23,18.74Z"/>
  <path class="cls-1" d="m819.96,471.84c.82.77,1.78,1.43,2.79,1.99,1.96,1.07,4.13,1.77,6.25,2.41,2.55.78,5.15,1.41,7.77,1.86,2.75.47,5.57.8,8.37.8,2.63.02,5.14-.63,6.44-3.13.41-.82.06-2.15-.72-2.65-.62-.4-1.27-.79-1.92-1.16l-.67-.82c-4.25-2.64-8.8-4.76-13.61-6.19-2.41-.72-4.87-1.3-7.35-1.69-2.25-.35-4.94-.95-7.14-.18-1.2.42-1.96,1.24-2.34,2.23-.6.35-1.06,1.02-1.13,1.69-.23,2.34,1.37,3.88,3.27,4.84Z"/>
  <path class="cls-1" d="m793.12,471.24c.36-2.87-4.11-3.43-4.46-.55-.36,2.87,4.11,3.43,4.46.55Z"/>
  <path class="cls-1" d="m816.76,485.4c.35-2.87-4.1-3.42-4.46-.55-.36,2.87,4.1,3.43,4.46.55Z"/>
  <path class="cls-1" d="m828.36,483.89c-.36,2.87,4.11,3.44,4.46.56.36-2.87-4.11-3.43-4.46-.56Z"/>
  <path class="cls-1" d="m798.3,500.82c.36-2.87-4.1-3.43-4.46-.55-.36,2.87,4.1,3.43,4.46.55Z"/>
  <path class="cls-1" d="m856.02,497.37c.36-2.88-4.11-3.43-4.46-.55-.35,2.87,4.11,3.42,4.46.55Z"/>
  <polygon class="cls-1" points="879.81 479.23 879.4 479.64 878.95 480.73 878.88 481.31 878.96 482.2 879.34 482.97 880 483.52 880.84 483.82 881.44 483.82 882.5 483.36 882.9 482.96 883.34 481.87 883.42 481.29 883.33 480.4 882.96 479.63 882.3 479.08 881.46 478.78 880.86 478.78 879.81 479.23"/>
  <path class="cls-1" d="m615.25,633.68c-.01-.83-.51-1.78-1.36-2.05-1.71-.55-3.43-.89-5.17-1.03-4.72-.58-9.58.12-13.96,2-1.81.76-1.74,3.37.02,4.14,6.07,2.65,13.39,2.34,19.14-.97.8-.47,1.37-1.11,1.34-2.1Z"/>
  <path class="cls-1" d="m632.5,629.79c.36-2.87-4.11-3.43-4.46-.55-.36,2.87,4.11,3.43,4.46.55Z"/>
  <path class="cls-1" d="m609.77,617.57c.36-2.88-4.11-3.43-4.47-.56-.36,2.87,4.11,3.43,4.47.56Z"/>
  <path class="cls-1" d="m622.69,640.94c.36-2.86-4.11-3.43-4.46-.56-.36,2.88,4.1,3.44,4.46.56Z"/>
  <path class="cls-1" d="m656.07,623.32c.36-2.87-4.11-3.43-4.46-.56-.36,2.87,4.1,3.43,4.46.56Z"/>
  <polygon class="cls-1" points="676.11 616.03 676.66 615.6 677.2 614.94 677.5 614.1 677.42 613.22 677.05 612.44 676.64 612.04 675.56 611.59 674.95 611.6 673.89 612.05 673.35 612.48 672.79 613.14 672.49 613.98 672.58 614.86 672.95 615.64 673.36 616.05 674.45 616.49 675.05 616.48 676.11 616.03"/>
  <path class="cls-1" d="m644.84,602.12c.36-2.86-4.1-3.43-4.46-.55-.36,2.87,4.1,3.43,4.46.55Z"/>
  <path class="cls-1" d="m704.7,460.74l.29-.5.15-.97.04-.41.08-.2.2-.28.37-.81.07-.89-.31-.81-.56-.66c-.48-.33-1.09-.54-1.69-.44l-.57.17-.9.7-.66,1.02-.26.61-.29,1.18-.02.34.02.91.31.81.56.66.8.37.89.07c.56-.11,1.12-.38,1.46-.87Z"/>
  <path class="cls-1" d="m725.67,501.3c.36-2.87-4.1-3.42-4.46-.55-.36,2.87,4.11,3.43,4.46.55Z"/>
  <path class="cls-1" d="m670.78,489.04c.36-2.87-4.1-3.43-4.46-.56-.36,2.88,4.11,3.43,4.46.56Z"/>
  <path class="cls-1" d="m602.64,455.83c.36-2.87-4.11-3.43-4.46-.55-.35,2.87,4.11,3.43,4.46.55Z"/>
  <polygon class="cls-1" points="570.23 440.52 570.78 439.87 571.08 439.04 571.07 438.43 570.62 437.37 570.21 436.97 569.13 436.53 568.64 436.47 567.75 436.55 566.98 436.92 566.43 437.58 566.13 438.42 566.14 439.02 566.59 440.08 566.99 440.49 568.08 440.94 568.56 440.98 569.46 440.9 570.23 440.52"/>
  <path class="cls-1" d="m788.38,614.02c.35-2.86-4.11-3.42-4.47-.55-.36,2.87,4.11,3.44,4.47.55Z"/>
  <path class="cls-1" d="m776.08,617.44c.36-2.87-4.11-3.43-4.46-.55-.36,2.86,4.1,3.42,4.46.55Z"/>
  <path class="cls-1" d="m787.17,639.61c.36-2.87-4.1-3.42-4.46-.56-.36,2.88,4.11,3.43,4.46.56Z"/>
  <path class="cls-1" d="m783.6,664.4c.36-2.86-4.1-3.42-4.46-.55-.36,2.87,4.1,3.43,4.46.55Z"/>
  <path class="cls-1" d="m740.53,376.22c.78.65,2.01.85,2.84.12,2.14-.15,4.24-.85,6.1-2.12,1.58-1.07.79-3.86-1.1-4.01h-1.3c-.42-.86-1.33-1.47-2.34-1.3-.91.17-1.79.4-2.66.67-.77.13-1.52.4-2.2.79-1.24.53-2.45,1.15-3.62,1.88-.75.47-.98,1.6-.76,2.39.22.8.98,1.57,1.87,1.62.85.04,1.7-.02,2.54-.16l.64.11Z"/>
  <path class="cls-1" d="m725.23,677.47c.36-2.86-4.1-3.43-4.46-.56-.36,2.88,4.11,3.43,4.46.56Z"/>
  <path class="cls-1" d="m1447.76,1073.39c-28.54-42.87-75.94-74.11-127.85-78.18,10.91-28.19,17.36-58.44,16.9-88.57-.56-36.55-10.75-71.45-32.37-101.11-18.58-25.5-46.02-46.28-76.71-54.52-31.88-8.56-65.48-3.85-93.2,14.36-15.35,10.08-28.85,23.71-38.16,39.58-14.75-27.08-37.16-50.18-63.1-66.56-43.28-27.33-96.23-39.02-147.07-38.31-44.43.61-88.56,10.25-128.96,28.85-39.74,18.3-75.46,45.64-102.02,80.51-13.6,17.86-24.96,38.1-32.28,59.35-5.36,15.57-8.78,32.54-8.6,49.31-34,6.57-66.19,22.26-92.99,44.03-30.63,24.9-54.3,58.65-66.23,96.33-12.53,39.58-13.3,83.27-1.69,123.17,3.09,10.63,6.9,21.12,11.59,31.15,4.57,9.79,10.08,19,16.13,27.96,11.33,16.79,25.38,31.43,41.08,44.2,30.56,24.85,68.45,40.82,107.54,45.59,4.46,33.31,14.73,65.83,30.62,95.48,23.04,42.98,57.72,80.08,100.9,103.18,44.5,23.82,95.13,34.21,145.37,28.31,47.09-5.52,91.65-27.36,125.04-61.01,30.39-30.64,51.99-69.62,59.71-112.09,35.08,24.45,78.76,34.83,121.69,33.62,54.04-1.51,107.7-18.85,152.72-48.74,47.17-31.31,85.11-76.08,101.64-130.86,16.46-54.57,12.4-116.8-19.7-165.04Z"/>
  <path class="cls-6" d="m1362.57,1365.48c-56.28,21.88-119.07,29.6-179.02,22.56-53.94-6.33-107.28-25.75-147.21-62.89-2.62,17.14-11.63,34.02-19.97,48.19-12.54,21.34-27.81,41.83-44.36,60.23-31.74,35.25-74.66,60.85-122.71,63.76-49.28,2.99-95.95-18-128.29-54.87-28.45-32.42-43.97-72.53-58.8-112.39-6.68-17.95-12.85-36.46-15.7-55.44-.94-6.28-1.77-13.69-1.29-20.84l-1.09.42c-64.24,23.03-133.23-37.93-147.86-97.72-9.35-38.23,5.95-78.39,28.96-108.77,12.79-16.89,28.18-31.79,45.03-44.6,18.54-14.09,36.25-27.51,58.09-36.31,8.83-3.56,17.97-6.77,27.22-9.07,8.62-2.14,17.91-3.46,26-7.27,16.79-7.92,7.71-29.14,8.55-43.49,2.5-42.54,19.49-86.18,45.86-119.61,33.88-42.97,85.97-71.73,139.03-86.9-40.63,1.95-80.75,11.44-117.76,28.48-39.74,18.3-75.46,45.64-102.02,80.51-13.6,17.86-24.96,38.1-32.28,59.35-5.36,15.57-8.78,32.54-8.6,49.31-34,6.57-66.19,22.26-92.99,44.03-30.63,24.9-54.3,58.65-66.23,96.33-12.53,39.58-13.3,83.27-1.69,123.17,3.09,10.63,6.9,21.12,11.59,31.15,4.57,9.79,10.08,19,16.13,27.96,11.33,16.79,25.38,31.43,41.08,44.2,30.56,24.85,68.45,40.82,107.54,45.59,4.46,33.31,14.73,65.83,30.62,95.48,23.04,42.98,57.72,80.08,100.9,103.18,44.5,23.82,95.13,34.21,145.37,28.31,47.09-5.52,91.65-27.36,125.04-61.01,30.39-30.64,51.99-69.62,59.71-112.09,35.08,24.45,78.76,34.83,121.69,33.62,54.04-1.51,107.7-18.85,152.72-48.74,6.22-4.12,12.26-8.49,18.13-13.08-7.02,3.35-14.14,6.46-21.38,9.27Z"/>
  <path class="cls-1" d="m540.12,1204.9c-3.64-4.04-8.32-7.18-13.52-8.86-2.4-.78-5.91.88-5.76,3.8.15,3.02.68,6,1.53,8.87l.06.56c1.22,5.49,3.5,10.52,6.68,15.13,2.9,4.21,7.47,9.1,13.16,7.81,6.77-1.53,6.31-9.56,4.8-14.72-1.36-4.66-3.69-8.97-6.95-12.59Z"/>
  <path class="cls-1" d="m569.64,1208.37c-5.57-.38-6.17,8.27-.59,8.65,5.57.38,6.16-8.27.59-8.65Z"/>
  <path class="cls-1" d="m596.36,1254.12c-5.57-.38-6.16,8.27-.59,8.65,5.57.37,6.16-8.27.59-8.65Z"/>
  <path class="cls-1" d="m626.16,1231.04c-5.57-.38-6.16,8.27-.58,8.64,5.57.38,6.16-8.26.58-8.64Z"/>
  <path class="cls-1" d="m518.06,1135.84c-5.56-.38-6.16,8.27-.58,8.65,5.56.37,6.16-8.27.58-8.65Z"/>
  <path class="cls-1" d="m495.85,1070c-5.57-.37-6.16,8.27-.59,8.65,5.57.38,6.16-8.27.59-8.65Z"/>
  <path class="cls-1" d="m711.27,836.88c-.25-1.98-2.16-3.2-3.96-3.45-6.35-.93-10.57,3.9-13.25,9.23-1.42,1.36-2.45,3.18-3.33,4.91-1.24,2.45-2.08,4.96-2.61,7.64-.99,4.95-.66,10,.84,14.75.11,1.84.27,3.67.54,5.51.21,1.45,1.14,2.48,2.32,2.99.1,1.22.23,2.44.42,3.65.56,3.78,5.81,4.53,7.84,1.57,9.35-13.65,13.26-30.4,11.19-46.8Z"/>
  <path class="cls-1" d="m745.22,895.71c.43-.64.68-1.36.74-2.14l-.08-1.16c-.16-.74-.48-1.41-.98-1.99-.49-.55-.97-1.11-1.46-1.67-.36-.45-.8-.78-1.33-.98-.5-.31-1.04-.47-1.64-.49-.59-.07-1.16.02-1.69.25-.55.15-1.03.41-1.45.8l-.73.83c-.44.65-.69,1.36-.75,2.14l.08,1.17c.16.74.48,1.4.98,1.99.49.55.98,1.1,1.46,1.67.36.44.81.77,1.33.98.5.31,1.05.47,1.64.49.59.06,1.16-.02,1.69-.25.56-.15,1.03-.41,1.45-.81l.74-.83Z"/>
  <path class="cls-1" d="m742.67,970.6c-5.57-.38-6.16,8.28-.59,8.65,5.57.37,6.16-8.27.59-8.65Z"/>
  <path class="cls-1" d="m756.45,1077.26c-.23-.53-.57-.95-1.03-1.3-.39-.41-.87-.7-1.42-.88-.57-.21-1.13-.28-1.71-.19-.58,0-1.13.12-1.65.4l-.92.61c-.57.51-.98,1.12-1.24,1.83l-.23,1.15c-.04.78.1,1.51.45,2.22.45,1.07.9,2.14,1.34,3.23.24.52.58.95,1.04,1.29.39.42.86.71,1.41.88.57.22,1.14.28,1.72.2.58.02,1.13-.13,1.64-.41l.93-.61c.57-.51.98-1.12,1.24-1.83l.23-1.14c.05-.78-.1-1.52-.44-2.22-.45-1.07-.9-2.15-1.35-3.23Z"/>
  <path class="cls-1" d="m713.71,933.82l-.83-.74c-.64-.44-1.36-.68-2.14-.74l-1.16.08c-.75.17-1.41.49-1.99.98-.56.49-1.11.97-1.67,1.45-.45.37-.78.81-.99,1.34-.31.5-.47,1.04-.49,1.65-.06.59.02,1.16.26,1.69.14.56.4,1.03.8,1.45l.83.74c.65.44,1.36.68,2.14.73l1.16-.07c.75-.16,1.41-.49,1.99-.98.56-.49,1.11-.97,1.66-1.45.45-.37.78-.82.99-1.33.31-.5.47-1.05.48-1.65.06-.59-.02-1.16-.26-1.69-.14-.55-.4-1.03-.8-1.45Z"/>
  <path class="cls-1" d="m774.06,924.08c-5.56-.37-6.16,8.28-.58,8.65,5.57.38,6.16-8.27.58-8.65Z"/>
  <path class="cls-1" d="m811.25,815.19c-5.57-.38-6.16,8.27-.58,8.65,5.56.38,6.16-8.27.58-8.65Z"/>
  <path class="cls-1" d="m1178.74,1118.9c-1.04-3.2-2.31-6.32-4-9.26-1.7-2.95-3.71-6.31-6.44-8.44-3.73-2.9-8.31-1.61-11.04,1.88-2.27,2.89-3.39,6.78-4.08,10.34-1.43,7.36-.16,15.05,1.81,22.2.97,3.56,2.01,7.2,3.39,10.62,1.16,2.87,3.32,5.48,6.36,6.24,1.42,1.13,3.07,1.9,5.02,2.13,8.61,1.01,10.38-9.94,11.04-16.25.68-6.49-.03-13.25-2.06-19.46Z"/>
  <path class="cls-1" d="m1189.59,1206.44c-5.56-.38-6.16,8.27-.58,8.64,5.57.38,6.16-8.27.58-8.64Z"/>
  <path class="cls-1" d="m1173.5,1258.7c-5.57-.38-6.16,8.27-.59,8.64,5.57.38,6.17-8.26.59-8.64Z"/>
  <path class="cls-1" d="m1161.61,1179.43c-5.56-.38-6.16,8.27-.58,8.65,5.56.37,6.16-8.27.58-8.65Z"/>
  <path class="cls-1" d="m1206.08,1171.46c-5.56-.37-6.16,8.27-.59,8.65,5.57.37,6.17-8.27.59-8.65Z"/>
  <path class="cls-1" d="m1109.82,1110.02c-5.57-.37-6.16,8.28-.59,8.65,5.57.38,6.17-8.27.59-8.65Z"/>
  <path class="cls-1" d="m982.33,930.34c-5.56-.38-6.16,8.27-.58,8.65,5.57.38,6.16-8.27.58-8.65Z"/>
  <path class="cls-1" d="m1131.02,804.79c-.69-.33-1.41-.47-2.12-.44-.79-.39-1.7-.54-2.6-.29-13.89,3.81-25.19,15.47-28.54,29.53l-.04.17c-1.59,3.21-2.95,6.55-4.02,10-.96,3.11,1.43,5.36,3.91,5.66.95,2.25,2.6,4.04,5.31,4.91,4.05,1.29,8.46-.24,11.28-3.28,3-3.23,4.47-7.56,6.2-11.54,4.26-9.82,8.52-19.62,12.77-29.44.85-1.96-.35-4.4-2.16-5.28Z"/>
  <path class="cls-1" d="m859.8,1489.59c-10.71-4.9-22.19-8.06-33.89-9.42-1.13-.13-2.27-.23-3.4-.33-4.46-.57-8.99-.66-13.47-.27l-.59.02c-.71.05-1.42.13-2.12.27-1.37.19-2.74.4-4.09.66-3.15.63-4.17,4.08-2.7,6.6-.84.32-1.59.88-2.07,1.59-1.43,2.08-.66,4.52,1.15,6.02,17.55,14.53,44.04,14.99,62.6,2.22,2.96-2.03,1.19-6.16-1.42-7.36Z"/>
  <path class="cls-1" d="m909.01,1526.37c-5.57-.38-6.16,8.27-.58,8.64,5.57.38,6.16-8.26.58-8.64Z"/>
  <path class="cls-1" d="m940.38,1503.39c-5.56-.38-6.16,8.28-.58,8.65,5.57.38,6.16-8.27.58-8.65Z"/>
  <path class="cls-1" d="m888.56,1457.51c-5.56-.38-6.16,8.27-.58,8.65,5.57.38,6.16-8.27.58-8.65Z"/>
  <path class="cls-1" d="m807.49,1404.51c.49.57.97,1.11,1.46,1.67.37.46.8.78,1.34.99.49.31,1.04.47,1.64.48.59.07,1.16,0,1.7-.25.54-.14,1.03-.41,1.45-.8l.73-.83c.44-.65.68-1.36.74-2.14l-.07-1.17c-.16-.74-.49-1.4-.98-1.98-.49-.56-.97-1.11-1.46-1.67-.36-.45-.8-.78-1.33-.98-.5-.31-1.04-.48-1.64-.49-.59-.07-1.15.02-1.69.25-.55.14-1.04.41-1.46.81l-.74.82c-.43.65-.68,1.36-.74,2.15l.07,1.16c.16.74.48,1.4.98,1.98Z"/>
  <path class="cls-1" d="m979.96,1358.27c-.36-.44-.8-.78-1.33-.98-.5-.31-1.04-.47-1.64-.49l-1.16.08c-.75.16-1.41.48-1.99.98l-.73.83c-.44.64-.69,1.36-.75,2.14-.03.52-.07,1.04-.11,1.56-.06.59.02,1.16.26,1.7.14.55.4,1.03.79,1.45.37.45.81.78,1.34.99.5.3,1.04.46,1.64.48l1.16-.08c.75-.16,1.41-.48,1.99-.98l.74-.83c.43-.64.68-1.36.74-2.14.03-.52.07-1.04.11-1.56.06-.59-.03-1.15-.26-1.7-.14-.55-.41-1.03-.8-1.45Z"/>
  <path class="cls-1" d="m950.48,1215.34c-5.56-.37-6.16,8.27-.58,8.66,5.57.37,6.16-8.28.58-8.66Z"/>
  <path class="cls-1" d="m957.09,1071.43c-5.57-.38-6.16,8.27-.58,8.65,5.57.38,6.16-8.27.58-8.65Z"/>
  <path class="cls-5" d="m1372.81,1502.74l-75.38-48.5c-6.6-4.25-14.86-4.97-22.09-1.94l-82.68,34.6c-18.23,7.63-37.28-8.95-32.25-28.06l22.83-86.66c1.99-7.59.13-15.67-4.98-21.62l-58.45-67.93c-12.88-14.99-3.01-38.24,16.72-39.35l89.48-5.08c7.83-.45,14.95-4.72,19.02-11.42l46.55-76.59c10.26-16.88,35.43-14.67,42.59,3.74l32.48,83.54c2.85,7.31,9.1,12.76,16.74,14.56l87.22,20.61c19.23,4.54,24.9,29.15,9.6,41.66l-69.41,56.69c-6.08,4.97-9.32,12.61-8.68,20.42l7.36,89.32c1.62,19.68-20.03,32.68-36.65,22Z"/>
  <path class="cls-1" d="m1402.31,1277.79c.9.74,1.93,1.34,3.01,1.82,2.08.95,4.35,1.5,6.57,2,2.67.59,5.37,1.04,8.09,1.3,2.85.27,5.76.39,8.61.19,2.69-.19,5.21-1.04,6.34-3.69.37-.87-.09-2.21-.93-2.65-.68-.37-1.36-.72-2.05-1.05l-.76-.78c-4.55-2.39-9.36-4.22-14.38-5.31-2.52-.55-5.08-.94-7.65-1.16-2.32-.19-5.12-.59-7.31.36-1.19.52-1.9,1.41-2.22,2.46-.59.41-1.01,1.13-1.03,1.81-.05,2.42,1.69,3.86,3.71,4.71Z"/>
  <path class="cls-1" d="m1374.81,1279.22c.15-2.96-4.46-3.2-4.6-.22-.15,2.96,4.46,3.2,4.6.22Z"/>
  <path class="cls-1" d="m1400.07,1291.91c.15-2.97-4.46-3.21-4.6-.23s4.46,3.21,4.6.23Z"/>
  <path class="cls-1" d="m1411.82,1289.47c-.15,2.96,4.46,3.21,4.6.23.15-2.97-4.45-3.2-4.6-.23Z"/>
  <path class="cls-1" d="m1382.36,1309.08c.15-2.95-4.46-3.19-4.6-.21-.15,2.95,4.46,3.19,4.6.21Z"/>
  <path class="cls-1" d="m1441.13,1301.17c.15-2.97-4.45-3.2-4.6-.23-.15,2.96,4.46,3.2,4.6.23Z"/>
  <polygon class="cls-1" points="1464.07 1280.81 1463.69 1281.26 1463.32 1282.4 1463.29 1282.99 1463.45 1283.9 1463.88 1284.66 1464.61 1285.18 1465.48 1285.41 1466.1 1285.36 1467.14 1284.82 1467.52 1284.37 1467.89 1283.22 1467.92 1282.63 1467.77 1281.73 1467.33 1280.97 1466.61 1280.45 1465.74 1280.21 1465.12 1280.27 1464.07 1280.81"/>
  <path class="cls-1" d="m1205.28,1458.87c-.08-.86-.66-1.79-1.55-2.01-1.79-.42-3.59-.64-5.37-.65-4.88-.23-9.8.87-14.14,3.12-1.78.93-1.51,3.59.35,4.23,6.41,2.25,13.87,1.37,19.51-2.46.77-.53,1.31-1.23,1.21-2.23Z"/>
  <path class="cls-1" d="m1222.61,1453.58c.15-2.97-4.46-3.2-4.61-.23-.14,2.96,4.46,3.2,4.61.23Z"/>
  <path class="cls-1" d="m1198.43,1442.81c.15-2.96-4.46-3.2-4.61-.23-.15,2.97,4.46,3.2,4.61.23Z"/>
  <path class="cls-1" d="m1213.44,1465.73c.15-2.96-4.46-3.2-4.61-.22-.14,2.96,4.46,3.19,4.61.22Z"/>
  <path class="cls-1" d="m1246.22,1445.16c.15-2.96-4.45-3.2-4.6-.22-.15,2.96,4.46,3.2,4.6.22Z"/>
  <polygon class="cls-1" points="1266.16 1436.19 1266.69 1435.71 1267.2 1435 1267.45 1434.11 1267.29 1433.22 1266.85 1432.45 1266.4 1432.07 1265.26 1431.7 1264.64 1431.75 1263.59 1432.29 1263.07 1432.77 1262.55 1433.49 1262.31 1434.37 1262.46 1435.26 1262.91 1436.02 1263.35 1436.41 1264.5 1436.78 1265.12 1436.73 1266.16 1436.19"/>
  <path class="cls-1" d="m1233.13,1424.35c.15-2.96-4.46-3.2-4.61-.23-.15,2.97,4.46,3.2,4.61.23Z"/>
  <path class="cls-1" d="m1283.59,1275.21l.26-.54.08-1.01v-.42s.08-.2.08-.2l.19-.32.32-.84v-.93s-.37-.8-.37-.8l-.61-.62c-.52-.31-1.16-.49-1.76-.32l-.56.2-.87.79-.59,1.09-.22.64-.2,1.24v.35s.09.93.09.93l.37.8.62.63.84.31h.92c.57-.15,1.12-.47,1.43-.98Z"/>
  <path class="cls-1" d="m1308.12,1315.09c.15-2.96-4.45-3.19-4.6-.22-.15,2.96,4.46,3.2,4.6.22Z"/>
  <path class="cls-1" d="m1251.05,1306.73c.15-2.96-4.46-3.2-4.61-.22-.14,2.95,4.46,3.2,4.61.22Z"/>
  <path class="cls-1" d="m1178.85,1277.94c.15-2.96-4.46-3.2-4.6-.22-.14,2.96,4.46,3.2,4.6.22Z"/>
  <polygon class="cls-1" points="1144.54 1264.76 1145.05 1264.04 1145.29 1263.16 1145.24 1262.55 1144.7 1261.51 1144.25 1261.13 1143.1 1260.76 1142.6 1260.73 1141.7 1260.88 1140.93 1261.32 1140.42 1262.04 1140.18 1262.91 1140.23 1263.53 1140.77 1264.58 1141.22 1264.96 1142.37 1265.34 1142.87 1265.36 1143.77 1265.21 1144.54 1264.76"/>
  <path class="cls-1" d="m1380.83,1425.6c.15-2.95-4.45-3.2-4.6-.22-.15,2.96,4.46,3.2,4.6.22Z"/>
  <path class="cls-1" d="m1368.5,1430.03c.15-2.95-4.46-3.19-4.6-.21-.15,2.95,4.46,3.19,4.6.21Z"/>
  <path class="cls-1" d="m1381.55,1451.87c.15-2.97-4.46-3.21-4.61-.23-.15,2.96,4.46,3.2,4.61.23Z"/>
  <path class="cls-1" d="m1379.77,1477.5c.15-2.96-4.46-3.2-4.6-.23-.15,2.97,4.45,3.2,4.6.23Z"/>
  <path class="cls-1" d="m1313.81,1186.04c.85.6,2.13.71,2.91-.09,2.19-.32,4.27-1.2,6.08-2.63,1.54-1.23.52-4.01-1.43-4.01-.45,0-.89.04-1.33.1-.5-.86-1.47-1.42-2.49-1.14-.92.23-1.8.54-2.66.88-.78.19-1.52.54-2.19.98-1.24.63-2.42,1.35-3.56,2.19-.74.54-.89,1.71-.6,2.49.29.8,1.12,1.54,2.03,1.52.88-.02,1.74-.15,2.59-.35l.66.06Z"/>
  <path class="cls-1" d="m1321.06,1495.29c.15-2.96-4.46-3.2-4.6-.23-.15,2.96,4.46,3.2,4.6.23Z"/>
  <path class="cls-2" d="m1300.27,1055.7c-6.72-5.97-14.99-6.28-23.12-3.23-2.91,1.1-5.82,2.18-8.76,3.2-.34.1-4.49,1.47-5.38,1.75-6.47,2.05-12.99,3.93-19.57,5.62-12.45,3.22-25.07,5.8-37.8,7.75-6.01.93-12.06,1.71-18.11,2.36-2.7.28-5.39.55-8.09.78-1.69.15-3.38.25-5.06.4l-.5.06-.99.04c-12.88.64-25.76.85-38.65.39-12.92-.47-25.82-1.5-38.65-3.1-6.08-.76-12.16-1.65-18.21-2.65-2.7-.45-5.38-.92-8.07-1.42-1.68-.31-3.35-.65-5.02-.95l-.35-.07c-.72-.16-1.45-.31-2.17-.47-25.08-5.4-49.7-12.88-73.55-22.31-11.77-4.65-23.35-9.77-34.71-15.37-.47-.22-2.15-1.07-2.63-1.32-.85-.44-1.72-.88-2.57-1.33-2.72-1.43-5.44-2.88-8.14-4.35-5.68-3.12-11.31-6.34-16.86-9.7-20.67-12.47-40.84-25.87-60.54-39.85-18.9-13.42-37.33-27.53-55.06-42.47-4.05-3.41-8.07-6.88-12.05-10.4-.82-.75-3.82-3.44-4.29-3.86-2.52-2.29-5.03-4.61-7.52-6.96-8.34-7.83-16.48-15.88-24.38-24.17-15.96-16.73-30.94-34.41-44.65-53.04-3.29-4.48-6.51-9.01-9.66-13.58-.41-.62-.82-1.22-1.23-1.82-.29-.46-1.15-1.74-1.46-2.21-1.87-2.85-3.7-5.72-5.51-8.61-6.1-9.78-11.85-19.79-17.21-29.98-5.43-10.33-10.47-20.88-15.08-31.61-2.27-5.28-4.44-10.61-6.51-15.99-1.04-2.7-2.06-5.42-3.04-8.14-1.44-3.97-2.18-6.12-2.71-7.73-8.47-25.68-15.55-51.77-20.89-78.29-5.48-27.25-9.1-54.79-11.24-82.48-.01-.23-.09-1.35-.13-1.91-.06-1.14-.14-2.27-.2-3.41-.19-3.27-.34-6.56-.48-9.85-.29-6.93-.47-13.88-.55-20.82-.15-13.88.14-27.77.86-41.63,1.41-27.35,4.52-54.63,9.3-81.61.57-3.24,1.17-6.47,1.79-9.69.2-1.07.42-2.14.63-3.21.11-.53.53-2.58.64-3.09,1.43-6.78,2.99-13.56,4.63-20.29,3.22-13.11,6.86-26.11,10.88-38.99,6.97-22.24,15.13-44.11,24.27-65.56,4.9-11.52,10.09-22.91,15.55-34.17,1.31-2.7,2.64-5.39,3.98-8.07l.28-.57.43-.83c.61-1.2,1.22-2.39,1.83-3.58,3.08-5.95,6.23-11.86,9.48-17.72,11.95-21.63,24.97-42.7,39.2-62.91,7.16-10.17,14.63-20.12,22.44-29.79,3.63-4.52,7.34-8.95,11.12-13.34.55-.63,1.1-1.26,1.65-1.88l1.1-1.25c2.33-2.56,4.66-5.13,7.04-7.65,7.81-8.29,15.96-16.25,24.43-23.87.7-.63,1.33-1.31,1.92-2.02,3.08-3.15,5.09-7.3,5.21-12.35,0-.56-.01-1.14-.05-1.71.05-4.9-1.54-9.78-5.09-13.5l-.71-.69c-3.4-3.97-8.11-6.65-13.67-6.44-.53.01-1.04.05-1.57.07-.93.03-1.85.1-2.76.14-83.83,3.72-165.9,23.58-242.61,57.66-74.51,33.09-143.86,79.42-202.64,135.94-56.97,54.79-103.8,118.92-136.06,191.17-35.69,79.92-54.57,167.74-56.75,255.17-2.22,89.07,12.58,177.87,43.83,261.29,32.63,87.13,85.18,166.04,148.86,233.56,64.21,68.07,139.19,125.39,226.48,160.34,78.17,31.31,163.61,44.99,247.65,42.34,86.42-2.73,171.69-21.49,251.14-55.65,39.67-17.06,77.58-38.11,112.93-62.89,35.32-24.78,68.17-54.81,91.94-91.08,11.77-17.95,21.36-37.58,27.79-58.06,2.55-8.15.41-16.81-6.01-22.5Z"/>
  <path class="cls-3" d="m1269.76,1136.31c-58.02,69.84-136.56,123.07-222.18,152.95-96.08,33.55-200.87,37.17-299.19,10.98-81.65-21.76-159.11-60.49-224.95-113.51-60.76-48.91-111.47-109.61-149.84-177.48-38.22-67.6-64.17-142.05-77.46-218.51-13.45-77.4-14.08-157.07-1.66-234.65,12.52-78.15,38.22-154.04,76.63-223.28,20.41-36.79,44.35-71.81,71.69-103.81,35.1-41.07,76.34-76.05,121.03-106.28,44.55-30.14,91.68-57.28,139.41-82.05,21.39-11.09,43.16-21.95,65.56-30.65-75.16,6.23-148.61,25.35-217.69,56.04-74.51,33.09-143.86,79.42-202.64,135.94-56.97,54.79-103.8,118.92-136.06,191.17-35.69,79.92-54.57,167.74-56.75,255.17-2.22,89.07,12.58,177.87,43.83,261.29,32.63,87.13,85.18,166.04,148.86,233.56,64.21,68.07,139.19,125.39,226.48,160.34,78.17,31.31,163.61,44.99,247.65,42.34,86.42-2.73,171.69-21.49,251.14-55.65,39.67-17.06,77.58-38.11,112.93-62.89,35.32-24.78,68.17-54.81,91.94-91.08,6.99-10.66,13.18-21.92,18.43-33.59-8.92,11.32-17.95,22.55-27.17,33.64Z"/>
  <path class="cls-4" d="m315.95,321.31c-1.89-.92-4.65-.94-6.34.56-2.47-2.11-6.46-2.53-8.78.96-6.1,9.11-11.06,19.05-14.55,29.43-3.32,9.83-6.1,20.7.38,29.84,1.82,2.55,6.3,2.64,8.45.57,15.06-14.45,24.06-34.73,24.15-55.65,0-2.41-1.07-4.63-3.31-5.71Z"/>
  <path class="cls-4" d="m306.55,409.37c-7.69-.53-8.51,11.44-.81,11.94,7.69.54,8.52-11.43.81-11.94Z"/>
  <path class="cls-4" d="m335.99,455.78c-7.69-.52-8.52,11.43-.81,11.96,7.69.52,8.51-11.43.81-11.96Z"/>
  <path class="cls-4" d="m331.61,498.44c-7.69-.51-8.52,11.43-.81,11.95,7.69.52,8.52-11.43.81-11.95Z"/>
  <path class="cls-4" d="m302.88,441.7c-7.69-.52-8.51,11.43-.81,11.95,7.69.51,8.52-11.43.81-11.95Z"/>
  <path class="cls-4" d="m351.68,399.09c-7.7-.51-8.52,11.43-.81,11.96,7.69.52,8.52-11.43.81-11.96Z"/>
  <path class="cls-4" d="m251.38,349.35c-7.7-.52-8.52,11.44-.81,11.96,7.69.53,8.51-11.43.81-11.96Z"/>
  <path class="cls-4" d="m378.04,15.47c-7.69-.53-8.51,11.43-.8,11.94,7.69.53,8.51-11.42.8-11.94Z"/>
  <path class="cls-4" d="m615.41,265.9c-7.69-.52-8.51,11.44-.8,11.95,7.68.53,8.52-11.43.8-11.95Z"/>
  <path class="cls-4" d="m603.84,412l-1.14-1.01c-.9-.6-1.89-.95-2.96-1.03-.49-.03-.98-.07-1.48-.1-.82-.09-1.6.03-2.33.36-.76.2-1.43.57-2.01,1.12-.62.49-1.07,1.11-1.36,1.83-.42.69-.65,1.44-.67,2.27.03.54.07,1.07.1,1.61.21,1.03.67,1.94,1.35,2.74l1.14,1.02c.91.6,1.89.94,2.96,1.02.5.04.99.07,1.48.1.82.08,1.6-.03,2.34-.36.75-.19,1.42-.57,2.01-1.11.62-.5,1.07-1.12,1.36-1.83.42-.69.65-1.45.68-2.27-.04-.55-.07-1.07-.1-1.61-.22-1.03-.68-1.94-1.36-2.75Z"/>
  <path class="cls-4" d="m621.61,169.83c-3.46,2.65-6.13,6.65-7.32,10.84-1.29,4.46-1.15,8.79.16,13.13-.23,2.22-.31,4.44-.21,6.67.11,2.58,1.3,5.25,4,6.07,2.66.8,5.26-.09,6.94-2.29,6.64-8.65,9.02-20.56,6.25-31.11-1.18-4.51-6.14-6.12-9.81-3.31Z"/>
  <path class="cls-4" d="m214.59,961.18c-7.69-.52-8.51,11.42-.81,11.95,7.7.53,8.52-11.43.81-11.95Z"/>
  <path class="cls-4" d="m276.15,1016.11c-7.69-.52-8.52,11.44-.81,11.97,7.69.51,8.52-11.44.81-11.97Z"/>
  <path class="cls-4" d="m239.72,1061.51c-7.69-.52-8.51,11.44-.8,11.96,7.69.53,8.51-11.43.8-11.96Z"/>
  <path class="cls-4" d="m256.77,959.68c-7.69-.52-8.51,11.44-.81,11.96,7.69.53,8.51-11.43.81-11.96Z"/>
  <path class="cls-4" d="m463.31,993.99c-7.69-.53-8.52,11.43-.81,11.95,7.69.53,8.51-11.43.81-11.95Z"/>
  <path class="cls-4" d="m729.89,1018.16c-.5-.61-1.12-1.07-1.84-1.36-.69-.43-1.45-.65-2.27-.67-.54.03-1.07.07-1.6.1-1.04.21-1.94.67-2.74,1.36l-1.02,1.15c-.6.89-.94,1.88-1.01,2.96-.04.48-.07.96-.1,1.44-.09.82.03,1.6.37,2.34.18.76.56,1.42,1.1,2.01.5.61,1.12,1.08,1.84,1.36.69.41,1.45.64,2.27.67.54-.04,1.07-.07,1.6-.11,1.03-.22,1.95-.66,2.74-1.35l1.02-1.16c.6-.89.95-1.88,1.02-2.95.03-.49.06-.96.1-1.44.09-.83-.03-1.61-.36-2.34-.19-.77-.56-1.43-1.11-2.01Z"/>
  <path class="cls-4" d="m705.78,1097.45c-7.69-.53-8.52,11.42-.81,11.95,7.69.53,8.52-11.43.81-11.95Z"/>
  <path class="cls-4" d="m883.89,1058.74c-7.68-.52-8.51,11.43-.8,11.96,7.69.52,8.52-11.44.8-11.96Z"/>
  <path class="cls-4" d="m927.26,1018.17c-7.69-.53-8.52,11.43-.81,11.94,7.69.53,8.51-11.41.81-11.94Z"/>
  <path class="cls-4" d="m940.53,1036.47c-7.7-.53-8.53,11.43-.81,11.95,7.69.53,8.51-11.42.81-11.95Z"/>
  <path class="cls-4" d="m989.06,985.88l-.13-.14c-2.15-1.91-4.86-1.83-7.19-.5l-1.1.39c-2.11-1-4.78-.96-6.54.8-2.78,2.8-5.38,5.81-7.64,9.04-1.88,2.71-3.99,5.71-4.73,8.97-.99,4.3-.45,8.91,3.48,11.6,4.79,3.28,10.14.24,14.23-2.59,2.84-1.98,5.27-4.43,7.44-7.12,2.14-2.63,4.07-5.77,5.2-8.96,1.43-4.05.67-9.13-3.03-11.49Z"/>
  <path class="cls-5" d="m312.45,1368.56l-92.9-70.02c-8.13-6.13-18.76-7.87-28.41-4.65l-110.35,36.83c-24.33,8.13-47.4-15.18-39.06-39.42l37.89-109.99c3.32-9.63,1.68-20.28-4.37-28.46l-69.13-93.57c-15.24-20.63-.21-49.78,25.43-49.32l116.33,2.05c10.18.18,19.8-4.67,25.72-12.95l67.63-94.66c14.91-20.87,47.27-15.58,54.77,8.94l34,111.27c2.98,9.74,10.55,17.39,20.26,20.45l110.93,35.08c24.45,7.72,29.42,40.14,8.42,54.84l-95.31,66.72c-8.35,5.85-13.29,15.41-13.2,25.61l.93,116.33c.2,25.64-29.08,40.38-49.56,24.94Z"/>
  <path class="cls-1" d="m372.29,1080.2c1.09,1.04,2.37,1.91,3.72,2.65,2.6,1.42,5.49,2.36,8.32,3.21,3.39,1.03,6.85,1.88,10.34,2.47,3.66.63,7.42,1.06,11.14,1.07,3.5.03,6.84-.84,8.56-4.16.56-1.08.09-2.86-.95-3.54-.83-.52-1.69-1.04-2.56-1.54l-.9-1.09c-5.66-3.52-11.71-6.34-18.11-8.24-3.22-.95-6.49-1.72-9.8-2.24-2.99-.48-6.57-1.27-9.51-.24-1.59.57-2.6,1.65-3.11,2.97-.81.47-1.42,1.35-1.51,2.25-.3,3.12,1.82,5.15,4.36,6.44Z"/>
  <path class="cls-1" d="m336.57,1079.41c.48-3.82-5.47-4.57-5.94-.74-.47,3.82,5.47,4.57,5.94.74Z"/>
  <path class="cls-1" d="m368.03,1098.25c.47-3.82-5.46-4.56-5.94-.74-.48,3.83,5.46,4.57,5.94.74Z"/>
  <path class="cls-1" d="m383.48,1096.25c-.48,3.82,5.46,4.56,5.93.74.48-3.83-5.47-4.58-5.93-.74Z"/>
  <path class="cls-1" d="m343.47,1118.79c.48-3.82-5.47-4.57-5.94-.73-.48,3.82,5.46,4.56,5.94.73Z"/>
  <path class="cls-1" d="m420.3,1114.19c.47-3.83-5.47-4.57-5.94-.74-.47,3.83,5.46,4.56,5.94.74Z"/>
  <path class="cls-1" d="m451.96,1090.04l-.54.55c-.33.43-.52.92-.59,1.44l-.1.78.11,1.19.5,1.03.88.72,1.12.4h.8c.52-.09.98-.28,1.4-.61l.54-.54c.32-.43.52-.92.59-1.45l.1-.77-.12-1.18-.49-1.03-.88-.73-1.12-.4h-.8c-.52.1-.98.28-1.4.6Z"/>
  <path class="cls-1" d="m99.79,1295.64c-.02-1.1-.68-2.37-1.82-2.73-2.27-.73-4.57-1.19-6.88-1.37-6.29-.77-12.76.18-18.6,2.67-2.4,1.02-2.31,4.49.03,5.52,8.08,3.53,17.83,3.12,25.49-1.3,1.06-.61,1.82-1.48,1.78-2.79Z"/>
  <path class="cls-1" d="m122.75,1290.47c.47-3.82-5.47-4.57-5.94-.73-.47,3.81,5.47,4.56,5.94.73Z"/>
  <path class="cls-1" d="m92.49,1274.18c.47-3.82-5.47-4.57-5.95-.74-.47,3.83,5.47,4.57,5.95.74Z"/>
  <path class="cls-1" d="m109.7,1305.32c.48-3.82-5.47-4.58-5.94-.75-.48,3.84,5.46,4.58,5.94.75Z"/>
  <path class="cls-1" d="m154.12,1281.84c.48-3.82-5.46-4.57-5.94-.73-.47,3.82,5.47,4.56,5.94.73Z"/>
  <path class="cls-1" d="m180.8,1272.15l.73-.57.73-.88.4-1.12-.11-1.17-.5-1.03-.54-.55c-.43-.32-.92-.52-1.45-.58h-.8c-.52.09-.99.28-1.4.6l-.73.58-.74.88-.4,1.11.12,1.18.5,1.03.54.55c.43.32.91.52,1.45.59l.8-.02c.52-.09.99-.28,1.41-.59Z"/>
  <path class="cls-1" d="m139.18,1253.63c.48-3.82-5.46-4.56-5.94-.74-.47,3.83,5.47,4.58,5.94.74Z"/>
  <path class="cls-1" d="m218.86,1065.42l.38-.66.2-1.3.05-.56.11-.25.27-.38.49-1.07.09-1.19-.4-1.08-.74-.87c-.64-.44-1.46-.73-2.25-.58l-.75.22c-.48.2-.89.51-1.2.93-.36.41-.61.89-.88,1.35l-.35.82c-.17.52-.32,1.04-.38,1.57l-.02.46.02,1.21.4,1.08.74.87,1.06.5,1.19.1c.74-.15,1.49-.52,1.94-1.16Z"/>
  <path class="cls-1" d="m246.78,1119.43c.47-3.83-5.46-4.56-5.94-.74-.48,3.83,5.47,4.57,5.94.74Z"/>
  <path class="cls-1" d="m173.71,1103.1c.47-3.83-5.47-4.56-5.94-.74-.48,3.83,5.47,4.57,5.94.74Z"/>
  <path class="cls-1" d="m83.01,1058.88c.48-3.81-5.47-4.56-5.94-.73-.47,3.82,5.47,4.57,5.94.73Z"/>
  <path class="cls-1" d="m39.85,1038.51l.74-.87.4-1.11v-.81c-.08-.53-.29-.99-.61-1.4l-.55-.54c-.43-.33-.91-.54-1.45-.59l-.65-.08-1.17.11-1.03.5-.74.88-.39,1.11v.8c.08.53.29.99.61,1.41l.54.55c.43.31.92.52,1.45.59l.65.07,1.18-.11,1.03-.51Z"/>
  <path class="cls-1" d="m330.26,1269.47c.47-3.81-5.46-4.56-5.94-.73-.48,3.81,5.47,4.57,5.94.73Z"/>
  <path class="cls-1" d="m313.88,1274.03c.47-3.82-5.47-4.56-5.93-.73-.48,3.82,5.46,4.56,5.93.73Z"/>
  <path class="cls-1" d="m328.65,1303.54c.48-3.83-5.46-4.57-5.94-.75-.48,3.83,5.47,4.57,5.94.75Z"/>
  <path class="cls-1" d="m323.89,1336.55c.48-3.81-5.46-4.56-5.94-.74-.47,3.83,5.46,4.57,5.94.74Z"/>
  <path class="cls-1" d="m266.56,952.91c1.05.86,2.68,1.12,3.78.16,2.86-.2,5.65-1.13,8.12-2.82,2.11-1.43,1.06-5.14-1.47-5.34-.58-.03-1.16-.03-1.73,0-.56-1.15-1.77-1.97-3.11-1.72-1.2.22-2.38.54-3.54.89-1.03.19-2.02.54-2.93,1.06-1.66.7-3.26,1.53-4.82,2.49-.99.62-1.31,2.13-1.01,3.19.3,1.06,1.3,2.09,2.48,2.15,1.13.06,2.27-.02,3.38-.2l.85.15Z"/>
</svg>