<svg xmlns="http://www.w3.org/2000/svg" width="21.727" height="21.724" viewBox="0 0 21.727 21.724">
  <g id="Group_10484" data-name="Group 10484" transform="translate(2416.21 -809.412)">
    <path id="Path_13946" data-name="Path 13946" d="M-2244.356,819.416q-1.582,0-3.164,0a.882.882,0,0,1-1-.992q0-3.177,0-6.354a2.5,2.5,0,0,1,1.943-2.571,2.9,2.9,0,0,1,.646-.08q2.406-.01,4.811,0a2.484,2.484,0,0,1,2.518,1.944,3.037,3.037,0,0,1,.079.672q.01,2.38,0,4.759a2.489,2.489,0,0,1-1.947,2.542,3.344,3.344,0,0,1-.724.079C-2242.247,819.42-2243.3,819.416-2244.356,819.416Zm-2.536-1.642c.123.006.208.013.294.013q2.773,0,5.545,0a.832.832,0,0,0,.9-.912q0-2.459,0-4.917a.831.831,0,0,0-.9-.912q-2.459,0-4.917,0a.834.834,0,0,0-.921.921q0,2.759,0,5.519Z" transform="translate(-155.966)" fill="#0c6094"/>
    <path id="Path_13947" data-name="Path 13947" d="M-2406.235,815.136c0,1.1-.019,2.2.007,3.3a.9.9,0,0,1-1.017,1c-2.11-.011-4.221,0-6.331-.005a2.494,2.494,0,0,1-2.546-1.911,2.663,2.663,0,0,1-.082-.619q-.01-2.472,0-4.944a2.47,2.47,0,0,1,1.938-2.441,3.151,3.151,0,0,1,.7-.081q2.368-.01,4.735,0a2.486,2.486,0,0,1,2.547,1.975,3.291,3.291,0,0,1,.052.7C-2406.232,813.113-2406.235,814.125-2406.235,815.136Zm-1.628,2.66a.976.976,0,0,0,.024-.135c0-1.943.006-3.886,0-5.829a.814.814,0,0,0-.827-.777q-2.548,0-5.1,0a.814.814,0,0,0-.812.733,4.007,4.007,0,0,0-.028.469q0,2,0,4c0,.235-.006.471.017.7a.834.834,0,0,0,.931.836h5.795Z" transform="translate(0 -0.01)" fill="#0c6094"/>
    <path id="Path_13948" data-name="Path 13948" d="M-2406.248,981.42c0,1.151.024,2.3-.007,3.453a2.354,2.354,0,0,1-2.1,2.185c-1.235.059-2.474.049-3.711.054-.662,0-1.325,0-1.984-.049a2.423,2.423,0,0,1-2.1-2,5.294,5.294,0,0,1-.052-.728q-.007-2.341,0-4.683a2.481,2.481,0,0,1,1.951-2.46,3.08,3.08,0,0,1,.673-.075q3.192-.008,6.383,0a.841.841,0,0,1,.965.958c0,1.116,0,2.232,0,3.349Zm-1.6-2.653a.6.6,0,0,0-.089-.021c-1.96,0-3.921-.007-5.881,0a.726.726,0,0,0-.7.508,1.819,1.819,0,0,0-.088.613c-.007,1.272,0,2.544,0,3.816,0,.322-.01.646.019.966a.83.83,0,0,0,.931.834h4.888a.846.846,0,0,0,.932-.94q0-2.744,0-5.489C-2407.833,978.963-2407.841,978.869-2407.845,978.768Z" transform="translate(-0.004 -155.977)" fill="#0c6094"/>
    <path id="Path_13949" data-name="Path 13949" d="M-2243.287,987.328a4.978,4.978,0,0,1-5-4.989,4.921,4.921,0,0,1,4.974-5,4.92,4.92,0,0,1,5,4.974A4.975,4.975,0,0,1-2243.287,987.328Zm-.011-8.371a3.4,3.4,0,0,0-3.386,3.358,3.459,3.459,0,0,0,3.359,3.4,3.457,3.457,0,0,0,3.412-3.372A3.4,3.4,0,0,0-2243.3,978.956Z" transform="translate(-156.189 -156.191)" fill="#0c6094"/>
  </g>
</svg>
