<svg xmlns="http://www.w3.org/2000/svg" width="18.437" height="22.874" viewBox="0 0 18.437 22.874">
  <g id="Group_13676" data-name="Group 13676" transform="translate(436.427 -13.75)">
    <path id="Path_16924" data-name="Path 16924" d="M-426.037,142.938a2.215,2.215,0,0,1-1.092-.772.459.459,0,0,0-.371-.154q-3.81.006-7.621,0a1.193,1.193,0,0,1-1.262-.915.853.853,0,0,1-.027-.2q0-1.452,0-2.9a.309.309,0,0,1,.232-.337.286.286,0,0,1,.361.145.659.659,0,0,1,.047.28c0,.849,0,1.7,0,2.547,0,.556.181.739.732.739h7.1c-.133-.139-.233-.249-.339-.354-.227-.224-.423-.529-.7-.645a2.574,2.574,0,0,0-.928-.031c-.343,0-.685,0-1.028,0-.248,0-.4-.13-.4-.329s.148-.324.4-.326c.416,0,.833,0,1.286,0a1.883,1.883,0,0,0-.12-.152c-.341-.343-.686-.683-1.026-1.028a1.318,1.318,0,0,1,0-1.964c.445-.449.894-.894,1.379-1.378a4.2,4.2,0,0,1-3.03-1.764,4.044,4.044,0,0,1-.643-3.422,4.177,4.177,0,0,1,4.142-3.162,4.237,4.237,0,0,1,4.089,3.846c.167-.189.291-.345.43-.485a1.319,1.319,0,0,1,2.011-.04c.021.02.045.037.117.1v-2.188c0-.06,0-.119,0-.179.008-.233.133-.371.329-.366s.307.139.312.36c0,.186,0,.372,0,.559,0,.737,0,1.475,0,2.212a.56.56,0,0,0,.18.449c1.007.994,2.005,2,3.006,3a1.336,1.336,0,0,1-.007,2.076q-1.509,1.51-3.021,3.015a.484.484,0,0,0-.158.391c.01.417.007.834,0,1.251a1.167,1.167,0,0,1-1.179,1.2q-.636.019-1.274,0a.454.454,0,0,0-.406.175c-.032.041-.075.073-.109.112a1.919,1.919,0,0,1-.969.641Zm7.478-7.815a2.748,2.748,0,0,0-.32-.532q-1.987-2.009-3.992-4a.676.676,0,0,0-1.057.008q-3.2,3.2-6.4,6.4a.677.677,0,0,0,0,1.057q1.989,1.991,3.98,3.98a.68.68,0,0,0,1.074-.007q.507-.5,1.011-1.01,2.669-2.669,5.335-5.342A3.475,3.475,0,0,0-418.559,135.123Zm-13.959-3.794a3.061,3.061,0,0,0,.523,1.563.188.188,0,0,0,.158.059c.231-.072.457-.159.674-.237l-.186-1.384Zm.578-2.331a3.393,3.393,0,0,0-.595,1.666c.385,0,.747,0,1.11-.005.036,0,.1-.068.1-.109.056-.425.1-.851.153-1.285Zm5.815,0-.771.27c.052.427.1.826.152,1.222.009.062.072.166.113.167.361.013.724.008,1.1.008A3.4,3.4,0,0,0-426.126,129Zm-2.569,2.331v1.129l1.155.114.172-1.244Zm-1.827,1.243,1.153-.113v-1.128H-430.7Zm-.174-1.921h1.329v-1.129l-1.153-.114Zm2-1.128v1.125h1.329l-.179-1.24Zm5.088,11.838c.264,0,.551.016.836,0a.479.479,0,0,0,.458-.445c.024-.291.006-.585.006-.852Zm-5.756-8.243-.942.082a2.316,2.316,0,0,0,.942,1.234Zm0-5.577a2.356,2.356,0,0,0-.942,1.241l.942.084Zm1.605,1.239a2.278,2.278,0,0,0-.938-1.227v1.315Zm1.037,2.546-.151,1.191,1.2-1.191Zm-1.98,3.1a2.418,2.418,0,0,0,.912-1.225l-.912-.078Zm1.6-5.781.565-.186-.907-.632-.03.046Zm-3.862,4.7-.569.179.9.629.035-.048Zm.37-5.475-.037-.05-.9.643.561.178Z" transform="translate(-0.013 -106.315)" fill="#74c1c9"/>
    <path id="Path_16925" data-name="Path 16925" d="M-432.551,16.511h8.653v-.823c0-.261,0-.521,0-.782a.453.453,0,0,0-.617-.485c-.383.093-.762.2-1.145.295-.237.058-.391-.019-.451-.209a.318.318,0,0,1,.268-.41c.4-.108.8-.217,1.21-.311a1.094,1.094,0,0,1,1.39,1.092c.009.535,0,1.071,0,1.642.127,0,.243,0,.358,0a1.19,1.19,0,0,1,1.219,1.236c0,.693,0,1.385,0,2.078,0,.261-.11.4-.313.4s-.327-.134-.328-.409c0-.655,0-1.311,0-1.966,0-.5-.19-.684-.692-.684h-12.089c-.513,0-.7.185-.7.7q0,5.987,0,11.975a2.069,2.069,0,0,1-.007.268.3.3,0,0,1-.319.28.3.3,0,0,1-.312-.289,1.7,1.7,0,0,1,0-.2q0-6.032,0-12.064a1.213,1.213,0,0,1,1.036-1.325q3.925-.994,7.848-1.991l.108-.028c.26-.061.434.019.482.218s-.073.346-.335.413L-431.48,16.2l-1.075.275Z" transform="translate(0)" fill="#74c1c9"/>
    <path id="Path_16926" data-name="Path 16926" d="M-375.864,94.487h3.5a1.171,1.171,0,0,1,.223.008.306.306,0,0,1,.271.308.3.3,0,0,1-.253.32,1.041,1.041,0,0,1-.221.017h-7.054a1.134,1.134,0,0,1-.222-.015.3.3,0,0,1-.261-.315.309.309,0,0,1,.286-.318,1.226,1.226,0,0,1,.2-.005Z" transform="translate(-53.174 -75.917)" fill="#74c1c9"/>
    <path id="Path_16927" data-name="Path 16927" d="M-316.962,259.875a2.2,2.2,0,0,1-.279.539c-.719.743-1.451,1.474-2.189,2.2a.76.76,0,0,1-1.1,0q-1.1-1.079-2.178-2.177a.77.77,0,0,1,.009-1.122q1.074-1.088,2.163-2.162a.758.758,0,0,1,1.1-.012q1.117,1.092,2.206,2.213A2.13,2.13,0,0,1-316.962,259.875Zm-3.241,1.2a1.263,1.263,0,0,1-1.022-1.412,1.234,1.234,0,0,1,1.117-1.044c.6-.064,1.075.3,1.331,1.035l.848-.092c-.043-.047-.075-.085-.11-.12-.584-.584-1.171-1.165-1.749-1.754-.143-.146-.242-.143-.385,0q-.986,1-1.989,1.987c-.158.154-.142.253.008.4.58.567,1.15,1.144,1.724,1.716.045.044.094.084.142.126Zm2.172-.823a1.406,1.406,0,0,0-.8.152.4.4,0,0,1-.607-.411c0-.052.009-.1.008-.156a.568.568,0,0,0-.614-.564.573.573,0,0,0-.541.6.587.587,0,0,0,.631.555c.491-.04.674.217.477.667a1.194,1.194,0,0,0-.119.731Z" transform="translate(-106.703 -228.643)" fill="#74c1c9"/>
    <path id="Path_16928" data-name="Path 16928" d="M-241.071,214.371a1.11,1.11,0,0,1-.278.716c-.164.183-.336.359-.514.529a.316.316,0,0,1-.478.01q-.822-.805-1.628-1.626a.3.3,0,0,1,0-.459,7.487,7.487,0,0,1,.557-.548,1.1,1.1,0,0,1,1.024-.236A1.793,1.793,0,0,1-241.071,214.371Zm-2.183-.62,1.15,1.175c.223-.191.452-.386.363-.724a1.1,1.1,0,0,0-.786-.808C-242.876,213.289-243.069,213.542-243.254,213.752Z" transform="translate(-180.871 -187.093)" fill="#74c1c9"/>
    <path id="Path_16929" data-name="Path 16929" d="M-259.544,314.421a1.539,1.539,0,0,1-.168.278Q-261,316-262.3,317.289a.323.323,0,0,1-.477.013.323.323,0,0,1,.016-.462c.866-.872,1.732-1.743,2.611-2.6a.438.438,0,0,1,.36-.079C-259.7,314.185-259.632,314.323-259.544,314.421Z" transform="translate(-163.197 -282.469)" fill="#74c1c9"/>
    <path id="Path_16930" data-name="Path 16930" d="M-199.756,263.887a1.2,1.2,0,0,1-.142.261q-1.011,1.022-2.033,2.033a.31.31,0,0,1-.458,0,.3.3,0,0,1,0-.441c.678-.688,1.359-1.373,2.053-2.044a.432.432,0,0,1,.36-.054C-199.89,263.663-199.832,263.8-199.756,263.887Z" transform="translate(-219.974 -234.956)" fill="#74c1c9"/>
    <path id="Path_16931" data-name="Path 16931" d="M-214.408,248.58a1.85,1.85,0,0,1-.187.288q-.972.982-1.953,1.955a.325.325,0,0,1-.492.048.333.333,0,0,1,.037-.508c.65-.653,1.3-1.3,1.953-1.955a.318.318,0,0,1,.4-.1A1.187,1.187,0,0,1-214.408,248.58Z" transform="translate(-206.195 -220.52)" fill="#74c1c9"/>
    <path id="Path_16932" data-name="Path 16932" d="M-257.87,241.563c-.083.107-.136.227-.225.273a.537.537,0,0,1-.312-.005c-.05-.01-.092-.071-.134-.113q-.775-.773-1.548-1.548c-.194-.2-.212-.374-.06-.523s.335-.116.525.074q.768.764,1.531,1.533A2.61,2.61,0,0,1-257.87,241.563Z" transform="translate(-165.66 -212.328)" fill="#74c1c9"/>
  </g>
</svg>
