<svg xmlns="http://www.w3.org/2000/svg" width="60.002" height="60.002" viewBox="0 0 60.002 60.002">
  <g id="Icon_ionic-ios-arrow-dropup" data-name="Icon ionic-ios-arrow-dropup" transform="translate(-3.375 -3.375)">
    <path id="Path_16972" data-name="Path 16972" d="M10.794,30.672a2.794,2.794,0,0,1,0-3.938l13.8-13.76a2.781,2.781,0,0,1,3.837-.087l13.6,13.558a2.779,2.779,0,1,1-3.923,3.938L26.429,18.873l-11.7,11.813A2.781,2.781,0,0,1,10.794,30.672Z" transform="translate(6.947 9.238)" fill="#2baab7"/>
    <path id="Path_16973" data-name="Path 16973" d="M33.376,63.377a30,30,0,1,0-30-30A30,30,0,0,0,33.376,63.377Zm0-4.616A25.375,25.375,0,0,1,15.433,15.433,25.375,25.375,0,1,1,51.319,51.319,25.167,25.167,0,0,1,33.376,58.761Z" transform="translate(0 0)" fill="#2baab7"/>
  </g>
</svg>
