<svg xmlns="http://www.w3.org/2000/svg" width="16" height="20.027" viewBox="0 0 16 20.027">
  <g id="Icon_ionic-ios-notifications-outline" data-name="Icon ionic-ios-notifications-outline" transform="translate(-6.775 -3.93)">
    <path id="Path_12287" data-name="Path 12287" d="M18.736,28.336a.648.648,0,0,0-.636.511,1.254,1.254,0,0,1-.25.546.946.946,0,0,1-.806.3.962.962,0,0,1-.806-.3,1.254,1.254,0,0,1-.25-.546.648.648,0,0,0-.636-.511h0a.653.653,0,0,0-.636.8,2.236,2.236,0,0,0,2.328,1.857,2.232,2.232,0,0,0,2.328-1.857.655.655,0,0,0-.636-.8Z" transform="translate(-2.284 -7.032)" fill="#0c6094"/>
    <path id="Path_12288" data-name="Path 12288" d="M22.574,18.762c-.771-1.016-2.287-1.612-2.287-6.162,0-4.67-2.062-6.547-3.984-7-.18-.045-.31-.105-.31-.3V5.162a1.228,1.228,0,0,0-1.2-1.231h-.03a1.228,1.228,0,0,0-1.2,1.231v.145c0,.185-.13.25-.31.3-1.927.455-3.984,2.328-3.984,7,0,4.55-1.517,5.141-2.287,6.162a.994.994,0,0,0,.8,1.592h14.02A.994.994,0,0,0,22.574,18.762Zm-1.952.29H8.95a.219.219,0,0,1-.165-.365,6.064,6.064,0,0,0,1.051-1.672,11.343,11.343,0,0,0,.716-4.415A7.676,7.676,0,0,1,11.6,8.255a3.212,3.212,0,0,1,1.937-1.381,1.754,1.754,0,0,0,.931-.526.4.4,0,0,1,.6-.01A1.813,1.813,0,0,0,16,6.874a3.212,3.212,0,0,1,1.937,1.381A7.676,7.676,0,0,1,18.985,12.6a11.343,11.343,0,0,0,.716,4.415,6.133,6.133,0,0,0,1.076,1.7A.207.207,0,0,1,20.622,19.052Z" transform="translate(0 0)" fill="#0c6094"/>
  </g>
</svg>
