<svg id="Group_13057" data-name="Group 13057" xmlns="http://www.w3.org/2000/svg" width="22.084" height="19.407" viewBox="0 0 22.084 19.407">
  <path id="Path_17005" data-name="Path 17005" d="M272.355-31.4a1.633,1.633,0,0,0-.179.107q-3.488,2.718-6.977,5.435a.507.507,0,0,1-.287.108q-7.25.008-14.5,0h-.143v-7.769h.229c1.374,0,2.747,0,4.121,0a.591.591,0,0,0,.462-.168,4.7,4.7,0,0,1,.545-.457.351.351,0,0,0,.156-.323q-.006-3.733,0-7.465v-3.229h15.539v.247q0,5.933,0,11.867a.364.364,0,0,0,.176.353,2.229,2.229,0,0,1,.863,1.2Zm-6.223-12.464v5.152h-5.181v-5.147h-3.863v8.969c.1-.02.183-.034.266-.054a4.431,4.431,0,0,1,2.216.043,4.523,4.523,0,0,1,1.9,1.057,1.213,1.213,0,0,0,.894.335c1.179-.016,2.359-.006,3.538-.006h.225a4.085,4.085,0,0,1-.306,2.037c.106-.065.165-.1.222-.137q.847-.557,1.692-1.115a3.162,3.162,0,0,1,1.413-.547,8.12,8.12,0,0,1,.862-.005V-43.866ZM255.781-27.05c.066,0,.1.007.136.007q4.284,0,8.567,0a.525.525,0,0,0,.288-.109q1.993-1.495,3.98-3l1.969-1.488a.967.967,0,0,0-.1-.075,1.921,1.921,0,0,0-2.172.068c-.969.632-1.932,1.275-2.9,1.9a.694.694,0,0,1-.356.108c-1.546.007-3.093,0-4.64,0h-.225v-1.3h.253c.763,0,1.525.006,2.288,0a1.894,1.894,0,0,0,1.834-1.3h-.235c-.755,0-1.511,0-2.266,0a1.973,1.973,0,0,1-1.305-.425c-.173-.141-.34-.288-.517-.424a3.2,3.2,0,0,0-2.7-.626,3.635,3.635,0,0,0-1.743.98.424.424,0,0,0-.161.346c.006,1.7,0,3.4,0,5.093Zm-4.219-5.163v5.158h2.91v-5.158ZM264.83-40v-3.858h-2.563V-40Z" transform="translate(-250.271 45.155)" fill="#0c6094"/>
</svg>
