<svg xmlns="http://www.w3.org/2000/svg" width="26.033" height="24.792" viewBox="0 0 26.033 24.792">
  <g id="Group_13688" data-name="Group 13688" transform="translate(-33.983 -206.604)">
    <path id="Path_16937" data-name="Path 16937" d="M-484.017,89.513c-.074.354-.128.715-.226,1.062a6,6,0,0,1-5.814,4.377h-.271v.3q0,4.563,0,9.125a3.292,3.292,0,0,1-2.7,3.31,5.661,5.661,0,0,1-1.062.065q-6.279.006-12.557,0a3.331,3.331,0,0,1-3.4-3.391q0-.839,0-1.678c0-.379.137-.517.523-.519.856,0,1.712,0,2.567,0h.308c.006-.1.015-.19.016-.278q.05-7.142.1-14.285c0-.567.115-.677.689-.677q4.969,0,9.939,0a.329.329,0,0,0,.367-.244,6.039,6.039,0,0,1,5.705-3.72,6.008,6.008,0,0,1,5.773,5.263,1.063,1.063,0,0,0,.047.166Zm-21.772,12.651h9.129c.409,0,.532.123.533.529,0,.593-.009,1.186,0,1.779a2.471,2.471,0,0,0,2.488,2.431,2.442,2.442,0,0,0,2.45-2.435c.014-3.143,0-6.286.009-9.429,0-.158-.051-.212-.2-.25a5.867,5.867,0,0,1-3.534-2.433.328.328,0,0,0-.312-.157c-.923,0-1.847,0-2.77,0-.474,0-.949.006-1.423,0a.424.424,0,0,1-.446-.554.465.465,0,0,1,.507-.3c.966,0,1.932,0,2.9,0h.973a6.136,6.136,0,0,1-.4-3.556h-9.806C-505.725,92.584-505.757,97.352-505.79,102.164Zm15.772-8.059a5.136,5.136,0,0,0,5.153-5.124,5.14,5.14,0,0,0-5.091-5.16,5.148,5.148,0,0,0-5.194,5.113A5.141,5.141,0,0,0-490.018,94.1Zm-19.181,8.91c0,.5-.015.993,0,1.481a2.45,2.45,0,0,0,2.481,2.406q5.311.008,10.621,0a.537.537,0,0,0,.111-.012,8.294,8.294,0,0,1-.731-1.227,4.927,4.927,0,0,1-.256-1.333c-.041-.433-.009-.873-.009-1.317Z" transform="translate(544.033 123.642)" fill="#74c1c9"/>
    <path id="Path_16938" data-name="Path 16938" d="M-314.707,381.85c-.907,0-1.813,0-2.72,0-.287,0-.463-.143-.485-.379-.025-.271.16-.46.477-.464.517-.006,1.034,0,1.551,0h3.787c.076,0,.153,0,.229,0a.423.423,0,0,1,.414.429.417.417,0,0,1-.431.41c-.491.008-.983,0-1.474,0Z" transform="translate(362.063 -158.63)" fill="#74c1c9"/>
    <path id="Path_16939" data-name="Path 16939" d="M-314.769,311.39c.923,0,1.847,0,2.77,0a.414.414,0,0,1,.457.406.419.419,0,0,1-.439.427c-.076,0-.152,0-.229,0h-3.66c-.551,0-1.1,0-1.652,0a.427.427,0,0,1-.467-.311.414.414,0,0,1,.449-.524C-316.616,311.387-315.693,311.39-314.769,311.39Z" transform="translate(362.15 -92.699)" fill="#74c1c9"/>
    <path id="Path_16940" data-name="Path 16940" d="M-384.062,226.586A1.331,1.331,0,0,1-385.4,227.9a1.345,1.345,0,0,1-1.361-1.319,1.343,1.343,0,0,1,1.354-1.3A1.33,1.33,0,0,1-384.062,226.586Zm-1.354.463a.49.49,0,0,0,.516-.45.486.486,0,0,0-.5-.469.482.482,0,0,0-.512.449A.478.478,0,0,0-385.416,227.048Z" transform="translate(427.266 -11.146)" fill="#74c1c9"/>
    <path id="Path_16941" data-name="Path 16941" d="M-384.06,295.906a1.33,1.33,0,0,1-1.336,1.312,1.345,1.345,0,0,1-1.36-1.319,1.341,1.341,0,0,1,1.355-1.3A1.326,1.326,0,0,1-384.06,295.906Zm-1.335.459a.482.482,0,0,0,.5-.466.5.5,0,0,0-.515-.452.482.482,0,0,0-.493.47A.479.479,0,0,0-385.4,296.365Z" transform="translate(427.264 -76.799)" fill="#74c1c9"/>
    <path id="Path_16942" data-name="Path 16942" d="M-384.059,365.276a1.327,1.327,0,0,1-1.334,1.313,1.341,1.341,0,0,1-1.363-1.315,1.333,1.333,0,0,1,1.353-1.3A1.316,1.316,0,0,1-384.059,365.276Zm-1.345.461a.484.484,0,0,0,.507-.456.5.5,0,0,0-.506-.463.487.487,0,0,0-.5.462A.475.475,0,0,0-385.4,365.737Z" transform="translate(427.262 -142.506)" fill="#74c1c9"/>
    <path id="Path_16943" data-name="Path 16943" d="M-163.113,129.161c0,.167.01.32,0,.471a.394.394,0,0,1-.407.371c-.22,0-.432-.149-.4-.363.05-.4-.145-.551-.47-.722a1.613,1.613,0,0,1-.865-1.432c-.014-.3.131-.482.384-.5s.412.137.448.439a.942.942,0,0,0,.865.908.934.934,0,0,0,.976-.652.932.932,0,0,0-.733-1.2c-.217-.036-.441-.039-.652-.1a1.758,1.758,0,0,1-1.28-1.487,1.734,1.734,0,0,1,.961-1.8c.268-.123.39-.248.36-.552a.381.381,0,0,1,.369-.431.391.391,0,0,1,.448.428c-.02.292.086.405.357.519a1.7,1.7,0,0,1,1.056,1.5.441.441,0,0,1-.378.536c-.252.026-.433-.15-.468-.455a.928.928,0,0,0-1.022-.9.946.946,0,0,0-.859.939.958.958,0,0,0,.944.94,1.78,1.78,0,0,1,1.775,1.569,1.8,1.8,0,0,1-1.275,1.93Z" transform="translate(217.49 86.566)" fill="#74c1c9"/>
  </g>
</svg>
