<svg xmlns="http://www.w3.org/2000/svg" width="25.204" height="25" viewBox="0 0 25.204 25">
  <g id="XMLID_481_" transform="translate(0 -1.378)">
    <g id="Group_12656" data-name="Group 12656" transform="translate(0 1.378)">
      <g id="Group_12655" data-name="Group 12655" transform="translate(0 0)">
        <path id="Path_16278" data-name="Path 16278" d="M59.546,1.378A8.853,8.853,0,0,0,50.7,10.221,8.734,8.734,0,0,0,52.61,15.7c1.591,2.006,6.209,6.76,6.4,6.962l.531.547.532-.547c.2-.2,4.815-4.957,6.407-6.963a8.731,8.731,0,0,0,1.905-5.479A8.853,8.853,0,0,0,59.546,1.378Zm5.776,13.4c-1.234,1.556-4.492,4.967-5.776,6.3-1.284-1.334-4.541-4.743-5.775-6.3a7.265,7.265,0,0,1-1.586-4.559,7.361,7.361,0,0,1,14.722,0A7.263,7.263,0,0,1,65.323,14.779Z" transform="translate(-46.944 -1.378)" fill="#0c6094"/>
        <path id="Path_16279" data-name="Path 16279" d="M103.8,47.88a5.3,5.3,0,1,0,5.3,5.3A5.306,5.306,0,0,0,103.8,47.88Zm0,9.117a3.817,3.817,0,1,1,3.817-3.817A3.822,3.822,0,0,1,103.8,57Z" transform="translate(-91.203 -44.433)" fill="#0c6094"/>
        <path id="Path_16280" data-name="Path 16280" d="M298.758,45.535l-1.148.938a7.369,7.369,0,0,1,1.66,4.651,7.263,7.263,0,0,1-1.585,4.557l1.162.921a8.732,8.732,0,0,0,1.905-5.479A8.855,8.855,0,0,0,298.758,45.535Z" transform="translate(-275.548 -42.262)" fill="#0c6094"/>
        <path id="Path_16281" data-name="Path 16281" d="M1.995,45.535A8.855,8.855,0,0,0,0,51.124,8.731,8.731,0,0,0,1.905,56.6l1.162-.921a7.263,7.263,0,0,1-1.584-4.557,7.369,7.369,0,0,1,1.66-4.651Z" transform="translate(0 -42.262)" fill="#0c6094"/>
        <rect id="Rectangle_18677" data-name="Rectangle 18677" width="8.896" height="1.483" transform="translate(8.154 23.517)" fill="#0c6094"/>
      </g>
    </g>
  </g>
</svg>
