<svg id="Group_13074" data-name="Group 13074" xmlns="http://www.w3.org/2000/svg" xmlns:xlink="http://www.w3.org/1999/xlink" width="24.301" height="21" viewBox="0 0 24.301 21">
  <defs>
    <clipPath id="clip-path">
      <rect id="Rectangle_18753" data-name="Rectangle 18753" width="24.301" height="21" fill="#0c6094" stroke="#0c6094" stroke-width="0.4"/>
    </clipPath>
  </defs>
  <g id="Group_13073" data-name="Group 13073" clip-path="url(#clip-path)">
    <path id="Path_17026" data-name="Path 17026" d="M1.564,15.267v-.352q0-7.132,0-14.263c0-.1,0-.2,0-.293A.349.349,0,0,1,1.929,0C2,0,2.076,0,2.15,0H22.166c.5,0,.582.081.582.58q0,7.168,0,14.337v.349c.375,0,.73,0,1.085,0s.477.115.466.487a3.121,3.121,0,0,1-3.112,2.964q-.966.012-1.933,0c-.171,0-.228.047-.265.221a2.518,2.518,0,0,1-2.508,2.056c-1.672.01-3.344.007-5.016,0a2.453,2.453,0,0,1-2.009-.989c-.282-.359-.572-.712-.845-1.078a.4.4,0,0,0-.369-.176q-2.545.007-5.09,0A3.067,3.067,0,0,1,.047,16.12c-.12-.735-.046-.892.7-.855.26.013.52,0,.813,0m4.122-.01c-.08-.1-.132-.158-.182-.221A1.229,1.229,0,0,1,5.55,13.4,2.139,2.139,0,0,1,7,12.723a2.368,2.368,0,0,1,1.918.959l.2.228V12.095c0-1.688,0-3.377,0-5.065a1.516,1.516,0,0,1,3.032,0c.008.847,0,1.693,0,2.565a1.53,1.53,0,0,1,2.1.535,1.646,1.646,0,0,1,1.5-.215,1.449,1.449,0,0,1,.973,1.119,1.556,1.556,0,0,1,2.311,1.514c-.049.813-.009,1.631-.009,2.446v.254h2.948V.782H2.334V15.257Zm4.226-4.245v1.517c0,.816,0,1.631,0,2.447a.392.392,0,0,1-.245.41.364.364,0,0,1-.453-.139c-.123-.152-.233-.315-.361-.462a10.066,10.066,0,0,0-.9-.991,1.229,1.229,0,0,0-1.581-.1c-.409.257-.459.545-.157.933,1.244,1.6,2.494,3.2,3.732,4.813a2.009,2.009,0,0,0,1.706.834c1.55-.01,3.1,0,4.649,0a1.83,1.83,0,0,0,1.97-1.968q0-2.9,0-5.8c0-.073,0-.147,0-.22a.757.757,0,0,0-.807-.686.7.7,0,0,0-.707.72c0,.155.008.311-.007.465a.364.364,0,0,1-.572.29.58.58,0,0,1-.18-.393c-.023-.472,0-.946-.015-1.418a.7.7,0,0,0-.72-.709.73.73,0,0,0-.791.8c-.008.465,0,.93-.005,1.394a.357.357,0,0,1-.468.378.35.35,0,0,1-.28-.4c0-.6.008-1.207,0-1.81a.753.753,0,0,0-1.068-.72.733.733,0,0,0-.45.767q.01.88,0,1.761a.364.364,0,0,1-.381.413c-.235,0-.37-.143-.383-.412,0-.073,0-.147,0-.22q0-2.7,0-5.407a.761.761,0,1,0-1.517,0c0,1.3,0,2.61,0,3.915m-2.073,6.98c-.056-.083-.092-.144-.136-.2-.413-.525-.831-1.046-1.237-1.576a.456.456,0,0,0-.409-.2c-1.67.008-3.34,0-5.01,0-.085,0-.17.008-.276.013.026.109.04.188.064.265A2.394,2.394,0,0,0,3.124,18c1.515.008,3.031,0,4.546,0,.046,0,.091-.005.169-.009m11.239-1.953v1.936c.817,0,1.627.06,2.423-.015a2.244,2.244,0,0,0,1.979-1.682,2.136,2.136,0,0,0,.051-.238Z" transform="translate(0 0)" fill="#0c6094" stroke="#0c6094" stroke-width="0.4"/>
    <path id="Path_17027" data-name="Path 17027" d="M116.813,24.375h2.64c.2,0,.38.031.444.257a.37.37,0,0,1-.4.5c-.668,0-1.336,0-2,0-1.092,0-2.184.006-3.276-.007a.608.608,0,0,1-.4-.159.412.412,0,0,1-.036-.376.44.44,0,0,1,.319-.2c.447-.024.9-.011,1.344-.011h1.369" transform="translate(-99.028 -21.217)" fill="#0c6094" stroke="#0c6094" stroke-width="0.4"/>
    <path id="Path_17028" data-name="Path 17028" d="M122.164,45.678q-1.124,0-2.248,0c-.216,0-.389-.056-.432-.3-.048-.279.108-.45.423-.451.936,0,1.873,0,2.809,0,.578,0,1.156,0,1.735,0,.283,0,.439.138.443.375s-.141.374-.434.375c-.765,0-1.531,0-2.3,0" transform="translate(-104.011 -39.11)" fill="#0c6094" stroke="#0c6094" stroke-width="0.4"/>
    <path id="Path_17029" data-name="Path 17029" d="M133.165,66.18c-.5,0-1.009,0-1.514,0-.3,0-.444-.153-.425-.411a.338.338,0,0,1,.366-.346q1.574-.009,3.149,0a.364.364,0,0,1,.381.388.351.351,0,0,1-.395.368c-.521.008-1.042,0-1.562,0" transform="translate(-114.239 -56.95)" fill="#0c6094" stroke="#0c6094" stroke-width="0.4"/>
    <path id="Path_17030" data-name="Path 17030" d="M32.866,65.419c.407,0,.814,0,1.221,0,.308,0,.467.128.473.371s-.155.389-.455.39q-1.258.005-2.515,0c-.3,0-.455-.147-.446-.4s.161-.363.452-.364c.423,0,.847,0,1.27,0" transform="translate(-27.112 -56.951)" fill="#0c6094" stroke="#0c6094" stroke-width="0.4"/>
    <path id="Path_17031" data-name="Path 17031" d="M32.845,44.924c.431,0,.863,0,1.294,0,.268,0,.419.138.423.367a.363.363,0,0,1-.409.381q-1.306.007-2.612,0a.353.353,0,0,1-.4-.366.359.359,0,0,1,.406-.381c.431-.005.862,0,1.294,0" transform="translate(-27.114 -39.109)" fill="#0c6094" stroke="#0c6094" stroke-width="0.4"/>
    <path id="Path_17032" data-name="Path 17032" d="M62.346,19.276a.912.912,0,0,1,.254.209c.228.355.439.722.644,1.092a.374.374,0,0,1-.138.529.369.369,0,0,1-.527-.14c-.227-.366-.447-.736-.654-1.114-.142-.261.054-.575.421-.575" transform="translate(-53.87 -16.781)" fill="#0c6094" stroke="#0c6094" stroke-width="0.4"/>
    <path id="Path_17033" data-name="Path 17033" d="M91.63,19.861c0,.008,0,.018,0,.024-.261.466-.51.939-.8,1.387-.042.066-.293.05-.415,0a.3.3,0,0,1-.154-.415,13.521,13.521,0,0,1,.69-1.235.446.446,0,0,1,.4-.115c.128.038.219.2.326.309l-.048.046" transform="translate(-78.549 -16.972)" fill="#0c6094" stroke="#0c6094" stroke-width="0.4"/>
    <path id="Path_17034" data-name="Path 17034" d="M78.7,17.7c0-.2-.008-.407,0-.609a.351.351,0,0,1,.38-.356.346.346,0,0,1,.361.351q.014.634,0,1.267a.35.35,0,0,1-.381.356.357.357,0,0,1-.363-.351c0-.016,0-.032,0-.049q0-.3,0-.609h0" transform="translate(-68.508 -14.572)" fill="#0c6094" stroke="#0c6094" stroke-width="0.4"/>
    <path id="Path_17035" data-name="Path 17035" d="M109.954,125.034c-.343.011-.525-.138-.5-.408.021-.214.155-.321.428-.34A1.818,1.818,0,0,0,111.571,123a2.665,2.665,0,0,0,.081-.5c.026-.269.156-.409.39-.4a.381.381,0,0,1,.373.424,2.581,2.581,0,0,1-2.462,2.522" transform="translate(-95.286 -106.286)" fill="#0c6094" stroke="#0c6094" stroke-width="0.4"/>
  </g>
</svg>
