<svg xmlns="http://www.w3.org/2000/svg" width="18.721" height="17.293" viewBox="0 0 18.721 17.293">
  <path id="Icon_ionic-ios-search" data-name="Icon ionic-ios-search" d="M23,20.534l-5.207-4.853a6.556,6.556,0,0,0,1.633-4.3,7.192,7.192,0,0,0-7.464-6.888A7.2,7.2,0,0,0,4.5,11.386a7.192,7.192,0,0,0,7.464,6.888,7.827,7.827,0,0,0,4.7-1.54l5.173,4.822a.849.849,0,0,0,1.131.027A.705.705,0,0,0,23,20.534ZM11.964,16.793A6.076,6.076,0,0,1,7.82,15.208a5.115,5.115,0,0,1,0-7.645,6.21,6.21,0,0,1,8.288,0,5.115,5.115,0,0,1,0,7.645A6.076,6.076,0,0,1,11.964,16.793Z" transform="translate(-4.5 -4.493)" fill="#babcc0"/>
</svg>
