<svg xmlns="http://www.w3.org/2000/svg" width="17.554" height="19.382" viewBox="0 0 17.554 19.382">
  <path id="Icon_ionic-md-share" data-name="Icon ionic-md-share" d="M19.12,16.827a2.665,2.665,0,0,0-1.907.73l-6.992-4.042a3.275,3.275,0,0,0,.1-.682,3.273,3.273,0,0,0-.1-.682l6.895-3.993a2.926,2.926,0,1,0-.929-2.143,3.255,3.255,0,0,0,.1.682L9.39,10.691a2.943,2.943,0,0,0-2-.779A2.9,2.9,0,0,0,4.5,12.834a2.944,2.944,0,0,0,4.939,2.143l6.943,4.042a2.443,2.443,0,0,0-.1.633,2.836,2.836,0,1,0,2.836-2.824Z" transform="translate(-4.5 -3.094)" fill="#0c6094"/>
</svg>
