<svg xmlns="http://www.w3.org/2000/svg" width="130.941" height="105.809" viewBox="0 0 130.941 105.809">
  <g id="Group_9907" data-name="Group 9907" transform="translate(897.657 -179.133)">
    <path id="Path_12614" data-name="Path 12614" d="M-791.848,232.038a52.964,52.964,0,0,1-52.9,52.9,52.945,52.945,0,0,1-52.912-52.906,52.965,52.965,0,0,1,52.9-52.9,52.7,52.7,0,0,1,35.609,13.812,53.172,53.172,0,0,1,4.128,4.2q.866.985,1.684,2.012a.431.431,0,0,1-.078.611l-8.6,6.5a.431.431,0,0,1-.6-.076c-.136-.172-.332-.413-.6-.735a41.466,41.466,0,0,0-4.243-4.342A41.094,41.094,0,0,0-844.5,190.776a41.2,41.2,0,0,0-41.519,41.182A41.308,41.308,0,0,0-844.752,273.3c22.54,0,40.906-17.35,41.245-39.8a1.075,1.075,0,0,1,.4-.823c1.721-1.39,8.587-6.949,10.281-8.321a.278.278,0,0,1,.451.176A53.123,53.123,0,0,1-791.848,232.038Z" fill="#2baab7"/>
    <path id="Path_12615" data-name="Path 12615" d="M-484.733,311.172a133.208,133.208,0,0,0-25.2,15.031c-3.468,2.551-6.85,5.214-10.1,7.9a318.861,318.861,0,0,0-33.811,32.758,6.818,6.818,0,0,1-5.161,2.365q-.323,0-.648-.031a6.812,6.812,0,0,1-5.261-3.392,143.36,143.36,0,0,0-17.028-22.944,6.812,6.812,0,0,1,.319-9.63,6.814,6.814,0,0,1,9.63.32,161.806,161.806,0,0,1,13.974,17.645,321.193,321.193,0,0,1,33.065-30.671c3.025-2.4,6.15-4.772,9.346-7.049a142.565,142.565,0,0,1,25.456-14.806,6.812,6.812,0,0,1,8.961,3.542A6.814,6.814,0,0,1-484.733,311.172Z" transform="translate(-286.087 -108.439)" fill="#2baab7"/>
  </g>
</svg>
