<svg id="workspace-trusted-svgrepo-com" xmlns="http://www.w3.org/2000/svg" width="10.298" height="10.963" viewBox="0 0 10.298 10.963">
  <path id="Path_12427" data-name="Path 12427" d="M5.716,0a3.2,3.2,0,0,1,.522.039,2.813,2.813,0,0,1,.478.106,3.143,3.143,0,0,1,.462.18,4.884,4.884,0,0,1,.455.251,4.881,4.881,0,0,0,.773.4,5.172,5.172,0,0,0,1.6.36c.279.02.565.032.863.032V4.117a5.43,5.43,0,0,1-.2,1.486,6.173,6.173,0,0,1-.541,1.333A7.076,7.076,0,0,1,9.312,8.12,10.356,10.356,0,0,1,8.288,9.172a12.057,12.057,0,0,1-1.169.909c-.408.283-.819.546-1.231.784l-.165.1-.165-.1q-.635-.368-1.239-.784a10.691,10.691,0,0,1-1.169-.909A10.349,10.349,0,0,1,2.128,8.12a7.512,7.512,0,0,1-.819-1.184A6.693,6.693,0,0,1,.767,5.6a5.419,5.419,0,0,1-.2-1.486V1.372c.3,0,.585-.012.863-.032a5.6,5.6,0,0,0,.815-.117A4.916,4.916,0,0,0,3.034.98,4.5,4.5,0,0,0,3.8.58a3.746,3.746,0,0,1,.91-.436,3.287,3.287,0,0,1,1-.144Zm4.462,2.047a6.564,6.564,0,0,1-1.533-.259,5.462,5.462,0,0,1-1.4-.647A2.925,2.925,0,0,0,6.513.8,2.666,2.666,0,0,0,5.719.682,2.738,2.738,0,0,0,4.92.8a2.708,2.708,0,0,0-.726.345,5.439,5.439,0,0,1-1.407.65,6.927,6.927,0,0,1-1.53.259v2.07A4.8,4.8,0,0,0,1.434,5.43a5.888,5.888,0,0,0,.494,1.2A6.59,6.59,0,0,0,2.669,7.7a10.008,10.008,0,0,0,.921.948,10.853,10.853,0,0,0,1.035.828c.364.255.729.487,1.094.7q.56-.326,1.09-.7a10.56,10.56,0,0,0,1.039-.828A10.015,10.015,0,0,0,8.77,7.7a6.585,6.585,0,0,0,.741-1.079A5.667,5.667,0,0,0,10,5.43a4.676,4.676,0,0,0,.18-1.309V2.047Z" transform="translate(-0.571 0)" fill="#cb1e1e"/>
  <path id="Path_12428" data-name="Path 12428" d="M9.4,4.59l-.3-.259-.279.024L5.833,7.888,4.814,6.433l-.274-.047-.318.227-.047.274,1.31,1.871.149.082.314.019.161-.07L9.425,4.868,9.4,4.59Z" transform="translate(-1.701 -1.359)" fill="#cb1e1e" fill-rule="evenodd"/>
</svg>
