<svg xmlns="http://www.w3.org/2000/svg" width="13" height="13" viewBox="0 0 13 13">
  <g id="Icon_feather-check-square" data-name="Icon feather-check-square" transform="translate(-3 -3)">
    <path id="Path_13612" data-name="Path 13612" d="M14.05,16H4.95A1.952,1.952,0,0,1,3,14.05V4.95A1.952,1.952,0,0,1,4.95,3H12.1a.65.65,0,1,1,0,1.3H4.95a.651.651,0,0,0-.65.65v9.1a.651.651,0,0,0,.65.65h9.1a.651.651,0,0,0,.65-.65V9.5a.65.65,0,0,1,1.3,0v4.55A1.952,1.952,0,0,1,14.05,16Z" fill="#0c6094"/>
  </g>
</svg>
