<svg xmlns="http://www.w3.org/2000/svg" width="29.77" height="29.77" viewBox="0 0 29.77 29.77">
  <path id="Icon_awesome-arrow-alt-circle-up" data-name="Icon awesome-arrow-alt-circle-up" d="M.563,15.448A14.885,14.885,0,1,1,15.447,30.333,14.882,14.882,0,0,1,.563,15.448ZM18.088,22.41V15.448h4.255a.721.721,0,0,0,.51-1.23l-6.9-6.86a.714.714,0,0,0-1.014,0l-6.9,6.86a.72.72,0,0,0,.51,1.23h4.255V22.41a.722.722,0,0,0,.72.72h3.841A.722.722,0,0,0,18.088,22.41Z" transform="translate(-0.563 -0.563)" fill="#2baab7"/>
</svg>
