<svg xmlns="http://www.w3.org/2000/svg" width="17.38" height="15.276" viewBox="0 0 17.38 15.276">
  <g id="Group_13058" data-name="Group 13058" transform="translate(0 0)">
    <path id="Path_17006" data-name="Path 17006" d="M219.087-235.775v13.51a.594.594,0,0,1-.565.375q-6.6,0-13.2,0a.514.514,0,0,1-.559-.56c0-.435,0-.871,0-1.306v-.169h-.21q-1.145,0-2.291,0a.514.514,0,0,1-.52-.331.5.5,0,0,1,.163-.579,6.025,6.025,0,0,0,1.132-1.367,11.875,11.875,0,0,0,1.72-6.108c.025-1.085.005-2.172.006-3.258a.518.518,0,0,1,.577-.576h2.512c0-.165,0-.306,0-.447a.517.517,0,0,1,.514-.571.517.517,0,0,1,.5.564c0,.15,0,.3,0,.444h2.546c0-.155,0-.3,0-.447a.516.516,0,0,1,.507-.561.515.515,0,0,1,.511.557c0,.15,0,.3,0,.448h2.58c0-.166,0-.318,0-.47a.512.512,0,0,1,.5-.534.512.512,0,0,1,.518.533c0,.157,0,.314,0,.485h.2c.724,0,1.448.01,2.172,0A.646.646,0,0,1,219.087-235.775Zm-1.021,3.71H205.775a12.386,12.386,0,0,1-2.391,7.118h11.373c.608,0,.613,0,1-.475A11.212,11.212,0,0,0,218.067-232.065Zm-12.273-3.056v2.015H218.06v-2.012h-2.027c0,.157,0,.3,0,.45a.515.515,0,0,1-.511.557.516.516,0,0,1-.507-.561c0-.15,0-.3,0-.448h-2.58v.225c0,.542-.154.781-.5.784s-.513-.241-.513-.775v-.23H208.87c0,.165,0,.317,0,.469a.513.513,0,0,1-.515.536.512.512,0,0,1-.5-.531c0-.157,0-.314,0-.478Zm12.268,7.874c-.015.01-.028.013-.031.02-.023.045-.043.092-.065.138a9.753,9.753,0,0,1-1.986,2.931.792.792,0,0,1-.593.234q-4.7-.008-9.4,0h-.2v1.009h12.272Z" transform="translate(-201.707 237.166)" fill="#0c6094"/>
  </g>
</svg>
