<svg xmlns="http://www.w3.org/2000/svg" width="61.153" height="16.961" viewBox="0 0 61.153 16.961">
  <g id="Group_9603" data-name="Group 9603" transform="translate(3632 -375)">
    <path id="Path_12243" data-name="Path 12243" d="M201.419,78.658a1.4,1.4,0,0,1-1.405,1.454h-.024a1.388,1.388,0,0,1-1.382-1.454,1.4,1.4,0,0,1,1.406-1.429A1.387,1.387,0,0,1,201.419,78.658Zm-4.952-1.429a1.4,1.4,0,0,0-1.405,1.429,1.388,1.388,0,0,0,1.382,1.454h.023a1.443,1.443,0,0,0,0-2.883Zm31.279-10.667h.024a1.442,1.442,0,0,0,.024-2.883,1.432,1.432,0,0,0-1.43,1.429A1.4,1.4,0,0,0,227.746,66.562Zm.785,1.825h2.381v6.541c0,3.631-1.979,4.925-3.831,4.925H220.1A4.456,4.456,0,0,1,215.891,77L213.325,70.9c-.155-.414-.314-.646-.491-.722a.892.892,0,0,0-.661.092c-.506.225-.57.537-.268,1.331l2.413,5.513a2.13,2.13,0,0,1-.437,2.494c-1.052.861-2.5-.348-2.687-.452a21.82,21.82,0,0,0-5.657-2.773c-6.775-2.073-14.9-1.163-23.481,2.569l-.917-2.107c6.382-2.776,15.937-5.483,25.214-2.615a25.479,25.479,0,0,1,2.578.949c.159.069.87.453,1.022.523,0,0,.74.434,1.313.844.21.149.373.023.249-.2l-.818-1.456c-.042-.1-.346-.71-.385-.8-.6-1.43-.936-2.217-.984-2.42-.011-.044-.021-.088-.036-.141a2.276,2.276,0,0,1,.332-1.782,3.709,3.709,0,0,1,2.619-1.657c2.129-.369,3.007.66,3.368,1.588l2.657,6.641a2.466,2.466,0,0,0,2.38,1.3h5.742c1.2,0,1.845-.873,1.917-2.594a4.356,4.356,0,0,1-2.8.984,3.364,3.364,0,0,1-3.569-3.356C221.942,69.9,224.282,68.387,228.53,68.387Zm-.217,2.006c-3.374.07-3.774,1.189-3.774,2.039a1.361,1.361,0,0,0,1.447,1.495,2.271,2.271,0,0,0,2.247-1.549,1.4,1.4,0,0,0,.08-.493ZM213.274,80.64h0Zm25.185-.788h-6.125l.657-2.241h4.778c1.2,0,1.846-.873,1.917-2.594a4.352,4.352,0,0,1-2.8.984,3.364,3.364,0,0,1-3.57-3.356c0-2.746,2.34-4.259,6.589-4.259h2.382v6.541c0,3.631-1.98,4.925-3.832,4.925m1.233-9.459c-3.374.07-3.774,1.189-3.774,2.039a1.361,1.361,0,0,0,1.448,1.495,2.272,2.272,0,0,0,2.247-1.549,1.415,1.415,0,0,0,.079-.493Z" transform="translate(-3813.139 311.321)" fill="#1e1e1e" opacity="0.89"/>
  </g>
</svg>
