<svg xmlns="http://www.w3.org/2000/svg" width="17.41" height="17.18" viewBox="0 0 17.41 17.18">
  <g id="work-svgrepo-com_2_" data-name="work-svgrepo-com (2)" transform="translate(-2 -2)">
    <path id="Path_13996" data-name="Path 13996" d="M10.735,20.679H5.675a3.139,3.139,0,0,1-2.633-1.164,3.9,3.9,0,0,1-.832-2.191c-.028-.472-.152-1.99-.154-2.005a.546.546,0,1,1,1.088-.089c.005.063.126,1.545.155,2.029a2.814,2.814,0,0,0,.582,1.56,2.084,2.084,0,0,0,1.8.769c1.087,0,9.03,0,10.117,0a2.083,2.083,0,0,0,1.794-.768,2.822,2.822,0,0,0,.584-1.561c.028-.483.149-1.965.154-2.028a.546.546,0,1,1,1.088.089c0,.015-.125,1.533-.153,2a3.911,3.911,0,0,1-.834,2.193A3.138,3.138,0,0,1,15.8,20.678Z" transform="translate(-0.006 -1.498)" fill="#0c6094" opacity="0.4"/>
    <path id="Path_13997" data-name="Path 13997" d="M14.467,5.368a.546.546,0,0,1-.546-.544V4.5a1.4,1.4,0,0,0-1.4-1.4H10.24a1.4,1.4,0,0,0-1.4,1.4v.327a.546.546,0,1,1-1.092,0V4.494A2.5,2.5,0,0,1,10.24,2h2.278a2.5,2.5,0,0,1,2.494,2.494V4.82a.546.546,0,0,1-.544.547Z" transform="translate(-0.676 0)" fill="#0c6094"/>
    <path id="Path_13998" data-name="Path 13998" d="M11.791,16.868a.546.546,0,0,1-.546-.546V15.18a.546.546,0,0,1,1.092,0v1.142A.546.546,0,0,1,11.791,16.868Z" transform="translate(-1.088 -1.487)" fill="#0c6094"/>
    <path id="Path_13999" data-name="Path 13999" d="M5.252,4.581H16.162a3.237,3.237,0,0,1,3.243,3.244v3.059a.546.546,0,0,1-.245.455,15.025,15.025,0,0,1-6.2,2.3.546.546,0,0,1-.6-.406A1.707,1.707,0,0,0,10.7,11.954a1.726,1.726,0,0,0-1.681,1.282.546.546,0,0,1-.6.4,15.02,15.02,0,0,1-6.17-2.292A.546.546,0,0,1,2,10.884V7.825A3.252,3.252,0,0,1,5.252,4.581Zm13.062,6.005V7.825a2.154,2.154,0,0,0-2.151-2.152H5.252a2.159,2.159,0,0,0-2.16,2.152v2.761a13.921,13.921,0,0,0,5.044,1.9,2.855,2.855,0,0,1,.824-1.03,2.825,2.825,0,0,1,4.291,1.038A13.924,13.924,0,0,0,18.314,10.586Z" transform="translate(0 -0.304)" fill="#0c6094"/>
  </g>
</svg>
