<svg xmlns="http://www.w3.org/2000/svg" width="13.452" height="13.452" viewBox="0 0 13.452 13.452">
  <path id="Icon_material-my-location" data-name="Icon material-my-location" d="M8.226,5.78a2.446,2.446,0,1,0,2.446,2.446A2.445,2.445,0,0,0,8.226,5.78Zm5.466,1.834A5.5,5.5,0,0,0,8.837,2.76V1.5H7.615V2.76A5.5,5.5,0,0,0,2.76,7.615H1.5V8.838H2.76a5.5,5.5,0,0,0,4.855,4.855v1.26H8.837v-1.26a5.5,5.5,0,0,0,4.855-4.855h1.26V7.615ZM8.226,12.506a4.28,4.28,0,1,1,4.28-4.28A4.277,4.277,0,0,1,8.226,12.506Z" transform="translate(-1.5 -1.5)" fill="#babcc0"/>
</svg>
