<svg id="Group_13060" data-name="Group 13060" xmlns="http://www.w3.org/2000/svg" width="20.749" height="20.741" viewBox="0 0 20.749 20.741">
  <path id="Path_17015" data-name="Path 17015" d="M-287.739,268.655h-1.376v5.175h-.679v-6.54h.671v.664h.681c0-.058.012-.116.012-.174,0-1.411,0-2.821,0-4.232a1.714,1.714,0,0,0-1.313-1.746,2.233,2.233,0,0,0-.56-.063c-.9-.006-1.809,0-2.713,0h-.238v-.692h2.954a2.42,2.42,0,0,1,2.531,2.065.427.427,0,0,0,.031.074Z" transform="translate(308.488 -253.095)" fill="#0c6094"/>
  <path id="Path_17016" data-name="Path 17016" d="M-424.9,114.191a2.932,2.932,0,0,1,1.181.493,2.429,2.429,0,0,1,.764,2.869,2.427,2.427,0,0,1-2.571,1.454,2.42,2.42,0,0,1-2.056-2.117,2.407,2.407,0,0,1,2-2.663.773.773,0,0,0,.113-.037Zm-.274,4.143a1.734,1.734,0,0,0,1.718-1.733,1.745,1.745,0,0,0-1.738-1.718,1.748,1.748,0,0,0-1.718,1.738A1.732,1.732,0,0,0-425.172,118.334Z" transform="translate(435.558 -114.191)" fill="#0c6094"/>
  <path id="Path_17017" data-name="Path 17017" d="M-458.314,218.664h-1.362a.6.6,0,0,1-.023-.109c0-1.958-.025-3.917.013-5.875a3.007,3.007,0,0,1,2.8-2.985,16.865,16.865,0,0,1,2.831.025,3.007,3.007,0,0,1,2.627,2.853c.031,1.992.013,3.984.016,5.976a.974.974,0,0,1-.013.1h-1.369v6.557h-.678v-7.919h.669v.663h.688c0-.065.012-.135.012-.206,0-1.628,0-3.255,0-4.883a2.416,2.416,0,0,0-2.519-2.508c-.642,0-1.283,0-1.925,0a2.4,2.4,0,0,0-2.459,2.4c-.02,1.695-.005,3.39-.005,5.085a1.091,1.091,0,0,0,.012.112h.67v-.665h.69v7.921h-.679Z" transform="translate(465.928 -204.48)" fill="#0c6094"/>
  <path id="Path_17018" data-name="Path 17018" d="M-572.585,273.827h-.672v-5.169h-1.371c-.006-.072-.013-.124-.013-.175,0-1.668-.005-3.335,0-5a2.4,2.4,0,0,1,1.926-2.381,2.544,2.544,0,0,1,.522-.056c.979-.005,1.958,0,2.937,0,.039,0,.079.007.132.011v.68h-.435c-.851,0-1.7,0-2.552,0a1.7,1.7,0,0,0-1.654.985,1.868,1.868,0,0,0-.179.758c-.016,1.465-.008,2.93-.008,4.4a.625.625,0,0,0,.011.074h.671v-.658h.685Z" transform="translate(574.644 -253.09)" fill="#0c6094"/>
  <path id="Path_17019" data-name="Path 17019" d="M-289.385,180.119a2.1,2.1,0,0,1-2.075,2.077,2.1,2.1,0,0,1-2.075-2.075,2.094,2.094,0,0,1,2.073-2.077A2.1,2.1,0,0,1-289.385,180.119Zm-3.454,0a1.388,1.388,0,0,0,1.374,1.382,1.4,1.4,0,0,0,1.389-1.373,1.4,1.4,0,0,0-1.39-1.39A1.385,1.385,0,0,0-292.839,180.121Z" transform="translate(308.752 -174.587)" fill="#0c6094"/>
  <path id="Path_17020" data-name="Path 17020" d="M-544.937,180.149a2.092,2.092,0,0,1-2.1,2.049,2.1,2.1,0,0,1-2.048-2.123,2.1,2.1,0,0,1,2.1-2.028A2.091,2.091,0,0,1-544.937,180.149Zm-.694-.031a1.384,1.384,0,0,0-1.377-1.377,1.4,1.4,0,0,0-1.386,1.375A1.4,1.4,0,0,0-547,181.5,1.387,1.387,0,0,0-545.631,180.119Z" transform="translate(550.469 -174.59)" fill="#0c6094"/>
  <path id="Path_17021" data-name="Path 17021" d="M-484.193,382.965h-.683v-6.546h.67v.666h1.377v.7h-1.364Z" transform="translate(489.736 -362.224)" fill="#0c6094"/>
  <path id="Path_17022" data-name="Path 17022" d="M-316.882,382.865h-.668v-5.176h-1.383V377h1.368v-.689h.683Z" transform="translate(332.776 -362.123)" fill="#0c6094"/>
  <path id="Path_17023" data-name="Path 17023" d="M-389.06,376.286h.662v6.546h-.662Z" transform="translate(399.106 -362.098)" fill="#0c6094"/>
  <path id="Path_17024" data-name="Path 17024" d="M-516.189,406.984h-.664v-5.167h.664Z" transform="translate(519.981 -386.247)" fill="#0c6094"/>
  <path id="Path_17025" data-name="Path 17025" d="M-261.407,401.812h.666v5.16h-.666Z" transform="translate(278.364 -386.242)" fill="#0c6094"/>
</svg>
